<svg width="358" height="270" viewBox="0 0 358 270" fill="none" xmlns="http://www.w3.org/2000/svg">
<path d="M223.518 82.4942C230.115 78.1703 239.758 66.8328 244.904 64.1025C264.879 53.4754 289.148 53.8103 306.819 68.8628C317.618 78.0587 320.714 95.4659 320.075 109.036C319.964 109.838 320.04 110.655 320.298 111.422C320.691 112.139 321.243 112.757 321.912 113.228C330.864 120.679 333.584 132.879 331.646 144.206C330.357 151.738 327.139 158.822 323.424 165.521C318.501 174.392 311.061 184.725 300.678 187.425C300.089 187.536 299.523 187.746 299.003 188.044C298.131 188.795 297.513 189.799 297.237 190.917C290.822 207.157 272.481 204.66 259.733 198.265C258.464 218.453 237.575 225.173 221.305 228.878C211.723 231.05 201.827 231.476 192.093 230.136C189.505 229.791 165.176 221.823 165.439 221.559C160.745 226.128 155.135 229.649 148.98 231.89C142.825 234.132 136.265 235.042 129.732 234.562C123.658 234.159 117.756 232.375 112.477 229.344C111.279 228.654 98.2667 218.179 99.6877 217.408C78.799 229.152 49.0595 220.595 37.59 199.554C31.6827 188.704 31.5 173.022 41.65 165.998C28.2216 158.893 22.9436 141.07 27.1152 126.464C32.1902 108.661 49.7294 93.2431 67.228 87.894C84.7266 82.545 105.727 75.7141 124.068 80.9312C130.94 75.1152 138.034 69.0252 146.52 65.9802C155.005 62.9352 165.45 63.3514 172.159 69.4312C178.371 64.5288 187.323 64.3562 194.763 67.1069C201.756 69.6342 213.185 84.301 219.407 84.1589C220.9 83.9777 222.319 83.4033 223.518 82.4942V82.4942Z" fill="white"/>
<path d="M133.051 235.171C131.934 235.171 130.818 235.171 129.712 235.059C123.552 234.649 117.568 232.841 112.213 229.771C111.604 229.426 100.885 221.143 99.2716 218.2C89.2942 223.549 76.8402 224.675 64.9545 221.245C52.7745 217.753 42.6245 209.927 37.1334 199.777C29.6021 185.943 33.0734 171.987 40.7366 166.039C27.024 158.244 22.7813 139.862 26.6586 126.302C31.49 109.432 48.5014 93.0807 67.1063 87.4271L69.3698 86.7369C86.706 81.4589 106.336 75.4704 123.926 80.3932C130.412 74.8513 137.76 68.6192 146.388 65.5031C155.888 62.0826 165.967 63.3716 172.22 68.7816C179.091 63.6051 188.46 64.2547 194.976 66.6298C198.183 67.7869 202.081 71.2683 206.283 74.9629C211.115 79.2361 216.108 83.6513 219.356 83.6513H219.438C220.822 83.4568 222.133 82.9078 223.244 82.0578C226.431 79.9669 230.349 76.2114 234.155 72.5675C238.215 68.7105 241.981 65.0768 244.66 63.6457C266.229 52.166 290.173 54.0133 307.154 68.4568C320.856 80.1293 320.897 102.48 320.592 109.057C320.492 109.779 320.554 110.514 320.775 111.209C321.123 111.834 321.609 112.372 322.196 112.782C330.631 119.806 334.376 131.559 332.153 144.247C331.037 150.743 328.408 157.564 323.881 165.714C316.776 178.422 309.275 185.669 300.82 187.872H300.658C300.177 187.963 299.715 188.131 299.288 188.369C298.574 188.993 298.065 189.817 297.826 190.734L297.714 191.008C295.552 196.509 291.919 200.265 286.915 202.173C279.86 204.873 269.913 203.675 260.19 198.955C258.474 218.372 238.621 225.345 221.427 229.284C211.773 231.482 201.8 231.912 191.992 230.552C190.601 230.359 183.679 228.208 177.66 226.259C169.388 223.579 166.495 222.544 165.48 222.077C156.775 230.478 145.149 235.172 133.051 235.171V235.171ZM100.104 217.672C100.723 219.367 111.269 228.045 112.72 228.898C117.943 231.888 123.778 233.648 129.783 234.044C136.243 234.524 142.731 233.627 148.819 231.412C154.906 229.197 160.454 225.714 165.094 221.194V221.194C165.189 221.101 165.317 221.049 165.45 221.049C165.582 221.049 165.71 221.101 165.805 221.194C167.388 221.996 189.678 229.314 192.195 229.639C201.867 230.974 211.702 230.551 221.224 228.39C253.704 220.981 258.617 208.385 259.256 198.235C259.26 198.151 259.285 198.069 259.33 197.998C259.374 197.927 259.436 197.869 259.51 197.829C259.583 197.789 259.665 197.768 259.748 197.768C259.832 197.768 259.914 197.789 259.987 197.829C269.67 202.691 279.617 204 286.58 201.341C291.299 199.534 294.7 195.971 296.791 190.744L296.892 190.48C297.199 189.362 297.849 188.368 298.75 187.638C299.268 187.333 299.834 187.117 300.424 186.999H300.587C308.758 184.867 316.096 177.782 323.018 165.339C327.484 157.29 330.123 150.57 331.138 144.186C333.249 131.833 329.677 120.435 321.577 113.736C320.837 113.21 320.235 112.514 319.821 111.706C319.536 110.903 319.443 110.045 319.547 109.199C320.511 88.8177 313.457 75.2573 306.474 69.3398C289.828 55.1298 266.31 53.3637 245.117 64.6404C242.559 66.0005 238.804 69.5936 234.835 73.3998C230.866 77.2061 227.04 80.8702 223.782 83.0017C222.519 83.9708 221.018 84.5809 219.438 84.7678H219.336C215.702 84.7678 210.79 80.4236 205.593 75.8257C201.685 72.3544 197.635 68.7816 194.611 67.7057C188.226 65.4016 179.071 64.7723 172.494 69.9691C172.403 70.047 172.288 70.0898 172.169 70.0898C172.05 70.0898 171.934 70.047 171.844 69.9691C165.886 64.5795 156.03 63.2701 146.713 66.6298C138.166 69.6748 130.838 75.9678 124.383 81.4995C124.32 81.5551 124.244 81.5937 124.163 81.6114C124.081 81.6292 123.996 81.6256 123.916 81.601C106.539 76.6275 86.9496 82.616 69.6743 87.8737L67.4007 88.5639C49.1307 94.116 32.373 110.173 27.6431 126.748C23.8064 140.146 28.0999 158.376 41.914 165.694C41.9929 165.732 42.06 165.791 42.1083 165.864C42.1565 165.937 42.1841 166.022 42.1881 166.11C42.1925 166.197 42.1743 166.284 42.1351 166.363C42.096 166.441 42.0373 166.508 41.9648 166.557C34.1594 171.956 30.5562 185.73 38.0266 199.453C43.4264 209.369 53.3429 217.012 65.2387 220.433C77.1345 223.853 89.5987 222.635 99.4239 217.104C99.5426 217.037 99.6826 217.02 99.8136 217.056C99.9446 217.093 100.056 217.179 100.124 217.296C100.165 217.42 100.158 217.554 100.104 217.672V217.672Z" fill="#1F2223"/>
<path d="M115.359 157.503C115.203 157.503 115.051 157.448 114.93 157.348C114.81 157.248 114.728 157.109 114.7 156.954C113.685 151.189 110.102 145.485 103.595 139.517C95.4796 132.108 85.9943 126.357 75.6728 122.587C67.4817 119.613 60.7726 118.953 55.1596 120.557C55.075 120.581 54.9863 120.589 54.8987 120.579C54.8111 120.57 54.7262 120.543 54.6489 120.501C54.5716 120.458 54.5034 120.401 54.4483 120.332C54.3931 120.263 54.352 120.184 54.3273 120.1C54.3027 120.015 54.2949 119.927 54.3045 119.839C54.3141 119.751 54.3409 119.666 54.3833 119.589C54.4258 119.512 54.483 119.444 54.5517 119.388C54.6205 119.333 54.6994 119.292 54.7841 119.268C60.6914 117.583 67.6644 118.253 76.0991 121.298C86.5918 125.141 96.2298 131.003 104.468 138.553C111.198 144.724 114.963 150.672 115.989 156.741C116.018 156.916 115.977 157.096 115.874 157.24C115.771 157.385 115.615 157.483 115.44 157.513L115.359 157.503Z" fill="#DEE5EB"/>
<path d="M140.43 96.1662L137.284 84.6257C137.284 84.6257 99.7285 90.7157 94.0648 94.8569C88.4011 98.9981 87.1628 102.195 81.4078 100.947H81.3164C78.5658 100.033 76.3023 96.9985 74.4855 94.8569C71.1966 90.9857 68.146 86.9182 65.3505 82.6769C62.8734 78.9802 60.6911 75.0943 58.824 71.0551C58.2759 69.8676 54.1246 60.4281 58.824 62.0724C57.4741 60.0424 60.5597 60.1134 61.5645 61.1487C61.4097 60.9702 61.2954 60.7602 61.2296 60.5332C61.1638 60.3063 61.148 60.0677 61.1833 59.8341C61.2186 59.6004 61.3041 59.3772 61.434 59.1798C61.564 58.9824 61.7351 58.8155 61.9358 58.6906C62.1364 58.5658 62.3618 58.4859 62.5963 58.4566C62.8308 58.4273 63.0688 58.4491 63.294 58.5207C63.5193 58.5923 63.7263 58.7119 63.9008 58.8712C64.0753 59.0305 64.2133 59.2258 64.305 59.4435C64.2211 59.2984 64.1689 59.1371 64.1518 58.9703C64.1347 58.8035 64.1532 58.6349 64.2059 58.4758C64.2586 58.3166 64.3445 58.1704 64.4578 58.0468C64.5711 57.9232 64.7093 57.825 64.8633 57.7586C65.1862 57.6451 65.5332 57.6181 65.8698 57.6805C66.2064 57.7428 66.5208 57.8922 66.7816 58.1139C67.2891 58.5706 67.7208 59.1051 68.0605 59.6973C70.1824 62.9697 72.6163 66.029 75.3279 68.8323C77.3579 70.8623 79.8041 74.3539 82.6562 75.1354C85.9245 76.0388 91.6796 73.6028 94.9073 72.943C100.104 71.928 105.291 70.7709 110.498 69.695C119.095 67.9188 127.702 66.1324 136.35 64.62C139.517 64.0719 142.693 63.5238 145.891 63.1787C147.2 63.0366 149.372 62.519 150.621 63.1787C154.681 65.2087 164.201 89.5687 164.201 89.5687" fill="white"/>
<path d="M83.6609 101.718C82.8516 101.713 82.0452 101.621 81.2554 101.444H81.1133C78.5961 100.612 76.4849 98.1149 74.7899 96.1154L74.059 95.2526C70.7669 91.384 67.7162 87.3163 64.9241 83.0726C62.4462 79.3269 60.2706 75.3898 58.4179 71.2986C57.6059 69.5325 55.0786 63.6557 56.6721 61.9099C56.8444 61.7262 57.0568 61.5849 57.2927 61.4968C57.5286 61.4088 57.7817 61.3765 58.0322 61.4024C58.0119 61.2129 58.0383 61.0214 58.109 60.8444C58.1798 60.6675 58.2928 60.5106 58.4382 60.3874C58.7724 60.1871 59.1464 60.0625 59.5339 60.0221C59.9214 59.9818 60.3131 60.0268 60.6813 60.1539C60.6813 60.0524 60.6813 59.9408 60.6813 59.8291C60.717 59.5148 60.8208 59.2121 60.9856 58.9421C61.1504 58.6721 61.3722 58.4414 61.6355 58.266C61.9084 58.104 62.2143 58.0053 62.5305 57.9772C62.8467 57.9491 63.1652 57.9923 63.4624 58.1036L63.7872 58.2457C63.965 57.8625 64.2749 57.5562 64.6601 57.383C65.0656 57.2299 65.5047 57.1888 65.9315 57.2638C66.3583 57.3388 66.7571 57.5272 67.086 57.8093C67.5945 58.2534 68.0266 58.778 68.3649 59.3622C70.4826 62.635 72.9131 65.6944 75.6222 68.4972C76.0383 68.9438 76.4849 69.4412 76.9518 69.969C78.6671 71.9076 80.6058 74.0899 82.7068 74.6684C84.8079 75.247 88.5228 74.2117 91.4359 73.3489C92.6437 72.9937 93.7805 72.6587 94.7244 72.476C97.7897 71.8467 100.835 71.2073 103.859 70.5577L110.254 69.2179C118.668 67.4822 127.377 65.6755 136.126 64.1429C139.07 63.6252 142.409 63.0467 145.708 62.6914C145.962 62.6914 146.256 62.6204 146.56 62.5798C147.9 62.3869 149.605 62.1433 150.722 62.7117C154.782 64.7417 163.562 86.818 164.546 89.325C164.576 89.3881 164.593 89.4567 164.595 89.5265C164.597 89.5962 164.585 89.6657 164.559 89.7306C164.534 89.7955 164.495 89.8543 164.445 89.9034C164.395 89.9526 164.336 89.9909 164.271 90.0161C164.206 90.0413 164.136 90.0528 164.067 90.0499C163.997 90.047 163.928 90.0297 163.866 89.9991C163.803 89.9685 163.747 89.9254 163.702 89.8722C163.657 89.8191 163.623 89.7572 163.602 89.6904C160.963 82.9813 153.452 65.2188 150.265 63.6252C149.402 63.1888 147.91 63.4121 146.713 63.6252L145.809 63.747C142.551 64.0921 139.232 64.6707 136.299 65.1883C127.56 66.7108 118.871 68.5175 110.467 70.2633L104.073 71.6031L94.8767 73.5215C93.9835 73.694 92.8467 74.029 91.6693 74.3741C88.4822 75.318 84.8688 76.4041 82.382 75.6936C79.8953 74.9831 77.9465 72.7298 76.1398 70.6998C75.6831 70.1821 75.2466 69.6848 74.8305 69.2585C72.0957 66.4157 69.6416 63.3158 67.5022 60.0017C67.1966 59.4562 66.8021 58.9657 66.3349 58.5502C66.1462 58.3852 65.9188 58.2706 65.6738 58.2174C65.4288 58.1641 65.1744 58.1739 64.9342 58.2457C64.8321 58.2962 64.7427 58.3689 64.6724 58.4584C64.6021 58.548 64.5529 58.6522 64.5282 58.7634C64.5109 58.8368 64.5109 58.9133 64.5282 58.9867C64.5899 59.0845 64.6377 59.1904 64.6703 59.3013C64.7049 59.4132 64.6998 59.5336 64.6558 59.6421C64.6118 59.7506 64.5316 59.8405 64.4289 59.8967C64.3261 59.9528 64.2071 59.9717 64.092 59.9502C63.9769 59.9286 63.8729 59.8679 63.7974 59.7784C63.7103 59.6684 63.6417 59.545 63.5944 59.413C63.4465 59.2206 63.2453 59.0759 63.0159 58.9968C62.8612 58.9386 62.6957 58.9148 62.531 58.9271C62.3662 58.9394 62.2061 58.9874 62.0618 59.0679C61.9302 59.1664 61.82 59.2904 61.7376 59.4326C61.6553 59.5748 61.6026 59.7322 61.5827 59.8953C61.5628 60.0584 61.5761 60.2239 61.6218 60.3817C61.6675 60.5395 61.7446 60.6865 61.8486 60.8137C61.9301 60.9125 61.9713 61.0385 61.9638 61.1663C61.9563 61.2942 61.9008 61.4145 61.8083 61.5031C61.7158 61.5917 61.5933 61.6421 61.4652 61.6441C61.3371 61.6462 61.213 61.5997 61.1178 61.514C60.8262 61.2636 60.4734 61.095 60.0954 61.0254C59.7173 60.9559 59.3276 60.9879 58.966 61.1182C58.8036 61.2501 59.0979 61.7069 59.1588 61.7982C59.2231 61.8829 59.2578 61.9863 59.2578 62.0926C59.2578 62.1989 59.2231 62.3022 59.1588 62.3869C59.0942 62.4718 59.0046 62.5341 58.9025 62.5651C58.8005 62.596 58.6913 62.5941 58.5905 62.5595C58.154 62.4072 57.5754 62.2854 57.3115 62.5595C56.4894 63.4628 57.6871 67.5025 59.2197 70.8419C61.0548 74.8828 63.2065 78.7722 65.6549 82.4738C68.449 86.6869 71.4998 90.7241 74.7899 94.5624L75.5308 95.4353C77.1345 97.3435 79.1442 99.7085 81.3975 100.51C85.4575 101.404 87.1221 99.9927 90.0859 97.4653C91.1009 96.5823 92.2478 95.5977 93.6891 94.5421C99.363 90.3603 135.578 84.4632 137.121 84.2196C137.245 84.1952 137.373 84.2196 137.479 84.2877C137.585 84.3559 137.66 84.4624 137.689 84.585L140.836 96.1255C140.853 96.1922 140.857 96.2616 140.848 96.3298C140.838 96.398 140.815 96.4637 140.781 96.523C140.746 96.5824 140.699 96.6344 140.645 96.6759C140.59 96.7174 140.527 96.7477 140.46 96.765C140.394 96.7823 140.324 96.7864 140.256 96.7769C140.188 96.7674 140.122 96.7445 140.063 96.7096C140.003 96.6748 139.952 96.6286 139.91 96.5736C139.869 96.5187 139.838 96.4561 139.821 96.3894L136.776 85.2853C132.503 85.9958 99.3732 91.5682 94.2271 95.3541C92.8264 96.3691 91.6896 97.3841 90.6847 98.2266C88.3807 100.216 86.6349 101.718 83.6609 101.718Z" fill="#1F2223"/>
<path d="M237.941 85.5798L248.933 89.1627L268.411 79.1041L261.123 74.1001L266.909 64.8129C266.909 64.8129 306.595 76.2418 310.036 84.0979C319.09 104.682 278.663 97.1305 256.16 113.533C256.16 113.533 233.759 140.633 207.765 156.67C207.765 156.67 184.613 134.604 174.473 114.182L195.91 88.2695C195.91 88.2695 184.664 51.2626 202.771 36.0478C208.059 31.5919 240.032 51.9325 240.032 51.9325L232.277 58.8751L219.975 56.3275V68.5988C219.975 68.5988 233.546 76.9117 237.941 85.5798Z" fill="#87FF53"/>
<path d="M268.685 61.1285V60.9762C268.562 60.4191 268.273 59.9123 267.857 59.5228C267.44 59.1332 266.915 58.8791 266.351 58.794C266.546 56.7165 266.309 54.6211 265.654 52.64C264.999 50.6588 263.94 48.8351 262.544 47.2839C261.164 45.7614 259.499 44.5332 258.099 43.0107C257.361 42.2899 256.779 41.4251 256.39 40.47C256.001 39.5149 255.812 38.4899 255.835 37.4587C254.965 38.2423 254.265 39.1961 253.778 40.261C253.291 41.3259 253.027 42.4794 253.004 43.6502C251.271 41.483 250.364 38.7707 250.446 35.9971C246.122 39.1436 241.473 42.7671 240.367 48.0045C239.707 45.8964 239.707 43.637 240.367 41.5288C237.088 43.1731 235.769 47.0809 234.764 50.6029C233.982 53.0753 233.405 55.6078 233.038 58.1748C232.724 60.9052 233.536 62.6611 234.459 65.1885C236.043 69.5225 238.245 73.7449 241.656 76.861C245.97 80.789 253.318 83.1337 258.353 79.3883C263.327 75.6812 266.883 70.384 268.431 64.3765C268.766 63.3281 268.853 62.2162 268.685 61.1285V61.1285Z" fill="white"/>
<path d="M252.415 81.7533C248.301 81.6104 244.373 80.0012 241.341 77.2162C238.296 74.4554 235.921 70.5782 234.013 65.3408L233.729 64.5592C232.917 62.3769 232.267 60.6514 232.561 58.1038C232.924 55.5545 233.494 53.0391 234.267 50.5827V50.4406C235.282 46.7967 236.713 42.7672 240.123 41.062C240.212 41.016 240.312 40.9973 240.411 41.0082C240.511 41.019 240.605 41.0589 240.681 41.1228C240.757 41.1894 240.812 41.2767 240.84 41.3741C240.867 41.4715 240.865 41.5747 240.834 41.671C240.407 43.042 240.265 44.4858 240.417 45.9137C242.123 41.6811 245.99 38.5752 250.141 35.5302C250.222 35.4809 250.315 35.4548 250.41 35.4548C250.505 35.4548 250.598 35.4809 250.679 35.5302C250.764 35.5742 250.835 35.6414 250.884 35.7241C250.932 35.8067 250.956 35.9013 250.953 35.9971C250.892 38.1965 251.474 40.3659 252.628 42.2394C252.982 40.2577 253.981 38.4486 255.47 37.0933C255.545 37.0229 255.64 36.9782 255.743 36.9654C255.845 36.9527 255.948 36.9725 256.038 37.0223C256.128 37.0684 256.203 37.1404 256.251 37.229C256.3 37.3176 256.322 37.4188 256.312 37.5196C256.089 39.712 257.551 41.6913 258.444 42.6758C259.124 43.4269 259.895 44.1171 260.646 44.7972C261.431 45.4749 262.18 46.1932 262.89 46.949C264.276 48.4979 265.342 50.3065 266.025 52.27C266.708 54.2335 266.994 56.3129 266.868 58.388C267.435 58.5719 267.943 58.9011 268.341 59.3429C268.74 59.7846 269.017 60.3233 269.142 60.9052V61.0676C269.333 62.2239 269.253 63.4086 268.909 64.5288C267.347 70.6552 263.724 76.0569 258.647 79.8248C256.833 81.1251 254.646 81.8018 252.415 81.7533ZM239.595 42.6352C237.271 44.4013 236.185 47.5986 235.282 50.7552V50.8871C234.526 53.291 233.966 55.7519 233.607 58.2459C233.343 60.5601 233.921 62.1029 234.713 64.2446L235.008 65.0261C236.865 70.1011 239.169 73.8465 242.113 76.4956C246.335 80.3425 253.399 82.5856 258.16 78.9925C263.054 75.3649 266.546 70.1592 268.046 64.2547C268.348 63.2903 268.425 62.2693 268.269 61.2706V61.2706V61.1488C268.175 60.6721 267.933 60.2371 267.578 59.9055C267.223 59.5739 266.772 59.3626 266.29 59.3015C266.154 59.2911 266.027 59.2294 265.935 59.129C265.89 59.0778 265.858 59.0179 265.838 58.9532C265.819 58.8884 265.814 58.8203 265.823 58.7534C266.01 56.739 265.779 54.7078 265.145 52.7867C264.511 50.8656 263.487 49.096 262.138 47.5884C261.448 46.8763 260.723 46.1988 259.966 45.5584C259.169 44.8697 258.41 44.1378 257.693 43.366C256.456 42.0917 255.628 40.4761 255.318 38.7275C254.188 40.1234 253.552 41.8546 253.511 43.6502C253.508 43.754 253.474 43.8544 253.412 43.9379C253.35 44.0214 253.264 44.0839 253.166 44.1171C253.068 44.1536 252.96 44.1575 252.86 44.1283C252.759 44.099 252.671 44.0382 252.608 43.9547C251.013 41.9659 250.083 39.527 249.948 36.9817C245.655 40.1485 241.828 43.4574 240.864 48.1467C240.841 48.2579 240.782 48.3584 240.696 48.432C240.609 48.5056 240.501 48.5481 240.387 48.5527C240.275 48.5561 240.166 48.5233 240.074 48.4593C239.983 48.3953 239.915 48.3034 239.88 48.1974C239.329 46.3948 239.232 44.4845 239.595 42.6352V42.6352Z" fill="#1F2223"/>
<path d="M227.243 77.6627L220.95 84.4937C220.95 84.4937 218.757 90.4213 226.715 93.8317C234.673 97.2421 239.362 92.3701 239.362 92.3701L252.77 78.6879C252.77 78.6879 249.725 72.2832 259.357 62.5392C252.089 60.7769 245.428 57.0923 240.072 51.8716C240.072 51.8716 228.217 61.3415 225.121 67.1676C222.026 72.9937 227.243 77.6627 227.243 77.6627Z" fill="white"/>
<path d="M232.176 95.547C230.223 95.5206 228.295 95.0958 226.512 94.2986C218.209 90.7359 220.422 84.382 220.473 84.3211C220.501 84.2604 220.535 84.2026 220.574 84.1486L226.542 77.6729C225.365 76.4143 221.894 72.0701 224.634 66.9139C227.74 61.0675 239.23 51.8513 239.717 51.4656C239.81 51.3842 239.929 51.3394 240.052 51.3394C240.175 51.3394 240.294 51.3842 240.387 51.4656C245.69 56.6118 252.27 60.2489 259.449 62.0013C259.539 62.0193 259.623 62.0606 259.693 62.1211C259.762 62.1817 259.814 62.2593 259.845 62.3464C259.87 62.4351 259.871 62.5289 259.848 62.6181C259.824 62.7073 259.778 62.7887 259.713 62.8539C250.578 72.1919 253.196 78.3732 253.227 78.4341C253.271 78.5277 253.285 78.6327 253.267 78.7346C253.249 78.8365 253.199 78.9301 253.125 79.0025L239.727 92.6847C237.66 94.5546 234.963 95.5766 232.176 95.547V95.547ZM221.396 84.7576C221.163 85.4985 219.955 90.3807 226.908 93.3648C234.429 96.5925 238.814 92.1975 238.996 92.0148L252.191 78.5559C251.704 77.1045 250.456 71.2276 258.383 62.8234C251.505 60.958 245.194 57.4226 240.011 52.5313C238.053 54.1452 228.258 62.2753 225.538 67.3909C222.665 72.8009 227.568 77.2364 227.568 77.277C227.668 77.3693 227.73 77.4963 227.74 77.6323C227.745 77.699 227.736 77.7661 227.713 77.829C227.69 77.892 227.655 77.9494 227.608 77.9977L221.396 84.7576Z" fill="#1F2223"/>
<path d="M245.675 80.6672C246.11 81.4368 246.692 82.1128 247.389 82.6563C248.086 83.1998 248.883 83.6 249.735 83.834C250.937 84.1223 252.192 84.0972 253.381 83.7613C254.57 83.4255 255.653 82.7899 256.526 81.9157C257.232 81.3222 257.794 80.576 258.17 79.7334C258.351 79.3135 258.439 78.8594 258.429 78.4022C258.418 77.945 258.309 77.4954 258.109 77.0843C257.478 76.1564 256.557 75.464 255.49 75.1152C253.998 74.4351 253.339 74.9426 251.857 75.0441C251.999 75.0441 252.293 74.902 252.435 74.902" fill="white"/>
<path d="M251.41 84.575C250.793 84.5735 250.179 84.4916 249.583 84.3314C248.669 84.0772 247.813 83.6452 247.066 83.06C246.319 82.4747 245.695 81.7479 245.229 80.921C245.163 80.8039 245.146 80.6655 245.183 80.5361C245.219 80.4067 245.305 80.2969 245.422 80.2308C245.479 80.1969 245.543 80.1749 245.61 80.1663C245.676 80.1576 245.743 80.1624 245.808 80.1805C245.872 80.1985 245.932 80.2293 245.985 80.2711C246.037 80.3129 246.08 80.3648 246.112 80.4237C246.932 81.8486 248.276 82.8973 249.857 83.3469C250.971 83.6105 252.135 83.5827 253.235 83.2663C254.336 82.9498 255.336 82.3554 256.14 81.5402C256.787 80.9875 257.298 80.2928 257.632 79.5102C257.791 79.1613 257.873 78.7822 257.873 78.3988C257.873 78.0153 257.791 77.6363 257.632 77.2873C257.058 76.4717 256.235 75.863 255.287 75.5517C254.6 75.2256 253.817 75.1606 253.085 75.369C252.716 75.4408 252.343 75.4917 251.968 75.5212H251.857C251.722 75.5212 251.593 75.4678 251.498 75.3726C251.403 75.2774 251.349 75.1483 251.349 75.0137C251.349 74.8791 251.403 74.7501 251.498 74.6549C251.593 74.5597 251.722 74.5062 251.857 74.5062H251.918H252.029C252.176 74.4522 252.33 74.4181 252.486 74.4047H252.669H252.933C253.871 74.1535 254.869 74.2471 255.744 74.6686C256.89 75.0665 257.877 75.825 258.556 76.8306C258.786 77.3027 258.913 77.8183 258.929 78.3433C258.945 78.8682 258.849 79.3906 258.647 79.8756C258.252 80.7859 257.655 81.5945 256.901 82.2405C255.433 83.6874 253.47 84.522 251.41 84.575V84.575Z" fill="#1F2223"/>
<path d="M221.904 83.4585C224.357 84.9486 227.261 85.5171 230.095 85.0622C235.17 84.4227 236.774 81.8548 236.774 81.8548C236.774 81.8548 230.988 81.8548 227.243 77.6628L221.904 83.4585Z" fill="#1F2223"/>
<path d="M228.268 85.6813C225.925 85.7429 223.615 85.1109 221.63 83.8644C221.573 83.823 221.525 83.7699 221.49 83.7086C221.455 83.6474 221.434 83.5794 221.427 83.5092C221.418 83.4375 221.426 83.3649 221.448 83.2964C221.471 83.2279 221.509 83.1654 221.559 83.1133L226.888 77.3177C226.936 77.267 226.994 77.2265 227.059 77.1986C227.123 77.1707 227.193 77.156 227.263 77.1553C227.334 77.152 227.405 77.165 227.47 77.1931C227.535 77.2213 227.593 77.2639 227.639 77.3177C231.191 81.2863 236.774 81.3777 236.774 81.3777C236.862 81.3782 236.949 81.4019 237.026 81.4464C237.102 81.4909 237.166 81.5547 237.21 81.6314C237.258 81.7094 237.283 81.7989 237.283 81.8902C237.283 81.9816 237.258 82.0711 237.21 82.1491C237.139 82.2607 235.454 84.9302 230.166 85.5899C229.536 85.6643 228.902 85.6948 228.268 85.6813V85.6813ZM222.696 83.3468C224.959 84.4972 227.521 84.9225 230.034 84.5648C232.112 84.403 234.089 83.6056 235.698 82.281C232.524 81.9737 229.546 80.6081 227.243 78.4037L222.696 83.3468Z" fill="#1F2223"/>
<path d="M242.042 63.0771C242.042 63.0771 234.48 65.4319 234.581 66.9849C234.683 68.5378 237.444 69.7863 237.444 69.7863" fill="white"/>
<path d="M237.434 70.2938C237.366 70.3067 237.298 70.3067 237.231 70.2938C236.916 70.1517 234.186 68.8627 234.074 67.0661C233.962 65.2696 238.885 63.5137 241.93 62.59C242.065 62.551 242.209 62.567 242.332 62.6346C242.455 62.7022 242.546 62.8157 242.585 62.9503C242.624 63.0849 242.608 63.2295 242.54 63.3523C242.473 63.4751 242.359 63.566 242.224 63.605C238.489 64.7621 235.17 66.3556 235.119 66.9951C235.18 68.0101 237.038 69.0251 237.677 69.3601C237.812 69.3883 237.93 69.4689 238.005 69.584C238.08 69.6992 238.106 69.8395 238.078 69.9741C238.05 70.1087 237.969 70.2266 237.854 70.3018C237.739 70.377 237.599 70.4033 237.464 70.3751L237.434 70.2938Z" fill="#1F2223"/>
<path d="M237.87 76.1301H237.738C237.657 76.1301 230.034 73.9275 229.161 65.909C229.147 65.7759 229.186 65.6425 229.269 65.5379C229.353 65.4334 229.475 65.3661 229.608 65.3508C229.741 65.3365 229.874 65.3755 229.979 65.4591C230.083 65.5428 230.151 65.6644 230.166 65.7974C230.968 73.1257 237.718 75.0643 238.002 75.1455C238.136 75.163 238.258 75.2333 238.341 75.3408C238.424 75.4484 238.461 75.5844 238.443 75.719C238.426 75.8536 238.356 75.9757 238.248 76.0585C238.14 76.1414 238.004 76.178 237.87 76.1605V76.1301Z" fill="#1F2223"/>
<path d="M249.441 67.1168H249.329C247.492 66.721 246.284 66.1018 245.696 65.0868C245.405 64.6589 245.296 64.1335 245.391 63.6252C245.422 63.4949 245.504 63.3822 245.618 63.3119C245.732 63.2415 245.87 63.2191 246 63.2497C246.129 63.2833 246.24 63.3654 246.31 63.4788C246.38 63.5923 246.403 63.7283 246.376 63.8587C246.274 64.3763 246.812 65.4928 249.542 66.0815C249.674 66.1131 249.788 66.1938 249.862 66.3071C249.935 66.4204 249.963 66.5576 249.938 66.6905C249.919 66.8089 249.859 66.9166 249.768 66.9946C249.677 67.0727 249.561 67.116 249.441 67.1168Z" fill="#1F2223"/>
<path d="M240.062 60.428H239.961C239.276 60.2175 238.672 59.8038 238.228 59.2419C237.784 58.6799 237.521 57.9962 237.474 57.2815C237.456 57.1474 237.49 57.0116 237.57 56.902C237.649 56.7925 237.767 56.7176 237.9 56.6928C238.033 56.6751 238.168 56.7096 238.276 56.7891C238.384 56.8687 238.457 56.9869 238.479 57.119C238.794 59.0983 240.113 59.4231 240.174 59.4333C240.304 59.467 240.415 59.5486 240.487 59.6617C240.559 59.7747 240.585 59.9108 240.56 60.0423C240.531 60.1523 240.466 60.2496 240.376 60.3194C240.287 60.3891 240.176 60.4272 240.062 60.428Z" fill="#1F2223"/>
<path d="M180.015 118.476C180.015 118.476 167.835 84.1283 166.688 83.296C165.541 82.4637 135.355 95.0192 135.355 95.0192L146.439 136.715C146.439 136.715 180.157 135.934 180.015 118.476Z" fill="#1F2223"/>
<path d="M146.429 137.213C146.317 137.214 146.208 137.177 146.12 137.109C146.032 137.041 145.969 136.945 145.941 136.837L134.858 95.141C134.824 95.0239 134.836 94.8984 134.89 94.7895C134.945 94.6805 135.038 94.5959 135.152 94.5523C149.047 88.777 165.856 82.078 166.962 82.89C168.068 83.702 177.579 110.214 180.462 118.303C180.466 118.357 180.466 118.412 180.462 118.466C180.543 125.865 174.635 131.448 163.389 134.625C157.845 136.109 152.153 136.977 146.418 137.213H146.429ZM135.944 95.3136L146.814 136.188C150.57 136.025 179.538 134.239 179.477 118.567C174.788 105.372 167.571 85.6203 166.383 83.7629C164.282 83.8441 146.906 90.7664 135.944 95.3136Z" fill="#1F2223"/>
<path d="M149.108 111.198C149.108 111.198 114.385 88.5232 108.417 92.2178C102.449 95.9124 84.1686 163.968 82.575 164.364C75.9166 166.029 64.3963 168.322 64.0005 168.262C61.9705 167.977 52.3483 166.932 55.2005 171.581C57.5451 175.377 61.869 175.042 65.7463 175.955C70.8213 177.183 71.9682 177.559 77.1244 178.645C81.8137 179.626 86.5166 180.577 91.2329 181.497C92.5728 181.755 93.9601 181.569 95.1851 180.969C96.4102 180.368 97.4064 179.385 98.0233 178.168L121.196 122.82L136.045 133.823L149.108 111.198Z" fill="white"/>
<path d="M92.4407 182.117C92.0116 182.116 91.5834 182.075 91.1618 181.995C86.5842 181.102 81.834 180.147 77.0533 179.143C73.6531 178.432 72.0494 178.026 69.8367 177.478C68.6999 177.194 67.4108 176.869 65.6549 176.463C64.782 176.26 63.8583 176.108 62.9753 175.966C59.9303 175.478 56.7229 174.951 54.8553 171.906C54.5299 171.517 54.3281 171.039 54.2756 170.535C54.2232 170.03 54.3225 169.521 54.5609 169.074C56.0022 166.871 62.2648 167.561 64.1425 167.825C64.8429 167.825 75.8556 165.592 82.4125 163.968C83.1332 162.862 85.894 153.818 88.8273 144.328C96.9473 117.989 104.489 94.1465 108.204 91.8526C110.883 90.188 118.445 92.8676 131.305 99.9726C140.643 105.129 149.362 110.803 149.453 110.864C149.56 110.936 149.637 111.046 149.667 111.172C149.697 111.298 149.679 111.43 149.616 111.544L136.492 133.985C136.413 134.108 136.289 134.196 136.147 134.229C136.078 134.245 136.007 134.245 135.938 134.23C135.869 134.214 135.805 134.182 135.751 134.137L121.419 123.521L98.5206 178.331C97.956 179.462 97.0889 180.414 96.0157 181.083C94.9425 181.751 93.705 182.109 92.4407 182.117ZM59.8897 168.495C57.7176 168.495 55.8297 168.81 55.3628 169.602C55.0989 169.997 55.2004 170.617 55.6673 171.347C57.342 174.068 60.1536 174.514 63.1275 174.991C64.041 175.133 64.9748 175.275 65.8883 175.499C67.6544 175.915 68.9333 176.24 70.0803 176.514C72.2828 177.062 73.8865 177.458 77.2563 178.168C82.037 179.183 86.7872 180.127 91.3547 181.02C92.5846 181.257 93.858 181.088 94.9836 180.539C96.1092 179.99 97.0262 179.09 97.5969 177.975L120.729 122.607C120.76 122.537 120.807 122.474 120.864 122.424C120.922 122.373 120.99 122.335 121.064 122.313C121.139 122.294 121.217 122.293 121.292 122.309C121.368 122.325 121.439 122.357 121.5 122.404L135.893 133.062L148.428 111.401C138.542 104.977 113.289 89.8429 108.681 92.695C104.986 94.9788 95.8004 124.85 89.7307 144.612C84.0568 163.075 83.4275 164.719 82.7272 164.912C76.6372 166.435 64.6094 168.972 63.9598 168.83C62.6126 168.624 61.2526 168.512 59.8897 168.495Z" fill="#1F2223"/>
<path d="M207.765 156.599C207.765 156.599 186.653 174.484 167.713 171.033C148.773 167.582 125.205 135.812 125.205 135.812L146.083 106.215L180.015 118.476C180.015 118.476 205.39 148.297 207.765 156.599Z" fill="#1F2223"/>
<path d="M172.687 171.977C170.985 171.981 169.286 171.832 167.612 171.53C159.644 170.079 150.022 163.674 138.989 152.489C133.919 147.33 129.173 141.862 124.779 136.117C124.717 136.031 124.685 135.928 124.685 135.822C124.685 135.717 124.717 135.614 124.779 135.528L145.657 105.92C145.72 105.83 145.811 105.764 145.915 105.731C146.02 105.698 146.133 105.7 146.236 105.738L180.116 117.999C180.199 118.031 180.273 118.083 180.33 118.151C181.345 119.369 205.816 148.144 208.202 156.467C208.231 156.561 208.232 156.66 208.205 156.754C208.178 156.848 208.124 156.932 208.049 156.995C207.897 157.158 190.165 171.977 172.687 171.977ZM125.855 135.802C128.28 138.999 150.215 167.338 167.805 170.535C185.181 173.702 204.72 158.426 207.176 156.427C204.405 148.155 181.294 120.8 179.68 118.872L146.297 106.793L125.855 135.802Z" fill="#1F2223"/>
<path d="M182.867 128.007C182.769 128.011 182.673 127.983 182.593 127.926C166.729 117.837 146.053 106.773 145.87 106.611C145.812 106.579 145.76 106.536 145.718 106.484C145.676 106.432 145.644 106.372 145.625 106.308C145.606 106.244 145.6 106.176 145.608 106.11C145.615 106.043 145.635 105.979 145.667 105.92C145.698 105.862 145.74 105.81 145.791 105.768C145.843 105.727 145.901 105.695 145.965 105.676C146.028 105.657 146.094 105.651 146.16 105.658C146.226 105.665 146.29 105.686 146.347 105.717C146.55 105.829 167.236 116.882 183.131 127.032C183.243 127.105 183.323 127.219 183.354 127.35C183.384 127.48 183.362 127.618 183.293 127.733C183.252 127.811 183.191 127.878 183.116 127.926C183.041 127.974 182.956 128.002 182.867 128.007V128.007Z" fill="white"/>
<path d="M245.381 93.1212C245.243 93.1171 245.111 93.0587 245.016 92.9588C244.968 92.9125 244.931 92.8572 244.905 92.7962C244.879 92.7352 244.866 92.6697 244.866 92.6035C244.866 92.5374 244.879 92.4719 244.905 92.4109C244.931 92.3499 244.968 92.2946 245.016 92.2483C255.166 82.484 276.481 75.5312 276.673 75.4703C276.737 75.4483 276.804 75.4392 276.87 75.4438C276.937 75.4483 277.003 75.4662 277.062 75.4966C277.122 75.5269 277.175 75.569 277.218 75.6203C277.261 75.6716 277.293 75.731 277.313 75.7951C277.354 75.923 277.344 76.0622 277.283 76.1821C277.222 76.3019 277.116 76.3928 276.988 76.4346C276.775 76.4955 255.673 83.3772 245.716 92.9791C245.625 93.0646 245.506 93.115 245.381 93.1212V93.1212Z" fill="#1F2223"/>
<path d="M219.976 56.764C219.845 56.7525 219.722 56.6954 219.629 56.6026C219.537 56.5098 219.479 56.3872 219.468 56.2565C219.539 53.389 218.762 50.5645 217.235 48.1365C217.154 48.0288 217.12 47.8934 217.139 47.7602C217.158 47.6269 217.229 47.5067 217.337 47.426C217.444 47.3452 217.58 47.3105 217.713 47.3296C217.846 47.3486 217.966 47.4198 218.047 47.5275C219.736 50.1368 220.586 53.2006 220.483 56.3072C220.47 56.4328 220.411 56.5492 220.318 56.6337C220.224 56.7182 220.102 56.7646 219.976 56.764Z" fill="#1F2223"/>
<path d="M274.339 157.188C270.654 152.539 265.63 149.068 260.383 146.307C254.293 143.069 247.583 140.542 240.722 141.07C233.861 141.598 226.959 145.85 225.03 152.448C220.171 147.975 214.236 144.837 207.804 143.338C201.372 141.839 194.662 142.031 188.326 143.895C181.99 145.759 176.244 149.232 171.649 153.975C167.053 158.718 163.763 164.57 162.1 170.961C145.617 164.405 124.697 172.941 117.511 189.16" fill="white"/>
<path d="M117.491 189.668C117.42 189.683 117.348 189.683 117.278 189.668C117.155 189.613 117.06 189.511 117.012 189.386C116.965 189.26 116.969 189.121 117.024 188.998C124.261 172.657 145.038 164.029 161.735 170.332C163.483 163.988 166.817 158.193 171.424 153.493C176.031 148.793 181.758 145.343 188.066 143.467C194.374 141.592 201.056 141.353 207.482 142.774C213.908 144.194 219.866 147.226 224.797 151.585C226.928 145.647 233.333 141.171 240.691 140.603C246.65 140.136 252.993 141.831 260.626 145.901C266.99 149.301 271.476 152.803 274.745 156.914C274.827 157.022 274.864 157.158 274.847 157.293C274.83 157.428 274.76 157.551 274.653 157.635C274.547 157.717 274.412 157.753 274.279 157.736C274.146 157.719 274.025 157.649 273.943 157.543C270.776 153.544 266.391 150.124 260.149 146.794C252.689 142.816 246.528 141.181 240.763 141.618C233.515 142.176 227.243 146.693 225.538 152.631C225.515 152.713 225.471 152.788 225.41 152.848C225.35 152.909 225.275 152.953 225.192 152.976C225.108 153.001 225.02 153.004 224.934 152.984C224.849 152.965 224.77 152.923 224.705 152.864C219.91 148.445 214.053 145.344 207.703 143.862C201.353 142.38 194.728 142.568 188.472 144.407C182.217 146.247 176.544 149.676 172.008 154.36C167.472 159.044 164.226 164.823 162.587 171.134C162.569 171.204 162.537 171.27 162.491 171.326C162.446 171.382 162.388 171.427 162.323 171.459C162.257 171.487 162.187 171.501 162.115 171.501C162.044 171.501 161.973 171.487 161.907 171.459C145.606 164.973 125.073 173.347 117.968 189.384C117.926 189.473 117.858 189.548 117.773 189.599C117.688 189.649 117.59 189.673 117.491 189.668V189.668Z" fill="#DEE5EB"/>
<path d="M260.2 171.398C260.072 171.396 259.947 171.357 259.84 171.285C259.733 171.214 259.649 171.114 259.598 170.996C259.547 170.878 259.53 170.749 259.55 170.622C259.571 170.495 259.627 170.377 259.713 170.281C266.178 163.055 272.512 158.101 279.069 155.148C287.29 151.443 296.151 150.946 303.429 153.788C303.594 153.851 303.727 153.978 303.8 154.139C303.872 154.301 303.877 154.485 303.814 154.65C303.747 154.815 303.618 154.946 303.454 155.016C303.291 155.086 303.107 155.09 302.942 155.026C296.05 152.316 287.564 152.803 279.668 156.366C273.283 159.238 267.092 164.09 260.748 171.175C260.681 171.253 260.597 171.315 260.501 171.354C260.406 171.392 260.302 171.408 260.2 171.398V171.398Z" fill="#DEE5EB"/>
<path d="M102.042 197.402C103.738 195.677 106.102 194.834 108.396 194.053C110.992 193.007 113.728 192.353 116.516 192.114C122.261 191.891 127.519 195.159 132.361 198.204" fill="white"/>
<path d="M132.31 198.742C132.213 198.742 132.118 198.714 132.036 198.661C126.697 195.23 121.886 192.408 116.486 192.622C113.75 192.86 111.065 193.503 108.518 194.53C106.407 195.261 104.012 196.083 102.367 197.757C102.321 197.805 102.265 197.844 102.204 197.87C102.142 197.897 102.076 197.911 102.009 197.912C101.874 197.914 101.744 197.862 101.647 197.768C101.55 197.673 101.494 197.545 101.492 197.409C101.491 197.274 101.542 197.144 101.637 197.047C103.454 195.2 105.971 194.337 108.183 193.566C110.826 192.51 113.61 191.85 116.446 191.607C122.099 191.414 127.103 194.286 132.584 197.808C132.697 197.881 132.776 197.996 132.805 198.127C132.833 198.258 132.809 198.395 132.736 198.509C132.69 198.579 132.627 198.638 132.552 198.678C132.478 198.719 132.395 198.741 132.31 198.742Z" fill="#DEE5EB"/>
<path d="M256.515 127.306C258.979 119.269 263.194 111.879 268.858 105.667C272.238 101.901 276.318 98.3282 281.545 96.42C290.295 93.2431 300.556 95.4761 307.753 100.044" fill="white"/>
<path d="M256.515 127.814H256.363C256.236 127.774 256.129 127.686 256.067 127.568C256.004 127.45 255.99 127.312 256.028 127.185C258.525 119.08 262.777 111.626 268.482 105.352C272.745 100.602 276.836 97.6176 281.373 95.9632C289.432 93.0298 299.886 94.4711 308.016 99.6273C308.074 99.6616 308.125 99.7072 308.164 99.7614C308.204 99.8157 308.232 99.8774 308.247 99.9428C308.263 100.008 308.264 100.076 308.253 100.142C308.241 100.208 308.216 100.271 308.179 100.328C308.144 100.384 308.098 100.434 308.043 100.473C307.989 100.511 307.928 100.539 307.862 100.554C307.797 100.569 307.73 100.571 307.664 100.56C307.598 100.549 307.535 100.526 307.479 100.49C299.602 95.4861 289.493 94.0854 281.728 96.9173C277.353 98.5108 273.385 101.404 269.244 106.052C263.633 112.208 259.453 119.529 257.003 127.489C256.964 127.586 256.896 127.669 256.809 127.727C256.722 127.785 256.62 127.815 256.515 127.814V127.814Z" fill="#DEE5EB"/>
</svg>
