<svg width="32" height="32" viewBox="0 0 32 32" fill="none" xmlns="http://www.w3.org/2000/svg">
<path d="M27.4143 9.99995L22.0001 4.58601C21.8149 4.39961 21.5945 4.25184 21.3517 4.15124C21.1089 4.05064 20.8486 3.99921 20.5858 3.99995H12.9999L13 4.00117V10.0012H20C20.2652 10.0012 20.5196 10.1065 20.7071 10.2941C20.8946 10.4816 21 10.736 21 11.0012C21 11.2664 20.8946 11.5207 20.7071 11.7083C20.5196 11.8958 20.2652 12.0012 20 12.0012H12C11.7348 12.0012 11.4804 11.8958 11.2929 11.7083C11.1054 11.5207 11 11.2664 11 11.0012V4.00117L11.0001 3.99995H6C5.46975 4.00055 4.9614 4.21146 4.58646 4.5864C4.21151 4.96134 4.00061 5.4697 4 5.99995V25.9999C4.00061 26.5302 4.21151 27.0385 4.58646 27.4135C4.9614 27.7884 5.46975 27.9993 6 27.9999H26C26.5302 27.9993 27.0386 27.7884 27.4135 27.4135C27.7885 27.0385 27.9994 26.5302 28 25.9999V11.4143C28.0007 11.1515 27.9493 10.8912 27.8488 10.6484C27.7483 10.4057 27.6006 10.1853 27.4143 9.99995ZM16 22.5C15.4067 22.5 14.8266 22.324 14.3333 21.9944C13.8399 21.6648 13.4554 21.1962 13.2284 20.648C13.0013 20.0999 12.9419 19.4967 13.0576 18.9147C13.1734 18.3328 13.4591 17.7982 13.8787 17.3787C14.2982 16.9591 14.8328 16.6734 15.4147 16.5576C15.9967 16.4419 16.5999 16.5013 17.1481 16.7284C17.6962 16.9554 18.1648 17.3399 18.4944 17.8333C18.8241 18.3266 19 18.9066 19 19.5C18.9991 20.2954 18.6828 21.0579 18.1203 21.6203C17.5579 22.1828 16.7954 22.4991 16 22.5Z" fill="#74F73C"/>
</svg>
