<svg width="32" height="32" viewBox="0 0 32 32" fill="none" xmlns="http://www.w3.org/2000/svg">
<path d="M28.0007 6H4.00073C3.86941 6 3.73937 6.02586 3.61804 6.07611C3.49672 6.12637 3.38648 6.20003 3.29362 6.29288C3.20076 6.38574 3.1271 6.49598 3.07685 6.61731C3.02659 6.73864 3.00073 6.86868 3.00073 7V24C3.00134 24.5302 3.21225 25.0386 3.58719 25.4135C3.96213 25.7885 4.47049 25.9994 5.00073 26H27.0007C27.531 25.9994 28.0393 25.7885 28.4143 25.4135C28.7892 25.0386 29.0001 24.5302 29.0007 24V7C29.0007 6.86868 28.9749 6.73864 28.9246 6.61731C28.8744 6.49598 28.8007 6.38574 28.7078 6.29288C28.615 6.20003 28.5047 6.12637 28.3834 6.07611C28.2621 6.02586 28.1321 6 28.0007 6ZM5.00073 14H10.0007V18H5.00073V14ZM12.0007 14H27.0012L27.0016 18H12.0007V14ZM5.00073 20H10.0007V24H5.00073V20ZM27.0007 24H12.0007V20H27.0017L27.002 23.9999L27.0007 24Z" fill="#74F73C"/>
</svg>
