<svg width="286" height="188" viewBox="0 0 286 188" fill="none" xmlns="http://www.w3.org/2000/svg">
<path d="M49.3054 168.887L23.8898 187.431L13.5266 0.569336L41.6929 12.932L49.3054 168.887Z" fill="#87FF53"/>
<path d="M23.89 187.938C23.813 187.936 23.7372 187.919 23.6667 187.888C23.5858 187.848 23.5168 187.788 23.4669 187.713C23.4169 187.638 23.3878 187.551 23.3825 187.461L13.0193 0.620105C13.0138 0.533661 13.0305 0.447239 13.0678 0.369065C13.1051 0.290891 13.1618 0.223569 13.2325 0.173506C13.3087 0.13175 13.3942 0.109863 13.4812 0.109863C13.5681 0.109863 13.6536 0.13175 13.7298 0.173506L41.8961 12.5362C41.9824 12.5763 42.0563 12.6389 42.1099 12.7176C42.1635 12.7962 42.1948 12.8878 42.2006 12.9828L49.8131 168.927C49.8171 169.011 49.8008 169.095 49.7654 169.171C49.73 169.247 49.6767 169.313 49.6101 169.364L24.2351 187.908C24.1285 187.963 24.0046 187.974 23.89 187.938ZM14.0952 1.37121L24.3467 186.467L48.7879 168.633L41.2059 13.2772L14.0952 1.37121Z" fill="#1F2223"/>
<path d="M23.89 187.431L10.2382 187.015L1.47876 5.76613L13.5268 0.569336L23.89 187.431Z" fill="#87FF53"/>
<path d="M23.8899 187.938L10.2483 187.522C10.1198 187.522 9.99629 187.473 9.90358 187.384C9.81087 187.295 9.75617 187.173 9.75093 187.045L0.971174 5.78629C0.966756 5.68383 0.993489 5.58242 1.04785 5.49545C1.1022 5.40848 1.18163 5.34002 1.27567 5.29909L13.3237 0.102293C13.3959 0.0649184 13.4759 0.0454102 13.5572 0.0454102C13.6384 0.0454102 13.7185 0.0649184 13.7906 0.102293C13.8604 0.143448 13.9191 0.20102 13.9615 0.270008C14.004 0.338996 14.0289 0.417311 14.0342 0.498142L24.3974 187.38C24.3988 187.522 24.3483 187.659 24.2553 187.766C24.2091 187.817 24.1529 187.859 24.0901 187.889C24.0273 187.919 23.9592 187.935 23.8899 187.938ZM10.6949 186.527L23.3215 186.903L13.0801 1.32029L2.02678 6.09079L10.6949 186.527Z" fill="#1F2223"/>
<path d="M18.2161 10.3438L26.3361 163.335L45.5703 149.825L38.1405 18.3521L18.2161 10.3438Z" fill="white"/>
<path d="M18.2161 10.3437L38.1405 18.352L45.5602 149.825L26.2752 163.335L18.1552 10.3437H18.2161ZM18.1552 9.32869C17.9448 9.32709 17.739 9.39094 17.5665 9.51139C17.4285 9.61174 17.318 9.74525 17.2453 9.8996C17.1725 10.0539 17.1399 10.2241 17.1503 10.3944L25.2703 163.385C25.2792 163.567 25.3366 163.743 25.4366 163.895C25.5365 164.046 25.6754 164.168 25.8387 164.248C25.9779 164.316 26.1307 164.35 26.2853 164.35C26.4958 164.351 26.7015 164.287 26.874 164.167L46.159 150.657C46.3004 150.557 46.4138 150.423 46.4884 150.266C46.5631 150.11 46.5964 149.937 46.5853 149.764L39.1555 18.3013C39.1449 18.1097 39.0801 17.925 38.9687 17.7687C38.8573 17.6124 38.7039 17.4909 38.5262 17.4182L18.6018 9.39974C18.4791 9.35121 18.3481 9.32707 18.2161 9.32869H18.1552Z" fill="#1F2223"/>
<path d="M37.3791 173.596C36.9549 173.59 36.5432 173.452 36.2017 173.2C35.0446 172.358 34.324 170.236 34.324 167.648C34.324 163.883 35.7957 160.442 37.6938 159.823C37.9942 159.719 38.3156 159.692 38.6292 159.743C38.9428 159.794 39.2387 159.923 39.4903 160.117C40.6576 160.959 41.3782 163.081 41.3782 165.659C41.3782 169.435 39.8963 172.875 38.0084 173.495C37.8053 173.561 37.5929 173.596 37.3791 173.596ZM38.3129 160.736C38.2091 160.733 38.1057 160.75 38.0084 160.787C36.7194 161.213 35.339 164.065 35.339 167.648C35.339 169.881 35.9074 171.708 36.8006 172.378C36.9252 172.475 37.072 172.54 37.228 172.567C37.3839 172.594 37.5439 172.581 37.6938 172.53C38.9828 172.104 40.3632 169.242 40.3632 165.659C40.3632 163.436 39.7847 161.599 38.9016 160.939C38.7315 160.811 38.5256 160.74 38.3129 160.736Z" fill="#1F2223"/>
<path d="M32.9538 13.145C32.8904 13.1601 32.8244 13.1601 32.761 13.145L28.1427 11.247C28.0807 11.221 28.0245 11.183 27.9772 11.1353C27.9299 11.0876 27.8924 11.031 27.867 10.9688C27.8415 10.9066 27.8286 10.8399 27.8289 10.7727C27.8292 10.7055 27.8427 10.639 27.8687 10.5771C27.8947 10.5151 27.9326 10.4588 27.9803 10.4115C28.0281 10.3642 28.0847 10.3267 28.1469 10.3013C28.2091 10.2758 28.2757 10.2629 28.3429 10.2632C28.4101 10.2635 28.4766 10.277 28.5386 10.303L33.1467 12.2112C33.2453 12.2696 33.3217 12.3592 33.3639 12.4657C33.4062 12.5722 33.4119 12.6898 33.3801 12.7999C33.3507 12.8929 33.2946 12.9752 33.2189 13.0365C33.1431 13.0979 33.0509 13.1356 32.9538 13.145Z" fill="#1F2223"/>
<path d="M26.7116 10.4145C26.6413 10.429 26.5688 10.429 26.4985 10.4145L25.6459 10.0288C25.5845 10.0015 25.5292 9.96239 25.483 9.91368C25.4368 9.86497 25.4007 9.80764 25.3767 9.74496C25.3526 9.68229 25.3412 9.61549 25.343 9.54839C25.3447 9.48128 25.3597 9.41519 25.387 9.35388C25.4144 9.29256 25.4535 9.23723 25.5022 9.19104C25.5509 9.14485 25.6082 9.1087 25.6709 9.08467C25.7336 9.06064 25.8004 9.04918 25.8675 9.05096C25.9346 9.05274 26.0007 9.06772 26.062 9.09505L26.9146 9.48075C27.0376 9.53818 27.1332 9.64164 27.1807 9.76885C27.2281 9.89605 27.2237 10.0368 27.1684 10.1608C27.1233 10.2413 27.0567 10.3077 26.976 10.3525C26.8953 10.3973 26.8038 10.4188 26.7116 10.4145Z" fill="#1F2223"/>
<path d="M60.7852 75.9022C60.7852 75.9022 70.2247 78.257 75.4925 75.9631C80.7604 73.6692 82.1915 68.6957 88.1496 68.2288C94.1076 67.7619 109.505 67.092 109.505 67.092L110.429 53.3489C110.429 53.3489 100.807 42.2955 91.0728 41.382C81.3389 40.4685 66.1342 54.8409 60.7852 56.7796V75.9022Z" fill="white"/>
<path d="M69.4024 77.4856C66.4485 77.4415 63.5082 77.0774 60.6328 76.3996C60.5219 76.3722 60.4235 76.3082 60.3535 76.2179C60.2835 76.1277 60.246 76.0164 60.2471 75.9022V56.7796C60.2471 56.6753 60.2793 56.5736 60.3392 56.4882C60.3992 56.4029 60.484 56.338 60.582 56.3026C62.2771 55.6936 65.0886 53.7245 68.3468 51.4509C75.1168 46.721 84.3939 40.2859 91.1437 40.8746C100.959 41.7982 110.429 52.5572 110.825 53.0546C110.869 53.104 110.902 53.1619 110.923 53.2247C110.944 53.2876 110.952 53.354 110.946 53.42L110.033 67.1631C110.023 67.2865 109.97 67.4025 109.883 67.49C109.795 67.5775 109.679 67.6308 109.556 67.6401C109.393 67.6401 94.0364 68.3303 88.1596 68.7769C84.871 69.0307 83.0846 70.6953 81.0546 72.6238C79.5194 74.2196 77.7069 75.5231 75.7055 76.4706C73.6938 77.2283 71.5502 77.5734 69.4024 77.4856ZM61.2824 75.4556C63.0891 75.8616 70.8234 77.4044 75.2792 75.4556C77.1745 74.5443 78.8928 73.3037 80.3542 71.7915C82.4654 69.8224 84.465 67.9548 88.1088 67.7315C93.4274 67.3153 106.48 66.7165 109.079 66.6048L109.952 53.5316C108.754 52.1918 99.8727 42.7117 91.0726 41.8896C84.7086 41.2907 75.604 47.6446 68.9558 52.2832C66.5464 54.1159 63.9824 55.7359 61.2925 57.1247L61.2824 75.4556Z" fill="#1F2223"/>
<path d="M32.7204 89.5235L62.1554 82.0835C62.1554 82.0835 58.8363 66.1176 62.1554 54.374H29.7464C29.7464 54.374 26.3157 61.0223 27.7164 72.8166C29.1171 84.6109 32.7204 89.5235 32.7204 89.5235Z" fill="#1F2223"/>
<path d="M32.7204 90.0311C32.6413 90.0328 32.5631 90.0152 32.4923 89.9798C32.4216 89.9445 32.3605 89.8924 32.3144 89.8281C32.1622 89.6251 28.5589 84.6618 27.2394 72.8675C25.9199 61.0732 29.1578 54.4148 29.3202 54.1408C29.3643 54.0601 29.4287 53.9925 29.5071 53.9444C29.5854 53.8963 29.6749 53.8695 29.7668 53.8667H62.1453C62.2239 53.8675 62.3014 53.8861 62.3717 53.9213C62.4421 53.9565 62.5035 54.0072 62.5513 54.0697C62.5985 54.1327 62.6305 54.2059 62.6446 54.2834C62.6587 54.3609 62.6545 54.4407 62.6325 54.5163C59.3845 66.0061 62.6325 81.83 62.6325 81.9822C62.66 82.1113 62.6362 82.246 62.5661 82.3578C62.496 82.4696 62.3851 82.5496 62.2569 82.581L32.8219 90.0109L32.7204 90.0311ZM30.0713 54.8817C29.4724 56.2418 27.0263 62.5856 28.1935 72.7559C29.3506 82.7232 32.1926 87.7576 32.9437 88.9959L61.5363 81.7589C61.0288 79.059 58.7349 65.4377 61.4652 54.9325L30.0713 54.8817Z" fill="#1F2223"/>
<path d="M135.662 49.5732H87.977C85.8412 49.5732 84.1099 51.3046 84.1099 53.4404V80.7439C84.1099 82.8797 85.8412 84.611 87.977 84.611H135.662C137.797 84.611 139.529 82.8797 139.529 80.7439V53.4404C139.529 51.3046 137.797 49.5732 135.662 49.5732Z" fill="white"/>
<path d="M135.662 49.5732C136.17 49.5718 136.673 49.671 137.143 49.8648C137.613 50.0587 138.04 50.3435 138.399 50.7028C138.759 51.0622 139.043 51.4891 139.237 51.9588C139.431 52.4286 139.53 52.9321 139.529 53.4403V80.7337C139.53 81.2424 139.431 81.7463 139.237 82.2167C139.044 82.687 138.759 83.1145 138.4 83.4747C138.041 83.8349 137.614 84.1207 137.144 84.3156C136.674 84.5106 136.17 84.611 135.662 84.611H87.9568C86.9302 84.6083 85.9466 84.1986 85.2217 83.4718C84.4967 82.7449 84.0896 81.7602 84.0896 80.7337V53.3997C84.0896 52.3741 84.4971 51.3905 85.2223 50.6652C85.9475 49.94 86.9312 49.5326 87.9568 49.5326H135.662V49.5732ZM135.662 48.5176H87.9568C86.6698 48.5309 85.44 49.0509 84.5337 49.9647C83.6275 50.8786 83.1178 52.1127 83.1152 53.3997V80.6931C83.1152 81.9888 83.6293 83.2317 84.5446 84.1489C85.4599 85.0661 86.7016 85.5827 87.9974 85.5854H135.702C136.998 85.5827 138.24 85.0661 139.155 84.1489C140.07 83.2317 140.585 81.9888 140.585 80.6931V53.3997C140.582 52.1057 140.067 50.8655 139.152 49.9505C138.237 49.0355 136.996 48.5203 135.702 48.5176H135.662Z" fill="#1F2223"/>
<path d="M139.529 56.4956H84.1099V65.0825H139.529V56.4956Z" fill="#DEE5EB"/>
<path d="M77.6951 69.9544C77.6951 69.9544 90.6465 70.604 96.1275 69.0308C101.608 67.4575 102.654 63.3062 100.259 60.789C97.8631 58.2718 92.24 60.6773 85.6019 59.774C78.9638 58.8706 77.6951 58.3936 77.6951 58.3936" fill="white"/>
<path d="M83.8561 70.594C80.5371 70.594 77.9082 70.4722 77.6748 70.4519C77.6081 70.4493 77.5426 70.4336 77.482 70.4056C77.4215 70.3777 77.367 70.3381 77.3217 70.2891C77.2765 70.24 77.2413 70.1826 77.2183 70.1199C77.1953 70.0573 77.1849 69.9908 77.1876 69.9241C77.1886 69.8565 77.2037 69.7898 77.2319 69.7284C77.2601 69.6669 77.3009 69.612 77.3515 69.5671C77.4021 69.5222 77.4615 69.4884 77.5259 69.4677C77.5903 69.4471 77.6583 69.44 77.7255 69.4471C77.8473 69.4471 90.6465 70.0764 95.9955 68.5437C98.5939 67.8028 100.37 66.3615 100.847 64.6055C101.005 63.9948 101 63.3531 100.83 62.7454C100.661 62.1376 100.334 61.5853 99.883 61.1444C98.665 59.8553 96.3 60.038 93.3159 60.2715C90.729 60.5612 88.1178 60.5612 85.5309 60.2715C78.9131 59.358 77.5733 58.8911 77.5225 58.8708C77.4581 58.8495 77.3986 58.8155 77.3475 58.7709C77.2964 58.7262 77.2548 58.6718 77.2251 58.6107C77.1955 58.5497 77.1784 58.4834 77.1748 58.4156C77.1712 58.3478 77.1812 58.28 77.2043 58.2162C77.2274 58.1524 77.2631 58.0939 77.3091 58.0441C77.3552 57.9943 77.4108 57.9543 77.4727 57.9263C77.5345 57.8984 77.6013 57.8832 77.6692 57.8815C77.737 57.8798 77.8045 57.8918 77.8676 57.9167C80.4342 58.5509 83.0425 59.002 85.673 59.2666C88.1858 59.5463 90.7219 59.5463 93.2347 59.2666C96.4929 59.023 99.0608 58.82 100.624 60.4542C101.196 61.023 101.608 61.7325 101.818 62.5112C102.028 63.29 102.03 64.1104 101.822 64.8897C101.253 66.9908 99.2334 68.6858 96.2696 69.5283C93.3058 70.3707 87.9973 70.594 83.8561 70.594Z" fill="#1F2223"/>
<path d="M122.934 81.7591C121.729 81.7591 120.552 81.4019 119.55 80.7328C118.549 80.0636 117.768 79.1124 117.307 77.9996C116.846 76.8868 116.726 75.6623 116.961 74.481C117.196 73.2997 117.776 72.2145 118.627 71.3628C119.479 70.5111 120.564 69.9311 121.745 69.6961C122.927 69.4611 124.151 69.5817 125.264 70.0427C126.377 70.5036 127.328 71.2842 127.997 72.2857C128.666 73.2872 129.024 74.4646 129.024 75.6691C129.024 77.2843 128.382 78.8333 127.24 79.9754C126.098 81.1175 124.549 81.7591 122.934 81.7591ZM122.934 70.5941C121.93 70.5941 120.949 70.8917 120.114 71.4494C119.279 72.007 118.629 72.7996 118.245 73.727C117.861 74.6543 117.76 75.6747 117.956 76.6592C118.152 77.6436 118.635 78.5479 119.345 79.2577C120.055 79.9674 120.959 80.4508 121.943 80.6466C122.928 80.8424 123.948 80.7419 124.876 80.3578C125.803 79.9737 126.596 79.3232 127.153 78.4886C127.711 77.654 128.009 76.6728 128.009 75.6691C128.009 74.3231 127.474 73.0323 126.522 72.0805C125.57 71.1288 124.279 70.5941 122.934 70.5941Z" fill="#DEE5EB"/>
<path d="M130.566 81.7591C129.362 81.7591 128.184 81.4019 127.183 80.7328C126.181 80.0636 125.401 79.1124 124.94 77.9996C124.479 76.8868 124.358 75.6623 124.593 74.481C124.828 73.2997 125.408 72.2145 126.26 71.3628C127.112 70.5111 128.197 69.9311 129.378 69.6961C130.56 69.4611 131.784 69.5817 132.897 70.0427C134.01 70.5036 134.961 71.2842 135.63 72.2857C136.299 73.2872 136.656 74.4646 136.656 75.6691C136.656 77.2843 136.015 78.8333 134.873 79.9754C133.731 81.1175 132.181 81.7591 130.566 81.7591ZM130.566 70.5941C129.563 70.5941 128.581 70.8917 127.747 71.4494C126.912 72.007 126.262 72.7996 125.878 73.727C125.494 74.6543 125.393 75.6747 125.589 76.6592C125.785 77.6436 126.268 78.5479 126.978 79.2577C127.687 79.9674 128.592 80.4508 129.576 80.6466C130.561 80.8424 131.581 80.7419 132.508 80.3578C133.436 79.9737 134.228 79.3232 134.786 78.4886C135.344 77.654 135.641 76.6728 135.641 75.6691C135.641 74.3231 135.107 73.0323 134.155 72.0805C133.203 71.1288 131.912 70.5941 130.566 70.5941Z" fill="#DEE5EB"/>
<path d="M92.7271 75.4051H88.9208C88.7862 75.4051 88.6571 75.3517 88.562 75.2565C88.4668 75.1613 88.4133 75.0322 88.4133 74.8976C88.4133 74.763 88.4668 74.634 88.562 74.5388C88.6571 74.4436 88.7862 74.3901 88.9208 74.3901H92.7271C92.8617 74.3901 92.9908 74.4436 93.0859 74.5388C93.1811 74.634 93.2346 74.763 93.2346 74.8976C93.2346 75.0322 93.1811 75.1613 93.0859 75.2565C92.9908 75.3517 92.8617 75.4051 92.7271 75.4051Z" fill="#DEE5EB"/>
<path d="M98.9999 75.4051H95.1835C95.0489 75.4051 94.9199 75.3517 94.8247 75.2565C94.7295 75.1613 94.676 75.0322 94.676 74.8976C94.6786 74.7639 94.7329 74.6363 94.8275 74.5417C94.9222 74.4471 95.0497 74.3927 95.1835 74.3901H98.9999C99.1337 74.3927 99.2613 74.4471 99.3559 74.5417C99.4505 74.6363 99.5048 74.7639 99.5074 74.8976C99.5074 75.0322 99.454 75.1613 99.3588 75.2565C99.2636 75.3517 99.1345 75.4051 98.9999 75.4051Z" fill="#DEE5EB"/>
<path d="M105.262 75.4051H101.456C101.322 75.4051 101.193 75.3517 101.097 75.2565C101.002 75.1613 100.949 75.0322 100.949 74.8976C100.949 74.763 101.002 74.634 101.097 74.5388C101.193 74.4436 101.322 74.3901 101.456 74.3901H105.262C105.397 74.3901 105.526 74.4436 105.621 74.5388C105.717 74.634 105.77 74.763 105.77 74.8976C105.77 75.0322 105.717 75.1613 105.621 75.2565C105.526 75.3517 105.397 75.4051 105.262 75.4051Z" fill="#DEE5EB"/>
<path d="M111.535 75.4051H107.729C107.594 75.4051 107.465 75.3517 107.37 75.2565C107.275 75.1613 107.221 75.0322 107.221 74.8976C107.221 74.763 107.275 74.634 107.37 74.5388C107.465 74.4436 107.594 74.3901 107.729 74.3901H111.535C111.669 74.3927 111.797 74.4471 111.891 74.5417C111.986 74.6363 112.04 74.7639 112.043 74.8976C112.043 75.0322 111.989 75.1613 111.894 75.2565C111.799 75.3517 111.67 75.4051 111.535 75.4051Z" fill="#DEE5EB"/>
<path d="M101.456 80.3583H88.9208C88.7862 80.3583 88.6571 80.3048 88.562 80.2096C88.4668 80.1145 88.4133 79.9854 88.4133 79.8508C88.4133 79.7162 88.4668 79.5871 88.562 79.4919C88.6571 79.3967 88.7862 79.3433 88.9208 79.3433H101.456C101.591 79.3433 101.72 79.3967 101.815 79.4919C101.91 79.5871 101.964 79.7162 101.964 79.8508C101.964 79.9854 101.91 80.1145 101.815 80.2096C101.72 80.3048 101.591 80.3583 101.456 80.3583Z" fill="#DEE5EB"/>
<path d="M236.695 168.887L262.11 187.431L272.474 0.569336L244.307 12.932L236.695 168.887Z" fill="#87FF53"/>
<path d="M262.11 187.938C262.003 187.94 261.899 187.904 261.816 187.837L236.38 169.293C236.313 169.242 236.26 169.175 236.225 169.099C236.189 169.023 236.173 168.94 236.177 168.856L243.79 12.9115C243.795 12.8165 243.827 12.7249 243.88 12.6463C243.934 12.5677 244.008 12.505 244.094 12.4649L272.26 0.102221C272.337 0.060465 272.422 0.0385742 272.509 0.0385742C272.596 0.0385742 272.681 0.060465 272.758 0.102221C272.828 0.152284 272.885 0.219606 272.922 0.29778C272.96 0.375954 272.976 0.462376 272.971 0.548819L262.608 187.41C262.602 187.5 262.573 187.587 262.523 187.662C262.473 187.737 262.404 187.797 262.324 187.837C262.26 187.884 262.187 187.919 262.11 187.938ZM237.212 168.653L261.654 186.466L271.905 1.37097L244.794 13.2769L237.212 168.653Z" fill="#1F2223"/>
<path d="M262.11 187.431L275.762 187.015L284.522 5.76613L272.473 0.569336L262.11 187.431Z" fill="#87FF53"/>
<path d="M262.11 187.938C261.973 187.938 261.842 187.883 261.745 187.786C261.652 187.679 261.601 187.542 261.603 187.4L271.966 0.538665C271.971 0.457834 271.996 0.379524 272.039 0.310536C272.081 0.241548 272.14 0.183971 272.21 0.142816C272.282 0.105442 272.362 0.0859375 272.443 0.0859375C272.524 0.0859375 272.604 0.105442 272.676 0.142816L284.725 5.33962C284.819 5.38055 284.898 5.44901 284.952 5.53598C285.007 5.62295 285.033 5.72435 285.029 5.82682L276.27 187.045C276.264 187.173 276.21 187.295 276.117 187.384C276.024 187.472 275.901 187.522 275.772 187.522L262.131 187.938H262.11ZM272.92 1.32022L262.648 186.903L275.275 186.527L283.994 6.09072L272.92 1.32022Z" fill="#1F2223"/>
<path d="M267.784 10.3438L259.664 163.335L240.43 149.825L247.86 18.3521L267.784 10.3438Z" fill="white"/>
<path d="M267.784 10.3437L259.664 163.335L240.44 149.825L247.87 18.352L267.794 10.3437H267.784ZM267.794 9.32869C267.662 9.32707 267.531 9.35121 267.409 9.39974L247.484 17.4182C247.307 17.4909 247.153 17.6124 247.042 17.7687C246.93 17.925 246.866 18.1097 246.855 18.3013L239.425 149.764C239.414 149.937 239.447 150.11 239.522 150.266C239.597 150.423 239.71 150.557 239.851 150.657L259.086 164.167C259.258 164.287 259.464 164.351 259.674 164.35C259.829 164.35 259.982 164.316 260.121 164.248C260.284 164.168 260.423 164.046 260.523 163.895C260.623 163.743 260.681 163.567 260.689 163.385L268.809 10.3944C268.82 10.2241 268.787 10.0539 268.714 9.8996C268.642 9.74525 268.531 9.61174 268.393 9.51139C268.221 9.39094 268.015 9.32709 267.805 9.32869H267.794Z" fill="#1F2223"/>
<path d="M248.621 173.596C248.407 173.596 248.195 173.561 247.992 173.495C246.104 172.875 244.622 169.435 244.622 165.659C244.622 163.081 245.342 160.959 246.51 160.117C246.761 159.923 247.057 159.794 247.371 159.743C247.684 159.692 248.006 159.719 248.306 159.823C250.204 160.442 251.676 163.883 251.676 167.648C251.676 170.236 250.955 172.358 249.798 173.2C249.457 173.452 249.045 173.59 248.621 173.596ZM247.687 160.736C247.474 160.74 247.269 160.811 247.098 160.939C246.215 161.578 245.637 163.436 245.637 165.659C245.637 169.242 247.017 172.104 248.306 172.53C248.456 172.581 248.616 172.594 248.772 172.567C248.928 172.54 249.075 172.475 249.199 172.378C250.093 171.739 250.661 169.881 250.661 167.648C250.661 164.065 249.281 161.213 247.992 160.787C247.894 160.75 247.791 160.733 247.687 160.736Z" fill="#1F2223"/>
<path d="M253.046 13.1448C252.949 13.1354 252.857 13.0977 252.781 13.0363C252.706 12.9749 252.649 12.8926 252.62 12.7997C252.572 12.6755 252.574 12.5378 252.625 12.4149C252.676 12.2921 252.772 12.1936 252.894 12.1399L257.502 10.2317C257.627 10.1792 257.768 10.1786 257.894 10.23C258.02 10.2814 258.12 10.3806 258.172 10.5058C258.225 10.6309 258.225 10.7718 258.174 10.8975C258.122 11.0231 258.023 11.1232 257.898 11.1757L253.28 13.0737C253.211 13.1202 253.13 13.1449 253.046 13.1448Z" fill="#1F2223"/>
<path d="M259.289 10.4146C259.192 10.4151 259.098 10.3876 259.016 10.3353C258.935 10.2831 258.871 10.2084 258.832 10.1203C258.776 9.99629 258.772 9.85552 258.82 9.72832C258.867 9.60111 258.963 9.49765 259.086 9.44022L259.938 9.05452C259.999 9.02719 260.066 9.01221 260.133 9.01043C260.2 9.00865 260.267 9.02011 260.329 9.04414C260.392 9.06818 260.449 9.10432 260.498 9.15051C260.547 9.1967 260.586 9.25204 260.613 9.31335C260.64 9.37466 260.655 9.44076 260.657 9.50786C260.659 9.57496 260.648 9.64176 260.624 9.70444C260.599 9.76711 260.563 9.82444 260.517 9.87315C260.471 9.92186 260.416 9.961 260.354 9.98833L259.502 10.374C259.434 10.4022 259.362 10.416 259.289 10.4146Z" fill="#1F2223"/>
<path d="M219.267 86.834H151.942V152.525H219.267V86.834Z" fill="white"/>
<path d="M219.267 86.8338V152.525H151.942V86.8338H219.267ZM219.267 85.8188H151.942C151.673 85.8188 151.415 85.9258 151.225 86.1161C151.034 86.3065 150.927 86.5647 150.927 86.8338V152.525C150.927 152.794 151.034 153.052 151.225 153.242C151.415 153.433 151.673 153.54 151.942 153.54H219.267C219.536 153.54 219.795 153.433 219.985 153.242C220.175 153.052 220.282 152.794 220.282 152.525V86.8338C220.282 86.5647 220.175 86.3065 219.985 86.1161C219.795 85.9258 219.536 85.8188 219.267 85.8188Z" fill="#1F2223"/>
<path d="M213.949 50.3547C211.736 47.7867 208.295 46.6702 204.966 46.0612C201.637 45.4522 198.186 45.2391 195.039 43.9703C192.745 43.0467 190.594 41.5648 188.127 41.3618C185.661 41.1588 182.778 43.0974 183.265 45.5233C183.696 46.8071 184.58 47.8898 185.752 48.5683C187.984 50.2128 190.298 51.744 192.684 53.1561C190.553 52.811 188.097 52.5674 186.493 54.0087C185.133 55.2368 184.899 57.2465 184.859 59.0837C184.733 64.6056 185.596 70.1055 187.406 75.3237C187.874 77.1101 188.876 78.7109 190.279 79.9115C191.964 81.1092 194.177 81.1396 196.237 81.1295L228.717 80.9062C230.077 80.9062 229.174 59.5912 227.296 57.4495C225.601 55.5413 223.804 56.059 221.51 55.8154C217.501 55.3485 216.375 53.1662 213.949 50.3547Z" fill="white"/>
<path d="M195.679 81.6067C193.902 81.6067 191.68 81.5052 189.985 80.2973C188.496 79.039 187.433 77.3517 186.94 75.466C185.103 70.201 184.23 64.6482 184.361 59.0737C184.361 57.1553 184.656 55.0137 186.158 53.6434C186.759 53.1621 187.45 52.8048 188.191 52.5923C188.931 52.3797 189.707 52.3161 190.472 52.4051C188.756 51.3292 187.082 50.1823 185.458 48.9846C184.174 48.2361 183.218 47.0337 182.778 45.6148C182.678 45.0846 182.706 44.5381 182.859 44.0209C183.013 43.5036 183.288 43.0305 183.661 42.6408C184.234 42.0256 184.936 41.5459 185.717 41.2369C186.499 40.9278 187.34 40.7971 188.178 40.8544C189.945 41.1 191.65 41.6786 193.202 42.5596C193.872 42.8844 194.552 43.2194 195.232 43.4934C197.531 44.3048 199.914 44.8497 202.337 45.1174C203.251 45.2494 204.154 45.3915 205.067 45.5539C209.462 46.3557 212.416 47.7666 214.345 50.0199C214.72 50.4462 215.065 50.8725 215.36 51.2683C217.166 53.481 218.354 54.9325 221.561 55.2776C222.089 55.3385 222.576 55.3486 223.074 55.3689C224.698 55.3689 226.24 55.4603 227.672 57.0843C229.59 59.2361 230.544 78.2978 229.407 80.8556C229.362 81.0027 229.272 81.1322 229.15 81.2266C229.029 81.321 228.881 81.3757 228.727 81.3834L196.247 81.6067H195.679ZM189.995 53.3998C188.85 53.3322 187.72 53.6941 186.828 54.4148C185.61 55.5212 185.407 57.4598 185.366 59.1143C185.239 64.5675 186.092 69.9993 187.884 75.1513C188.322 76.8368 189.264 78.3487 190.583 79.4853C192.065 80.5003 194.014 80.6323 196.237 80.612H196.349L228.534 80.3887C229.377 78.3587 228.646 59.6928 226.941 57.7745C225.784 56.4854 224.647 56.455 223.063 56.4042C222.556 56.4042 222.048 56.4042 221.47 56.3129C217.856 55.917 216.395 54.1611 214.598 51.9382C214.274 51.5424 213.928 51.1262 213.583 50.6999C211.807 48.6699 209.046 47.3301 204.895 46.5689C204.002 46.4065 203.098 46.2745 202.195 46.1426C199.698 45.8687 197.242 45.3032 194.877 44.4577C194.156 44.1633 193.446 43.8182 192.766 43.4427C191.327 42.619 189.747 42.0716 188.107 41.8288C187.424 41.7867 186.74 41.8948 186.103 42.1456C185.467 42.3964 184.893 42.7837 184.422 43.2803C184.157 43.5546 183.96 43.8882 183.849 44.2536C183.738 44.6189 183.715 45.0055 183.783 45.3813C184.189 46.5455 184.999 47.5252 186.067 48.1421C188.279 49.7661 190.604 51.2988 192.969 52.6995C193.069 52.7609 193.144 52.8551 193.183 52.9661C193.221 53.077 193.22 53.1979 193.179 53.308C193.139 53.4182 193.061 53.5108 192.96 53.5701C192.858 53.6294 192.74 53.6518 192.624 53.6333C191.755 53.4888 190.876 53.4107 189.995 53.3998Z" fill="#1F2223"/>
<path d="M201.799 93.2286C201.733 93.2299 201.667 93.2181 201.606 93.1937C201.544 93.1693 201.488 93.1329 201.441 93.0865C201.394 93.0402 201.356 92.9849 201.33 92.9239C201.305 92.8629 201.292 92.7974 201.292 92.7312C201.292 92.3252 200.632 52.9432 185.61 52.9432C170.588 52.9432 169.928 92.3252 169.928 92.7312C169.925 92.864 169.871 92.9905 169.776 93.0835C169.681 93.1765 169.553 93.2286 169.421 93.2286C169.354 93.2273 169.288 93.2128 169.227 93.1861C169.166 93.1593 169.111 93.1209 169.065 93.0728C169.018 93.0247 168.982 92.968 168.958 92.9059C168.934 92.8438 168.922 92.7776 168.923 92.7109C168.923 91.0463 169.603 51.9282 185.62 51.9282C192.4 51.9282 197.272 58.8404 200.094 72.4718C201.391 79.1455 202.134 85.9149 202.317 92.7109C202.318 92.7784 202.306 92.8455 202.281 92.9082C202.256 92.971 202.219 93.0282 202.172 93.0764C202.124 93.1246 202.068 93.1629 202.006 93.189C201.944 93.2151 201.877 93.2286 201.809 93.2286H201.799Z" fill="#1F2223"/>
<path d="M252.305 88.3057L225.337 82.0837C225.337 82.0837 228.656 66.1178 225.337 54.3742L255.269 53.1562C255.269 53.1562 258.71 59.8045 257.299 71.5886C255.888 83.3728 252.305 88.3057 252.305 88.3057Z" fill="#1F2223"/>
<path d="M252.306 88.8134H252.194L225.215 82.5813C225.085 82.5521 224.972 82.4729 224.9 82.3609C224.827 82.2488 224.802 82.1129 224.83 81.9824C224.83 81.8302 228.088 65.9962 224.83 54.5165C224.809 54.4424 224.806 54.3646 224.82 54.2889C224.834 54.2133 224.865 54.1419 224.911 54.0801C224.956 54.0188 225.014 53.9681 225.08 53.9313C225.147 53.8945 225.221 53.8726 225.296 53.8669L255.229 52.6489C255.325 52.6495 255.42 52.6751 255.503 52.7231C255.587 52.7711 255.657 52.84 255.706 52.923C255.848 53.2072 259.197 59.8453 257.817 71.6497C256.437 83.4542 252.844 88.3972 252.691 88.6104C252.644 88.6688 252.586 88.7169 252.519 88.7519C252.453 88.7868 252.38 88.8077 252.306 88.8134ZM225.916 81.7084L252.062 87.7375C252.813 86.5702 255.655 81.5358 256.822 71.5482C258 61.3982 255.554 55.0748 254.945 53.6944L225.987 54.8718C228.727 65.3567 226.433 78.9679 225.926 81.6982L225.916 81.7084Z" fill="#1F2223"/>
<path d="M205.869 77.1105H205.727C196.237 74.2279 194.765 68.6251 194.765 68.3916C194.734 68.2625 194.755 68.1264 194.824 68.0125C194.892 67.8987 195.002 67.8161 195.131 67.7826C195.262 67.7518 195.401 67.7739 195.517 67.8441C195.632 67.9143 195.716 68.027 195.75 68.1582C195.75 68.1582 197.161 73.4463 206.052 76.1158C206.179 76.1556 206.286 76.2439 206.349 76.3617C206.411 76.4795 206.425 76.6172 206.387 76.7451C206.357 76.8566 206.288 76.9542 206.194 77.0209C206.099 77.0876 205.985 77.1192 205.869 77.1105Z" fill="#1F2223"/>
<path d="M186.412 53.2576C189.438 52.8439 192.493 52.6809 195.547 52.7704C197.577 52.8211 200.023 53.3185 200.622 55.247C200.762 55.8452 200.742 56.47 200.564 57.0581C200.386 57.6462 200.056 58.1769 199.607 58.5965C198.721 59.4237 197.688 60.0777 196.562 60.525C198.379 60.525 200.622 60.8701 201.241 62.555C201.412 63.1568 201.398 63.7963 201.201 64.3901C201.003 64.9839 200.632 65.5045 200.134 65.8842C199.132 66.6218 197.994 67.1531 196.785 67.4473C198.815 67.8127 201.312 68.6653 201.474 70.7156C201.637 72.7659 199.505 73.9331 197.638 74.532C198.206 75.547 199.881 75.344 200.784 76.1458C201.166 76.5906 201.358 77.1677 201.318 77.7526C201.278 78.3375 201.01 78.8833 200.571 79.272C199.656 80.0146 198.53 80.4481 197.353 80.5103C194.997 80.8102 192.617 80.8748 190.248 80.7032C188.751 80.756 187.286 80.2617 186.127 79.3126C185.112 78.2367 185.224 76.0646 186.645 75.6282C185.794 75.5699 184.978 75.2657 184.296 74.7526C183.615 74.2394 183.097 73.5394 182.805 72.7374C182.514 71.9355 182.462 71.0663 182.655 70.2353C182.849 69.4043 183.279 68.6473 183.894 68.0563C183.242 67.7881 182.672 67.352 182.242 66.7922C181.812 66.2325 181.539 65.569 181.448 64.8692C181.401 64.1828 181.518 63.4951 181.79 62.8631C182.062 62.2311 182.481 61.6731 183.011 61.2355C177.51 58.4747 182.473 53.8057 186.412 53.2576Z" fill="white"/>
<path d="M193.07 81.3123C192.156 81.3123 191.213 81.2819 190.238 81.221C188.611 81.2752 187.023 80.7215 185.782 79.668C185.431 79.2799 185.181 78.8106 185.055 78.3023C184.929 77.7939 184.931 77.2622 185.062 76.7549C185.144 76.4533 185.278 76.1682 185.457 75.9125C184.705 75.6704 184.023 75.2501 183.468 74.6874C182.913 74.1246 182.503 73.4361 182.271 72.6805C182.04 71.9248 181.995 71.1245 182.14 70.3476C182.284 69.5708 182.615 68.8404 183.103 68.2188C182.521 67.8682 182.027 67.3899 181.658 66.8202C181.289 66.2504 181.054 65.6041 180.971 64.9302C180.913 64.2818 180.992 63.6284 181.204 63.0128C181.416 62.3971 181.755 61.8331 182.199 61.3574C180.169 60.1191 179.956 58.6778 180.169 57.6526C180.585 55.2167 183.783 53.1156 186.381 52.7604C189.447 52.336 192.544 52.1696 195.638 52.263C198.683 52.3442 200.632 53.3288 201.2 55.0847C201.38 55.766 201.374 56.483 201.183 57.1612C200.992 57.8394 200.623 58.4542 200.114 58.9417C199.646 59.4268 199.109 59.8406 198.521 60.1698C199.217 60.2173 199.889 60.4479 200.468 60.8381C201.048 61.2284 201.514 61.7647 201.819 62.3927C202.02 63.0914 202.009 63.8342 201.787 64.5264C201.564 65.2187 201.141 65.8292 200.571 66.2801C200.004 66.7391 199.371 67.1087 198.693 67.3763C201.302 68.2188 201.992 69.589 202.083 70.6852C202.215 72.3295 200.957 73.8114 198.693 74.7452C198.967 74.8687 199.253 74.964 199.546 75.0294C200.156 75.1485 200.729 75.4093 201.22 75.7907C201.448 75.9996 201.63 76.2537 201.754 76.5369C201.878 76.82 201.942 77.1259 201.941 77.435C201.945 77.8477 201.866 78.2569 201.709 78.6387C201.552 79.0204 201.32 79.3669 201.028 79.6578C200.033 80.4782 198.803 80.9615 197.516 81.0382C196.042 81.2326 194.556 81.3242 193.07 81.3123ZM186.483 53.7652C184.229 54.0697 181.469 55.8764 181.134 57.8252C180.931 58.962 181.651 59.9668 183.265 60.7991C183.338 60.8362 183.4 60.8909 183.446 60.9583C183.492 61.0257 183.521 61.1036 183.529 61.1848C183.539 61.2653 183.529 61.3469 183.501 61.4228C183.473 61.4987 183.427 61.5668 183.367 61.6213C182.897 62.0054 182.527 62.4958 182.285 63.0518C182.043 63.6079 181.937 64.2135 181.976 64.8185C182.052 65.4284 182.29 66.0068 182.665 66.4939C183.04 66.981 183.538 67.3593 184.108 67.5895C184.187 67.6212 184.257 67.6722 184.312 67.7377C184.367 67.8032 184.405 67.8813 184.422 67.965C184.437 68.0494 184.43 68.1359 184.404 68.2173C184.377 68.2986 184.331 68.3723 184.27 68.4319C183.727 68.9564 183.347 69.6269 183.177 70.3625C183.007 71.0981 183.053 71.8672 183.311 72.5769C183.569 73.2866 184.026 73.9065 184.629 74.3615C185.231 74.8166 185.953 75.0873 186.706 75.1411C186.841 75.1263 186.975 75.1656 187.081 75.2503C187.187 75.335 187.254 75.4582 187.269 75.5928C187.284 75.7274 187.245 75.8623 187.16 75.968C187.075 76.0736 186.952 76.1413 186.818 76.1561C186.623 76.2222 186.448 76.3386 186.313 76.4937C186.177 76.6488 186.085 76.837 186.046 77.0391C185.963 77.3793 185.961 77.7344 186.043 78.0751C186.124 78.4158 186.285 78.7322 186.513 78.9981C187.581 79.8598 188.928 80.3004 190.299 80.2364C192.647 80.416 195.007 80.3548 197.343 80.0537C198.412 79.9996 199.438 79.6128 200.276 78.9473C200.472 78.7558 200.627 78.5266 200.731 78.2737C200.836 78.0208 200.888 77.7493 200.885 77.4756C200.886 77.3076 200.854 77.1411 200.789 76.9859C200.725 76.8308 200.63 76.6901 200.51 76.5723C200.131 76.3034 199.698 76.1199 199.241 76.0343C198.836 75.9865 198.445 75.8533 198.095 75.6433C197.745 75.4333 197.444 75.1515 197.211 74.8163C197.181 74.7474 197.166 74.6731 197.166 74.5981C197.166 74.523 197.181 74.4487 197.211 74.3798C197.241 74.3129 197.284 74.253 197.338 74.2041C197.392 74.1551 197.456 74.1181 197.526 74.0956C198.389 73.8114 201.17 72.766 201.007 70.7969C200.875 69.0815 198.612 68.3203 196.734 67.9853C196.622 67.9669 196.519 67.9105 196.443 67.8255C196.368 67.7405 196.323 67.6321 196.318 67.5185C196.311 67.4048 196.341 67.292 196.406 67.1981C196.47 67.1042 196.565 67.0347 196.673 67.0008C197.818 66.7267 198.897 66.23 199.85 65.5392C200.272 65.2299 200.594 64.803 200.774 64.3119C200.955 63.8208 200.986 63.2874 200.865 62.7784C200.449 61.672 199.069 61.1037 196.643 61.0631C196.527 61.0627 196.415 61.0219 196.326 60.9478C196.237 60.8737 196.177 60.7708 196.156 60.657C196.131 60.5441 196.146 60.4262 196.198 60.3229C196.249 60.2195 196.335 60.1369 196.44 60.0886C197.525 59.6776 198.521 59.0607 199.373 58.2718C199.753 57.9154 200.032 57.4648 200.182 56.9656C200.332 56.4665 200.347 55.9366 200.226 55.4298C199.688 53.7652 197.414 53.3998 195.597 53.3085C192.561 53.2167 189.522 53.3797 186.513 53.7956L186.483 53.7652Z" fill="#1F2223"/>
<path d="M185.376 61.7227C185.242 61.7227 185.113 61.6692 185.018 61.574C184.922 61.4788 184.869 61.3498 184.869 61.2152C184.869 61.0806 184.922 60.9515 185.018 60.8563C185.113 60.7611 185.242 60.7077 185.376 60.7077L196.623 60.0073C196.689 60.0032 196.756 60.0123 196.819 60.034C196.882 60.0558 196.941 60.0898 196.991 60.1341C197.041 60.1785 197.081 60.2322 197.11 60.2923C197.14 60.3524 197.157 60.4177 197.161 60.4844C197.164 60.6177 197.116 60.7473 197.028 60.8471C196.939 60.9469 196.816 61.0095 196.683 61.0223L185.447 61.7125L185.376 61.7227Z" fill="#1F2223"/>
<path d="M186.899 68.4927C186.77 68.4928 186.647 68.4432 186.554 68.3543C186.462 68.2654 186.407 68.144 186.402 68.0157C186.397 67.949 186.407 67.8822 186.428 67.819C186.45 67.7559 186.484 67.6976 186.528 67.6477C186.573 67.5977 186.627 67.5569 186.687 67.5278C186.747 67.4986 186.812 67.4816 186.879 67.4777L196.816 66.9499C196.882 66.9444 196.95 66.9525 197.014 66.9737C197.077 66.995 197.136 67.0289 197.186 67.0735C197.237 67.1181 197.277 67.1724 197.306 67.2331C197.335 67.2939 197.351 67.3598 197.353 67.427C197.356 67.4936 197.346 67.5602 197.323 67.6228C197.3 67.6854 197.265 67.7429 197.219 67.7919C197.174 67.8409 197.12 67.8805 197.059 67.9085C196.998 67.9364 196.933 67.9522 196.866 67.9548L186.929 68.4927H186.899Z" fill="#1F2223"/>
<path d="M189.061 75.73C188.926 75.73 188.797 75.6765 188.702 75.5813C188.607 75.4861 188.553 75.357 188.553 75.2225C188.553 75.0879 188.607 74.9588 188.702 74.8636C188.797 74.7684 188.926 74.715 189.061 74.715L197.698 74.0349C197.765 74.0279 197.833 74.0346 197.897 74.0546C197.962 74.0745 198.021 74.1073 198.072 74.151C198.124 74.1946 198.166 74.2482 198.195 74.3085C198.225 74.3688 198.243 74.4346 198.246 74.5018C198.252 74.5685 198.244 74.6356 198.224 74.6993C198.203 74.763 198.17 74.822 198.127 74.873C198.084 74.9239 198.031 74.9658 197.971 74.9961C197.911 75.0265 197.846 75.0448 197.78 75.0499L189.142 75.7198L189.061 75.73Z" fill="#1F2223"/>
<path d="M173.521 104.363H160.692C160.557 104.363 160.428 104.31 160.333 104.214C160.238 104.119 160.184 103.99 160.184 103.856C160.187 103.722 160.241 103.594 160.336 103.5C160.43 103.405 160.558 103.351 160.692 103.348H173.521C173.655 103.351 173.783 103.405 173.877 103.5C173.972 103.594 174.026 103.722 174.029 103.856C174.029 103.99 173.975 104.119 173.88 104.214C173.785 104.31 173.656 104.363 173.521 104.363Z" fill="#DEE5EB"/>
</svg>
