<svg width="32" height="32" viewBox="0 0 32 32" fill="none" xmlns="http://www.w3.org/2000/svg">
<path d="M30 15.8578L16.9435 2.80127C16.7109 2.56806 16.4242 2.39605 16.109 2.30061C15.7938 2.20516 15.4598 2.18924 15.137 2.25427L5.05506 4.27063C4.8615 4.30939 4.68373 4.40455 4.54415 4.54414C4.40456 4.68373 4.3094 4.86149 4.27063 5.05505L2.25428 15.137C2.18937 15.4598 2.20534 15.7938 2.30078 16.109C2.39622 16.4242 2.56816 16.7109 2.80128 16.9435L15.8577 29.9999C16.0434 30.1856 16.2639 30.333 16.5065 30.4335C16.7492 30.5341 17.0093 30.5858 17.272 30.5858C17.5346 30.5858 17.7947 30.5341 18.0374 30.4336C18.2801 30.3331 18.5006 30.1857 18.6863 30L29.9999 18.6864C30.1856 18.5007 30.333 18.2802 30.4335 18.0375C30.5341 17.7949 30.5858 17.5348 30.5858 17.2721C30.5858 17.0095 30.5341 16.7494 30.4336 16.5067C30.3331 16.264 30.1857 16.0435 30 15.8578ZM10.4993 12C10.2026 12 9.91259 11.912 9.66592 11.7472C9.41925 11.5824 9.22699 11.3481 9.11346 11.074C8.99993 10.7999 8.97022 10.4983 9.0281 10.2074C9.08598 9.91639 9.22884 9.64912 9.43862 9.43934C9.6484 9.22956 9.91567 9.0867 10.2066 9.02882C10.4976 8.97095 10.7992 9.00065 11.0733 9.11418C11.3474 9.22771 11.5817 9.41997 11.7465 9.66665C11.9113 9.91332 11.9993 10.2033 11.9993 10.5C11.9993 10.8978 11.8412 11.2794 11.5599 11.5607C11.2786 11.842 10.8971 12 10.4993 12Z" fill="#74F73C"/>
</svg>
