<svg width="32" height="32" viewBox="0 0 32 32" fill="none" xmlns="http://www.w3.org/2000/svg">
<path d="M12.0736 22.1224C11.822 22.0385 11.5474 22.0581 11.3101 22.1767C11.0729 22.2953 10.8925 22.5033 10.8086 22.7549C9.9895 25.2122 7.32178 25.9733 5.7915 26.2086C6.02686 24.6776 6.78796 22.0104 9.24524 21.1914C9.3699 21.1499 9.48517 21.0843 9.58446 20.9982C9.68374 20.9122 9.76511 20.8074 9.82389 20.6899C9.88268 20.5724 9.91774 20.4445 9.92707 20.3135C9.93639 20.1824 9.91981 20.0508 9.87826 19.9262C9.8367 19.8015 9.771 19.6863 9.6849 19.5871C9.5988 19.4879 9.49399 19.4066 9.37646 19.3478C9.25893 19.2891 9.13098 19.2542 8.99993 19.2449C8.86887 19.2357 8.73728 19.2523 8.61267 19.294C6.56763 19.9757 5.06531 21.6003 4.26794 23.9923C3.9132 25.0652 3.71724 26.1842 3.68628 27.3137C3.68629 27.579 3.79165 27.8333 3.97919 28.0208C4.16672 28.2084 4.42107 28.3137 4.68628 28.3137C5.81585 28.2828 6.93482 28.0868 8.00769 27.7321C10.3997 26.9348 12.0243 25.4324 12.7061 23.3873C12.7899 23.1357 12.7704 22.8611 12.6518 22.6239C12.5332 22.3867 12.3252 22.2063 12.0736 22.1224Z" fill="#74F73C"/>
<path d="M28.4515 5.22757C28.3901 4.80408 28.1933 4.4118 27.8907 4.10922C27.5881 3.80664 27.1958 3.60995 26.7723 3.54849C25.3616 3.33798 21.6947 3.23434 18.1212 6.80765L16.9999 7.92898H9.34314C9.08039 7.92829 8.8201 7.9797 8.57734 8.08024C8.33458 8.18079 8.11416 8.32846 7.92884 8.51473L3.88611 12.5575C3.63016 12.8135 3.44849 13.1342 3.36046 13.4853C3.27242 13.8364 3.28134 14.2048 3.38625 14.5513C3.49116 14.8978 3.68814 15.2092 3.95617 15.4525C4.2242 15.6958 4.55325 15.8618 4.90821 15.9328L9.85007 16.9212L15.0788 22.1499L16.0671 27.0918C16.138 27.4469 16.304 27.776 16.5473 28.0441C16.7906 28.3122 17.1022 28.5093 17.4487 28.6142C17.7952 28.7191 18.1637 28.728 18.5149 28.6398C18.8661 28.5517 19.1867 28.3699 19.4426 28.1138L23.4854 24.071C23.6716 23.8857 23.8193 23.6653 23.9198 23.4226C24.0204 23.1799 24.0718 22.9196 24.0711 22.6569V15L25.1924 13.8787C28.7659 10.3052 28.6621 6.63833 28.4515 5.22757ZM9.34314 9.92898H14.9999L10.0144 14.9145L5.30042 13.9717L9.34314 9.92898ZM22.0711 22.6569L18.0283 26.6996L17.0855 21.9856L22.071 17.0001L22.0711 22.6569Z" fill="#74F73C"/>
</svg>
