<svg width="225" height="244" viewBox="0 0 225 244" fill="none" xmlns="http://www.w3.org/2000/svg">
<path d="M59.3723 17.1709H0.563232V73.0162H59.3723V17.1709Z" fill="white"/>
<path d="M59.3621 73.544H0.563197C0.494369 73.5453 0.425962 73.533 0.361981 73.5075C0.298001 73.4821 0.239735 73.4442 0.190587 73.396C0.141438 73.3478 0.102393 73.2903 0.0757458 73.2268C0.049099 73.1633 0.0353872 73.0952 0.0354004 73.0263V17.2013C0.0353872 17.1325 0.049099 17.0643 0.0757458 17.0009C0.102393 16.9374 0.141438 16.8799 0.190587 16.8317C0.239735 16.7835 0.298001 16.7456 0.361981 16.7201C0.425962 16.6947 0.494369 16.6823 0.563197 16.6837H59.3621C59.431 16.6823 59.4994 16.6947 59.5634 16.7201C59.6273 16.7456 59.6856 16.7835 59.7348 16.8317C59.7839 16.8799 59.8229 16.9374 59.8496 17.0009C59.8762 17.0643 59.89 17.1325 59.8899 17.2013V73.0263C59.89 73.0952 59.8762 73.1633 59.8496 73.2268C59.8229 73.2903 59.7839 73.3478 59.7348 73.396C59.6856 73.4442 59.6273 73.4821 59.5634 73.5075C59.4994 73.533 59.431 73.5453 59.3621 73.544ZM1.08085 72.529H58.8445V17.719H1.08085V72.529Z" fill="#DEE5EB"/>
<path d="M47.9028 27.1178H17.0976C17.019 27.1403 16.9363 27.1442 16.856 27.1292C16.7757 27.1143 16.7 27.0809 16.6348 27.0317C16.5695 26.9825 16.5166 26.9188 16.4802 26.8457C16.4438 26.7726 16.4248 26.692 16.4248 26.6103C16.4248 26.5286 16.4438 26.4481 16.4802 26.3749C16.5166 26.3018 16.5695 26.2382 16.6348 26.189C16.7 26.1398 16.7757 26.1064 16.856 26.0914C16.9363 26.0765 17.019 26.0804 17.0976 26.1028H47.9028C47.9814 26.0804 48.0641 26.0765 48.1444 26.0914C48.2247 26.1064 48.3004 26.1398 48.3656 26.189C48.4309 26.2382 48.4838 26.3018 48.5202 26.3749C48.5566 26.4481 48.5756 26.5286 48.5756 26.6103C48.5756 26.692 48.5566 26.7726 48.5202 26.8457C48.4838 26.9188 48.4309 26.9825 48.3656 27.0317C48.3004 27.0809 48.2247 27.1143 48.1444 27.1292C48.0641 27.1442 47.9814 27.1403 47.9028 27.1178Z" fill="#DEE5EB"/>
<path d="M11.6368 27.1178H10.5C10.3897 27.0863 10.2927 27.0197 10.2236 26.9282C10.1546 26.8366 10.1172 26.725 10.1172 26.6103C10.1172 26.4956 10.1546 26.384 10.2236 26.2925C10.2927 26.2009 10.3897 26.1343 10.5 26.1028H11.6165C11.6951 26.0804 11.7778 26.0765 11.8581 26.0914C11.9384 26.1064 12.0141 26.1398 12.0793 26.189C12.1446 26.2382 12.1975 26.3018 12.2339 26.3749C12.2703 26.4481 12.2893 26.5286 12.2893 26.6103C12.2893 26.692 12.2703 26.7726 12.2339 26.8457C12.1975 26.9188 12.1446 26.9825 12.0793 27.0317C12.0141 27.0809 11.9384 27.1143 11.8581 27.1292C11.7778 27.1442 11.6951 27.1403 11.6165 27.1178H11.6368Z" fill="#DEE5EB"/>
<path d="M36.2405 34.1212H17.0976C17.019 34.1437 16.9363 34.1476 16.856 34.1326C16.7757 34.1177 16.7 34.0843 16.6348 34.0351C16.5695 33.9859 16.5166 33.9222 16.4802 33.8491C16.4438 33.776 16.4248 33.6954 16.4248 33.6137C16.4248 33.532 16.4438 33.4515 16.4802 33.3784C16.5166 33.3052 16.5695 33.2416 16.6348 33.1924C16.7 33.1432 16.7757 33.1098 16.856 33.0948C16.9363 33.0799 17.019 33.0838 17.0976 33.1062H36.2405C36.319 33.0838 36.4017 33.0799 36.482 33.0948C36.5623 33.1098 36.6381 33.1432 36.7033 33.1924C36.7685 33.2416 36.8214 33.3052 36.8579 33.3784C36.8943 33.4515 36.9132 33.532 36.9132 33.6137C36.9132 33.6954 36.8943 33.776 36.8579 33.8491C36.8214 33.9222 36.7685 33.9859 36.7033 34.0351C36.6381 34.0843 36.5623 34.1177 36.482 34.1326C36.4017 34.1476 36.319 34.1437 36.2405 34.1212Z" fill="#DEE5EB"/>
<path d="M11.6368 34.1212H10.5C10.3897 34.0897 10.2927 34.0232 10.2236 33.9316C10.1546 33.84 10.1172 33.7284 10.1172 33.6137C10.1172 33.499 10.1546 33.3875 10.2236 33.2959C10.2927 33.2043 10.3897 33.1377 10.5 33.1062H11.6165C11.6951 33.0838 11.7778 33.0799 11.8581 33.0948C11.9384 33.1098 12.0141 33.1432 12.0793 33.1924C12.1446 33.2416 12.1975 33.3052 12.2339 33.3784C12.2703 33.4515 12.2893 33.532 12.2893 33.6137C12.2893 33.6954 12.2703 33.776 12.2339 33.8491C12.1975 33.9222 12.1446 33.9859 12.0793 34.0351C12.0141 34.0843 11.9384 34.1177 11.8581 34.1326C11.7778 34.1476 11.6951 34.1437 11.6165 34.1212H11.6368Z" fill="#DEE5EB"/>
<path d="M50.9478 41.1349H17.0975C16.9575 41.1349 16.8233 41.0793 16.7243 40.9804C16.6253 40.8814 16.5697 40.7471 16.5697 40.6071C16.5697 40.4672 16.6253 40.3329 16.7243 40.2339C16.8233 40.135 16.9575 40.0793 17.0975 40.0793H50.9478C51.0869 40.0819 51.2197 40.1384 51.3181 40.2368C51.4165 40.3352 51.4729 40.468 51.4755 40.6071C51.4755 40.7471 51.4199 40.8814 51.321 40.9804C51.222 41.0793 51.0877 41.1349 50.9478 41.1349Z" fill="#DEE5EB"/>
<path d="M11.6369 41.1349H10.5001C10.4312 41.135 10.3631 41.1212 10.2996 41.0946C10.2361 41.0679 10.1786 41.0289 10.1304 40.9798C10.0822 40.9306 10.0443 40.8723 10.0188 40.8084C9.99344 40.7444 9.98105 40.676 9.9824 40.6071C9.98237 40.4689 10.0366 40.3362 10.1334 40.2375C10.2302 40.1388 10.3618 40.082 10.5001 40.0793H11.6165C11.7565 40.0793 11.8908 40.135 11.9898 40.2339C12.0887 40.3329 12.1444 40.4672 12.1444 40.6071C12.1445 40.7437 12.0916 40.8749 11.997 40.9734C11.9024 41.0718 11.7733 41.1297 11.6369 41.1349Z" fill="#DEE5EB"/>
<path d="M40.2497 48.1386H17.0976C17.019 48.161 16.9363 48.1649 16.856 48.15C16.7757 48.135 16.7 48.1016 16.6348 48.0524C16.5695 48.0032 16.5166 47.9396 16.4802 47.8665C16.4438 47.7933 16.4248 47.7128 16.4248 47.6311C16.4248 47.5494 16.4438 47.4688 16.4802 47.3957C16.5166 47.3226 16.5695 47.2589 16.6348 47.2097C16.7 47.1605 16.7757 47.1271 16.856 47.1122C16.9363 47.0972 17.019 47.1011 17.0976 47.1236H40.2497C40.36 47.1551 40.457 47.2216 40.5261 47.3132C40.5952 47.4048 40.6325 47.5164 40.6325 47.6311C40.6325 47.7458 40.5952 47.8573 40.5261 47.9489C40.457 48.0405 40.36 48.1071 40.2497 48.1386Z" fill="#DEE5EB"/>
<path d="M11.6368 48.1386H10.5C10.3897 48.1071 10.2927 48.0405 10.2236 47.9489C10.1546 47.8573 10.1172 47.7458 10.1172 47.6311C10.1172 47.5164 10.1546 47.4048 10.2236 47.3132C10.2927 47.2216 10.3897 47.1551 10.5 47.1236H11.6165C11.6951 47.1011 11.7778 47.0972 11.8581 47.1122C11.9384 47.1271 12.0141 47.1605 12.0793 47.2097C12.1446 47.2589 12.1975 47.3226 12.2339 47.3957C12.2703 47.4688 12.2893 47.5494 12.2893 47.6311C12.2893 47.7128 12.2703 47.7933 12.2339 47.8665C12.1975 47.9396 12.1446 48.0032 12.0793 48.0524C12.0141 48.1016 11.9384 48.135 11.8581 48.15C11.7778 48.1649 11.6951 48.161 11.6165 48.1386H11.6368Z" fill="#DEE5EB"/>
<path d="M48.9178 55.1522H17.0976C16.9873 55.1207 16.8902 55.0541 16.8212 54.9626C16.7521 54.871 16.7147 54.7594 16.7147 54.6447C16.7147 54.53 16.7521 54.4184 16.8212 54.3269C16.8902 54.2353 16.9873 54.1687 17.0976 54.1372H48.9178C49.0281 54.1687 49.1251 54.2353 49.1942 54.3269C49.2633 54.4184 49.3006 54.53 49.3006 54.6447C49.3006 54.7594 49.2633 54.871 49.1942 54.9626C49.1251 55.0541 49.0281 55.1207 48.9178 55.1522Z" fill="#DEE5EB"/>
<path d="M11.6368 55.152H10.5C10.3897 55.1205 10.2927 55.0539 10.2236 54.9624C10.1546 54.8708 10.1172 54.7592 10.1172 54.6445C10.1172 54.5298 10.1546 54.4182 10.2236 54.3267C10.2927 54.2351 10.3897 54.1685 10.5 54.137H11.6165C11.6951 54.1146 11.7778 54.1107 11.8581 54.1256C11.9384 54.1406 12.0141 54.1739 12.0793 54.2231C12.1446 54.2723 12.1975 54.336 12.2339 54.4091C12.2703 54.4822 12.2893 54.5628 12.2893 54.6445C12.2893 54.7262 12.2703 54.8068 12.2339 54.8799C12.1975 54.953 12.1446 55.0167 12.0793 55.0659C12.0141 55.1151 11.9384 55.1484 11.8581 55.1634C11.7778 55.1783 11.6951 55.1744 11.6165 55.152H11.6368Z" fill="#DEE5EB"/>
<path d="M45.1014 62.1151H17.0976C17.019 62.1376 16.9363 62.1415 16.856 62.1265C16.7757 62.1116 16.7 62.0782 16.6348 62.029C16.5695 61.9798 16.5166 61.9161 16.4802 61.843C16.4438 61.7699 16.4248 61.6893 16.4248 61.6076C16.4248 61.5259 16.4438 61.4454 16.4802 61.3723C16.5166 61.2991 16.5695 61.2355 16.6348 61.1863C16.7 61.1371 16.7757 61.1037 16.856 61.0887C16.9363 61.0738 17.019 61.0777 17.0976 61.1001H45.1014C45.18 61.0777 45.2627 61.0738 45.343 61.0887C45.4233 61.1037 45.499 61.1371 45.5642 61.1863C45.6295 61.2355 45.6824 61.2991 45.7188 61.3723C45.7552 61.4454 45.7742 61.5259 45.7742 61.6076C45.7742 61.6893 45.7552 61.7699 45.7188 61.843C45.6824 61.9161 45.6295 61.9798 45.5642 62.029C45.499 62.0782 45.4233 62.1116 45.343 62.1265C45.2627 62.1415 45.18 62.1376 45.1014 62.1151Z" fill="#DEE5EB"/>
<path d="M11.6368 62.1151H10.5C10.3897 62.0836 10.2927 62.0171 10.2236 61.9255C10.1546 61.8339 10.1172 61.7223 10.1172 61.6076C10.1172 61.4929 10.1546 61.3814 10.2236 61.2898C10.2927 61.1982 10.3897 61.1316 10.5 61.1001H11.6165C11.6951 61.0777 11.7778 61.0738 11.8581 61.0887C11.9384 61.1037 12.0141 61.1371 12.0793 61.1863C12.1446 61.2355 12.1975 61.2991 12.2339 61.3723C12.2703 61.4454 12.2893 61.5259 12.2893 61.6076C12.2893 61.6893 12.2703 61.7699 12.2339 61.843C12.1975 61.9161 12.1446 61.9798 12.0793 62.029C12.0141 62.0782 11.9384 62.1116 11.8581 62.1265C11.7778 62.1415 11.6951 62.1376 11.6165 62.1151H11.6368Z" fill="#DEE5EB"/>
<path d="M220.838 16.1458H178.31V77.8984H220.838V16.1458Z" fill="white"/>
<path d="M220.828 78.416H178.31C178.241 78.4173 178.173 78.4049 178.109 78.3795C178.045 78.3541 177.987 78.3162 177.937 78.268C177.888 78.2198 177.849 78.1623 177.823 78.0988C177.796 78.0353 177.782 77.9672 177.782 77.8983V16.1457C177.782 16.0057 177.838 15.8715 177.937 15.7725C178.036 15.6735 178.17 15.6179 178.31 15.6179H220.828C220.968 15.6179 221.103 15.6735 221.202 15.7725C221.301 15.8715 221.356 16.0057 221.356 16.1457V77.8983C221.356 77.9672 221.342 78.0353 221.316 78.0988C221.289 78.1623 221.25 78.2198 221.201 78.268C221.152 78.3162 221.094 78.3541 221.03 78.3795C220.966 78.4049 220.897 78.4173 220.828 78.416ZM178.828 77.401H220.311V16.6735H178.828V77.401Z" fill="#DEE5EB"/>
<path d="M191.86 24.3164H183.395V32.7815H191.86V24.3164Z" fill="white"/>
<path d="M191.86 33.3093H183.395C183.255 33.3093 183.121 33.2537 183.022 33.1547C182.923 33.0557 182.867 32.9215 182.867 32.7815V24.3164C182.867 24.1764 182.923 24.0421 183.022 23.9432C183.121 23.8442 183.255 23.7886 183.395 23.7886H191.86C191.929 23.7886 191.997 23.8023 192.061 23.8289C192.124 23.8556 192.182 23.8946 192.23 23.9438C192.278 23.9929 192.316 24.0512 192.341 24.1152C192.367 24.1791 192.379 24.2475 192.378 24.3164V32.7815C192.378 32.9197 192.324 33.0524 192.227 33.1511C192.13 33.2498 191.998 33.3066 191.86 33.3093ZM183.913 32.2943H191.332V24.834H183.913V32.2943Z" fill="#DEE5EB"/>
<path d="M186.755 31.1677C186.711 31.1773 186.666 31.1773 186.623 31.1677C186.547 31.1473 186.477 31.1104 186.417 31.0594C186.357 31.0085 186.31 30.9449 186.278 30.8733L185.151 28.2242C185.118 28.1008 185.13 27.9695 185.186 27.8546C185.242 27.7396 185.338 27.649 185.456 27.5994C185.573 27.5498 185.705 27.5446 185.827 27.5848C185.948 27.6251 186.051 27.708 186.115 27.8182L186.988 29.8482L193.291 25.2705C193.347 25.2297 193.41 25.2005 193.478 25.1845C193.545 25.1685 193.614 25.1661 193.683 25.1775C193.751 25.1888 193.816 25.2137 193.874 25.2506C193.932 25.2875 193.983 25.3356 194.022 25.3923C194.063 25.448 194.092 25.5113 194.108 25.5784C194.124 25.6456 194.127 25.7153 194.115 25.7834C194.104 25.8515 194.079 25.9166 194.042 25.9749C194.005 26.0333 193.957 26.0837 193.9 26.1231L187.11 31.0662C187.009 31.1434 186.882 31.1797 186.755 31.1677Z" fill="#DEE5EB"/>
<path d="M215.743 28.6911H196.752C196.674 28.7135 196.591 28.7174 196.511 28.7025C196.431 28.6875 196.355 28.6541 196.29 28.6049C196.224 28.5557 196.172 28.4921 196.135 28.4189C196.099 28.3458 196.08 28.2653 196.08 28.1836C196.08 28.1019 196.099 28.0213 196.135 27.9482C196.172 27.8751 196.224 27.8114 196.29 27.7622C196.355 27.713 196.431 27.6796 196.511 27.6647C196.591 27.6497 196.674 27.6536 196.752 27.6761H215.743C215.822 27.6536 215.904 27.6497 215.985 27.6647C216.065 27.6796 216.141 27.713 216.206 27.7622C216.271 27.8114 216.324 27.8751 216.361 27.9482C216.397 28.0213 216.416 28.1019 216.416 28.1836C216.416 28.2653 216.397 28.3458 216.361 28.4189C216.324 28.4921 216.271 28.5557 216.206 28.6049C216.141 28.6541 216.065 28.6875 215.985 28.7025C215.904 28.7174 215.822 28.7135 215.743 28.6911Z" fill="#DEE5EB"/>
<path d="M191.86 36.6284H183.395V45.0935H191.86V36.6284Z" fill="white"/>
<path d="M191.86 45.6212H183.395C183.255 45.6212 183.121 45.5656 183.022 45.4667C182.923 45.3677 182.867 45.2334 182.867 45.0935V36.6283C182.867 36.5595 182.881 36.4914 182.908 36.4279C182.934 36.3644 182.973 36.3069 183.022 36.2587C183.072 36.2105 183.13 36.1726 183.194 36.1472C183.258 36.1217 183.326 36.1093 183.395 36.1107H191.86C191.997 36.1107 192.129 36.1652 192.226 36.2623C192.323 36.3594 192.378 36.4911 192.378 36.6283V45.0935C192.379 45.1623 192.367 45.2307 192.341 45.2947C192.316 45.3586 192.278 45.4169 192.23 45.4661C192.182 45.5152 192.124 45.5542 192.061 45.5809C191.997 45.6075 191.929 45.6213 191.86 45.6212ZM183.913 44.6062H191.332V37.1562H183.913V44.6062Z" fill="#DEE5EB"/>
<path d="M186.755 43.4797H186.623C186.546 43.4576 186.476 43.4189 186.416 43.3662C186.356 43.3135 186.309 43.2483 186.278 43.1752L185.151 40.5362C185.112 40.4115 185.12 40.2766 185.174 40.1577C185.228 40.0387 185.325 39.9442 185.445 39.8924C185.565 39.8406 185.7 39.8352 185.824 39.8772C185.948 39.9193 186.052 40.0058 186.115 40.12L186.988 42.15L193.291 37.5724C193.405 37.4926 193.545 37.4607 193.682 37.4835C193.818 37.5063 193.941 37.582 194.022 37.6942C194.063 37.7499 194.092 37.8131 194.108 37.8803C194.124 37.9475 194.127 38.0171 194.115 38.0852C194.104 38.1533 194.079 38.2185 194.042 38.2768C194.005 38.3352 193.957 38.3855 193.9 38.425L187.11 43.3883C187.005 43.4572 186.88 43.4893 186.755 43.4797Z" fill="#DEE5EB"/>
<path d="M215.743 41.0031H196.752C196.674 41.0255 196.591 41.0294 196.511 41.0145C196.431 40.9995 196.355 40.9661 196.29 40.9169C196.224 40.8677 196.172 40.8041 196.135 40.731C196.099 40.6578 196.08 40.5773 196.08 40.4956C196.08 40.4139 196.099 40.3333 196.135 40.2602C196.172 40.1871 196.224 40.1234 196.29 40.0742C196.355 40.025 196.431 39.9916 196.511 39.9767C196.591 39.9617 196.674 39.9656 196.752 39.9881H215.743C215.822 39.9656 215.904 39.9617 215.985 39.9767C216.065 39.9916 216.141 40.025 216.206 40.0742C216.271 40.1234 216.324 40.1871 216.361 40.2602C216.397 40.3333 216.416 40.4139 216.416 40.4956C216.416 40.5773 216.397 40.6578 216.361 40.731C216.324 40.8041 216.271 40.8677 216.206 40.9169C216.141 40.9661 216.065 40.9995 215.985 41.0145C215.904 41.0294 215.822 41.0255 215.743 41.0031Z" fill="#DEE5EB"/>
<path d="M191.86 48.9404H183.395V57.4055H191.86V48.9404Z" fill="white"/>
<path d="M191.86 57.9333H183.395C183.326 57.9346 183.258 57.9223 183.194 57.8968C183.13 57.8714 183.072 57.8335 183.022 57.7853C182.973 57.7371 182.934 57.6796 182.908 57.6161C182.881 57.5526 182.867 57.4845 182.867 57.4156V48.9201C182.867 48.8513 182.881 48.7831 182.908 48.7196C182.934 48.6561 182.973 48.5986 183.022 48.5504C183.072 48.5022 183.13 48.4643 183.194 48.4389C183.258 48.4135 183.326 48.4011 183.395 48.4024H191.86C191.997 48.4024 192.129 48.457 192.226 48.5541C192.323 48.6511 192.378 48.7828 192.378 48.9201V57.3953C192.381 57.465 192.369 57.5345 192.344 57.5997C192.32 57.6648 192.282 57.7243 192.234 57.7746C192.185 57.8248 192.127 57.8648 192.063 57.892C191.999 57.9193 191.93 57.9333 191.86 57.9333ZM183.913 56.9183H191.332V49.4682H183.913V56.9183Z" fill="#DEE5EB"/>
<path d="M186.755 55.8017H186.623C186.546 55.781 186.474 55.7427 186.415 55.6899C186.355 55.6371 186.308 55.5711 186.278 55.4972L185.151 52.8582C185.097 52.729 185.097 52.5837 185.15 52.4542C185.204 52.3248 185.306 52.2218 185.435 52.168C185.499 52.1415 185.566 52.1279 185.635 52.1279C185.704 52.1278 185.771 52.1415 185.835 52.1679C185.898 52.1943 185.955 52.2331 186.004 52.2819C186.052 52.3307 186.09 52.3886 186.115 52.4522L186.988 54.4822L193.291 49.9147C193.347 49.8747 193.409 49.846 193.476 49.8302C193.542 49.8145 193.611 49.8119 193.678 49.8228C193.746 49.8336 193.81 49.8576 193.869 49.8934C193.927 49.9292 193.977 49.9761 194.017 50.0314C194.057 50.0867 194.086 50.1494 194.102 50.2158C194.117 50.2822 194.12 50.3511 194.109 50.4185C194.098 50.4859 194.074 50.5504 194.038 50.6086C194.003 50.6667 193.956 50.7172 193.9 50.7571L187.11 55.7002C187.009 55.7775 186.882 55.8137 186.755 55.8017Z" fill="#DEE5EB"/>
<path d="M215.743 53.3151H196.752C196.674 53.3375 196.591 53.3414 196.511 53.3265C196.431 53.3115 196.355 53.2781 196.29 53.2289C196.224 53.1797 196.172 53.1161 196.135 53.043C196.099 52.9699 196.08 52.8893 196.08 52.8076C196.08 52.7259 196.099 52.6453 196.135 52.5722C196.172 52.4991 196.224 52.4354 196.29 52.3862C196.355 52.337 196.431 52.3036 196.511 52.2887C196.591 52.2737 196.674 52.2776 196.752 52.3001H215.743C215.822 52.2776 215.904 52.2737 215.985 52.2887C216.065 52.3036 216.141 52.337 216.206 52.3862C216.271 52.4354 216.324 52.4991 216.361 52.5722C216.397 52.6453 216.416 52.7259 216.416 52.8076C216.416 52.8893 216.397 52.9699 216.361 53.043C216.324 53.1161 216.271 53.1797 216.206 53.2289C216.141 53.2781 216.065 53.3115 215.985 53.3265C215.904 53.3414 215.822 53.3375 215.743 53.3151Z" fill="#DEE5EB"/>
<path d="M191.86 61.2625H183.395V69.7275H191.86V61.2625Z" fill="white"/>
<path d="M191.86 70.235H183.395C183.326 70.2364 183.258 70.224 183.194 70.1986C183.13 70.1732 183.072 70.1352 183.022 70.087C182.973 70.0388 182.934 69.9813 182.908 69.9178C182.881 69.8544 182.867 69.7862 182.867 69.7174V61.2624C182.867 61.1224 182.923 60.9882 183.022 60.8892C183.121 60.7902 183.255 60.7346 183.395 60.7346H191.86C191.929 60.7346 191.997 60.7483 192.061 60.775C192.124 60.8016 192.182 60.8407 192.23 60.8898C192.278 60.939 192.316 60.9972 192.341 61.0612C192.367 61.1252 192.379 61.1936 192.378 61.2624V69.7275C192.375 69.863 192.319 69.9921 192.223 70.087C192.126 70.1819 191.996 70.235 191.86 70.235ZM183.913 69.22H191.332V61.7801H183.913V69.22Z" fill="#DEE5EB"/>
<path d="M186.755 68.1136C186.711 68.1232 186.666 68.1232 186.623 68.1136C186.547 68.0933 186.477 68.0563 186.417 68.0054C186.357 67.9545 186.31 67.8909 186.278 67.8193L185.151 65.1599C185.118 65.0366 185.13 64.9053 185.186 64.7903C185.242 64.6754 185.338 64.5848 185.456 64.5352C185.573 64.4855 185.705 64.4804 185.827 64.5206C185.948 64.5609 186.051 64.6438 186.115 64.7539L186.988 66.7839L193.291 62.2063C193.347 62.1655 193.41 62.1362 193.478 62.1203C193.545 62.1043 193.614 62.1019 193.683 62.1132C193.751 62.1246 193.816 62.1494 193.874 62.1863C193.932 62.2232 193.983 62.2714 194.022 62.3281C194.063 62.3838 194.092 62.4471 194.108 62.5142C194.124 62.5814 194.127 62.6511 194.115 62.7192C194.104 62.7872 194.079 62.8524 194.042 62.9107C194.005 62.9691 193.957 63.0195 193.9 63.0589L187.11 68.0121C187.009 68.0894 186.882 68.1256 186.755 68.1136Z" fill="#DEE5EB"/>
<path d="M215.743 65.6371H196.752C196.674 65.6595 196.591 65.6634 196.511 65.6485C196.431 65.6336 196.355 65.6002 196.29 65.551C196.224 65.5018 196.172 65.4381 196.135 65.365C196.099 65.2919 196.08 65.2113 196.08 65.1296C196.08 65.0479 196.099 64.9673 196.135 64.8942C196.172 64.8211 196.224 64.7574 196.29 64.7083C196.355 64.6591 196.431 64.6257 196.511 64.6107C196.591 64.5958 196.674 64.5997 196.752 64.6221H215.743C215.822 64.5997 215.904 64.5958 215.985 64.6107C216.065 64.6257 216.141 64.6591 216.206 64.7083C216.271 64.7574 216.324 64.8211 216.361 64.8942C216.397 64.9673 216.416 65.0479 216.416 65.1296C216.416 65.2113 216.397 65.2919 216.361 65.365C216.324 65.4381 216.271 65.5018 216.206 65.551C216.141 65.6002 216.065 65.6336 215.985 65.6485C215.904 65.6634 215.822 65.6595 215.743 65.6371Z" fill="#DEE5EB"/>
<path d="M223.447 111.373H163.755V147.527H223.447V111.373Z" fill="white"/>
<path d="M223.437 148.055H163.765C163.625 148.055 163.491 148 163.392 147.901C163.293 147.802 163.237 147.667 163.237 147.527V111.373C163.234 111.302 163.246 111.232 163.272 111.166C163.297 111.1 163.336 111.04 163.385 110.99C163.434 110.94 163.494 110.9 163.559 110.873C163.624 110.847 163.694 110.834 163.765 110.835H223.447C223.516 110.834 223.584 110.846 223.648 110.872C223.712 110.897 223.77 110.935 223.82 110.983C223.869 111.031 223.908 111.089 223.934 111.152C223.961 111.216 223.975 111.284 223.975 111.353V147.507C223.978 147.579 223.966 147.651 223.94 147.718C223.914 147.785 223.874 147.846 223.824 147.897C223.774 147.948 223.713 147.989 223.647 148.016C223.58 148.043 223.509 148.057 223.437 148.055ZM164.273 147.04H222.919V111.901H164.273V147.04Z" fill="#DEE5EB"/>
<path d="M223.437 119.655H163.765C163.687 119.678 163.604 119.682 163.524 119.667C163.443 119.652 163.367 119.618 163.302 119.569C163.237 119.52 163.184 119.456 163.148 119.383C163.111 119.31 163.092 119.23 163.092 119.148C163.092 119.066 163.111 118.986 163.148 118.913C163.184 118.839 163.237 118.776 163.302 118.727C163.367 118.677 163.443 118.644 163.524 118.629C163.604 118.614 163.687 118.618 163.765 118.64H223.447C223.526 118.618 223.608 118.614 223.689 118.629C223.769 118.644 223.845 118.677 223.91 118.727C223.975 118.776 224.028 118.839 224.064 118.913C224.101 118.986 224.12 119.066 224.12 119.148C224.12 119.23 224.101 119.31 224.064 119.383C224.028 119.456 223.975 119.52 223.91 119.569C223.845 119.618 223.769 119.652 223.689 119.667C223.608 119.682 223.526 119.678 223.447 119.655H223.437Z" fill="#DEE5EB"/>
<path d="M173.276 147.791C173.207 147.791 173.139 147.778 173.075 147.751C173.012 147.724 172.954 147.685 172.906 147.636C172.858 147.587 172.82 147.529 172.794 147.465C172.769 147.401 172.757 147.332 172.758 147.263V111.373C172.789 111.263 172.856 111.166 172.948 111.097C173.039 111.028 173.151 110.99 173.265 110.99C173.38 110.99 173.492 111.028 173.583 111.097C173.675 111.166 173.741 111.263 173.773 111.373V147.263C173.773 147.398 173.722 147.528 173.629 147.626C173.537 147.724 173.41 147.783 173.276 147.791Z" fill="#DEE5EB"/>
<path d="M15.0878 126.425C21.2877 126.425 26.3137 121.399 26.3137 115.2C26.3137 109 21.2877 103.974 15.0878 103.974C8.88794 103.974 3.86194 109 3.86194 115.2C3.86194 121.399 8.88794 126.425 15.0878 126.425Z" fill="white"/>
<path d="M15.0878 126.953C12.7603 126.955 10.4845 126.267 8.54838 124.975C6.61227 123.683 5.1029 121.846 4.21126 119.696C3.31963 117.546 3.0858 115.18 3.53939 112.897C3.99298 110.614 5.11359 108.517 6.7594 106.871C8.40522 105.225 10.5023 104.105 12.7852 103.651C15.0681 103.197 17.4342 103.431 19.5842 104.323C21.7342 105.215 23.5714 106.724 24.8632 108.66C26.1551 110.596 26.8436 112.872 26.8415 115.2C26.8362 118.315 25.5961 121.302 23.393 123.505C21.19 125.708 18.2035 126.948 15.0878 126.953ZM15.0878 104.491C12.97 104.491 10.8996 105.119 9.13866 106.296C7.3777 107.473 6.0052 109.145 5.19471 111.102C4.38423 113.058 4.17217 115.211 4.58535 117.289C4.99853 119.366 6.01839 121.274 7.51597 122.771C9.01354 124.269 10.9216 125.289 12.9988 125.702C15.076 126.115 17.229 125.903 19.1857 125.093C21.1424 124.282 22.8148 122.91 23.9914 121.149C25.1681 119.388 25.7961 117.317 25.7961 115.2C25.7934 112.36 24.6644 109.638 22.6568 107.631C20.6491 105.623 17.927 104.494 15.0878 104.491Z" fill="#DEE5EB"/>
<path d="M14.286 109.404V115.199L20.8023 110.449" fill="white"/>
<path d="M14.286 115.717C14.2055 115.716 14.1261 115.699 14.0525 115.666C13.9652 115.623 13.8914 115.557 13.8395 115.474C13.7875 115.392 13.7594 115.297 13.7582 115.199V109.404C13.7582 109.264 13.8138 109.13 13.9128 109.031C14.0118 108.932 14.146 108.876 14.286 108.876C14.426 108.876 14.5602 108.932 14.6592 109.031C14.7582 109.13 14.8138 109.264 14.8138 109.404V114.164L20.4978 110.033C20.5518 109.98 20.6166 109.94 20.6876 109.914C20.7586 109.889 20.8343 109.879 20.9095 109.885C20.9847 109.891 21.0577 109.914 21.1236 109.95C21.1894 109.987 21.2467 110.038 21.2913 110.099C21.336 110.159 21.3672 110.229 21.3826 110.303C21.3981 110.377 21.3976 110.453 21.381 110.527C21.3645 110.6 21.3324 110.67 21.2868 110.73C21.2413 110.79 21.1833 110.84 21.1169 110.876L14.56 115.616C14.4815 115.677 14.3857 115.713 14.286 115.717Z" fill="#DEE5EB"/>
<path d="M49.476 110.104H32.9011C32.7628 110.102 32.6312 110.045 32.5344 109.946C32.4376 109.847 32.3834 109.715 32.3834 109.576C32.3821 109.508 32.3944 109.439 32.4199 109.375C32.4453 109.311 32.4832 109.253 32.5314 109.204C32.5796 109.155 32.6371 109.116 32.7006 109.089C32.7641 109.062 32.8322 109.049 32.9011 109.049H49.476C49.5453 109.049 49.614 109.062 49.678 109.089C49.742 109.115 49.8002 109.154 49.8492 109.203C49.8982 109.252 49.9371 109.31 49.9636 109.374C49.9901 109.438 50.0038 109.507 50.0038 109.576C50.0038 109.646 49.9901 109.714 49.9636 109.778C49.9371 109.842 49.8982 109.901 49.8492 109.95C49.8002 109.999 49.742 110.037 49.678 110.064C49.614 110.091 49.5453 110.104 49.476 110.104Z" fill="#DEE5EB"/>
<path d="M49.4761 115.453H32.9011C32.7909 115.422 32.6938 115.355 32.6248 115.264C32.5557 115.172 32.5183 115.06 32.5183 114.946C32.5183 114.831 32.5557 114.719 32.6248 114.628C32.6938 114.536 32.7909 114.47 32.9011 114.438H49.4761C49.5546 114.416 49.6373 114.412 49.7176 114.427C49.7979 114.442 49.8737 114.475 49.9389 114.524C50.0041 114.574 50.057 114.637 50.0935 114.71C50.1299 114.784 50.1489 114.864 50.1489 114.946C50.1489 115.027 50.1299 115.108 50.0935 115.181C50.057 115.254 50.0041 115.318 49.9389 115.367C49.8737 115.416 49.7979 115.45 49.7176 115.465C49.6373 115.48 49.5546 115.476 49.4761 115.453Z" fill="#DEE5EB"/>
<path d="M42.7263 120.802H32.9011C32.7909 120.771 32.6938 120.704 32.6248 120.613C32.5557 120.521 32.5183 120.41 32.5183 120.295C32.5183 120.18 32.5557 120.069 32.6248 119.977C32.6938 119.885 32.7909 119.819 32.9011 119.787H42.7263C42.8366 119.819 42.9337 119.885 43.0027 119.977C43.0718 120.069 43.1092 120.18 43.1092 120.295C43.1092 120.41 43.0718 120.521 43.0027 120.613C42.9337 120.704 42.8366 120.771 42.7263 120.802Z" fill="#DEE5EB"/>
<path d="M15.0878 154.673C21.2877 154.673 26.3137 149.647 26.3137 143.447C26.3137 137.247 21.2877 132.221 15.0878 132.221C8.88794 132.221 3.86194 137.247 3.86194 143.447C3.86194 149.647 8.88794 154.673 15.0878 154.673Z" fill="white"/>
<path d="M15.0878 155.201C12.7631 155.201 10.4907 154.511 8.5578 153.22C6.62492 151.928 5.11842 150.093 4.22881 147.945C3.3392 145.797 3.10644 143.434 3.55996 141.154C4.01348 138.874 5.13291 136.78 6.77669 135.136C8.42048 133.492 10.5148 132.373 12.7948 131.919C15.0748 131.466 17.4381 131.698 19.5858 132.588C21.7335 133.478 23.5691 134.984 24.8607 136.917C26.1522 138.85 26.8415 141.122 26.8415 143.447C26.8388 146.564 25.5996 149.552 23.396 151.755C21.1923 153.959 18.2043 155.198 15.0878 155.201ZM15.0878 132.739C12.9699 132.739 10.8996 133.367 9.13863 134.543C7.37767 135.72 6.00516 137.393 5.19468 139.349C4.3842 141.306 4.17214 143.459 4.58532 145.536C4.9985 147.613 6.01836 149.521 7.51593 151.019C9.01351 152.517 10.9215 153.536 12.9987 153.95C15.0759 154.363 17.229 154.151 19.1857 153.34C21.1424 152.53 22.8148 151.157 23.9914 149.396C25.168 147.635 25.7961 145.565 25.7961 143.447C25.7934 140.608 24.6643 137.886 22.6567 135.878C20.6491 133.871 17.927 132.742 15.0878 132.739Z" fill="#DEE5EB"/>
<path d="M14.286 137.661V143.447L20.8023 138.707" fill="white"/>
<path d="M14.286 143.975C14.2042 143.975 14.1237 143.954 14.0525 143.914C13.9644 143.872 13.89 143.806 13.8379 143.723C13.7858 143.64 13.7582 143.545 13.7582 143.447V137.662C13.7582 137.522 13.8138 137.387 13.9128 137.288C14.0118 137.189 14.146 137.134 14.286 137.134C14.426 137.134 14.5602 137.189 14.6592 137.288C14.7582 137.387 14.8138 137.522 14.8138 137.662V142.422L20.4978 138.281C20.5528 138.239 20.6156 138.21 20.6824 138.193C20.7491 138.176 20.8186 138.173 20.8866 138.183C20.9547 138.193 21.02 138.217 21.0787 138.253C21.1374 138.289 21.1884 138.337 21.2286 138.392C21.2702 138.448 21.3003 138.512 21.3172 138.579C21.3341 138.647 21.3374 138.717 21.327 138.786C21.3167 138.855 21.2928 138.921 21.2567 138.981C21.2206 139.04 21.1731 139.092 21.1169 139.133L14.56 143.873C14.4795 143.931 14.3848 143.966 14.286 143.975Z" fill="#DEE5EB"/>
<path d="M49.4761 138.352H32.9011C32.7909 138.32 32.6938 138.254 32.6248 138.162C32.5557 138.07 32.5183 137.959 32.5183 137.844C32.5183 137.73 32.5557 137.618 32.6248 137.526C32.6938 137.435 32.7909 137.368 32.9011 137.337H49.4761C49.5546 137.314 49.6373 137.31 49.7176 137.325C49.7979 137.34 49.8737 137.374 49.9389 137.423C50.0041 137.472 50.057 137.536 50.0935 137.609C50.1299 137.682 50.1489 137.763 50.1489 137.844C50.1489 137.926 50.1299 138.006 50.0935 138.08C50.057 138.153 50.0041 138.216 49.9389 138.266C49.8737 138.315 49.7979 138.348 49.7176 138.363C49.6373 138.378 49.5546 138.374 49.4761 138.352Z" fill="#DEE5EB"/>
<path d="M49.4761 143.701H32.9011C32.7909 143.669 32.6938 143.603 32.6248 143.511C32.5557 143.42 32.5183 143.308 32.5183 143.193C32.5183 143.079 32.5557 142.967 32.6248 142.875C32.6938 142.784 32.7909 142.717 32.9011 142.686H49.4761C49.5546 142.663 49.6373 142.659 49.7176 142.674C49.7979 142.689 49.8737 142.723 49.9389 142.772C50.0041 142.821 50.057 142.885 50.0935 142.958C50.1299 143.031 50.1489 143.112 50.1489 143.193C50.1489 143.275 50.1299 143.356 50.0935 143.429C50.057 143.502 50.0041 143.565 49.9389 143.615C49.8737 143.664 49.7979 143.697 49.7176 143.712C49.6373 143.727 49.5546 143.723 49.4761 143.701Z" fill="#DEE5EB"/>
<path d="M42.7263 149.06H32.9011C32.7909 149.028 32.6938 148.962 32.6248 148.87C32.5557 148.779 32.5183 148.667 32.5183 148.552C32.5183 148.438 32.5557 148.326 32.6248 148.235C32.6938 148.143 32.7909 148.076 32.9011 148.045H42.7263C42.8366 148.076 42.9337 148.143 43.0027 148.235C43.0718 148.326 43.1092 148.438 43.1092 148.552C43.1092 148.667 43.0718 148.779 43.0027 148.87C42.9337 148.962 42.8366 149.028 42.7263 149.06Z" fill="#DEE5EB"/>
<path d="M127.692 152.927C127.692 152.927 135.964 178.008 131.498 178.038C127.032 178.069 115.898 164.457 115.898 164.457L124.85 152.947" fill="white"/>
<path d="M131.478 178.505C126.839 178.505 115.999 165.31 115.542 164.752C115.476 164.67 115.439 164.568 115.439 164.462C115.439 164.357 115.476 164.255 115.542 164.173L124.495 152.663C124.528 152.606 124.574 152.556 124.628 152.518C124.682 152.48 124.744 152.453 124.809 152.441C124.875 152.428 124.942 152.43 125.006 152.445C125.071 152.461 125.132 152.49 125.184 152.531C125.237 152.571 125.28 152.623 125.311 152.682C125.342 152.741 125.36 152.805 125.364 152.872C125.367 152.938 125.357 153.004 125.333 153.067C125.31 153.129 125.273 153.185 125.225 153.232L116.507 164.397C119.744 168.314 128.078 177.531 131.488 177.531C131.582 177.539 131.677 177.52 131.76 177.475C131.843 177.43 131.911 177.361 131.955 177.277C133.62 174.963 130.067 161.504 127.266 153.018C127.24 152.959 127.228 152.895 127.228 152.831C127.229 152.766 127.243 152.703 127.27 152.644C127.296 152.585 127.335 152.532 127.382 152.489C127.43 152.446 127.487 152.413 127.548 152.393C127.609 152.372 127.674 152.365 127.738 152.371C127.802 152.377 127.864 152.396 127.921 152.427C127.977 152.458 128.027 152.5 128.066 152.552C128.105 152.603 128.133 152.661 128.149 152.724C128.879 154.937 135.183 174.374 132.706 177.815C132.575 178.012 132.397 178.174 132.188 178.286C131.979 178.397 131.745 178.455 131.508 178.454L131.478 178.505Z" fill="#1F2223"/>
<path d="M98.399 94.5949C98.399 94.5949 64.1123 138.027 61.9504 153.465C59.7884 168.903 111.482 166.761 111.482 166.761L117.572 144.147C117.572 144.147 90.4516 146.086 93.5575 141.204C96.6634 136.322 115.695 117.859 115.695 117.859L118.577 92.0371L98.399 94.5949Z" fill="#1F2223"/>
<path d="M104.895 167.32C93.2936 167.32 70.0501 166.366 63.3511 158.976C62.643 158.248 62.1124 157.367 61.8008 156.4C61.4892 155.434 61.4049 154.408 61.5545 153.404C63.6962 138.017 96.6837 96.0768 98.0945 94.3006C98.1296 94.2545 98.1739 94.2163 98.2246 94.1883C98.2753 94.1604 98.3312 94.1433 98.3889 94.1382L118.587 91.6007C118.654 91.5917 118.721 91.598 118.784 91.6191C118.848 91.6402 118.905 91.6756 118.953 91.7225C119.002 91.7686 119.04 91.8257 119.063 91.8893C119.086 91.9528 119.093 92.0209 119.085 92.0879L116.162 117.94C116.146 118.044 116.096 118.141 116.019 118.214C115.837 118.397 96.9882 136.677 93.9533 141.468C93.6996 141.863 93.7605 142.077 93.8518 142.219C95.1815 144.452 109.077 144.33 117.562 143.721C117.633 143.716 117.704 143.728 117.77 143.757C117.835 143.785 117.893 143.828 117.938 143.883C117.986 143.938 118.02 144.003 118.036 144.074C118.052 144.145 118.05 144.219 118.029 144.289L111.939 166.893C111.916 166.985 111.864 167.067 111.791 167.127C111.718 167.187 111.628 167.223 111.533 167.228C111.107 167.218 108.579 167.32 104.895 167.32ZM98.6832 95.0009C96.5111 97.7617 64.4879 138.818 62.4376 153.536C62.3062 154.41 62.38 155.302 62.653 156.142C62.9261 156.983 63.3909 157.748 64.0108 158.378C72.1308 167.36 107.392 166.447 111.178 166.325L117.045 144.634C112.934 144.908 95.0495 145.883 93.121 142.665C92.9695 142.402 92.8993 142.099 92.9192 141.796C92.9391 141.492 93.0481 141.202 93.2327 140.96C96.2777 136.24 113.583 119.351 115.329 117.615L118.09 92.5649L98.6832 95.0009Z" fill="#1F2223"/>
<path d="M110.863 92.1084C110.863 93.9049 95.8412 177.084 88.3708 210.863L93.73 241.567C93.73 241.567 115.045 201.617 126.119 164.082C137.192 126.547 139.831 99.2032 139.831 99.2032L110.863 92.1084Z" fill="#1F2223"/>
<path d="M93.7301 242.014H93.659C93.5659 242 93.4795 241.957 93.412 241.892C93.3446 241.826 93.2996 241.741 93.2835 241.648L87.9547 210.955C87.9445 210.898 87.9445 210.839 87.9547 210.782C95.5977 176.221 110.427 93.7831 110.437 92.1286C110.436 92.06 110.451 91.9921 110.481 91.9304C110.511 91.8687 110.555 91.8149 110.61 91.7734C110.66 91.7289 110.721 91.6974 110.786 91.6815C110.851 91.6656 110.92 91.6658 110.985 91.682L139.933 98.787C140.038 98.8112 140.132 98.8729 140.195 98.9606C140.259 99.0484 140.288 99.1562 140.278 99.2641C140.278 99.5381 137.517 127.085 126.545 164.224C115.573 201.363 94.3289 241.364 94.1158 241.78C94.0797 241.851 94.0245 241.911 93.9563 241.952C93.8881 241.993 93.8098 242.015 93.7301 242.014ZM88.8479 210.884L93.9229 240.187C97.4856 233.335 115.766 197.465 125.662 163.96C135.903 129.278 138.958 102.999 139.324 99.5381L111.249 92.6666C110.214 100.31 95.9022 178.84 88.8276 210.884H88.8479Z" fill="#1F2223"/>
<path d="M130.767 35.522C130.767 35.522 108.6 35.0551 98.1656 43.4288C87.7314 51.8026 70.5576 76.5178 73.0748 82.212C75.592 87.9061 85.1939 92.1691 98.3077 82.7195L94.4304 99.7309L141.019 106.988C141.019 106.988 153.696 51.1631 152.427 47.164C150.875 43.6623 141.12 34.9637 130.767 35.522Z" fill="#87FF53"/>
<path d="M101.962 67.4336C101.872 67.4353 101.784 67.4106 101.708 67.3625C101.615 67.3021 101.547 67.2109 101.516 67.1049C101.484 66.999 101.491 66.8852 101.535 66.784C101.769 65.9009 102.824 54.1066 103.474 46.3419C103.487 46.2208 103.546 46.1091 103.638 46.0299C103.73 45.9506 103.85 45.9097 103.971 45.9156C104.093 45.926 104.207 45.9839 104.286 46.077C104.366 46.17 104.406 46.2907 104.398 46.4129C103.271 59.8718 102.581 66.8753 102.368 67.2204C102.326 67.2894 102.266 67.3456 102.194 67.3831C102.123 67.4206 102.042 67.4381 101.962 67.4336Z" fill="#1F2223"/>
<path d="M119.755 30.4268C118.922 30.5892 115.898 24.5297 115.634 23.5451C115.228 22.0632 115.38 20.4392 115.025 19.0284C114.588 17.2623 113.167 15.6687 112.102 14.2477C110.76 12.6923 109.813 10.8366 109.341 8.83779C109.016 6.80779 109.838 4.47329 111.706 3.66129C114.142 2.64629 117.643 4.26014 119.278 2.16924C119.527 1.7526 119.812 1.35862 120.13 0.991839C120.464 0.774775 120.84 0.630894 121.234 0.569664C121.628 0.508435 122.03 0.531244 122.414 0.636589C124.92 1.0175 127.317 1.92373 129.448 3.29589C129.87 3.6608 130.413 3.8561 130.97 3.84399C131.458 3.76279 131.813 3.36694 132.27 3.19439C132.676 3.0917 133.101 3.07937 133.513 3.15828C133.925 3.23719 134.315 3.40542 134.655 3.65114C139.669 6.47284 141.892 10.4212 141.263 16.0747L140.136 26.2247L119.755 30.4268Z" fill="white"/>
<path d="M119.673 30.9038C119.318 30.9038 118.658 30.5384 117.075 27.6456C116.344 26.3703 115.712 25.0401 115.187 23.6668C114.993 22.8612 114.877 22.0385 114.842 21.2105C114.813 20.5275 114.724 19.8483 114.578 19.1805C114.084 17.7483 113.308 16.4298 112.294 15.3032L111.726 14.5623C110.34 12.9478 109.365 11.0221 108.884 8.94932C108.549 6.84827 109.341 4.21942 111.523 3.27547C112.683 2.87481 113.917 2.73616 115.136 2.86947C116.73 2.86947 118.11 2.95067 118.912 1.92552C119.014 1.79357 119.105 1.65147 119.196 1.50937C119.363 1.20191 119.579 0.9241 119.836 0.68722C120.217 0.42113 120.651 0.240706 121.108 0.158355C121.565 0.0760043 122.035 0.0936816 122.485 0.210171C125.052 0.612489 127.506 1.54587 129.692 2.95067C130.033 3.23447 130.456 3.40164 130.899 3.42772C131.116 3.36764 131.319 3.26782 131.498 3.13337C131.689 3.00596 131.889 2.89396 132.097 2.79842C132.569 2.67162 133.062 2.65044 133.543 2.73641C134.024 2.82238 134.48 3.01337 134.878 3.29577C140.126 6.23927 142.359 10.4515 141.729 16.166L140.603 26.316C140.59 26.4116 140.548 26.501 140.483 26.5719C140.417 26.6428 140.332 26.6917 140.237 26.7118L119.846 30.8936C119.789 30.9027 119.731 30.9061 119.673 30.9038ZM114.192 3.73222C113.415 3.69555 112.638 3.81639 111.909 4.08747C110.183 4.83857 109.544 7.05127 109.818 8.76662C110.284 10.6858 111.199 12.4669 112.487 13.9634L113.046 14.6942C114.139 15.9229 114.974 17.3588 115.502 18.9166C115.663 19.6476 115.758 20.3915 115.786 21.1395C115.822 21.9086 115.928 22.6729 116.101 23.4232C116.375 24.4382 118.953 29.4422 119.765 29.9497L139.74 25.8897L140.826 16.0543C141.425 10.6748 139.395 6.91932 134.452 4.08747C134.163 3.87741 133.833 3.73008 133.483 3.65492C133.133 3.57977 132.772 3.57844 132.422 3.65102C132.264 3.71949 132.115 3.80456 131.975 3.90477C131.695 4.11262 131.373 4.25798 131.031 4.33107C130.36 4.37068 129.7 4.15287 129.184 3.72207C127.105 2.38245 124.767 1.49699 122.323 1.12367C122.004 1.03231 121.67 1.00769 121.342 1.05135C121.014 1.09502 120.698 1.20602 120.414 1.37742C120.234 1.55801 120.081 1.76302 119.958 1.98642C119.858 2.15986 119.746 2.32606 119.623 2.48377C118.527 3.88447 116.781 3.83372 115.096 3.78297L114.192 3.73222Z" fill="#1F2223"/>
<path d="M123.358 34.5477L122.85 43.0027C122.85 43.0027 123.439 47.7732 128.666 46.6161C130.208 46.2606 131.651 45.566 132.891 44.5827C134.13 43.5995 135.135 42.3524 135.832 40.9321C135.832 40.9321 136.969 20.6321 137.365 15.3033C134.107 15.0699 131.041 15.9529 127.692 15.3033C124.831 14.6919 122.024 13.8501 119.298 12.7861C118.699 18.6528 116.821 23.9511 117.704 29.828C118.313 33.8778 123.358 34.5477 123.358 34.5477Z" fill="white"/>
<path d="M127.124 47.2657C126.148 47.2881 125.189 47.0042 124.383 46.4537C123.296 45.6262 122.569 44.4123 122.353 43.0636L122.84 34.9436C121.551 34.6695 117.765 33.5835 117.217 29.9295C116.608 25.8695 117.268 22.1952 117.958 18.2976C118.283 16.501 118.618 14.6537 118.811 12.7658C118.816 12.6796 118.847 12.5969 118.899 12.5283C118.952 12.4596 119.023 12.4081 119.105 12.3801C119.168 12.348 119.237 12.3313 119.308 12.3313C119.379 12.3313 119.448 12.348 119.511 12.3801C122.212 13.4323 124.992 14.2706 127.824 14.8872C129.64 15.1487 131.483 15.1726 133.305 14.9582C134.68 14.8136 136.065 14.7762 137.446 14.8466C137.507 14.8501 137.566 14.8664 137.621 14.8944C137.675 14.9224 137.723 14.9614 137.761 15.009C137.841 15.1022 137.884 15.2212 137.883 15.3439C137.487 20.6422 136.36 40.7189 136.35 40.9625C136.356 41.0165 136.356 41.0709 136.35 41.1249C135.628 42.6163 134.58 43.9262 133.284 44.9576C131.987 45.989 130.475 46.7154 128.859 47.083C128.289 47.2067 127.707 47.2679 127.124 47.2657ZM123.307 43.023C123.386 43.6064 123.595 44.1647 123.919 44.6563C124.242 45.1479 124.673 45.5602 125.178 45.8625C125.683 46.1649 126.25 46.3494 126.836 46.4026C127.423 46.4557 128.014 46.376 128.565 46.1695C130.018 45.8232 131.378 45.1632 132.55 44.2356C133.721 43.3081 134.675 42.1355 135.345 40.8001C135.426 39.3892 136.431 21.4542 136.837 15.7296C135.651 15.7022 134.465 15.7463 133.285 15.8616C131.384 16.0889 129.462 16.0582 127.57 15.7702C124.885 15.1918 122.251 14.3976 119.694 13.3951C119.491 15.1105 119.196 16.7852 118.902 18.4092C118.222 22.2256 117.572 25.839 118.161 29.7366C118.709 33.3804 123.378 34.0402 123.419 34.0503C123.536 34.0632 123.644 34.1211 123.72 34.212C123.796 34.3029 123.833 34.4196 123.825 34.5376L123.307 42.9925V43.023Z" fill="#1F2223"/>
<path d="M123.165 38.699C125.247 38.8524 127.308 38.1982 128.92 36.872C129.58 36.3238 130.112 35.6385 130.48 34.8638C130.848 34.0891 131.043 33.2434 131.052 32.3857C128.697 33.729 126.047 34.4715 123.338 34.5477L123.165 38.699Z" fill="#1F2223"/>
<path d="M123.723 39.1658C123.527 39.1775 123.331 39.1775 123.135 39.1658C123.022 39.1554 122.919 39.1021 122.845 39.017C122.771 38.9319 122.733 38.8215 122.739 38.709L122.911 34.5475C122.912 34.4884 122.926 34.4302 122.95 34.3763C122.975 34.3225 123.01 34.2742 123.053 34.2343C123.097 34.1944 123.148 34.1638 123.204 34.1444C123.26 34.125 123.319 34.1171 123.378 34.1212C125.998 34.0332 128.558 33.3123 130.838 32.0202C130.904 31.9827 130.978 31.9622 131.054 31.9603C131.129 31.9585 131.204 31.9754 131.271 32.0096C131.339 32.0439 131.397 32.0942 131.44 32.1563C131.483 32.2184 131.51 32.2902 131.518 32.3653C131.518 33.2886 131.314 34.2005 130.923 35.0369C130.532 35.8734 129.963 36.614 129.255 37.2068C127.712 38.5139 125.745 39.2107 123.723 39.1658ZM123.652 38.2726C125.458 38.3178 127.219 37.7045 128.605 36.5471C129.613 35.67 130.296 34.4795 130.544 33.1671C128.441 34.2545 126.129 34.8776 123.764 34.9941L123.652 38.2726Z" fill="#1F2223"/>
<path d="M127.428 22.9158C127.428 22.9158 124.485 26.8235 125.094 27.5645C125.703 28.3054 127.54 27.94 127.54 27.94" fill="white"/>
<path d="M126.565 28.4881C126.235 28.5183 125.902 28.4777 125.589 28.3692C125.276 28.2607 124.989 28.0867 124.748 27.8588C124.058 27.0164 125.631 24.5601 127.073 22.6417C127.147 22.5498 127.253 22.4893 127.369 22.4724C127.486 22.4554 127.605 22.4833 127.702 22.5504C127.75 22.5855 127.79 22.6296 127.82 22.6804C127.851 22.7311 127.871 22.7874 127.879 22.8459C127.888 22.9045 127.885 22.9641 127.87 23.0214C127.855 23.0787 127.829 23.1325 127.793 23.1797C126.443 24.9762 125.357 26.9149 125.469 27.3209C125.743 27.6457 126.799 27.6355 127.448 27.5036C127.566 27.4823 127.688 27.5073 127.788 27.5735C127.889 27.6396 127.959 27.7418 127.986 27.8588C128.007 27.9757 127.982 28.0962 127.916 28.1948C127.849 28.2933 127.747 28.3621 127.631 28.3866C127.28 28.4535 126.923 28.4874 126.565 28.4881Z" fill="#1F2223"/>
<path d="M126.342 31.6651C125.635 31.6397 124.941 31.4667 124.305 31.1574C123.668 30.848 123.104 30.409 122.647 29.8685C122.607 29.8259 122.575 29.7756 122.554 29.7207C122.532 29.6657 122.522 29.6071 122.524 29.5482C122.525 29.4893 122.538 29.4312 122.562 29.3773C122.586 29.3235 122.62 29.2748 122.663 29.2341C122.705 29.1935 122.755 29.1616 122.81 29.1404C122.865 29.1192 122.924 29.109 122.983 29.1104C123.042 29.1118 123.1 29.1248 123.154 29.1486C123.208 29.1725 123.256 29.2067 123.297 29.2494C123.693 29.725 124.19 30.1066 124.752 30.3664C125.313 30.6263 125.926 30.7578 126.545 30.7516C128.91 30.6196 130.798 28.1329 130.818 28.1126C130.853 28.0649 130.897 28.0247 130.948 27.9943C130.999 27.9638 131.055 27.9438 131.114 27.9353C131.172 27.9268 131.232 27.93 131.289 27.9448C131.346 27.9595 131.4 27.9855 131.447 28.0212C131.541 28.0937 131.604 28.1999 131.621 28.3174C131.638 28.4348 131.608 28.5543 131.539 28.6505C131.447 28.7622 129.377 31.4925 126.606 31.6955L126.342 31.6651Z" fill="#1F2223"/>
<path d="M119.542 22.7433C119.292 22.7432 119.046 22.6938 118.816 22.598C118.586 22.5022 118.377 22.3619 118.202 22.185C118.021 22.0099 117.877 21.8001 117.78 21.5681C117.682 21.3361 117.632 21.0868 117.633 20.8351V19.0994C117.63 18.5946 117.827 18.1092 118.181 17.7495C118.539 17.3879 119.023 17.1803 119.531 17.1709H124.312C124.817 17.169 125.302 17.3659 125.662 17.719C126.015 18.0851 126.218 18.5705 126.23 19.0791V20.8046C126.233 21.3126 126.035 21.8012 125.68 22.1641C125.325 22.5271 124.84 22.7352 124.332 22.7433H119.552H119.542ZM124.342 18.0337H119.562C119.428 18.0342 119.295 18.0614 119.171 18.1137C119.047 18.166 118.935 18.2423 118.841 18.3382C118.655 18.5314 118.553 18.7905 118.557 19.0588V20.7945C118.561 21.0622 118.67 21.3176 118.861 21.505C118.954 21.6019 119.066 21.6783 119.19 21.729C119.315 21.7797 119.448 21.8037 119.582 21.7993H124.363C124.632 21.7993 124.89 21.6924 125.08 21.502C125.271 21.3117 125.378 21.0535 125.378 20.7843V19.0487C125.378 18.7795 125.271 18.5213 125.08 18.3309C124.89 18.1406 124.632 18.0337 124.363 18.0337H124.342Z" fill="#1F2223"/>
<path d="M129.103 22.662C128.604 22.6488 128.129 22.4426 127.779 22.0868C127.429 21.7309 127.23 21.253 127.225 20.7538V19.0282C127.225 18.5193 127.425 18.0308 127.782 17.6681C128.139 17.3054 128.624 17.0976 129.133 17.0896H133.914C134.42 17.0915 134.905 17.2919 135.264 17.6478C135.445 17.8229 135.588 18.0328 135.686 18.2648C135.784 18.4968 135.833 18.7461 135.832 18.9978V20.7233C135.839 20.9754 135.793 21.2262 135.699 21.4601C135.605 21.694 135.464 21.9061 135.284 22.0834C135.108 22.2638 134.898 22.4077 134.667 22.507C134.435 22.6063 134.186 22.6589 133.934 22.662H129.154H129.103ZM133.904 17.9524H129.123C128.854 17.9524 128.596 18.0593 128.405 18.2496C128.215 18.44 128.108 18.6982 128.108 18.9674V20.703C128.112 20.9707 128.221 21.2261 128.413 21.4135C128.505 21.5105 128.617 21.5868 128.742 21.6375C128.866 21.6882 128.999 21.7122 129.133 21.7078H133.914C134.183 21.7078 134.441 21.6009 134.632 21.4106C134.822 21.2202 134.929 20.962 134.929 20.6928V18.9572C134.925 18.6895 134.816 18.4341 134.624 18.2467C134.526 18.1489 134.409 18.0723 134.279 18.0217C134.15 17.9711 134.012 17.9475 133.873 17.9524H133.904Z" fill="#1F2223"/>
<path d="M125.784 19.485C125.665 19.485 125.552 19.4379 125.468 19.3542C125.384 19.2704 125.337 19.1568 125.337 19.0384C125.337 18.92 125.384 18.8064 125.468 18.7226C125.552 18.6389 125.665 18.5918 125.784 18.5918H127.631C127.749 18.5918 127.863 18.6389 127.947 18.7226C128.031 18.8064 128.078 18.92 128.078 19.0384C128.075 19.157 128.028 19.2703 127.945 19.3551C127.862 19.4399 127.75 19.49 127.631 19.4951L125.784 19.485Z" fill="#1F2223"/>
<path d="M140.126 22.5301C140.035 22.5283 139.947 22.5001 139.872 22.4489L135.091 19.2923C134.992 19.2263 134.922 19.1235 134.899 19.0064C134.875 18.8894 134.898 18.7677 134.964 18.6681C135.03 18.5685 135.133 18.4991 135.25 18.4753C135.367 18.4515 135.489 18.4752 135.589 18.5412L140.42 21.7486C140.518 21.8147 140.586 21.9162 140.611 22.0316C140.635 22.147 140.614 22.2675 140.552 22.3677C140.501 22.4298 140.435 22.4775 140.361 22.506C140.286 22.5345 140.205 22.5428 140.126 22.5301Z" fill="#1F2223"/>
<path d="M135.599 23.1694C136.614 21.9514 138.096 19.7387 139.933 20.5406C140.418 20.7669 140.834 21.117 141.141 21.5556C142.552 23.413 142.156 25.7678 141.09 27.6456C140.146 29.2899 137.314 31.7056 135.589 29.4726" fill="white"/>
<path d="M137.284 30.8531C136.885 30.8453 136.493 30.7438 136.14 30.557C135.788 30.3701 135.484 30.103 135.254 29.7772C135.206 29.7305 135.17 29.6742 135.146 29.6122C135.122 29.5502 135.112 29.4837 135.116 29.4174C135.119 29.3511 135.138 29.2863 135.168 29.2275C135.199 29.1687 135.243 29.1172 135.295 29.0764C135.347 29.0356 135.408 29.0064 135.473 28.9909C135.537 28.9754 135.604 28.9739 135.67 28.9864C135.735 28.9989 135.797 29.0253 135.851 29.0636C135.905 29.102 135.951 29.1515 135.984 29.2088C136.143 29.4436 136.361 29.6327 136.616 29.7574C136.87 29.882 137.153 29.9379 137.436 29.9193C138.126 29.7567 138.774 29.4514 139.338 29.0231C139.903 28.5948 140.372 28.053 140.714 27.4325C141.892 25.4025 141.922 23.3116 140.806 21.8399C140.548 21.4668 140.198 21.1663 139.791 20.967C138.532 20.4189 137.405 21.6876 136.248 23.1594L136.015 23.4639C135.981 23.5216 135.935 23.5713 135.88 23.6096C135.825 23.648 135.763 23.674 135.697 23.6861C135.631 23.6981 135.563 23.6959 135.498 23.6795C135.433 23.663 135.373 23.6328 135.32 23.5909C135.268 23.549 135.226 23.4963 135.195 23.4365C135.165 23.3766 135.149 23.311 135.146 23.2441C135.144 23.1772 135.156 23.1105 135.181 23.0486C135.207 22.9867 135.245 22.931 135.294 22.8853L135.518 22.591C136.533 21.3324 138.146 19.2313 140.166 20.1144C140.726 20.3758 141.209 20.778 141.567 21.2816C142.917 23.068 142.907 25.5345 141.567 27.8994C140.938 28.9753 139.293 30.7313 137.507 30.8531H137.284Z" fill="#1F2223"/>
<path d="M123.36 21.7475C123.651 21.7451 123.884 21.2478 123.878 20.6368C123.873 20.0258 123.633 19.5324 123.341 19.5349C123.05 19.5373 122.818 20.0346 122.823 20.6456C122.828 21.2566 123.068 21.7499 123.36 21.7475Z" fill="#1F2223"/>
<path d="M130.997 22.2924C131.288 22.29 131.521 21.7927 131.515 21.1817C131.51 20.5707 131.27 20.0774 130.978 20.0798C130.687 20.0822 130.455 20.5795 130.46 21.1905C130.465 21.8015 130.705 22.2949 130.997 22.2924Z" fill="#1F2223"/>
<path d="M112.62 48.8813L110.395 49.7964L117.4 66.8241L119.624 65.909L112.62 48.8813Z" fill="white"/>
<path d="M117.4 67.2915C117.307 67.2914 117.217 67.2631 117.141 67.2106C117.065 67.158 117.006 67.0836 116.974 66.9971L109.97 49.935C109.945 49.8792 109.933 49.819 109.932 49.7581C109.932 49.6972 109.944 49.6368 109.968 49.5807C109.991 49.5246 110.026 49.474 110.07 49.4319C110.114 49.3899 110.167 49.3573 110.224 49.3361L112.447 48.4125C112.561 48.3667 112.688 48.3667 112.802 48.4125C112.858 48.4343 112.91 48.4671 112.953 48.5089C112.997 48.5507 113.032 48.6007 113.056 48.6561L120.059 65.6878C120.084 65.7437 120.097 65.8042 120.097 65.8654C120.097 65.9266 120.084 65.9871 120.059 66.043C120.037 66.1006 120.003 66.1528 119.959 66.1965C119.915 66.2402 119.863 66.2743 119.805 66.2968L117.583 67.2103C117.53 67.2525 117.467 67.2805 117.4 67.2915ZM111.005 50.0365L117.654 66.175L119.024 65.6167L112.376 49.4376L111.005 50.0365Z" fill="#1F2223"/>
<path d="M113.035 48.7088L110.003 49.9561L113.2 57.7284L116.232 56.4811L113.035 48.7088Z" fill="white"/>
<path d="M113.198 58.1871C113.137 58.1967 113.076 58.1967 113.015 58.1871C112.903 58.1354 112.813 58.0454 112.761 57.9333L109.564 50.1381C109.52 50.0235 109.521 49.8961 109.569 49.7827C109.616 49.6692 109.705 49.5784 109.818 49.5291L112.863 48.2807C112.978 48.2404 113.103 48.2404 113.218 48.2807C113.273 48.3048 113.323 48.3396 113.365 48.3831C113.407 48.4267 113.44 48.4781 113.462 48.5344L116.659 56.3093C116.683 56.3651 116.696 56.4252 116.697 56.4862C116.697 56.5471 116.685 56.6075 116.661 56.6635C116.638 56.7196 116.603 56.7703 116.559 56.8123C116.515 56.8544 116.462 56.887 116.405 56.9082L113.36 58.1566C113.308 58.1754 113.253 58.1857 113.198 58.1871ZM110.599 50.2092L113.441 57.1213L115.613 56.2281L112.771 49.316L110.599 50.2092Z" fill="#1F2223"/>
<path d="M116.892 56.218H116.781C115.664 55.9439 115.512 54.1169 115.339 52.158C115.316 51.4719 115.214 50.7908 115.035 50.128C115.016 50.0687 114.983 50.0148 114.938 49.9707C114.894 49.9266 114.84 49.8936 114.781 49.8742C114.399 49.8414 114.018 49.9457 113.705 50.1686C113.601 50.231 113.476 50.2511 113.357 50.2246C113.238 50.1982 113.134 50.1273 113.066 50.0265C113.032 49.976 113.008 49.9193 112.997 49.8597C112.985 49.8 112.985 49.7386 112.997 49.679C113.01 49.6194 113.034 49.5629 113.068 49.5128C113.103 49.4627 113.147 49.4199 113.198 49.387C113.73 48.9973 114.392 48.8299 115.045 48.9201C115.235 48.9736 115.409 49.0701 115.555 49.2021C115.702 49.3342 115.815 49.4982 115.888 49.6814C116.124 50.4482 116.254 51.244 116.273 52.0463C116.365 53.0613 116.547 55.1522 117.014 55.2639C117.12 55.2956 117.211 55.3635 117.271 55.4557C117.331 55.5479 117.357 55.6584 117.343 55.7677C117.33 55.877 117.278 55.978 117.198 56.053C117.117 56.128 117.013 56.172 116.903 56.1774L116.892 56.218Z" fill="#1F2223"/>
<path d="M105.027 63.942C105.027 63.942 108.316 57.9129 111.178 58.0854C114.04 58.258 118.384 65.9314 118.384 65.9314L105.027 63.942Z" fill="white"/>
<path d="M118.384 66.3984H118.313L104.966 64.3684C104.892 64.3585 104.821 64.3313 104.759 64.289C104.698 64.2467 104.647 64.1904 104.611 64.1248C104.578 64.0566 104.562 63.9821 104.562 63.9066C104.562 63.8311 104.578 63.7565 104.611 63.6884C104.966 63.0489 108.153 57.3954 111.188 57.5984C114.223 57.8014 118.293 64.8759 118.78 65.7184C118.825 65.7936 118.848 65.8795 118.848 65.967C118.848 66.0545 118.825 66.1404 118.78 66.2157C118.733 66.2748 118.673 66.3221 118.604 66.3538C118.535 66.3855 118.46 66.4008 118.384 66.3984ZM105.768 63.5868L117.491 65.3326C116.019 62.9169 113.045 58.654 111.147 58.5423C109.249 58.4307 106.925 61.7395 105.768 63.5868Z" fill="#1F2223"/>
<path d="M136.035 102.268L129.722 65.7386L98.125 61.2422L104.073 97.2442L136.035 102.268Z" fill="#1F2223"/>
<path d="M136.035 102.715H135.964L104.002 97.64C103.909 97.625 103.824 97.5819 103.756 97.5165C103.689 97.4512 103.644 97.3667 103.626 97.2746L97.6885 61.3132C97.6757 61.2446 97.6791 61.1741 97.6985 61.1071C97.7179 61.0401 97.7527 60.9786 97.8001 60.9275C97.8498 60.8771 97.9105 60.839 97.9775 60.8161C98.0444 60.7932 98.1157 60.7862 98.1858 60.7955L129.783 65.3021C129.877 65.3125 129.965 65.3541 130.033 65.4203C130.101 65.4865 130.145 65.5735 130.158 65.6675L136.472 102.208C136.486 102.277 136.482 102.349 136.461 102.416C136.439 102.484 136.401 102.545 136.35 102.593C136.309 102.635 136.26 102.667 136.206 102.688C136.151 102.709 136.093 102.718 136.035 102.715ZM104.459 96.8585L135.487 101.73L129.336 66.175L98.6629 61.8105L104.459 96.8585Z" fill="#1F2223"/>
<path d="M152.428 47.1641C152.428 47.1641 174.91 92.5549 166.374 96.8991C157.837 101.243 137.954 89.4084 137.954 89.4084L137.883 79.9689L153.026 81.4711L141.841 71.25L152.428 47.1641Z" fill="#87FF53"/>
<path d="M134.624 80.6287L141.283 81.6944C142.14 82.7379 142.638 84.0299 142.704 85.3789C142.688 86.1813 142.499 86.9709 142.148 87.6929C141.798 88.4149 141.295 89.0522 140.674 89.5607L135.416 87.7946C135.416 87.7946 136.472 82.7805 134.624 80.6287Z" fill="white"/>
<path d="M140.684 90.0275C140.634 90.0371 140.582 90.0371 140.532 90.0275L135.284 88.2614C135.177 88.2264 135.086 88.1536 135.028 88.0565C134.97 87.9595 134.949 87.8447 134.969 87.7336C134.969 87.7336 135.984 82.9123 134.269 80.9635C134.209 80.8904 134.173 80.8013 134.164 80.7073C134.155 80.6134 134.174 80.5188 134.218 80.4357C134.265 80.3529 134.335 80.2863 134.42 80.2445C134.506 80.2028 134.602 80.1881 134.695 80.2023L141.354 81.2173C141.46 81.2349 141.557 81.2887 141.628 81.3695C142.56 82.4966 143.098 83.8973 143.161 85.3585C143.15 86.2247 142.952 87.0784 142.578 87.8601C142.205 88.6418 141.666 89.3329 140.999 89.8854C140.915 89.9703 140.803 90.021 140.684 90.0275ZM135.954 87.49L140.562 89.0429C141.079 88.5851 141.495 88.0246 141.783 87.3973C142.071 86.7699 142.226 86.0894 142.237 85.3991C142.18 84.2161 141.762 83.0791 141.039 82.1409L135.558 81.2579C136.522 83.3183 136.137 86.3836 135.954 87.49Z" fill="#1F2223"/>
<path d="M134.624 80.6285C134.102 80.3463 133.53 80.1703 132.939 80.1109C131.833 79.9992 126.007 79.0959 125.398 80.3545C124.931 81.3086 125.398 81.4913 125.398 81.4913C125.398 81.4913 123.683 81.4913 124.129 83.0341C124.129 83.0341 123.378 84.7494 124.759 85.2163C124.759 85.2163 123.865 85.7035 124.921 86.5054C126.849 87.967 133.67 91.4281 135.7 89.7229C136.369 89.1027 136.83 88.2909 137.02 87.3986C137.69 84.8611 136.817 81.8364 134.624 80.6285Z" fill="white"/>
<path d="M134.117 90.6366C131.072 90.6366 126.129 87.9976 124.647 86.871C124.438 86.7481 124.265 86.5731 124.144 86.3632C124.023 86.1533 123.958 85.9156 123.957 85.6733C123.965 85.5568 123.996 85.4431 124.048 85.3383C123.865 85.1875 123.719 84.9965 123.622 84.7801C123.407 84.2075 123.407 83.5764 123.622 83.0038C123.561 82.7865 123.548 82.5584 123.585 82.3356C123.622 82.1129 123.707 81.901 123.835 81.7148C124.054 81.4381 124.357 81.2389 124.698 81.1464C124.696 80.7922 124.783 80.4432 124.951 80.1314C125.52 78.9743 128.331 79.1164 132.371 79.563L132.96 79.634C133.612 79.6927 134.244 79.8862 134.817 80.2024C137.081 81.4509 138.207 84.5771 137.456 87.4901C137.248 88.4818 136.728 89.3812 135.974 90.0581C135.442 90.4627 134.785 90.6674 134.117 90.6366ZM125.662 81.1058C125.738 81.1573 125.798 81.2297 125.834 81.3143C125.87 81.399 125.881 81.4922 125.865 81.5828C125.844 81.6885 125.787 81.7837 125.704 81.8521C125.62 81.9206 125.516 81.9581 125.408 81.9584C125.114 81.9598 124.831 82.0722 124.616 82.273C124.568 82.3709 124.543 82.4785 124.543 82.5877C124.543 82.6968 124.568 82.8045 124.616 82.9023C124.647 83.0051 124.647 83.1143 124.616 83.217C124.442 83.5883 124.409 84.0109 124.525 84.4045C124.568 84.4956 124.63 84.5762 124.707 84.641C124.785 84.7058 124.875 84.7533 124.972 84.7801C125.057 84.8077 125.133 84.8601 125.189 84.9305C125.245 85.0009 125.279 85.0863 125.286 85.1759C125.295 85.2661 125.276 85.3568 125.232 85.4363C125.189 85.5158 125.123 85.5806 125.043 85.6225C124.992 85.6225 124.931 85.724 124.931 85.7545C124.931 85.7849 124.982 85.927 125.256 86.13C127.458 87.8048 133.833 90.7381 135.457 89.3679C136.059 88.8121 136.471 88.0804 136.634 87.277C137.294 84.7699 136.35 82.0802 134.452 81.0347C133.988 80.78 133.477 80.6245 132.95 80.578L132.341 80.5069C126.849 79.8269 125.987 80.3141 125.865 80.5069C125.735 80.6798 125.664 80.8896 125.662 81.1058Z" fill="#1F2223"/>
<path d="M131.701 82.5773L125.408 81.9683C125.296 81.9449 125.197 81.8813 125.129 81.7895C125.061 81.6978 125.029 81.5843 125.039 81.4705C125.049 81.3567 125.1 81.2505 125.183 81.172C125.266 81.0935 125.375 81.0482 125.489 81.0447L131.792 81.6537C131.914 81.6689 132.024 81.7301 132.102 81.8245C132.179 81.9189 132.217 82.0394 132.209 82.1612C132.193 82.2823 132.132 82.393 132.038 82.4704C131.943 82.5478 131.823 82.5861 131.701 82.5773Z" fill="#1F2223"/>
<path d="M124.18 83.0342C124.18 83.0342 129.001 84.374 130.757 84.171L124.18 83.0342Z" fill="white"/>
<path d="M130.27 84.648C128.137 84.4596 126.026 84.0688 123.967 83.4807C123.849 83.4455 123.749 83.3648 123.69 83.2564C123.631 83.148 123.618 83.0206 123.652 82.9022C123.667 82.8433 123.694 82.788 123.731 82.7399C123.769 82.6918 123.815 82.6517 123.869 82.6223C123.922 82.5928 123.98 82.5745 124.041 82.5686C124.102 82.5626 124.163 82.5691 124.221 82.5875C125.54 82.9529 129.296 83.8664 130.625 83.704C130.747 83.6923 130.869 83.728 130.965 83.8035C131.062 83.8791 131.125 83.9889 131.143 84.11C131.157 84.2324 131.123 84.3556 131.047 84.4525C130.971 84.5495 130.859 84.6125 130.737 84.6277C130.582 84.6453 130.426 84.652 130.27 84.648Z" fill="#1F2223"/>
<path d="M124.292 84.9526C126.068 85.8836 128.003 86.4756 129.996 86.6984L124.292 84.9526Z" fill="white"/>
<path d="M129.996 87.1651C127.927 86.9432 125.919 86.3301 124.079 85.3584C124.025 85.3306 123.978 85.2925 123.939 85.2462C123.9 85.2 123.871 85.1466 123.853 85.089C123.835 85.0314 123.829 84.9709 123.834 84.9109C123.84 84.8509 123.857 84.7925 123.886 84.7393C123.914 84.6846 123.952 84.6359 123.999 84.5961C124.046 84.5562 124.1 84.526 124.158 84.5072C124.217 84.4883 124.278 84.4812 124.34 84.4862C124.401 84.4912 124.46 84.5082 124.515 84.5363C126.224 85.4391 128.086 86.014 130.006 86.2313C130.067 86.2313 130.127 86.2434 130.183 86.267C130.239 86.2906 130.29 86.3252 130.333 86.3687C130.375 86.4122 130.409 86.4637 130.431 86.5203C130.453 86.5769 130.464 86.6374 130.463 86.6982C130.463 86.822 130.414 86.9408 130.326 87.0284C130.239 87.1159 130.12 87.1651 129.996 87.1651Z" fill="#1F2223"/>
<path d="M114.467 64.5002C114.387 64.5018 114.308 64.4819 114.238 64.4426C114.168 64.4034 114.111 64.3461 114.071 64.2769C113.527 63.3254 112.884 62.434 112.152 61.6176C112.107 61.5761 112.07 61.5256 112.045 61.4693C112.02 61.4131 112.007 61.3522 112.006 61.2906C112.006 61.229 112.018 61.168 112.043 61.1114C112.067 61.0547 112.103 61.0037 112.148 60.9616C112.193 60.9195 112.246 60.8871 112.304 60.8665C112.362 60.8459 112.424 60.8376 112.485 60.842C112.547 60.8464 112.606 60.8635 112.661 60.8921C112.715 60.9208 112.763 60.9604 112.802 61.0086C113.58 61.8758 114.26 62.8254 114.832 63.8404C114.861 63.8917 114.879 63.9482 114.886 64.0066C114.893 64.065 114.888 64.1242 114.872 64.1808C114.856 64.2374 114.829 64.2902 114.793 64.3363C114.756 64.3824 114.711 64.4209 114.659 64.4494C114.6 64.4817 114.534 64.4991 114.467 64.5002Z" fill="#1F2223"/>
<path d="M111.696 64.3378C111.627 64.3367 111.56 64.3207 111.499 64.2909C111.437 64.2611 111.383 64.2182 111.34 64.1652C110.767 63.4755 110.081 62.8885 109.31 62.4296C109.223 62.363 109.163 62.2665 109.142 62.1585C109.122 62.0506 109.141 61.9388 109.198 61.8445C109.254 61.7503 109.344 61.6802 109.449 61.6477C109.554 61.6152 109.667 61.6225 109.767 61.6683C110.635 62.1817 111.407 62.841 112.051 63.6171C112.102 63.6833 112.134 63.7626 112.143 63.846C112.151 63.9294 112.136 64.0135 112.099 64.0887C112.062 64.1638 112.004 64.2271 111.933 64.2711C111.862 64.3152 111.779 64.3383 111.696 64.3378Z" fill="#1F2223"/>
<path d="M147.018 79.0248H146.936C146.816 79.0026 146.708 78.9336 146.638 78.8329C146.568 78.7322 146.54 78.6079 146.561 78.4869L151.23 52.8277C151.24 52.7684 151.263 52.7117 151.295 52.661C151.328 52.6103 151.37 52.5665 151.419 52.5321C151.469 52.4977 151.525 52.4733 151.584 52.4605C151.642 52.4477 151.703 52.4465 151.763 52.4572C151.822 52.4679 151.879 52.4901 151.929 52.5227C151.98 52.5552 152.024 52.5974 152.058 52.6469C152.093 52.6964 152.117 52.7522 152.13 52.811C152.143 52.8699 152.144 52.9308 152.133 52.9901L147.525 78.6493C147.505 78.7652 147.441 78.8689 147.347 78.9388C147.252 79.0088 147.134 79.0396 147.018 79.0248Z" fill="#1F2223"/>
<path d="M161.837 85.1049C161.761 85.105 161.686 85.0865 161.619 85.0511C161.551 85.0158 161.494 84.9645 161.451 84.9019C160.192 83.0038 154.924 82.1106 152.996 81.9178L141.263 80.7607C141.197 80.7614 141.132 80.7483 141.072 80.7222C141.011 80.6961 140.957 80.6576 140.913 80.6093C140.869 80.5609 140.835 80.5037 140.814 80.4414C140.793 80.3791 140.786 80.3132 140.793 80.2479C140.799 80.1825 140.819 80.1193 140.852 80.0623C140.884 80.0053 140.928 79.9558 140.981 79.917C141.034 79.8783 141.095 79.8511 141.159 79.8373C141.223 79.8235 141.29 79.8234 141.354 79.837L153.087 80.9941C153.392 80.9941 160.456 81.7452 162.222 84.3842C162.256 84.4347 162.28 84.4914 162.292 84.5511C162.303 84.6107 162.303 84.6721 162.291 84.7317C162.278 84.7913 162.254 84.8478 162.22 84.8979C162.186 84.948 162.141 84.9908 162.09 85.0237C162.016 85.0759 161.927 85.1043 161.837 85.1049Z" fill="#1F2223"/>
<path d="M77.8858 76.325C77.7938 76.323 77.7045 76.2937 77.629 76.241C77.5535 76.1883 77.4953 76.1145 77.4617 76.0288C77.4281 75.9431 77.4205 75.8494 77.44 75.7595C77.4595 75.6695 77.5051 75.5873 77.5712 75.5232C81.2759 72.0417 98.4599 64.8961 99.1907 64.5916C99.3053 64.5473 99.4327 64.549 99.5461 64.5963C99.6596 64.6435 99.7504 64.7328 99.7997 64.8454C99.8467 64.9598 99.8464 65.0882 99.7988 65.2024C99.7512 65.3166 99.6603 65.4072 99.5459 65.4544C99.3734 65.5254 81.7834 72.8334 78.2309 76.1931C78.1866 76.239 78.1327 76.2746 78.073 76.2974C78.0134 76.3202 77.9495 76.3296 77.8858 76.325Z" fill="#1F2223"/>
<path d="M81.55 204.042C81.8951 204.042 84.6559 203.545 87.64 206.651C90.6241 209.757 96.1255 228.839 96.5924 233.599C96.7024 235.054 96.5043 236.515 96.0111 237.888C95.5178 239.261 94.7406 240.515 93.73 241.567L81.55 204.042Z" fill="white"/>
<path d="M93.73 242.024H93.6082C93.533 242.004 93.4639 241.966 93.4072 241.913C93.3505 241.86 93.3079 241.793 93.2834 241.719L81.1034 204.164C81.0791 204.093 81.0729 204.017 81.0853 203.942C81.0977 203.868 81.1283 203.798 81.1745 203.738C81.2189 203.679 81.2776 203.632 81.345 203.602C81.4125 203.572 81.4865 203.559 81.5602 203.565H81.6921C82.8791 203.531 84.059 203.759 85.1471 204.235C86.2352 204.711 87.2044 205.421 87.9851 206.316C91.1519 209.595 96.6126 228.961 97.0694 233.549C97.1836 235.076 96.9711 236.61 96.4461 238.048C95.921 239.487 95.0955 240.797 94.0244 241.892C93.9445 241.969 93.8405 242.015 93.73 242.024ZM82.1793 204.469L93.9127 240.633C95.5407 238.678 96.3451 236.167 96.1559 233.63C95.6687 228.666 90.1572 209.879 87.3254 206.956C86.6757 206.217 85.8829 205.617 84.9949 205.193C84.1069 204.769 83.1422 204.53 82.159 204.489L82.1793 204.469Z" fill="#1F2223"/>
<path d="M95.1916 237.527C95.1916 237.527 90.685 214.69 86.625 208.275C82.565 201.86 78.911 203.088 78.6065 209.676C78.302 216.263 84.1383 239.892 88.0866 242.541C92.035 245.191 96.0544 241.547 95.1916 237.527Z" fill="white"/>
<path d="M90.8373 243.901C89.7435 243.876 88.6824 243.523 87.7923 242.886C83.5192 240.014 77.825 215.664 78.1092 209.605C78.2615 206.255 79.3171 204.073 81.002 203.636C82.6869 203.2 84.93 204.702 86.9905 207.991C91.0505 214.395 95.4353 236.411 95.6281 237.426C95.8628 238.483 95.7788 239.587 95.3868 240.596C94.9948 241.606 94.3123 242.477 93.4256 243.1C92.6624 243.62 91.7608 243.899 90.8373 243.901ZM81.7023 204.519C81.5674 204.504 81.4312 204.504 81.2963 204.519C80.058 204.844 79.2663 206.763 79.0938 209.645C78.7893 216.141 84.6357 239.588 88.3709 242.125C89.025 242.627 89.8187 242.913 90.6424 242.944C91.466 242.974 92.279 242.749 92.9688 242.298C93.702 241.779 94.2656 241.055 94.5889 240.217C94.9121 239.38 94.9806 238.465 94.7857 237.588C94.7349 237.355 90.1877 214.761 86.2597 208.488C84.5951 205.971 82.9609 204.519 81.6617 204.519H81.7023Z" fill="#1F2223"/>
<path d="M98.9269 158.611H98.8051C98.6843 158.589 98.5772 158.52 98.5069 158.419C98.4366 158.319 98.4088 158.194 98.4295 158.073L106.925 112.256C106.957 112.144 107.03 112.049 107.129 111.988C107.228 111.927 107.346 111.905 107.46 111.927C107.575 111.948 107.677 112.012 107.747 112.105C107.816 112.197 107.849 112.313 107.839 112.429L99.3633 158.236C99.3448 158.339 99.2912 158.432 99.2118 158.501C99.1323 158.569 99.0317 158.608 98.9269 158.611Z" fill="white"/>
<path d="M170.84 174.993H145.404V202.185H170.84V174.993Z" fill="white"/>
<path d="M170.87 202.713H145.404C145.335 202.714 145.266 202.702 145.202 202.676C145.138 202.651 145.08 202.613 145.031 202.565C144.982 202.517 144.943 202.459 144.916 202.396C144.89 202.332 144.876 202.264 144.876 202.195V174.993C144.876 174.924 144.89 174.856 144.916 174.793C144.943 174.729 144.982 174.672 145.031 174.623C145.08 174.575 145.138 174.537 145.202 174.512C145.266 174.486 145.335 174.474 145.404 174.475H170.87C171.008 174.475 171.141 174.53 171.24 174.626C171.338 174.723 171.395 174.855 171.398 174.993V202.185C171.398 202.325 171.342 202.459 171.243 202.558C171.144 202.657 171.01 202.713 170.87 202.713ZM145.962 201.698H170.322V175.521H145.962V201.698Z" fill="#DEE5EB"/>
<path d="M170.87 180.139H145.404C145.325 180.162 145.242 180.166 145.162 180.151C145.082 180.136 145.006 180.102 144.941 180.053C144.876 180.004 144.823 179.94 144.786 179.867C144.75 179.794 144.731 179.713 144.731 179.632C144.731 179.55 144.75 179.47 144.786 179.396C144.823 179.323 144.876 179.26 144.941 179.21C145.006 179.161 145.082 179.128 145.162 179.113C145.242 179.098 145.325 179.102 145.404 179.124H170.87C170.949 179.102 171.031 179.098 171.112 179.113C171.192 179.128 171.268 179.161 171.333 179.21C171.398 179.26 171.451 179.323 171.487 179.396C171.524 179.47 171.543 179.55 171.543 179.632C171.543 179.713 171.524 179.794 171.487 179.867C171.451 179.94 171.398 180.004 171.333 180.053C171.268 180.102 171.192 180.136 171.112 180.151C171.031 180.166 170.949 180.162 170.87 180.139Z" fill="#DEE5EB"/>
<path d="M160.375 186.118H152.478V183.56H163.765V185.864L157.797 196.765H154.458L160.375 186.118Z" fill="#DEE5EB"/>
<path d="M152.478 178.282C152.412 178.299 152.342 178.303 152.274 178.294C152.206 178.284 152.14 178.261 152.081 178.226C152.021 178.192 151.969 178.145 151.928 178.09C151.886 178.035 151.856 177.973 151.839 177.906C151.821 177.84 151.817 177.77 151.827 177.702C151.836 177.634 151.859 177.568 151.894 177.509C151.929 177.449 151.975 177.397 152.03 177.356C152.085 177.314 152.148 177.284 152.214 177.267C152.757 176.926 153.179 176.423 153.42 175.829C153.661 175.235 153.707 174.58 153.554 173.958C153.457 173.575 153.227 173.24 152.905 173.011C152.584 172.783 152.191 172.676 151.798 172.709C151.483 172.701 151.17 172.759 150.878 172.877C150.587 172.996 150.323 173.174 150.103 173.4C149.773 173.827 149.613 174.363 149.657 174.902C149.671 175.038 149.631 175.174 149.545 175.28C149.46 175.387 149.335 175.455 149.2 175.47C149.132 175.482 149.063 175.479 148.996 175.462C148.93 175.446 148.867 175.416 148.813 175.374C148.758 175.332 148.713 175.279 148.68 175.219C148.647 175.158 148.627 175.092 148.621 175.024C148.541 174.201 148.781 173.38 149.291 172.73C149.604 172.392 149.985 172.123 150.407 171.939C150.83 171.756 151.287 171.662 151.747 171.664C152.381 171.614 153.011 171.791 153.526 172.163C154.041 172.535 154.407 173.077 154.559 173.694C154.782 174.542 154.724 175.439 154.395 176.251C154.066 177.063 153.482 177.747 152.732 178.201C152.657 178.251 152.569 178.279 152.478 178.282Z" fill="#DEE5EB"/>
<path d="M165.734 178.282C165.641 178.284 165.549 178.26 165.469 178.214C165.388 178.167 165.322 178.099 165.277 178.018C165.211 177.898 165.193 177.756 165.229 177.623C165.266 177.491 165.352 177.377 165.47 177.307C166.013 176.967 166.435 176.464 166.676 175.87C166.916 175.276 166.963 174.621 166.81 173.998C166.715 173.617 166.487 173.281 166.167 173.053C165.847 172.824 165.456 172.717 165.064 172.75C164.745 172.74 164.428 172.798 164.132 172.918C163.837 173.039 163.57 173.22 163.349 173.45C163.026 173.873 162.874 174.402 162.923 174.932C162.909 175.049 162.856 175.158 162.774 175.241C162.691 175.325 162.583 175.378 162.466 175.394C162.35 175.409 162.232 175.385 162.13 175.325C162.029 175.265 161.951 175.173 161.908 175.064C161.833 174.241 162.076 173.42 162.588 172.77C162.898 172.432 163.276 172.162 163.698 171.978C164.119 171.795 164.574 171.701 165.034 171.705C165.667 171.655 166.297 171.832 166.812 172.203C167.327 172.575 167.693 173.118 167.845 173.735C168.068 174.582 168.01 175.479 167.681 176.292C167.352 177.104 166.769 177.788 166.018 178.241C165.93 178.285 165.831 178.299 165.734 178.282Z" fill="#DEE5EB"/>
</svg>
