<svg width="32" height="32" viewBox="0 0 32 32" fill="none" xmlns="http://www.w3.org/2000/svg">
<path d="M26.9995 6H22V5C21.9991 4.20463 21.6827 3.44209 21.1203 2.87967C20.5579 2.31726 19.7954 2.0009 19 2H13C12.2046 2.0009 11.4421 2.31726 10.8797 2.87967C10.3173 3.44209 10.0009 4.20463 10 5V6H4.99951C4.7343 6 4.47994 6.10536 4.29241 6.29289C4.10487 6.48043 3.99951 6.73478 3.99951 7C3.99951 7.26522 4.10487 7.51957 4.29241 7.70711C4.47994 7.89464 4.7343 8 4.99951 8H5.99951V26C6.00012 26.5302 6.21103 27.0386 6.58597 27.4135C6.96091 27.7885 7.46926 27.9994 7.99951 28H23.9995C24.5298 27.9994 25.0381 27.7885 25.4131 27.4135C25.788 27.0386 25.9989 26.5302 25.9995 26V8H26.9995C27.2647 8 27.5191 7.89464 27.7066 7.70711C27.8942 7.51957 27.9995 7.26522 27.9995 7C27.9995 6.73478 27.8942 6.48043 27.7066 6.29289C27.5191 6.10536 27.2647 6 26.9995 6ZM14 21C14 21.2652 13.8946 21.5196 13.7071 21.7071C13.5196 21.8946 13.2652 22 13 22C12.7348 22 12.4804 21.8946 12.2929 21.7071C12.1054 21.5196 12 21.2652 12 21V13C12 12.7348 12.1054 12.4804 12.2929 12.2929C12.4804 12.1054 12.7348 12 13 12C13.2652 12 13.5196 12.1054 13.7071 12.2929C13.8946 12.4804 14 12.7348 14 13V21ZM20 21C20 21.2652 19.8946 21.5196 19.7071 21.7071C19.5196 21.8946 19.2652 22 19 22C18.7348 22 18.4804 21.8946 18.2929 21.7071C18.1054 21.5196 18 21.2652 18 21V13C18 12.7348 18.1054 12.4804 18.2929 12.2929C18.4804 12.1054 18.7348 12 19 12C19.2652 12 19.5196 12.1054 19.7071 12.2929C19.8946 12.4804 20 12.7348 20 13V21ZM20 6H12V5C12.0003 4.73488 12.1058 4.4807 12.2932 4.29323C12.4807 4.10576 12.7349 4.0003 13 4H19C19.2651 4.0003 19.5193 4.10576 19.7068 4.29323C19.8942 4.4807 19.9997 4.73488 20 5V6Z" fill="#74F73C"/>
</svg>
