<svg width="290" height="247" viewBox="0 0 290 247" fill="none" xmlns="http://www.w3.org/2000/svg">
<path d="M127.126 172.335H126.984C125.075 171.807 73.3206 141.763 67.4235 138.343C67.3407 138.298 67.2715 138.233 67.2232 138.152C67.1749 138.072 67.1494 137.98 67.1494 137.886C67.1494 137.792 67.1749 137.7 67.2232 137.619C67.2715 137.539 67.3407 137.473 67.4235 137.429L90.5553 124.985C90.678 124.92 90.8213 124.906 90.9543 124.946C91.0873 124.986 91.1992 125.076 91.2658 125.198C91.2994 125.259 91.3205 125.325 91.328 125.394C91.3354 125.463 91.329 125.532 91.3092 125.599C91.2893 125.665 91.2564 125.726 91.2123 125.78C91.1683 125.833 91.114 125.877 91.0527 125.909L68.7227 137.845C85.186 147.406 125.563 170.731 127.227 171.259C127.337 171.303 127.428 171.382 127.488 171.484C127.547 171.586 127.57 171.705 127.554 171.822C127.537 171.939 127.482 172.047 127.397 172.129C127.312 172.211 127.203 172.262 127.085 172.274L127.126 172.335Z" fill="#DEE5EB"/>
<path d="M165.229 169.259C165.094 169.296 164.951 169.277 164.83 169.208C164.709 169.138 164.621 169.023 164.584 168.889C164.548 168.754 164.567 168.611 164.636 168.49C164.706 168.369 164.82 168.281 164.955 168.244C167.228 166.793 245.668 125.401 249.007 123.635C249.131 123.571 249.275 123.558 249.408 123.6C249.541 123.642 249.653 123.735 249.717 123.858C249.749 123.919 249.768 123.985 249.774 124.053C249.78 124.121 249.772 124.19 249.752 124.255C249.731 124.32 249.698 124.38 249.653 124.433C249.609 124.485 249.555 124.528 249.494 124.559C248.682 124.995 167.756 167.706 165.513 169.127C165.432 169.197 165.334 169.242 165.229 169.259Z" fill="#DEE5EB"/>
<path d="M249.251 148.249L209.554 125.34V114.693L249.251 137.601V148.249Z" fill="white"/>
<path d="M249.251 148.756C249.162 148.757 249.075 148.736 248.997 148.696L209.3 125.777C209.223 125.733 209.16 125.669 209.115 125.592C209.071 125.516 209.047 125.429 209.046 125.34V114.693C209.047 114.603 209.071 114.515 209.115 114.437C209.16 114.359 209.223 114.293 209.3 114.246C209.377 114.202 209.465 114.178 209.554 114.178C209.643 114.178 209.73 114.202 209.808 114.246L249.545 137.165C249.623 137.208 249.688 137.271 249.733 137.348C249.777 137.425 249.8 137.513 249.799 137.602V148.249C249.8 148.339 249.777 148.428 249.732 148.507C249.688 148.585 249.623 148.65 249.545 148.696C249.454 148.743 249.352 148.764 249.251 148.756ZM210.061 125.046L248.743 147.376V137.896L210.061 115.566V125.046Z" fill="#1F2223"/>
<path d="M288.947 125.371L249.25 148.218V137.571L288.947 114.713V125.371Z" fill="white"/>
<path d="M249.251 148.726C249.161 148.728 249.073 148.703 248.997 148.655C248.92 148.611 248.856 148.547 248.812 148.47C248.767 148.394 248.744 148.307 248.743 148.218V137.571C248.744 137.481 248.768 137.393 248.812 137.315C248.856 137.237 248.92 137.171 248.997 137.124L288.694 114.277C288.771 114.232 288.858 114.209 288.947 114.209C289.036 114.209 289.124 114.232 289.201 114.277C289.278 114.321 289.342 114.385 289.386 114.461C289.431 114.538 289.454 114.625 289.455 114.713V125.371C289.454 125.459 289.431 125.546 289.386 125.623C289.342 125.699 289.278 125.763 289.201 125.807L249.545 148.655C249.458 148.711 249.354 148.736 249.251 148.726ZM249.758 137.865V147.315L288.44 125.046V115.566L249.758 137.865Z" fill="#1F2223"/>
<path d="M249.251 137.612L209.554 114.693L249.251 91.7742L288.947 114.693L249.251 137.612Z" fill="white"/>
<path d="M249.251 138.119C249.161 138.116 249.074 138.092 248.997 138.048L209.3 115.129C209.223 115.085 209.16 115.021 209.115 114.945C209.071 114.868 209.047 114.781 209.046 114.693C209.047 114.603 209.071 114.515 209.115 114.437C209.16 114.359 209.223 114.293 209.3 114.246L248.997 91.3378C249.074 91.2932 249.161 91.2698 249.251 91.2698C249.34 91.2698 249.427 91.2932 249.504 91.3378L289.201 114.246C289.278 114.293 289.341 114.359 289.386 114.437C289.43 114.515 289.454 114.603 289.455 114.693C289.454 114.781 289.43 114.868 289.386 114.945C289.341 115.021 289.278 115.085 289.201 115.129L249.545 138.048C249.455 138.098 249.353 138.123 249.251 138.119ZM210.569 114.693L249.251 137.023L287.932 114.693L249.251 92.3629L210.569 114.693Z" fill="#1F2223"/>
<path d="M249.251 132.141C249.158 132.143 249.066 132.118 248.987 132.07L219.663 115.14C219.583 115.095 219.516 115.029 219.47 114.95C219.423 114.87 219.399 114.78 219.399 114.688C219.399 114.596 219.423 114.505 219.47 114.426C219.516 114.347 219.583 114.281 219.663 114.236L248.987 97.306C249.067 97.2606 249.158 97.2368 249.251 97.2368C249.343 97.2368 249.434 97.2606 249.515 97.306L278.838 114.236C278.918 114.281 278.985 114.347 279.032 114.426C279.078 114.505 279.103 114.596 279.103 114.688C279.103 114.78 279.078 114.87 279.032 114.95C278.985 115.029 278.918 115.095 278.838 115.14L249.545 132.09C249.455 132.137 249.352 132.155 249.251 132.141ZM220.973 114.693L249.251 131.014L277.529 114.693L249.251 98.3616L220.973 114.693Z" fill="#DEE5EB"/>
<path d="M99.0003 220.568C98.9073 220.57 98.8158 220.545 98.7364 220.497L31.6652 180.313C31.5584 180.236 31.4843 180.121 31.4577 179.992C31.431 179.863 31.4536 179.728 31.5211 179.615C31.5886 179.502 31.696 179.418 31.8222 179.38C31.9484 179.342 32.0843 179.352 32.2031 179.409L99.0206 219.441L120.407 208.215C120.529 208.15 120.673 208.136 120.806 208.176C120.939 208.216 121.051 208.306 121.117 208.428C121.181 208.552 121.194 208.697 121.152 208.83C121.11 208.963 121.017 209.074 120.894 209.139L99.2439 220.558C99.1647 220.581 99.0811 220.584 99.0003 220.568Z" fill="#DEE5EB"/>
<path d="M171.634 183.855C171.508 183.866 171.382 183.831 171.28 183.757C171.177 183.683 171.105 183.575 171.075 183.452C171.046 183.33 171.061 183.2 171.119 183.088C171.177 182.975 171.273 182.888 171.39 182.84L215.187 159.759C215.263 159.716 215.349 159.694 215.436 159.694C215.523 159.694 215.609 159.716 215.685 159.759L257.665 182.891C257.725 182.924 257.778 182.969 257.821 183.023C257.863 183.076 257.895 183.138 257.914 183.204C257.933 183.27 257.938 183.339 257.93 183.407C257.923 183.475 257.901 183.541 257.868 183.601C257.835 183.661 257.79 183.714 257.736 183.757C257.682 183.799 257.621 183.831 257.555 183.85C257.489 183.869 257.42 183.874 257.352 183.867C257.284 183.859 257.218 183.838 257.158 183.804L215.4 160.865L171.877 183.855C171.797 183.874 171.714 183.874 171.634 183.855Z" fill="#DEE5EB"/>
<path d="M257.442 187.479C261.399 187.479 264.608 185.629 264.608 183.348C264.608 181.066 261.399 179.217 257.442 179.217C253.484 179.217 250.276 181.066 250.276 183.348C250.276 185.629 253.484 187.479 257.442 187.479Z" fill="white"/>
<path d="M257.442 187.996C255.586 188.035 253.751 187.599 252.113 186.727C251.422 186.472 250.826 186.011 250.405 185.407C249.984 184.803 249.758 184.084 249.758 183.347C249.758 182.611 249.984 181.892 250.405 181.288C250.826 180.684 251.422 180.223 252.113 179.967C253.765 179.132 255.59 178.696 257.442 178.696C259.293 178.696 261.118 179.132 262.77 179.967C263.461 180.223 264.057 180.684 264.478 181.288C264.899 181.892 265.125 182.611 265.125 183.347C265.125 184.084 264.899 184.803 264.478 185.407C264.057 186.011 263.461 186.472 262.77 186.727C261.132 187.599 259.297 188.035 257.442 187.996ZM257.442 179.734C255.769 179.698 254.116 180.093 252.641 180.881C252.108 181.039 251.64 181.365 251.308 181.811C250.976 182.256 250.796 182.797 250.796 183.353C250.796 183.908 250.976 184.449 251.308 184.894C251.64 185.34 252.108 185.666 252.641 185.824C254.13 186.575 255.774 186.965 257.442 186.965C259.109 186.965 260.753 186.575 262.243 185.824C262.775 185.666 263.243 185.34 263.575 184.894C263.907 184.449 264.087 183.908 264.087 183.353C264.087 182.797 263.907 182.256 263.575 181.811C263.243 181.365 262.775 181.039 262.243 180.881C260.767 180.093 259.114 179.698 257.442 179.734Z" fill="#DEE5EB"/>
<path d="M93.1742 128.284C97.1318 128.284 100.34 126.434 100.34 124.153C100.34 121.871 97.1318 120.022 93.1742 120.022C89.2166 120.022 86.0083 121.871 86.0083 124.153C86.0083 126.434 89.2166 128.284 93.1742 128.284Z" fill="white"/>
<path d="M93.1742 128.801C91.3209 128.839 89.4893 128.398 87.8556 127.523C87.1637 127.27 86.5663 126.81 86.1441 126.207C85.722 125.603 85.4956 124.884 85.4956 124.148C85.4956 123.411 85.722 122.692 86.1441 122.089C86.5663 121.485 87.1637 121.026 87.8556 120.773C89.5058 119.937 91.3295 119.502 93.1793 119.502C95.029 119.502 96.8527 119.937 98.5029 120.773C99.1948 121.026 99.7923 121.485 100.214 122.089C100.637 122.692 100.863 123.411 100.863 124.148C100.863 124.884 100.637 125.603 100.214 126.207C99.7923 126.81 99.1948 127.27 98.5029 127.523C96.8655 128.398 95.0307 128.839 93.1742 128.801ZM93.1742 120.529C91.5026 120.499 89.8507 120.894 88.3732 121.676C87.8405 121.834 87.3731 122.16 87.0407 122.606C86.7083 123.051 86.5287 123.592 86.5287 124.148C86.5287 124.703 86.7083 125.244 87.0407 125.69C87.3731 126.135 87.8405 126.461 88.3732 126.619C89.8625 127.375 91.5091 127.769 93.1793 127.769C94.8494 127.769 96.496 127.375 97.9853 126.619C98.518 126.461 98.9855 126.135 99.3178 125.69C99.6502 125.244 99.8298 124.703 99.8298 124.148C99.8298 123.592 99.6502 123.051 99.3178 122.606C98.9855 122.16 98.518 121.834 97.9853 121.676C96.5047 120.892 94.8492 120.498 93.1742 120.529Z" fill="#DEE5EB"/>
<path d="M35.4206 201.313L1.05273 181.48V172.254L35.4206 192.087V201.313Z" fill="white"/>
<path d="M35.38 201.82C35.2907 201.819 35.2034 201.794 35.1262 201.749L0.798916 181.916C0.723524 181.871 0.660798 181.807 0.616471 181.73C0.572145 181.654 0.547631 181.568 0.545166 181.48V172.253C0.545701 172.165 0.569404 172.078 0.61392 172.001C0.658435 171.925 0.722214 171.861 0.798916 171.817C0.876066 171.772 0.963581 171.749 1.05267 171.749C1.14175 171.749 1.22927 171.772 1.30642 171.817L35.6743 191.65C35.751 191.694 35.8148 191.758 35.8593 191.835C35.9038 191.911 35.9275 191.998 35.9281 192.087V201.313C35.9275 201.401 35.9038 201.488 35.8593 201.565C35.8148 201.641 35.751 201.705 35.6743 201.749C35.5839 201.798 35.4825 201.822 35.38 201.82ZM1.56017 181.185L34.9131 200.47V192.381L1.56017 173.096V181.185Z" fill="#1F2223"/>
<path d="M69.7784 181.5L35.4207 201.283V192.056L69.7784 172.274V181.5Z" fill="white"/>
<path d="M35.3799 201.79C35.29 201.793 35.2014 201.768 35.1261 201.719C35.048 201.676 34.9831 201.613 34.9383 201.536C34.8936 201.459 34.8708 201.372 34.8724 201.283V192.056C34.8729 191.968 34.8966 191.881 34.9411 191.804C34.9857 191.728 35.0494 191.664 35.1261 191.62L69.4839 171.838C69.561 171.793 69.6486 171.77 69.7376 171.77C69.8267 171.77 69.9142 171.793 69.9914 171.838C70.0695 171.88 70.1345 171.943 70.1792 172.02C70.2239 172.097 70.2467 172.185 70.2451 172.274V181.5C70.2467 181.589 70.2239 181.677 70.1792 181.754C70.1345 181.831 70.0695 181.894 69.9914 181.937L35.6742 201.719C35.5864 201.774 35.4831 201.799 35.3799 201.79ZM35.8874 192.351V200.4L69.2301 181.206V173.157L35.8874 192.351Z" fill="#1F2223"/>
<path d="M35.4206 192.097L1.05273 172.254L35.4206 152.42L69.7784 172.254L35.4206 192.097Z" fill="#1F2223"/>
<path d="M35.38 192.604C35.2907 192.603 35.2034 192.578 35.1262 192.533L0.798924 172.69C0.721525 172.647 0.657174 172.583 0.612553 172.507C0.567932 172.43 0.544668 172.342 0.545174 172.254C0.545709 172.165 0.569412 172.078 0.613928 172.002C0.658444 171.925 0.722222 171.862 0.798924 171.817L35.1668 151.974C35.244 151.929 35.3315 151.906 35.4206 151.906C35.5097 151.906 35.5972 151.929 35.6743 151.974L70.0321 171.817C70.1102 171.86 70.1752 171.923 70.2199 172C70.2646 172.077 70.2874 172.165 70.2858 172.254C70.2886 172.343 70.2663 172.431 70.2214 172.508C70.1766 172.585 70.111 172.648 70.0321 172.69L35.6743 192.533C35.5839 192.582 35.4826 192.606 35.38 192.604ZM2.06767 172.254L35.4206 191.539L68.7633 172.254L35.38 152.999L2.06767 172.254Z" fill="#1F2223"/>
<path d="M35.4207 186.91L10.0254 172.254L35.4207 157.597L60.8058 172.254L35.4207 186.91Z" fill="#DEE5EB"/>
<path d="M35.3799 187.438C35.2877 187.435 35.1974 187.411 35.116 187.367L9.77149 172.69C9.6906 172.645 9.62343 172.578 9.577 172.498C9.53057 172.418 9.5066 172.326 9.5076 172.233C9.50962 172.141 9.53486 172.051 9.58099 171.971C9.62712 171.891 9.69264 171.824 9.77149 171.777L35.1465 157.12C35.2255 157.076 35.3147 157.052 35.4053 157.052C35.496 157.052 35.5851 157.076 35.6641 157.12L61.0391 171.777C61.1168 171.825 61.1808 171.892 61.2252 171.972C61.2696 172.052 61.2929 172.142 61.2929 172.233C61.296 172.325 61.274 172.416 61.2293 172.497C61.1846 172.577 61.1189 172.644 61.0391 172.69L35.6641 187.347C35.5795 187.402 35.4812 187.434 35.3799 187.438ZM11.0199 172.213L35.3799 186.271L59.7399 172.213L35.3799 158.206L11.0199 172.213Z" fill="white"/>
<path d="M35.4206 187.174L1.05273 167.341V158.125L35.4206 177.958V187.174Z" fill="white"/>
<path d="M35.38 187.682C35.2916 187.683 35.2042 187.662 35.1262 187.621L0.798916 167.777C0.722214 167.733 0.658435 167.669 0.61392 167.593C0.569404 167.516 0.545701 167.429 0.545166 167.341V158.125C0.54593 158.035 0.56964 157.947 0.614047 157.868C0.658455 157.79 0.722089 157.725 0.798916 157.678C0.876066 157.634 0.963581 157.61 1.05267 157.61C1.14175 157.61 1.22927 157.634 1.30642 157.678L35.6743 177.521C35.7517 177.565 35.8161 177.628 35.8607 177.705C35.9053 177.782 35.9286 177.869 35.9281 177.958V187.174C35.9273 187.264 35.9036 187.352 35.8592 187.43C35.8148 187.508 35.7511 187.574 35.6743 187.621C35.5833 187.666 35.4817 187.687 35.38 187.682ZM1.56017 167.047L34.9131 186.332V178.283L1.56017 158.998V167.047Z" fill="#1F2223"/>
<path d="M69.7784 167.361L35.4207 187.144V177.927L69.7784 158.145V167.361Z" fill="white"/>
<path d="M35.3799 187.651C35.2915 187.653 35.2041 187.632 35.1261 187.59C35.0479 187.545 34.9832 187.48 34.9386 187.401C34.894 187.323 34.8711 187.234 34.8724 187.144V177.927C34.8708 177.838 34.8936 177.751 34.9383 177.674C34.9831 177.597 35.048 177.534 35.1261 177.491L69.4839 157.709C69.561 157.664 69.6486 157.641 69.7376 157.641C69.8267 157.641 69.9142 157.664 69.9914 157.709C70.0695 157.751 70.1345 157.814 70.1792 157.891C70.2239 157.968 70.2467 158.056 70.2451 158.145V167.361C70.2464 167.452 70.2235 167.541 70.1789 167.619C70.1343 167.698 70.0696 167.763 69.9914 167.808L35.6742 187.59C35.5832 187.636 35.4817 187.657 35.3799 187.651ZM35.8874 178.222V186.271L69.2301 167.067V159.018L35.8874 178.222Z" fill="#1F2223"/>
<path d="M35.4206 177.958L1.05273 158.125L35.4206 138.281L69.7784 158.125L35.4206 177.958Z" fill="#1F2223"/>
<path d="M35.38 178.465C35.2916 178.467 35.2042 178.446 35.1262 178.404L0.798916 158.561C0.722214 158.517 0.658435 158.453 0.61392 158.377C0.569404 158.3 0.545701 158.213 0.545166 158.125C0.54593 158.035 0.56964 157.947 0.614047 157.869C0.658455 157.79 0.722089 157.725 0.798916 157.678L35.1668 137.845C35.244 137.801 35.3315 137.777 35.4206 137.777C35.5097 137.777 35.5972 137.801 35.6743 137.845L70.0321 157.678C70.1103 157.723 70.175 157.789 70.2196 157.867C70.2642 157.946 70.2871 158.035 70.2858 158.125C70.2874 158.214 70.2646 158.302 70.2199 158.378C70.1751 158.455 70.1102 158.519 70.0321 158.561L35.6743 178.404C35.5833 178.45 35.4817 178.471 35.38 178.465ZM2.02707 158.165L35.38 177.45L68.7227 158.165L35.38 138.87L2.02707 158.165Z" fill="#1F2223"/>
<path d="M35.4207 172.781L10.0254 158.125L35.4207 143.468L60.8058 158.125L35.4207 172.781Z" fill="#DEE5EB"/>
<path d="M35.38 173.299C35.287 173.301 35.1955 173.276 35.1161 173.228L9.74108 158.571C9.66078 158.526 9.59393 158.461 9.54739 158.381C9.50085 158.302 9.47632 158.212 9.47632 158.12C9.47632 158.028 9.50085 157.937 9.54739 157.858C9.59393 157.779 9.66078 157.713 9.74108 157.668L35.1161 143.011C35.1951 142.967 35.2842 142.944 35.3749 142.944C35.4656 142.944 35.5547 142.967 35.6337 143.011L61.0087 157.668C61.0865 157.715 61.1508 157.781 61.1954 157.86C61.24 157.94 61.2635 158.029 61.2635 158.12C61.2635 158.211 61.24 158.3 61.1954 158.379C61.1508 158.458 61.0865 158.524 61.0087 158.571L35.6337 173.228C35.558 173.276 35.4697 173.301 35.38 173.299ZM11.02 158.125L35.38 172.172L59.74 158.125L35.38 144.067L11.02 158.125Z" fill="white"/>
<path d="M35.4206 173.045L1.05273 153.212V143.986L35.4206 163.819V173.045Z" fill="white"/>
<path d="M35.38 173.553C35.2901 173.556 35.2015 173.531 35.1262 173.482L0.798916 153.649C0.722214 153.604 0.658435 153.541 0.61392 153.464C0.569404 153.388 0.545701 153.301 0.545166 153.212V143.986C0.545701 143.897 0.569404 143.81 0.61392 143.734C0.658435 143.657 0.722214 143.594 0.798916 143.549C0.876066 143.505 0.963581 143.481 1.05267 143.481C1.14175 143.481 1.22927 143.505 1.30642 143.549L35.6743 163.383C35.751 163.427 35.8148 163.49 35.8593 163.567C35.9038 163.644 35.9275 163.73 35.9281 163.819V173.045C35.9275 173.134 35.9038 173.221 35.8593 173.297C35.8148 173.374 35.751 173.438 35.6743 173.482C35.5865 173.537 35.4832 173.562 35.38 173.553ZM1.56017 152.918L34.9131 172.203V164.154L1.56017 144.869V152.918Z" fill="#1F2223"/>
<path d="M69.7784 153.233L35.4207 173.015V163.799L69.7784 144.016V153.233Z" fill="white"/>
<path d="M35.3799 173.522C35.29 173.525 35.2014 173.501 35.1261 173.451C35.048 173.409 34.9831 173.345 34.9383 173.269C34.8936 173.192 34.8708 173.104 34.8724 173.015V163.799C34.8711 163.708 34.894 163.619 34.9386 163.541C34.9832 163.462 35.0479 163.397 35.1261 163.352L69.4839 143.57C69.5608 143.525 69.6481 143.502 69.7369 143.502C69.8257 143.502 69.913 143.525 69.9901 143.569C70.0671 143.613 70.1312 143.677 70.176 143.753C70.2208 143.83 70.2446 143.917 70.2451 144.006V153.233C70.2467 153.321 70.2239 153.409 70.1792 153.486C70.1345 153.563 70.0695 153.626 69.9914 153.669L35.6742 173.451C35.5864 173.506 35.4831 173.531 35.3799 173.522ZM35.8874 164.083V172.132L69.2301 152.938V144.889L35.8874 164.083Z" fill="#1F2223"/>
<path d="M35.4206 163.829L1.05273 143.986L35.4206 124.153L69.7784 143.986L35.4206 163.829Z" fill="white"/>
<path d="M35.38 164.337C35.2901 164.34 35.2015 164.315 35.1262 164.266L0.798916 144.432C0.722089 144.386 0.658455 144.32 0.614047 144.242C0.56964 144.164 0.54593 144.076 0.545166 143.986C0.545701 143.897 0.569404 143.81 0.61392 143.734C0.658435 143.657 0.722214 143.594 0.798916 143.549L35.1668 123.706C35.244 123.662 35.3315 123.638 35.4206 123.638C35.5097 123.638 35.5972 123.662 35.6743 123.706L70.0321 143.549C70.1102 143.592 70.1751 143.655 70.2199 143.732C70.2646 143.809 70.2874 143.897 70.2858 143.986C70.2871 144.076 70.2642 144.165 70.2196 144.244C70.175 144.322 70.1103 144.387 70.0321 144.432L35.6743 164.266C35.5865 164.321 35.4832 164.346 35.38 164.337ZM2.06767 143.986L35.4206 163.271L68.7633 143.986L35.38 124.731L2.06767 143.986Z" fill="#1F2223"/>
<path d="M35.38 159.17C35.287 159.172 35.1955 159.148 35.1161 159.099L9.74108 144.443C9.66078 144.398 9.59393 144.332 9.54739 144.253C9.50085 144.173 9.47632 144.083 9.47632 143.991C9.47632 143.899 9.50085 143.809 9.54739 143.729C9.59393 143.65 9.66078 143.584 9.74108 143.539L35.1161 128.873C35.1951 128.828 35.2842 128.805 35.3749 128.805C35.4656 128.805 35.5547 128.828 35.6337 128.873L61.0087 143.539C61.0865 143.586 61.1508 143.653 61.1954 143.732C61.24 143.811 61.2635 143.9 61.2635 143.991C61.2635 144.082 61.24 144.171 61.1954 144.25C61.1508 144.329 61.0865 144.396 61.0087 144.443L35.6337 159.099C35.558 159.147 35.4697 159.172 35.38 159.17ZM11.02 143.945L35.38 158.003L59.74 143.945L35.38 129.938L11.02 143.945Z" fill="#DEE5EB"/>
<path d="M12.8301 155.901C13.1942 155.691 13.194 155.009 12.8296 154.378C12.4652 153.747 11.8747 153.405 11.5106 153.616C11.1465 153.826 11.1467 154.508 11.5111 155.139C11.8754 155.77 12.466 156.111 12.8301 155.901Z" fill="#DEE5EB"/>
<path d="M9.02125 153.694C9.38535 153.484 9.38513 152.802 9.02076 152.171C8.65639 151.54 8.06584 151.198 7.70174 151.409C7.33764 151.619 7.33786 152.301 7.70223 152.932C8.0666 153.563 8.65715 153.904 9.02125 153.694Z" fill="#DEE5EB"/>
<path d="M5.2124 151.498C5.5765 151.287 5.57629 150.605 5.21192 149.974C4.84755 149.343 4.257 149.002 3.8929 149.212C3.5288 149.422 3.52902 150.104 3.89339 150.735C4.25776 151.367 4.8483 151.708 5.2124 151.498Z" fill="#DEE5EB"/>
<path d="M225.083 129.323C225.506 129.079 225.507 128.291 225.087 127.563C224.666 126.835 223.983 126.442 223.561 126.686C223.139 126.93 223.137 127.718 223.557 128.446C223.978 129.174 224.661 129.567 225.083 129.323Z" fill="#DEE5EB"/>
<path d="M220.689 126.786C221.111 126.542 221.113 125.754 220.692 125.026C220.272 124.297 219.588 123.905 219.166 124.149C218.744 124.392 218.742 125.18 219.163 125.909C219.583 126.637 220.266 127.029 220.689 126.786Z" fill="#DEE5EB"/>
<path d="M217.367 124.833C217.791 124.589 217.794 123.799 217.374 123.067C216.954 122.335 216.269 121.94 215.844 122.184C215.42 122.428 215.417 123.219 215.837 123.95C216.258 124.682 216.943 125.077 217.367 124.833Z" fill="#DEE5EB"/>
<path d="M213.005 229.814C212.912 229.816 212.82 229.792 212.741 229.743L173.308 206.51C173.249 206.476 173.196 206.431 173.154 206.377C173.112 206.323 173.081 206.261 173.063 206.195C173.046 206.129 173.041 206.06 173.05 205.992C173.059 205.924 173.081 205.859 173.115 205.799C173.187 205.68 173.302 205.594 173.437 205.558C173.571 205.522 173.714 205.539 173.836 205.607L213.269 228.84C213.403 228.875 213.519 228.962 213.589 229.082C213.659 229.202 213.679 229.345 213.644 229.479C213.609 229.614 213.522 229.729 213.402 229.8C213.282 229.87 213.139 229.89 213.005 229.855V229.814Z" fill="#DEE5EB"/>
<path d="M199.932 226.485V233.133C199.932 236.371 202.073 239.619 206.357 242.086C214.923 247.039 228.808 247.039 237.375 242.086C241.658 239.619 243.8 236.371 243.8 233.133V226.485H199.932Z" fill="white"/>
<path d="M221.866 246.267C216.378 246.378 210.952 245.085 206.103 242.512C201.799 240.025 199.424 236.686 199.424 233.113V226.485C199.424 226.35 199.478 226.221 199.573 226.126C199.668 226.031 199.797 225.978 199.932 225.978H243.8C243.935 225.978 244.064 226.031 244.159 226.126C244.254 226.221 244.308 226.35 244.308 226.485V233.133C244.308 236.706 241.933 240.045 237.629 242.532C232.778 245.098 227.352 246.383 221.866 246.267ZM200.439 226.982V233.123C200.439 236.32 202.632 239.345 206.611 241.639C215.025 246.501 228.707 246.501 237.121 241.639C241.1 239.345 243.293 236.32 243.293 233.123V226.982H200.439Z" fill="#1F2223"/>
<path d="M221.866 238.208C233.98 238.208 243.8 232.537 243.8 225.541C243.8 218.545 233.98 212.874 221.866 212.874C209.752 212.874 199.932 218.545 199.932 225.541C199.932 232.537 209.752 238.208 221.866 238.208Z" fill="white"/>
<path d="M221.866 238.665C216.378 238.776 210.952 237.483 206.103 234.909C201.799 232.423 199.424 229.083 199.424 225.511C199.424 221.938 201.799 218.598 206.103 216.112C214.791 211.098 228.941 211.098 237.629 216.112C241.933 218.598 244.308 221.938 244.308 225.511C244.308 229.083 241.933 232.423 237.629 234.909C232.78 237.482 227.354 238.775 221.866 238.665ZM221.866 213.351C216.564 213.253 211.324 214.507 206.641 216.995C202.662 219.289 200.47 222.313 200.47 225.511C200.47 228.708 202.662 231.732 206.641 234.026C215.055 238.888 228.738 238.878 237.152 234.026C241.131 231.732 243.323 228.708 243.323 225.511C243.323 222.313 241.131 219.289 237.152 216.995C232.448 214.507 227.186 213.263 221.866 213.381V213.351Z" fill="#1F2223"/>
<path d="M221.866 234.493C230.431 234.493 237.375 230.485 237.375 225.541C237.375 220.597 230.431 216.589 221.866 216.589C213.3 216.589 206.357 220.597 206.357 225.541C206.357 230.485 213.3 234.493 221.866 234.493Z" fill="white"/>
<path d="M221.866 235.011C217.955 235.09 214.09 234.164 210.64 232.321C207.534 230.535 205.829 228.129 205.829 225.541C205.829 222.953 207.534 220.547 210.64 218.751C216.831 215.178 226.88 215.178 233.092 218.751C236.137 220.547 237.903 222.953 237.903 225.541C237.903 228.129 236.198 230.535 233.092 232.321C229.642 234.164 225.776 235.09 221.866 235.011ZM221.866 217.107C218.137 217.033 214.451 217.914 211.158 219.664C208.397 221.258 206.874 223.349 206.874 225.541C206.874 227.734 208.397 229.825 211.158 231.418C217.065 234.828 226.667 234.828 232.574 231.418C235.335 229.825 236.847 227.734 236.847 225.541C236.847 223.349 235.335 221.258 232.574 219.664C229.281 217.914 225.595 217.033 221.866 217.107Z" fill="#DEE5EB"/>
<path d="M144.493 229.347L83.1155 193.924V177.45L144.493 212.874V229.347Z" fill="white"/>
<path d="M144.492 229.855C144.403 229.856 144.315 229.831 144.239 229.784L82.8617 194.36C82.7863 194.315 82.7235 194.251 82.6792 194.174C82.6349 194.098 82.6104 194.012 82.6079 193.924V177.45C82.6084 177.362 82.6321 177.275 82.6767 177.198C82.7212 177.122 82.785 177.058 82.8617 177.014C82.9388 176.969 83.0263 176.946 83.1154 176.946C83.2045 176.946 83.292 176.969 83.3692 177.014L144.746 212.438C144.823 212.482 144.887 212.545 144.931 212.622C144.976 212.699 144.999 212.785 145 212.874V229.347C145.002 229.436 144.979 229.524 144.934 229.601C144.889 229.678 144.824 229.741 144.746 229.784C144.67 229.832 144.582 229.857 144.492 229.855ZM83.5925 193.63L143.985 228.515V213.168L83.6229 178.334L83.5925 193.63Z" fill="#1F2223"/>
<path d="M205.869 193.964L144.492 229.297V212.823L205.869 177.491V193.964Z" fill="white"/>
<path d="M144.492 229.804C144.403 229.805 144.315 229.78 144.239 229.733C144.162 229.689 144.098 229.625 144.054 229.549C144.009 229.472 143.985 229.385 143.985 229.297V212.823C143.985 212.735 144.009 212.648 144.054 212.571C144.098 212.495 144.162 212.431 144.239 212.387L205.616 177.055C205.693 177.01 205.78 176.987 205.869 176.987C205.958 176.987 206.046 177.01 206.123 177.055C206.201 177.097 206.266 177.16 206.311 177.237C206.356 177.314 206.379 177.402 206.377 177.491V194.005C206.376 194.094 206.353 194.181 206.308 194.257C206.264 194.334 206.2 194.397 206.123 194.442L144.746 229.733C144.67 229.781 144.582 229.806 144.492 229.804ZM145 213.118V228.414L205.362 193.67V178.364L145 213.118Z" fill="#1F2223"/>
<path d="M144.493 212.884L83.1155 177.451L144.493 142.017L205.87 177.451L144.493 212.884Z" fill="white"/>
<path d="M144.492 213.392C144.404 213.391 144.318 213.37 144.239 213.331L82.8617 177.887C82.7833 177.844 82.7179 177.781 82.6724 177.704C82.6268 177.627 82.6028 177.54 82.6028 177.451C82.6028 177.361 82.6268 177.274 82.6724 177.197C82.7179 177.12 82.7833 177.057 82.8617 177.014L144.239 141.57C144.317 141.53 144.404 141.509 144.492 141.509C144.581 141.509 144.668 141.53 144.746 141.57L206.123 177.014C206.202 177.057 206.267 177.12 206.313 177.197C206.358 177.274 206.382 177.361 206.382 177.451C206.382 177.54 206.358 177.627 206.313 177.704C206.267 177.781 206.202 177.844 206.123 177.887L144.746 213.29C144.672 213.345 144.584 213.38 144.492 213.392ZM84.1 177.451L144.492 212.275L204.885 177.451L144.492 142.595L84.1 177.451Z" fill="#1F2223"/>
<path d="M144.492 198.542C164.673 198.542 181.032 189.099 181.032 177.45C181.032 165.802 164.673 156.359 144.492 156.359C124.312 156.359 107.952 165.802 107.952 177.45C107.952 189.099 124.312 198.542 144.492 198.542Z" fill="white"/>
<path d="M144.492 199.08C135.043 199.08 125.593 197.05 118.397 192.848C111.2 188.646 107.435 183.307 107.435 177.481C107.435 171.655 111.322 166.194 118.397 162.114C132.79 153.801 156.206 153.801 170.588 162.114C177.693 166.174 181.56 171.655 181.56 177.481C181.56 183.307 177.663 188.768 170.588 192.848C163.514 196.928 153.942 199.08 144.492 199.08ZM144.492 156.907C135.236 156.907 125.969 158.937 118.914 162.997C112.185 166.884 108.48 172.02 108.48 177.461C108.48 182.901 112.185 188.037 118.914 191.924C133.023 200.044 155.962 200.044 170.07 191.924C176.8 188.037 180.505 182.901 180.505 177.461C180.505 172.02 176.8 166.884 170.07 162.997C163.016 158.917 153.759 156.876 144.492 156.876V156.907Z" fill="#DEE5EB"/>
<path d="M183.885 201.831L168.233 210.854V204.957L183.885 195.923V201.831Z" fill="white"/>
<path d="M168.233 211.382C168.14 211.384 168.049 211.359 167.969 211.311C167.89 211.265 167.824 211.198 167.779 211.117C167.734 211.037 167.713 210.946 167.716 210.854V204.957C167.714 204.867 167.737 204.778 167.782 204.699C167.826 204.621 167.891 204.555 167.969 204.51L183.621 195.477C183.698 195.427 183.788 195.4 183.879 195.4C183.971 195.4 184.061 195.427 184.138 195.477C184.218 195.521 184.284 195.586 184.33 195.665C184.377 195.743 184.401 195.832 184.402 195.923V201.831C184.401 201.922 184.377 202.011 184.33 202.089C184.284 202.168 184.218 202.233 184.138 202.277L168.497 211.311C168.418 211.359 168.326 211.384 168.233 211.382ZM168.761 205.292V209.981L183.357 201.557V196.867L168.761 205.292Z" fill="#DEE5EB"/>
<path d="M105.111 200.068C105.781 199.681 105.779 198.423 105.106 197.258C104.434 196.093 103.345 195.462 102.675 195.849C102.006 196.236 102.008 197.494 102.68 198.659C103.353 199.824 104.442 200.455 105.111 200.068Z" fill="#DEE5EB"/>
<path d="M98.09 196.023C98.7599 195.636 98.7577 194.378 98.085 193.213C97.4123 192.048 96.3239 191.417 95.654 191.804C94.984 192.19 94.9862 193.448 95.6589 194.614C96.3316 195.779 97.42 196.41 98.09 196.023Z" fill="#DEE5EB"/>
<path d="M91.0682 191.978C91.7382 191.591 91.7359 190.333 91.0633 189.168C90.3906 188.003 89.3022 187.372 88.6322 187.758C87.9623 188.145 87.9645 189.403 88.6372 190.568C89.3099 191.733 90.3983 192.364 91.0682 191.978Z" fill="#DEE5EB"/>
<path d="M90.5554 86.9936L144.756 59.8525L199.445 88.709L145 124.153L90.5554 86.9936Z" fill="#1F2223"/>
<path d="M145 124.66C144.898 124.661 144.798 124.629 144.716 124.569L90.2712 87.43C90.1971 87.3802 90.1374 87.3118 90.0982 87.2316C90.059 87.1514 90.0416 87.0623 90.0479 86.9732C90.0559 86.8854 90.0862 86.8011 90.1359 86.7282C90.1857 86.6554 90.2532 86.5965 90.3321 86.5571L144.533 59.4058C144.606 59.3708 144.686 59.3525 144.767 59.3525C144.847 59.3525 144.927 59.3708 145 59.4058L199.678 88.2724C199.758 88.3124 199.825 88.3731 199.873 88.4481C199.922 88.5231 199.949 88.6096 199.952 88.6987C199.953 88.7867 199.933 88.8737 199.892 88.9517C199.851 89.0297 199.792 89.0963 199.719 89.1453L145.274 124.579C145.192 124.63 145.097 124.658 145 124.66ZM91.5602 87.1052L145 123.544L198.43 88.7596L144.756 60.4208L91.5602 87.1052Z" fill="#1F2223"/>
<path d="M144.756 0.972412V110.146L198.013 74.1336L144.756 0.972412Z" fill="#87FF53"/>
<path d="M144.756 110.653C144.674 110.654 144.594 110.633 144.523 110.592C144.441 110.55 144.372 110.486 144.324 110.407C144.275 110.328 144.25 110.238 144.249 110.146V0.972352C144.25 0.865571 144.285 0.761982 144.349 0.676331C144.413 0.590679 144.502 0.52733 144.604 0.495303C144.706 0.460134 144.816 0.458932 144.919 0.491876C145.021 0.524821 145.11 0.590134 145.172 0.678003L198.419 73.8392C198.461 73.8935 198.49 73.9559 198.506 74.0223C198.522 74.0888 198.523 74.1578 198.511 74.2249C198.486 74.36 198.409 74.4802 198.298 74.5599L145 110.562C144.929 110.614 144.844 110.646 144.756 110.653ZM145.264 2.53545V109.192L197.293 74.0117L145.264 2.53545Z" fill="#1F2223"/>
<path d="M144.756 0.972412L90.5554 74.1336L144.756 110.146V0.972412Z" fill="#87FF53"/>
<path d="M144.756 110.653C144.659 110.651 144.565 110.623 144.482 110.572L90.2812 74.5599C90.2227 74.5227 90.1726 74.4737 90.1342 74.416C90.0957 74.3583 90.0697 74.2932 90.0579 74.2249C90.0471 74.1578 90.0495 74.0891 90.0652 74.023C90.0809 73.9568 90.1095 73.8943 90.1493 73.8392L144.35 0.678003C144.412 0.590134 144.502 0.524821 144.604 0.491876C144.706 0.458932 144.817 0.460134 144.919 0.495303C145.018 0.530341 145.104 0.59476 145.166 0.679984C145.227 0.765208 145.262 0.867191 145.264 0.972352V110.146C145.263 110.237 145.238 110.326 145.192 110.404C145.145 110.483 145.079 110.548 145 110.592C144.925 110.632 144.841 110.652 144.756 110.653ZM91.2861 74.0117L144.249 109.202V2.51515L91.2861 74.0117Z" fill="#1F2223"/>
<path d="M90.5554 86.9937L144.756 162.733V124.153L90.5554 86.9937Z" fill="#87FF53"/>
<path d="M144.756 163.24C144.677 163.24 144.598 163.221 144.527 163.183C144.457 163.146 144.396 163.093 144.35 163.027L90.19 87.288C90.1122 87.1977 90.0693 87.0825 90.0693 86.9632C90.0693 86.844 90.1122 86.7287 90.19 86.6384C90.2739 86.5535 90.385 86.5009 90.5038 86.4898C90.6226 86.4786 90.7415 86.5097 90.8396 86.5775L145.041 123.727C145.107 123.776 145.16 123.841 145.197 123.915C145.234 123.989 145.253 124.07 145.254 124.153V162.723C145.253 162.828 145.219 162.931 145.157 163.017C145.096 163.102 145.009 163.166 144.909 163.2C144.861 163.222 144.809 163.236 144.756 163.24ZM92.6463 89.044L144.249 161.109V124.417L92.6463 89.044Z" fill="#1F2223"/>
<path d="M144.756 162.733L199.445 88.709L144.756 124.153V162.733Z" fill="#87FF53"/>
<path d="M144.756 163.24C144.706 163.25 144.654 163.25 144.604 163.24C144.502 163.208 144.413 163.145 144.349 163.059C144.285 162.974 144.25 162.87 144.249 162.763V124.193C144.249 124.108 144.27 124.025 144.311 123.95C144.352 123.876 144.411 123.813 144.482 123.767L199.17 88.3232C199.269 88.2586 199.388 88.2313 199.505 88.2462C199.622 88.261 199.73 88.3171 199.81 88.4044C199.886 88.4956 199.927 88.6105 199.927 88.7292C199.927 88.8478 199.886 88.9628 199.81 89.054L145.132 163.068C145.084 163.12 145.026 163.163 144.962 163.192C144.897 163.222 144.827 163.238 144.756 163.24ZM145.264 124.427V161.19L197.374 90.6577L145.264 124.427Z" fill="#1F2223"/>
<path d="M15.344 120.113L35.3293 110.105L55.4872 120.742L35.4207 133.805L15.344 120.113Z" fill="#1F2223"/>
<path d="M35.3799 134.323C35.2749 134.322 35.1724 134.291 35.0856 134.232L15.0799 120.529C15.0074 120.48 14.9487 120.413 14.9095 120.335C14.8704 120.257 14.8522 120.17 14.8566 120.083C14.8619 119.993 14.891 119.906 14.941 119.831C14.9909 119.756 15.0599 119.696 15.1408 119.656L35.1262 109.648C35.1972 109.613 35.2753 109.595 35.3545 109.595C35.4337 109.595 35.5118 109.613 35.5829 109.648L55.751 120.296C55.8243 120.342 55.8847 120.407 55.9265 120.483C55.9683 120.56 55.9903 120.645 55.9903 120.732C55.9903 120.819 55.9683 120.905 55.9265 120.981C55.8847 121.057 55.8243 121.122 55.751 121.169L35.6946 134.232C35.6042 134.299 35.4924 134.332 35.3799 134.323ZM16.2979 120.184L35.3799 133.196L54.4518 120.793L35.2784 110.643L16.2979 120.184Z" fill="#1F2223"/>
<path d="M35.3291 88.3943V128.649L54.9592 115.373L35.3291 88.3943Z" fill="#87FF53"/>
<path d="M35.3801 129.157C35.2952 129.156 35.2117 129.135 35.1365 129.096C35.0571 129.051 34.9909 128.986 34.9445 128.908C34.8982 128.829 34.8734 128.74 34.8726 128.649V88.445C34.8746 88.3393 34.9097 88.237 34.9727 88.1522C35.0358 88.0674 35.1237 88.0044 35.2243 87.972C35.3249 87.9396 35.4331 87.9394 35.5338 87.9714C35.6345 88.0034 35.7227 88.0661 35.7861 88.1506L55.4263 115.119C55.5057 115.231 55.5385 115.369 55.5177 115.505C55.5064 115.573 55.4807 115.639 55.4422 115.697C55.4037 115.754 55.3533 115.803 55.2944 115.84L35.6135 129.045C35.5475 129.103 35.4667 129.142 35.3801 129.157ZM35.8876 89.9573V127.695L54.2997 115.241L35.8876 89.9573Z" fill="#1F2223"/>
<path d="M35.3293 88.3943L15.344 115.373L35.3293 128.649V88.3943Z" fill="#87FF53"/>
<path d="M35.38 129.157C35.2781 129.156 35.1789 129.124 35.0958 129.065L15.08 115.789C15.0225 115.752 14.9737 115.703 14.9369 115.645C14.9001 115.587 14.8762 115.522 14.8668 115.454C14.8542 115.387 14.8558 115.318 14.8715 115.252C14.8873 115.185 14.9168 115.123 14.9582 115.068L34.9435 88.0897C35.0074 88.0045 35.0965 87.9416 35.1982 87.9098C35.2999 87.878 35.409 87.8791 35.51 87.9128C35.6111 87.9464 35.699 88.0111 35.7612 88.0975C35.8235 88.1839 35.857 88.2877 35.857 88.3942V128.649C35.8562 128.74 35.8314 128.829 35.7851 128.908C35.7387 128.986 35.6725 129.051 35.5931 129.096C35.5271 129.131 35.4545 129.151 35.38 129.157ZM16.095 115.241L34.8522 127.705V89.937L16.095 115.241Z" fill="#1F2223"/>
<path d="M15.344 120.113L35.3293 148.036V133.805L15.344 120.113Z" fill="#87FF53"/>
<path d="M35.3799 148.543C35.2984 148.545 35.2178 148.526 35.1453 148.489C35.0727 148.452 35.0104 148.397 34.9638 148.33L14.9277 120.408C14.8601 120.31 14.8287 120.193 14.8388 120.075C14.8489 119.957 14.8999 119.846 14.983 119.762C15.0661 119.677 15.1761 119.625 15.2939 119.613C15.4117 119.601 15.5299 119.631 15.628 119.697L35.6134 133.389C35.6824 133.437 35.7387 133.501 35.7776 133.575C35.8165 133.649 35.8368 133.732 35.8367 133.816V148.026C35.8374 148.134 35.8032 148.24 35.7393 148.328C35.6753 148.415 35.585 148.48 35.4814 148.513L35.3799 148.543ZM17.4855 122.153L34.8724 146.442V134.12L17.4855 122.153Z" fill="#1F2223"/>
<path d="M35.3291 148.036L55.487 120.742L35.3291 133.805V148.036Z" fill="#87FF53"/>
<path d="M35.3801 148.543H35.2177C35.1169 148.508 35.0296 148.442 34.9678 148.354C34.906 148.267 34.8727 148.163 34.8726 148.056V133.846C34.8727 133.761 34.8941 133.678 34.9349 133.603C34.9757 133.529 35.0345 133.466 35.106 133.42L55.2639 120.346C55.3643 120.281 55.4847 120.253 55.6035 120.268C55.7224 120.283 55.8322 120.34 55.9135 120.428C55.9877 120.52 56.0281 120.634 56.0281 120.752C56.0281 120.871 55.9877 120.985 55.9135 121.077L35.7353 148.33C35.6949 148.389 35.6422 148.439 35.5809 148.475C35.5196 148.512 35.4511 148.535 35.3801 148.543ZM35.8876 134.09V146.493L53.4775 122.691L35.8876 134.09Z" fill="#1F2223"/>
<path d="M226.373 77.5439L250.174 65.6177L274.179 78.295L250.276 93.855L226.373 77.5439Z" fill="#1F2223"/>
<path d="M250.276 94.3625C250.174 94.3619 250.075 94.33 249.992 94.2712L226.088 77.9601C226.016 77.9101 225.957 77.8419 225.918 77.7623C225.88 77.6827 225.863 77.5944 225.869 77.5062C225.875 77.418 225.904 77.333 225.954 77.2595C226.003 77.186 226.07 77.1266 226.149 77.0872L249.941 65.161C250.014 65.1259 250.094 65.1077 250.174 65.1077C250.255 65.1077 250.335 65.1259 250.408 65.161L274.423 77.8383C274.501 77.8796 274.566 77.9409 274.612 78.0158C274.659 78.0907 274.684 78.1766 274.687 78.2646C274.691 78.352 274.673 78.439 274.634 78.5173C274.595 78.5955 274.536 78.6623 274.463 78.7112L250.56 94.2813C250.474 94.3325 250.376 94.3605 250.276 94.3625ZM227.367 77.6049L250.286 93.246L273.184 78.2951L250.164 66.1151L227.367 77.6049Z" fill="#1F2223"/>
<path d="M250.174 39.7656V87.7041L273.56 71.8904L250.174 39.7656Z" fill="#87FF53"/>
<path d="M250.174 88.2116C250.089 88.2108 250.006 88.1899 249.931 88.1507C249.85 88.1077 249.782 88.0433 249.736 87.9645C249.689 87.8857 249.665 87.7956 249.667 87.7041V39.725C249.669 39.6194 249.704 39.517 249.767 39.4322C249.83 39.3474 249.918 39.2844 250.019 39.252C250.119 39.2196 250.227 39.2194 250.328 39.2514C250.429 39.2834 250.517 39.3461 250.58 39.4307L273.925 71.5554C274.005 71.6672 274.037 71.8056 274.017 71.9411C273.988 72.0748 273.913 72.1937 273.804 72.2761L250.459 88.0898C250.377 88.1554 250.278 88.1975 250.174 88.2116ZM250.682 41.3287V86.75L272.89 71.7686L250.682 41.3287Z" fill="#1F2223"/>
<path d="M250.174 39.7656L226.373 71.8904L250.174 87.7041V39.7656Z" fill="#87FF53"/>
<path d="M250.174 88.2117C250.074 88.2111 249.976 88.1831 249.89 88.1305L226.088 72.3168C226.032 72.2786 225.984 72.2291 225.947 72.1715C225.91 72.1139 225.886 72.0493 225.875 71.9818C225.862 71.9147 225.864 71.8457 225.88 71.7793C225.896 71.7128 225.925 71.6504 225.966 71.5961L249.768 39.4714C249.828 39.383 249.915 39.317 250.016 39.2839C250.117 39.2508 250.226 39.2525 250.326 39.2887C250.428 39.3207 250.518 39.384 250.581 39.4697C250.645 39.5554 250.68 39.6589 250.682 39.7657V87.7042C250.683 87.797 250.658 87.8883 250.61 87.9675C250.561 88.0466 250.491 88.1102 250.408 88.1508C250.337 88.1912 250.256 88.2122 250.174 88.2117ZM227.093 71.7687L249.667 86.7602V41.3085L227.093 71.7687Z" fill="#1F2223"/>
<path d="M226.373 77.5439L250.174 110.795V93.855L226.373 77.5439Z" fill="#87FF53"/>
<path d="M250.174 111.303C250.093 111.302 250.014 111.282 249.941 111.245C249.869 111.208 249.807 111.155 249.758 111.09L225.956 77.8383C225.882 77.7417 225.844 77.6212 225.851 77.4992C225.858 77.3772 225.909 77.2617 225.994 77.1741C226.079 77.0864 226.193 77.0325 226.315 77.0221C226.437 77.0117 226.558 77.0457 226.657 77.1177L250.459 93.4389C250.528 93.4836 250.585 93.5453 250.624 93.6181C250.663 93.6909 250.683 93.7724 250.682 93.855V110.775C250.683 110.884 250.648 110.989 250.584 111.077C250.52 111.165 250.43 111.23 250.327 111.262L250.174 111.303ZM228.464 79.5841L249.667 109.212V94.1189L228.464 79.5841Z" fill="#1F2223"/>
<path d="M250.174 110.795L274.179 78.2952L250.174 93.8551V110.795Z" fill="#87FF53"/>
<path d="M250.174 111.303H250.012C249.911 111.267 249.824 111.201 249.762 111.114C249.7 111.027 249.667 110.922 249.667 110.816V93.8549C249.665 93.7697 249.685 93.6854 249.726 93.6106C249.767 93.5358 249.827 93.473 249.9 93.4286L273.905 77.8687C274.005 77.8034 274.126 77.7757 274.244 77.7905C274.363 77.8054 274.473 77.8618 274.554 77.9499C274.629 78.0419 274.669 78.1565 274.669 78.2747C274.669 78.3929 274.629 78.5075 274.554 78.5995L250.54 111.079C250.498 111.141 250.444 111.192 250.381 111.231C250.318 111.269 250.247 111.294 250.174 111.303ZM250.682 94.129V109.252L272.118 80.2438L250.682 94.129Z" fill="#1F2223"/>
</svg>
