<svg width="159" height="240" viewBox="0 0 159 240" fill="none" xmlns="http://www.w3.org/2000/svg">
<g clip-path="url(#clip0)">
<path d="M79.2521 239.562C123.01 239.562 158.483 233.386 158.483 225.768C158.483 218.15 123.01 211.974 79.2521 211.974C35.4941 211.974 0.0212402 218.15 0.0212402 225.768C0.0212402 233.386 35.4941 239.562 79.2521 239.562Z" fill="#DEE5EB"/>
<path d="M135.92 102.243C129.058 96.1528 131.454 75.9543 131.454 75.9543H56.5465C56.5465 75.9543 58.9419 96.1427 52.0805 102.243C45.2191 108.343 31.7805 111.378 31.7805 129.293V223.089H156.321V129.293C156.27 111.388 142.771 108.343 135.92 102.243Z" fill="white"/>
<path d="M156.27 223.596H31.7299C31.5953 223.596 31.4662 223.543 31.3711 223.448C31.2759 223.352 31.2224 223.223 31.2224 223.089V129.293C31.2224 115.346 39.4642 110.089 46.0922 105.866C48.0761 104.68 49.9662 103.343 51.7457 101.867C58.3331 96.0107 56.0696 76.208 56.0493 76.005C56.0386 75.9341 56.0439 75.8617 56.065 75.7932C56.0861 75.7247 56.1224 75.6618 56.1711 75.6092C56.2194 75.558 56.2776 75.5172 56.3422 75.4893C56.4067 75.4614 56.4763 75.4469 56.5467 75.4468H131.454C131.524 75.4469 131.594 75.4614 131.658 75.4893C131.723 75.5172 131.781 75.558 131.829 75.6092C131.878 75.6618 131.914 75.7247 131.935 75.7932C131.956 75.8617 131.962 75.9341 131.951 76.005C131.951 76.208 129.667 96.0107 136.255 101.867C138.034 103.343 139.924 104.68 141.908 105.866C148.536 110.089 156.778 115.346 156.778 129.293V223.089C156.778 223.155 156.765 223.221 156.739 223.283C156.714 223.344 156.676 223.4 156.629 223.448C156.582 223.495 156.526 223.532 156.465 223.558C156.403 223.583 156.337 223.596 156.27 223.596ZM32.2374 222.581H155.763V129.293C155.763 115.905 148.12 111.023 141.37 106.729C139.335 105.511 137.397 104.136 135.575 102.618C129.17 96.9242 130.5 79.862 130.885 76.4618H57.1151C57.4602 79.862 58.8304 96.9242 52.4258 102.618C50.6031 104.136 48.6654 105.511 46.6301 106.729C39.8804 111.033 32.2374 115.864 32.2374 129.293V222.581Z" fill="#1F2223"/>
<path d="M80.8051 187.087C77.1917 193.096 81.2415 206.443 81.2415 206.443L86.6007 210.33C90.4515 212.645 95.0643 213.336 99.4243 212.25C103.784 211.164 107.534 208.39 109.849 204.54C112.164 200.689 112.855 196.076 111.769 191.716C110.683 187.356 107.91 183.606 104.059 181.291L98.0601 178.388C98.0601 178.388 84.3677 181.068 80.8051 187.087Z" fill="#87FF53"/>
<path d="M95.2484 213.264C92.0887 213.268 88.9885 212.404 86.286 210.767L80.8862 206.849C80.7947 206.787 80.7296 206.692 80.7035 206.585C80.5309 206.037 76.6435 192.964 80.3178 186.823C84.0124 180.733 97.3901 178.002 97.9585 177.891C98.0605 177.856 98.1711 177.856 98.2731 177.891L104.231 180.794C107.538 182.742 110.111 185.727 111.549 189.285C112.988 192.844 113.214 196.778 112.191 200.477C111.168 204.177 108.953 207.436 105.89 209.749C102.827 212.063 99.0868 213.301 95.2484 213.274V213.264ZM81.6271 206.159L86.8442 209.945C88.6957 211.054 90.7475 211.788 92.8826 212.105C95.0178 212.422 97.1944 212.315 99.2882 211.79C101.382 211.266 103.352 210.334 105.086 209.048C106.819 207.762 108.283 206.147 109.392 204.296C110.502 202.445 111.236 200.393 111.553 198.258C111.87 196.123 111.763 193.946 111.238 191.852C110.714 189.758 109.782 187.788 108.496 186.055C107.21 184.321 105.595 182.858 103.744 181.748L97.9889 178.936C96.436 179.271 84.4387 181.981 81.1907 187.371C77.9427 192.761 81.1907 204.606 81.6271 206.138V206.159Z" fill="#1F2223"/>
<path d="M91.5844 210.543C100.94 210.543 108.525 202.959 108.525 193.603C108.525 184.247 100.94 176.663 91.5844 176.663C82.2285 176.663 74.644 184.247 74.644 193.603C74.644 202.959 82.2285 210.543 91.5844 210.543Z" fill="#87FF53"/>
<path d="M91.5538 211.041C87.704 211.031 83.9658 209.747 80.9221 207.39C77.8784 205.032 75.7003 201.734 74.7275 198.009C73.7547 194.284 74.0419 190.342 75.5444 186.798C77.0468 183.253 79.6799 180.306 83.0332 178.414C86.3865 176.523 90.2713 175.795 94.0819 176.343C97.8925 176.891 101.415 178.685 104.099 181.444C106.783 184.204 108.479 187.774 108.921 191.598C109.364 195.423 108.529 199.286 106.545 202.586C104.995 205.175 102.798 207.316 100.169 208.798C97.5407 210.281 94.5715 211.054 91.5538 211.041ZM91.6147 177.16C90.267 177.162 88.9244 177.325 87.6156 177.647C83.5669 178.657 80.0556 181.173 77.7976 184.682C75.5396 188.191 74.7048 192.429 75.4635 196.532C76.2221 200.636 78.5171 204.295 81.8805 206.765C85.244 209.235 89.4227 210.329 93.5649 209.824C97.7071 209.319 101.501 207.254 104.173 204.049C106.845 200.844 108.194 196.741 107.946 192.575C107.697 188.41 105.869 184.496 102.835 181.632C99.8001 178.767 95.7875 177.168 91.6147 177.16Z" fill="#1F2223"/>
<path d="M82.0839 185.838C82.7944 186.264 83.4947 186.681 84.1951 187.117C84.3372 187.198 84.4082 187.188 84.5097 187.117C85.3356 186.192 86.3836 185.494 87.5547 185.087C88.774 184.652 90.1109 184.681 91.3103 185.168C91.6351 185.29 91.9599 185.452 92.3253 185.605L90.3562 188.873C89.8607 188.582 89.2809 188.467 88.7118 188.548C88.275 188.664 87.8448 188.803 87.4228 188.964V189.005L91.4828 191.451L91.7771 191.157C92.4821 190.374 93.2757 189.675 94.1421 189.076C94.7803 188.621 95.5298 188.348 96.3108 188.286C97.0919 188.223 97.8752 188.373 98.5776 188.721C99.8117 189.234 100.826 190.165 101.444 191.351C102.062 192.536 102.243 193.901 101.958 195.207C101.805 195.937 101.562 196.648 101.349 197.409L102.932 198.353L101.125 201.398L99.5013 200.383C98.9735 200.891 98.4863 201.398 97.9687 201.845C96.9604 202.728 95.684 203.247 94.3451 203.316C93.1942 203.34 92.0616 203.026 91.087 202.413L92.985 199.155C93.5599 199.458 94.2169 199.57 94.8598 199.473C95.5027 199.376 96.0977 199.076 96.5578 198.617L92.1832 195.988C91.6452 196.496 91.1072 197.003 90.5591 197.5C89.9141 198.114 89.1308 198.563 88.2754 198.81C87.3952 199.03 86.468 198.966 85.6262 198.627C84.5758 198.257 83.6484 197.604 82.9466 196.739C82.4426 196.115 82.0822 195.388 81.891 194.609C81.6997 193.83 81.6825 193.019 81.8403 192.233C81.9621 191.593 82.2159 190.984 82.3986 190.355L82.4797 190.142L80.2874 188.822L82.0839 185.838ZM98.4051 195.643C98.6418 195.108 98.7194 194.516 98.6284 193.938C98.5375 193.449 98.2702 193.01 97.8773 192.705C97.4844 192.4 96.9932 192.25 96.4969 192.283C95.7953 192.484 95.1607 192.869 94.6597 193.4L98.4051 195.643ZM85.2101 191.847C85.1382 192.348 85.1043 192.853 85.1086 193.359C85.1308 193.631 85.2123 193.895 85.3473 194.132C85.4823 194.369 85.6676 194.573 85.8901 194.731C86.1126 194.888 86.3669 194.996 86.6352 195.044C86.9035 195.093 87.1793 195.083 87.4431 195.014C87.9775 194.78 88.4552 194.434 88.8438 193.999L85.2101 191.847Z" fill="white"/>
<path d="M91.4018 93.7169C86.8952 99.0558 88.6308 112.88 88.6308 112.88L93.2694 117.61C96.6855 120.533 101.123 121.98 105.606 121.632C110.088 121.283 114.249 119.169 117.173 115.753C120.096 112.336 121.543 107.899 121.194 103.416C120.846 98.9335 118.731 94.7727 115.315 91.8493L109.926 88.0024C109.926 88.0024 95.9693 88.3881 91.4018 93.7169Z" fill="#87FF53"/>
<path d="M104.272 122.167C100.128 122.154 96.1247 120.66 92.9851 117.955L88.306 113.195C88.2331 113.111 88.184 113.009 88.1639 112.9C88.0928 112.332 86.4079 98.7917 91.0566 93.3513C95.7053 87.9109 109.327 87.4744 109.936 87.4541C110.043 87.458 110.148 87.4894 110.24 87.5455L115.63 91.4025C118.351 93.7153 120.296 96.8078 121.203 100.262C122.109 103.716 121.933 107.365 120.699 110.716C119.465 114.067 117.231 116.958 114.301 118.999C111.37 121.04 107.884 122.131 104.313 122.127L104.272 122.167ZM89.118 112.646L93.6347 117.255C96.9525 120.081 101.257 121.474 105.602 121.126C109.947 120.779 113.976 118.72 116.802 115.402C119.629 112.084 121.021 107.78 120.674 103.435C120.327 99.0901 118.268 95.0613 114.95 92.2348L109.753 88.5199C108.17 88.5808 95.888 89.2608 91.7874 94.0516C87.6868 98.8424 88.9251 111.073 89.118 112.646Z" fill="#1F2223"/>
<path d="M101.014 118.879C110.37 118.879 117.954 111.294 117.954 101.938C117.954 92.5825 110.37 84.998 101.014 84.998C91.6579 84.998 84.0735 92.5825 84.0735 101.938C84.0735 111.294 91.6579 118.879 101.014 118.879Z" fill="#87FF53"/>
<path d="M101.003 119.376C98.1915 119.375 95.4213 118.695 92.9287 117.394C90.4362 116.092 88.2953 114.207 86.6883 111.899C85.0812 109.592 84.0558 106.93 83.6992 104.141C83.3426 101.351 83.6655 98.5171 84.6403 95.8795C85.6152 93.2418 87.2131 90.8789 89.2979 88.9919C91.3828 87.1049 93.8929 85.7498 96.6143 85.042C99.3358 84.3342 102.188 84.2946 104.928 84.9267C107.668 85.5588 110.215 86.8437 112.351 88.6722C115.061 90.9911 116.995 94.0847 117.892 97.5362C118.79 100.988 118.608 104.631 117.372 107.977C116.136 111.322 113.904 114.208 110.977 116.246C108.051 118.284 104.57 119.376 101.003 119.376ZM101.003 85.5054C97.1488 85.5049 93.4167 86.8604 90.4607 89.3345C87.5048 91.8086 85.5133 95.2436 84.835 99.0382C84.1567 102.833 84.8348 106.745 86.7506 110.09C88.6663 113.435 91.6977 115.999 95.3138 117.334C98.93 118.669 102.901 118.69 106.53 117.392C110.16 116.094 113.218 113.561 115.168 110.236C117.118 106.911 117.836 103.006 117.197 99.2047C116.558 95.4033 114.601 91.948 111.671 89.4436C108.709 86.8928 104.933 85.4852 101.024 85.4749L101.003 85.5054Z" fill="#1F2223"/>
<path d="M92.9241 92.7119L94.8019 94.3156C94.8209 94.339 94.8449 94.3578 94.8721 94.3707C94.8993 94.3836 94.9291 94.3903 94.9592 94.3903C94.9893 94.3903 95.0191 94.3836 95.0463 94.3707C95.0735 94.3578 95.0975 94.339 95.1165 94.3156C96.0769 93.5447 97.214 93.025 98.4254 92.8033C99.6979 92.5825 101.007 92.8314 102.11 93.5036C102.414 93.6863 102.699 93.8995 103.013 94.1025L100.537 96.9952C100.092 96.6302 99.5385 96.4231 98.9634 96.4065C98.5135 96.4459 98.0663 96.5103 97.6236 96.5994V96.6907L101.227 99.7357L101.572 99.482C102.393 98.8291 103.289 98.277 104.241 97.8377C104.946 97.4933 105.73 97.3464 106.511 97.4125C107.292 97.4786 108.041 97.7554 108.677 98.2132C109.93 98.9868 110.827 100.223 111.174 101.654C111.466 102.821 111.38 104.05 110.93 105.166C110.666 105.866 110.311 106.526 109.976 107.196L111.377 108.394L109.103 111.063L107.652 109.825C107.043 110.241 106.495 110.657 105.896 111.012C104.848 111.689 103.605 111.999 102.361 111.895C101.118 111.79 99.9446 111.276 99.0243 110.434L101.46 107.582C101.972 107.983 102.601 108.206 103.252 108.217C103.902 108.228 104.538 108.027 105.064 107.643L101.196 104.334C100.577 104.74 99.9682 105.156 99.3389 105.552C98.6018 106.048 97.7555 106.357 96.8725 106.455C95.967 106.532 95.0605 106.318 94.2842 105.846C93.3137 105.304 92.5099 104.508 91.9599 103.542C91.5653 102.843 91.3297 102.066 91.2701 101.266C91.2104 100.466 91.3281 99.6629 91.6148 98.9136C91.8675 98.3117 92.1556 97.7254 92.4775 97.1576L92.5892 96.9546L90.6404 95.29L92.9241 92.7119ZM107.398 105.085C107.718 104.595 107.894 104.025 107.906 103.44C107.908 102.935 107.722 102.448 107.384 102.072C107.047 101.697 106.581 101.461 106.079 101.41C105.342 101.484 104.64 101.758 104.049 102.202L107.398 105.085ZM95.0658 99.1673C94.909 99.6444 94.7903 100.133 94.7105 100.629C94.6874 100.901 94.724 101.176 94.8178 101.432C94.9117 101.689 95.0604 101.922 95.2538 102.116C95.4471 102.309 95.6803 102.458 95.9371 102.552C96.1939 102.645 96.4681 102.682 96.7405 102.659C97.3036 102.521 97.8323 102.269 98.2935 101.918L95.0658 99.1673Z" fill="white"/>
<path d="M47.5132 69.854V83.5667C47.5132 89.2507 68.3308 93.8588 94.0002 93.8588C119.67 93.8588 140.487 89.2507 140.487 83.5667V69.854H47.5132Z" fill="white"/>
<path d="M94.0001 94.3664C70.8987 94.3664 47.0056 90.3064 47.0056 83.5668V69.8542C47.0056 69.7196 47.0591 69.5905 47.1543 69.4953C47.2494 69.4001 47.3785 69.3467 47.5131 69.3467H140.487C140.622 69.3467 140.751 69.4001 140.846 69.4953C140.941 69.5905 140.995 69.7196 140.995 69.8542V83.5668C140.995 90.3267 117.102 94.3664 94.0001 94.3664ZM48.0206 70.3617V83.5567C48.0206 88.2866 66.4936 93.3413 94.0001 93.3413C121.507 93.3413 139.98 88.2663 139.98 83.5567V70.3617H48.0206Z" fill="#1F2223"/>
<path d="M94.0002 80.1462C119.674 80.1462 140.487 75.5383 140.487 69.8541C140.487 64.1699 119.674 59.562 94.0002 59.562C68.3261 59.562 47.5132 64.1699 47.5132 69.8541C47.5132 75.5383 68.3261 80.1462 94.0002 80.1462Z" fill="white"/>
<path d="M94.0001 80.6436C70.8987 80.6436 47.0056 76.5836 47.0056 69.8541C47.0056 63.1247 70.8987 59.085 94.0001 59.085C117.102 59.085 140.995 63.145 140.995 69.8846C140.995 76.6242 117.102 80.6436 94.0001 80.6436ZM94.0001 60.1C66.4936 60.1 48.0206 65.175 48.0206 69.8846C48.0206 74.5942 66.4936 79.659 94.0001 79.659C121.507 79.659 139.98 74.584 139.98 69.8846C139.98 65.1851 121.507 60.1 94.0001 60.1Z" fill="#1F2223"/>
<path d="M94 236.872C128.391 236.872 156.27 230.701 156.27 223.089C156.27 215.476 128.391 209.305 94 209.305C59.6091 209.305 31.7297 215.476 31.7297 223.089C31.7297 230.701 59.6091 236.872 94 236.872Z" fill="white"/>
<path d="M94.0002 237.37C58.8 237.37 31.2224 231.097 31.2224 223.089C31.2224 215.08 58.8 208.797 94.0002 208.797C129.2 208.797 156.778 215.07 156.778 223.089C156.778 231.107 129.2 237.37 94.0002 237.37ZM94.0002 209.812C64.1693 209.812 32.2374 215.141 32.2374 223.089C32.2374 231.036 64.1693 236.355 94.0002 236.355C123.831 236.355 155.763 231.026 155.763 223.089C155.763 215.151 123.831 209.812 94.0002 209.812Z" fill="#1F2223"/>
<path d="M39.1901 211.396C39.0555 211.396 38.9264 211.342 38.8313 211.247C38.7361 211.152 38.6826 211.023 38.6826 210.888V126.643C38.6826 121.112 45.9602 115.742 52.375 110.992C56.232 108.14 59.8758 105.45 60.4239 103.633C61.3622 100.451 61.931 97.1712 62.119 93.8588C62.1171 93.7908 62.1299 93.7232 62.1563 93.6605C62.1827 93.5978 62.2223 93.5415 62.2723 93.4954C62.3223 93.4493 62.3815 93.4144 62.4461 93.393C62.5107 93.3717 62.5791 93.3644 62.6468 93.3716C62.7134 93.3742 62.7789 93.39 62.8395 93.4179C62.9001 93.4459 62.9546 93.4855 62.9998 93.5345C63.0451 93.5835 63.0802 93.641 63.1032 93.7036C63.1262 93.7662 63.1367 93.8328 63.134 93.8994C62.943 97.3011 62.3607 100.669 61.3983 103.938C60.7386 106.069 57.1455 108.729 52.9738 111.804C47.0665 116.179 39.6976 121.629 39.6976 126.643V210.888C39.6976 211.023 39.6441 211.152 39.549 211.247C39.4538 211.342 39.3247 211.396 39.1901 211.396Z" fill="#DEE5EB"/>
<path d="M148.81 211.396C148.675 211.396 148.546 211.342 148.451 211.247C148.356 211.152 148.302 211.023 148.302 210.888V126.643C148.302 121.629 140.934 116.179 135.026 111.804C130.855 108.759 127.262 106.069 126.602 103.938C125.639 100.669 125.057 97.3011 124.866 93.8994C124.863 93.8327 124.874 93.7662 124.897 93.7036C124.92 93.641 124.955 93.5835 125 93.5345C125.046 93.4854 125.1 93.4458 125.161 93.4179C125.221 93.3899 125.287 93.3742 125.353 93.3716C125.484 93.3715 125.611 93.4221 125.705 93.513C125.8 93.6038 125.856 93.7277 125.861 93.8588C126.049 97.1712 126.618 100.451 127.556 103.633C128.104 105.45 131.748 108.14 135.605 110.992C142.02 115.742 149.297 121.142 149.297 126.643V210.888C149.297 211.019 149.247 211.146 149.156 211.24C149.065 211.335 148.941 211.391 148.81 211.396Z" fill="#DEE5EB"/>
<path d="M47.7263 208.594V217.313C47.7263 220.612 55.8463 223.292 65.7426 223.292C75.6388 223.292 83.7487 220.612 83.7487 217.313V208.594H47.7263Z" fill="#87FF53"/>
<path d="M65.7425 223.799C56.6075 223.799 47.2188 221.373 47.2188 217.313V208.594C47.2188 208.46 47.2722 208.331 47.3674 208.236C47.4626 208.14 47.5917 208.087 47.7262 208.087H83.7486C83.8832 208.087 84.0123 208.14 84.1075 208.236C84.2026 208.331 84.2561 208.46 84.2561 208.594V217.313C84.2561 221.373 74.8369 223.799 65.7425 223.799ZM48.2337 209.102V217.313C48.2337 219.952 55.2677 222.784 65.7425 222.784C76.2173 222.784 83.2411 219.952 83.2411 217.313V209.102H48.2337Z" fill="#1F2223"/>
<path d="M65.7424 214.573C75.6869 214.573 83.7485 211.896 83.7485 208.595C83.7485 205.293 75.6869 202.616 65.7424 202.616C55.7979 202.616 47.7363 205.293 47.7363 208.595C47.7363 211.896 55.7979 214.573 65.7424 214.573Z" fill="#1F2223"/>
<path d="M65.7425 215.08C56.6075 215.08 47.2188 212.654 47.2188 208.594C47.2188 204.534 56.6379 202.109 65.7425 202.109C74.847 202.109 84.2561 204.534 84.2561 208.594C84.2561 212.654 74.8369 215.08 65.7425 215.08ZM65.7425 203.124C55.2677 203.124 48.2337 205.955 48.2337 208.594C48.2337 211.233 55.2677 214.065 65.7425 214.065C76.2173 214.065 83.2411 211.233 83.2411 208.594C83.2411 205.955 76.2071 203.124 65.7425 203.124Z" fill="#1F2223"/>
<path d="M51.969 196.648V205.357C51.969 208.666 60.0382 211.335 69.9852 211.335C79.9322 211.335 87.9913 208.666 87.9913 205.357V196.648H51.969Z" fill="#87FF53"/>
<path d="M69.9852 211.842C60.8502 211.842 51.4614 209.417 51.4614 205.357V196.648C51.4614 196.513 51.5149 196.384 51.6101 196.289C51.7053 196.194 51.8343 196.14 51.9689 196.14H87.9913C88.1259 196.14 88.255 196.194 88.3501 196.289C88.4453 196.384 88.4988 196.513 88.4988 196.648V205.357C88.4988 209.417 79.0796 211.842 69.9852 211.842ZM52.4764 197.125V205.326C52.4764 207.975 59.5104 210.797 69.9852 210.797C80.46 210.797 87.4838 207.975 87.4838 205.326V197.125H52.4764Z" fill="#1F2223"/>
<path d="M69.9851 202.626C79.9296 202.626 87.9912 199.95 87.9912 196.648C87.9912 193.346 79.9296 190.67 69.9851 190.67C60.0406 190.67 51.979 193.346 51.979 196.648C51.979 199.95 60.0406 202.626 69.9851 202.626Z" fill="#1F2223"/>
<path d="M69.9852 203.124C60.8502 203.124 51.4614 200.698 51.4614 196.648C51.4614 192.598 60.8806 190.162 69.9852 190.162C79.0897 190.162 88.4988 192.588 88.4988 196.648C88.4988 200.708 79.0796 203.124 69.9852 203.124ZM69.9852 191.177C59.5104 191.177 52.4764 193.999 52.4764 196.648C52.4764 199.297 59.5104 202.109 69.9852 202.109C80.46 202.109 87.4838 199.287 87.4838 196.648C87.4838 194.009 80.4498 191.177 69.9852 191.177Z" fill="#1F2223"/>
<path d="M48.3252 183.321V192.05C48.3252 195.349 56.3944 198.028 66.3414 198.028C76.2884 198.028 84.3475 195.349 84.3475 192.05V183.321H48.3252Z" fill="#87FF53"/>
<path d="M66.3008 198.526C57.1658 198.526 47.7771 196.1 47.7771 192.04V183.321C47.7771 183.186 47.8306 183.057 47.9257 182.962C48.0209 182.867 48.15 182.813 48.2846 182.813H84.3069C84.4415 182.813 84.5706 182.867 84.6658 182.962C84.761 183.057 84.8144 183.186 84.8144 183.321V192.05C84.8652 196.11 75.3952 198.526 66.3008 198.526ZM48.7921 183.828V192.05C48.7921 194.689 55.826 197.521 66.3008 197.521C76.7756 197.521 83.8502 194.679 83.8502 192.05V183.828H48.7921Z" fill="#1F2223"/>
<path d="M66.3008 189.299C76.2453 189.299 84.3069 186.623 84.3069 183.321C84.3069 180.019 76.2453 177.343 66.3008 177.343C56.3563 177.343 48.2947 180.019 48.2947 183.321C48.2947 186.623 56.3563 189.299 66.3008 189.299Z" fill="#1F2223"/>
<path d="M66.3008 189.807C57.1658 189.807 47.7771 187.381 47.7771 183.321C47.7771 179.261 57.1963 176.835 66.3008 176.835C75.4054 176.835 84.8652 179.261 84.8652 183.321C84.8652 187.381 75.3952 189.807 66.3008 189.807ZM66.3008 177.85C55.826 177.85 48.7921 180.682 48.7921 183.321C48.7921 185.96 55.826 188.792 66.3008 188.792C76.7756 188.792 83.8502 185.96 83.8502 183.321C83.8502 180.682 76.7452 177.84 66.3008 177.84V177.85Z" fill="#1F2223"/>
<path d="M95.137 207.072V215.791C95.137 219.1 103.196 221.769 113.143 221.769C123.09 221.769 131.159 219.1 131.159 215.791V207.072H95.137Z" fill="#87FF53"/>
<path d="M113.143 222.277C104.008 222.277 94.6294 219.851 94.6294 215.791V207.072C94.6294 206.937 94.6829 206.808 94.778 206.713C94.8732 206.618 95.0023 206.564 95.1369 206.564H131.159C131.294 206.564 131.423 206.618 131.518 206.713C131.613 206.808 131.667 206.937 131.667 207.072V215.791C131.667 219.851 122.248 222.277 113.143 222.277ZM95.6444 207.579V215.791C95.6444 218.44 102.678 221.262 113.143 221.262C123.608 221.262 130.652 218.44 130.652 215.791V207.579H95.6444Z" fill="#1F2223"/>
<path d="M113.143 213.05C123.088 213.05 131.149 210.374 131.149 207.072C131.149 203.77 123.088 201.094 113.143 201.094C103.199 201.094 95.137 203.77 95.137 207.072C95.137 210.374 103.199 213.05 113.143 213.05Z" fill="#1F2223"/>
<path d="M113.143 213.558C104.008 213.558 94.6294 211.132 94.6294 207.072C94.6294 203.012 104.049 200.596 113.143 200.596C122.237 200.596 131.667 203.022 131.667 207.072C131.667 211.122 122.248 213.558 113.143 213.558ZM113.143 201.611C102.678 201.611 95.6444 204.433 95.6444 207.072C95.6444 209.711 102.678 212.543 113.143 212.543C123.608 212.543 130.652 209.721 130.652 207.072C130.652 204.423 123.618 201.611 113.143 201.611Z" fill="#1F2223"/>
<path d="M92.7922 196.739V205.458C92.7922 208.757 100.851 211.436 110.798 211.436C120.745 211.436 128.815 208.757 128.815 205.458V196.739H92.7922Z" fill="#87FF53"/>
<path d="M110.798 211.944C101.663 211.944 92.2847 209.518 92.2847 205.458V196.739C92.2847 196.605 92.3381 196.476 92.4333 196.38C92.5285 196.285 92.6576 196.232 92.7922 196.232H128.815C128.949 196.232 129.078 196.285 129.173 196.38C129.269 196.476 129.322 196.605 129.322 196.739V205.458C129.322 209.518 119.903 211.944 110.798 211.944ZM93.2997 197.247V205.458C93.2997 208.097 100.334 210.929 110.798 210.929C121.263 210.929 128.307 208.097 128.307 205.458V197.247H93.2997Z" fill="#1F2223"/>
<path d="M110.798 202.718C120.743 202.718 128.804 200.041 128.804 196.739C128.804 193.438 120.743 190.761 110.798 190.761C100.854 190.761 92.7922 193.438 92.7922 196.739C92.7922 200.041 100.854 202.718 110.798 202.718Z" fill="#1F2223"/>
<path d="M110.798 203.215C101.663 203.215 92.2847 200.789 92.2847 196.729C92.2847 192.669 101.704 190.243 110.798 190.243C119.893 190.243 129.322 192.669 129.322 196.729C129.322 200.789 119.903 203.215 110.798 203.215ZM110.798 191.258C100.334 191.258 93.2997 194.09 93.2997 196.729C93.2997 199.368 100.334 202.2 110.798 202.2C121.263 202.2 128.307 199.368 128.307 196.729C128.307 194.09 121.273 191.268 110.798 191.268V191.258Z" fill="#1F2223"/>
<path d="M95.6951 184.153V192.872C95.6951 196.171 103.754 198.851 113.701 198.851C123.648 198.851 131.717 196.171 131.717 192.872V184.153H95.6951Z" fill="#87FF53"/>
<path d="M113.701 199.358C104.566 199.358 95.1877 196.932 95.1877 192.872V184.153C95.1877 184.019 95.2412 183.89 95.3364 183.794C95.4316 183.699 95.5606 183.646 95.6952 183.646H131.718C131.852 183.646 131.981 183.699 132.076 183.794C132.172 183.89 132.225 184.019 132.225 184.153V192.872C132.225 196.932 122.806 199.358 113.701 199.358ZM96.2027 184.661V192.872C96.2027 195.511 103.237 198.343 113.701 198.343C124.166 198.343 131.21 195.511 131.21 192.872V184.661H96.2027Z" fill="#1F2223"/>
<path d="M113.701 190.132C123.646 190.132 131.707 187.455 131.707 184.153C131.707 180.851 123.646 178.175 113.701 178.175C103.757 178.175 95.6951 180.851 95.6951 184.153C95.6951 187.455 103.757 190.132 113.701 190.132Z" fill="#1F2223"/>
<path d="M113.701 190.639C104.566 190.639 95.1877 188.213 95.1877 184.153C95.1877 180.093 104.607 177.667 113.701 177.667C122.796 177.667 132.225 180.093 132.225 184.153C132.225 188.213 122.806 190.639 113.701 190.639ZM113.701 178.682C103.237 178.682 96.2027 181.514 96.2027 184.153C96.2027 186.792 103.237 189.624 113.701 189.624C124.166 189.624 131.21 186.792 131.21 184.153C131.21 181.514 124.176 178.682 113.701 178.682Z" fill="#1F2223"/>
<path d="M92.7922 171.517V180.235C92.7922 183.534 100.851 186.214 110.798 186.214C120.745 186.214 128.815 183.534 128.815 180.235V171.517H92.7922Z" fill="#87FF53"/>
<path d="M110.798 186.721C101.663 186.721 92.2847 184.295 92.2847 180.235V171.517C92.2847 171.382 92.3381 171.253 92.4333 171.158C92.5285 171.062 92.6576 171.009 92.7922 171.009H128.815C128.949 171.009 129.078 171.062 129.173 171.158C129.269 171.253 129.322 171.382 129.322 171.517V180.235C129.322 184.295 119.903 186.721 110.798 186.721ZM93.2997 172.024V180.235C93.2997 182.874 100.334 185.706 110.798 185.706C121.263 185.706 128.307 182.874 128.307 180.235V172.024H93.2997Z" fill="#1F2223"/>
<path d="M110.798 177.495C120.743 177.495 128.804 174.818 128.804 171.516C128.804 168.215 120.743 165.538 110.798 165.538C100.854 165.538 92.7922 168.215 92.7922 171.516C92.7922 174.818 100.854 177.495 110.798 177.495Z" fill="#1F2223"/>
<path d="M110.798 178.002C101.663 178.002 92.2847 175.577 92.2847 171.517C92.2847 167.457 101.704 165.031 110.798 165.031C119.893 165.031 129.322 167.457 129.322 171.517C129.322 175.577 119.903 178.002 110.798 178.002ZM110.798 166.046C100.334 166.046 93.2997 168.878 93.2997 171.517C93.2997 174.156 100.334 176.987 110.798 176.987C121.263 176.987 128.307 174.156 128.307 171.517C128.307 168.878 121.273 166.046 110.798 166.046Z" fill="#1F2223"/>
<path d="M98.5981 161.184V169.903C98.5981 173.201 106.657 175.871 116.604 175.871C126.551 175.871 134.6 173.201 134.6 169.903V161.184H98.5981Z" fill="#87FF53"/>
<path d="M116.604 176.378C107.469 176.378 98.0906 173.963 98.0906 169.903V161.184C98.0906 161.049 98.1441 160.92 98.2392 160.825C98.3344 160.73 98.4635 160.676 98.5981 160.676H134.6C134.735 160.676 134.864 160.73 134.959 160.825C135.054 160.92 135.108 161.049 135.108 161.184V169.903C135.128 173.963 125.709 176.378 116.604 176.378ZM99.0751 161.691V169.903C99.0751 172.542 106.109 175.363 116.574 175.363C127.038 175.363 134.082 172.542 134.082 169.903V161.691H99.0751Z" fill="#1F2223"/>
<path d="M116.604 167.162C126.549 167.162 134.61 164.486 134.61 161.184C134.61 157.882 126.549 155.206 116.604 155.206C106.66 155.206 98.5981 157.882 98.5981 161.184C98.5981 164.486 106.66 167.162 116.604 167.162Z" fill="#1F2223"/>
<path d="M116.604 167.69C107.469 167.69 98.0906 165.274 98.0906 161.214C98.0906 157.154 107.51 154.729 116.604 154.729C125.699 154.729 135.128 157.154 135.128 161.214C135.128 165.274 125.709 167.69 116.604 167.69ZM116.604 155.744C106.18 155.713 99.0751 158.555 99.0751 161.184C99.0751 163.813 106.18 166.675 116.604 166.675C127.028 166.675 134.113 163.853 134.113 161.214C134.113 158.575 127.079 155.713 116.604 155.713V155.744Z" fill="#1F2223"/>
<path d="M94.6497 150.851V159.57C94.6497 162.879 102.709 165.548 112.656 165.548C122.603 165.548 130.672 162.879 130.672 159.57V150.861L94.6497 150.851Z" fill="#87FF53"/>
<path d="M112.656 166.046C103.521 166.046 94.1421 163.62 94.1421 159.56V150.851C94.1421 150.717 94.1956 150.588 94.2907 150.492C94.3859 150.397 94.515 150.344 94.6496 150.344H130.672C130.807 150.344 130.936 150.397 131.031 150.492C131.126 150.588 131.179 150.717 131.179 150.851V159.57C131.179 163.63 121.76 166.046 112.656 166.046ZM95.1571 151.359V159.57C95.1571 162.219 102.191 165.041 112.656 165.041C123.12 165.041 130.164 162.219 130.164 159.57V151.369L95.1571 151.359Z" fill="#1F2223"/>
<path d="M112.656 156.83C122.6 156.83 130.662 154.153 130.662 150.851C130.662 147.549 122.6 144.873 112.656 144.873C102.711 144.873 94.6497 147.549 94.6497 150.851C94.6497 154.153 102.711 156.83 112.656 156.83Z" fill="#87FF53"/>
<path d="M112.656 157.327C103.521 157.327 94.1421 154.901 94.1421 150.851C94.1421 146.801 103.551 144.365 112.656 144.365C121.76 144.365 131.179 146.791 131.179 150.851C131.179 154.911 121.76 157.327 112.656 157.327ZM112.656 145.38C102.191 145.38 95.1571 148.202 95.1571 150.851C95.1571 153.5 102.191 156.312 112.656 156.312C123.12 156.312 130.164 153.49 130.164 150.851C130.164 148.212 123.13 145.36 112.656 145.36V145.38Z" fill="#1F2223"/>
<path d="M74.7964 218.034L75.1922 224.53C75.2734 228.884 83.5863 232.264 93.7566 232.071C103.927 231.879 112.108 228.194 112.027 223.84L111.631 217.344L74.7964 218.034Z" fill="#87FF53"/>
<path d="M92.9852 232.589C88.7451 232.668 84.5277 231.952 80.5515 230.478C76.8467 228.976 74.7761 226.864 74.7355 224.54L74.3397 218.064C74.335 217.927 74.3821 217.793 74.4716 217.689C74.5674 217.589 74.6986 217.531 74.837 217.526L111.671 216.836C111.801 216.836 111.926 216.885 112.02 216.974C112.114 217.063 112.171 217.184 112.179 217.313L112.575 223.809C112.666 228.539 104.455 232.386 93.8074 232.579L92.9852 232.589ZM75.3851 218.531L75.7302 224.53C75.7302 226.418 77.6486 228.245 80.9067 229.605C85.0235 231.114 89.3956 231.803 93.7769 231.635C103.48 231.452 111.621 227.92 111.55 223.921L111.184 217.932L75.3851 218.531Z" fill="#1F2223"/>
<path d="M93.3509 225.591C103.523 225.401 111.704 221.712 111.623 217.352C111.541 212.991 103.229 209.611 93.056 209.801C82.8834 209.991 74.703 213.679 74.7844 218.04C74.8659 222.4 83.1784 225.781 93.3509 225.591Z" fill="#87FF53"/>
<path d="M92.5384 226.093C88.2984 226.172 84.0811 225.456 80.1046 223.982C76.3999 222.48 74.3293 220.369 74.2887 218.044C74.2075 213.335 82.4087 209.488 93.056 209.295C97.5729 209.122 102.08 209.836 106.322 211.396C110.027 212.898 112.097 215.009 112.138 217.334C112.229 222.043 104.018 225.89 93.3707 226.083L92.5384 226.093ZM93.8883 210.32H93.0763C83.3729 210.503 75.2326 214.035 75.3037 218.034C75.3037 219.902 77.2322 221.729 80.4903 223.048C84.603 224.559 88.9722 225.249 93.3504 225.078C103.064 224.906 111.204 221.363 111.123 217.364C111.123 215.497 109.205 213.67 105.947 212.35C102.09 210.924 97.9994 210.236 93.8883 210.32Z" fill="#1F2223"/>
<path d="M106.292 216.582L103.683 216.846C103.511 216.846 103.49 216.846 103.561 216.978C103.833 217.22 104.04 217.526 104.163 217.868C104.285 218.21 104.319 218.578 104.262 218.937C104.069 219.628 103.247 220.105 101.988 220.379C101.643 220.45 101.267 220.511 100.882 220.571L98.3645 218.379C98.8377 218.364 99.2935 218.197 99.6637 217.902C99.788 217.708 99.8805 217.496 99.9377 217.273H99.8464L94.9744 217.76L95.1063 217.993C95.4686 218.516 95.7208 219.106 95.8473 219.729C95.9995 220.744 95.1875 221.353 93.4722 221.657C91.8152 221.934 90.1192 221.869 88.4885 221.465C87.2536 221.204 86.0769 220.719 85.0172 220.034C84.4793 219.668 84.0022 219.282 83.515 218.907L81.7286 219.09L80.5005 217.323L82.2564 217.141C82.167 216.807 82.0992 216.468 82.0534 216.126C82.0433 215.79 82.1348 215.46 82.3159 215.177C82.497 214.894 82.7593 214.673 83.0684 214.542C83.8541 214.149 84.7094 213.915 85.5856 213.852L87.0574 215.466C85.8495 215.669 85.2101 216.085 85.4232 216.796L90.2343 216.288C90.1024 215.933 89.9501 215.588 89.8385 215.273C89.7485 215.092 89.7149 214.887 89.7421 214.687C89.7692 214.486 89.8558 214.298 89.9907 214.146C90.4319 213.747 90.9843 213.493 91.5741 213.416C92.5751 213.209 93.5983 213.13 94.6191 213.182C96.2836 213.254 97.9224 213.618 99.4607 214.258C100.039 214.512 100.537 214.796 101.085 215.07L101.278 215.172L103.835 214.908L106.292 216.582ZM86.8341 218.541C87.246 218.89 87.7217 219.156 88.2348 219.323C88.6961 219.507 89.1905 219.593 89.6868 219.575C90.183 219.558 90.6702 219.437 91.1174 219.221C91.4726 218.897 91.2595 218.501 91.1681 218.105L86.8341 218.541ZM97.9991 215.496C97.4916 215.293 97.0653 215.101 96.5781 214.948C95.4311 214.593 93.9898 214.695 93.7259 215.141C93.594 215.375 93.7259 215.649 93.8579 215.933L97.9991 215.496Z" fill="white"/>
<path d="M105.46 141.412L104.15 147.786C103.135 152.018 110.24 157.438 120.126 159.895C130.012 162.351 138.853 160.91 139.899 156.677L141.208 150.303L105.46 141.412Z" fill="#87FF53"/>
<path d="M129.332 161.6C126.182 161.574 123.046 161.165 119.994 160.382C109.702 157.824 102.526 152.262 103.653 147.664L104.962 141.3C104.975 141.233 105.002 141.17 105.04 141.114C105.079 141.059 105.128 141.011 105.185 140.975C105.305 140.906 105.446 140.884 105.581 140.914L141.33 149.806C141.456 149.837 141.565 149.916 141.635 150.025C141.704 150.135 141.73 150.267 141.705 150.394L140.396 156.769C139.837 159.052 137.351 160.646 133.402 161.285C132.056 161.498 130.695 161.603 129.332 161.6ZM105.845 142.031L104.647 147.887C103.632 151.795 110.819 157.022 120.248 159.397C124.478 160.545 128.893 160.848 133.24 160.291C136.711 159.732 138.954 158.362 139.411 156.555L140.609 150.679L105.845 142.031Z" fill="#1F2223"/>
<path d="M141.22 150.32C142.273 146.087 135.122 140.665 125.249 138.209C115.375 135.753 106.518 137.193 105.465 141.425C104.412 145.657 111.563 151.079 121.436 153.535C131.309 155.992 140.167 154.552 141.22 150.32Z" fill="#87FF53"/>
<path d="M130.632 155.226C127.484 155.199 124.352 154.79 121.304 154.008C116.898 153.005 112.732 151.146 109.042 148.537C105.845 146.121 104.404 143.543 104.982 141.29C105.561 139.037 108.027 137.443 111.976 136.804C121.019 135.811 130.12 138.074 137.645 143.188C140.832 145.604 142.284 148.172 141.705 150.425C141.137 152.688 138.66 154.282 134.702 154.921C133.355 155.131 131.994 155.232 130.632 155.226ZM116.036 137.504C114.724 137.5 113.414 137.598 112.118 137.798C108.647 138.367 106.403 139.727 105.947 141.534C105.49 143.34 106.85 145.594 109.651 147.725C116.957 152.661 125.773 154.854 134.539 153.917C138.021 153.358 140.264 151.998 140.71 150.181C141.167 148.375 139.817 146.121 137.016 143.99C133.429 141.468 129.385 139.668 125.11 138.692C122.144 137.934 119.097 137.535 116.036 137.504Z" fill="#1F2223"/>
<path d="M136.244 148.182L133.656 147.755C133.494 147.755 133.463 147.755 133.514 147.857C133.703 148.157 133.817 148.498 133.845 148.852C133.874 149.205 133.816 149.561 133.676 149.887C133.311 150.506 132.428 150.77 131.098 150.699C130.753 150.699 130.368 150.628 129.982 150.597L128.124 147.816C128.585 147.928 129.068 147.889 129.505 147.705C129.67 147.545 129.813 147.364 129.931 147.167L129.85 147.106L125.018 146.314C125.018 146.395 125.018 146.476 125.09 146.568C125.302 147.17 125.392 147.808 125.353 148.446C125.242 149.461 124.338 149.846 122.562 149.684C120.888 149.524 119.265 149.023 117.792 148.212C116.669 147.638 115.662 146.864 114.818 145.928C114.391 145.431 114.046 144.913 113.661 144.446L111.884 144.162L111.154 142.132L112.899 142.416C112.898 142.077 112.919 141.738 112.96 141.401C113.033 141.073 113.204 140.775 113.451 140.547C113.698 140.318 114.008 140.17 114.341 140.123C115.198 139.953 116.081 139.953 116.939 140.123L117.954 142.061C116.726 141.95 116.005 142.173 116.015 142.914L120.806 143.685C120.806 143.3 120.715 142.934 120.695 142.569C120.662 142.375 120.685 142.177 120.763 141.997C120.84 141.816 120.968 141.663 121.131 141.554C121.657 141.276 122.257 141.17 122.846 141.249C123.882 141.309 124.906 141.504 125.891 141.828C127.482 142.323 128.97 143.1 130.286 144.122C130.784 144.507 131.19 144.913 131.646 145.33L131.799 145.472L134.346 145.878L136.244 148.182ZM116.959 145.025C117.264 145.47 117.654 145.849 118.106 146.142C118.506 146.437 118.961 146.647 119.444 146.761C119.928 146.874 120.429 146.888 120.918 146.801C121.344 146.578 121.243 146.131 121.253 145.786L116.959 145.025ZM128.581 144.964C128.135 144.629 127.779 144.325 127.353 144.061C126.338 143.411 124.917 143.137 124.552 143.503C124.349 143.695 124.42 144 124.47 144.304L128.581 144.964Z" fill="white"/>
<path d="M61.449 153.48L67.001 156.88C70.6144 159.316 78.166 154.444 83.8297 146.009C89.4934 137.575 91.1885 128.754 87.5649 126.318L82.023 122.918L61.449 153.48Z" fill="#87FF53"/>
<path d="M69.2239 157.987C68.336 158.005 67.4628 157.758 66.7169 157.276L61.1851 153.876C61.0715 153.801 60.9919 153.685 60.9634 153.552C60.9349 153.419 60.9599 153.28 61.0329 153.165L81.6069 122.604C81.6777 122.494 81.7887 122.417 81.9158 122.388C82.043 122.36 82.1763 122.383 82.287 122.451L87.8289 125.852C91.7569 128.501 90.1735 137.453 84.2561 146.263C79.4145 153.48 73.3956 157.987 69.2239 157.987ZM62.1189 153.287L67.1939 156.423C70.5333 158.667 77.9123 153.744 83.3426 145.695C88.7728 137.646 90.5389 128.947 87.2097 126.704L82.1347 123.568L62.1189 153.287Z" fill="#1F2223"/>
<path d="M78.2854 142.561C83.966 134.121 85.6379 125.304 82.0197 122.869C78.4015 120.434 70.8634 125.303 65.1828 133.744C59.5022 142.184 57.8303 151.001 61.4485 153.436C65.0667 155.871 72.6048 151.002 78.2854 142.561Z" fill="#87FF53"/>
<path d="M63.6718 154.586C62.7857 154.605 61.915 154.353 61.1749 153.866C59.2464 152.566 58.5867 149.694 59.3378 145.746C61.5029 136.911 66.7371 129.134 74.106 123.801C77.4657 121.639 80.3787 121.152 82.3072 122.451C84.2357 123.751 84.8853 126.633 84.1444 130.571C81.9686 139.401 76.7367 147.175 69.3761 152.516C67.7054 153.725 65.7293 154.442 63.6718 154.586ZM79.79 122.766C77.9276 122.911 76.1423 123.572 74.6338 124.674C67.4902 129.863 62.4161 137.415 60.3122 145.989C59.6626 149.44 60.1701 152.029 61.7129 153.094C63.2557 154.16 65.8439 153.642 68.8179 151.734C75.957 146.541 81.0299 138.991 83.1395 130.419C83.7993 126.968 83.2918 124.39 81.7388 123.314C81.1597 122.938 80.4801 122.747 79.79 122.766Z" fill="#1F2223"/>
<path d="M78.3285 126.826L77.0496 129.12C76.9684 129.262 76.9785 129.303 77.0496 129.293C77.4074 129.204 77.782 129.209 78.1375 129.307C78.493 129.404 78.8174 129.592 79.0796 129.851C79.5363 130.399 79.4754 131.312 78.9578 132.541C78.8157 132.865 78.6431 133.2 78.4807 133.556L75.2327 134.347C75.4943 133.955 75.6225 133.489 75.5981 133.018C75.5005 132.807 75.3778 132.61 75.2327 132.429L75.1515 132.49L72.7663 136.763H73.02C73.6596 136.767 74.2917 136.902 74.8775 137.159C75.7707 137.595 75.8316 138.631 75.0906 140.204C74.3513 141.72 73.316 143.073 72.0456 144.183C71.1223 145.046 70.0491 145.734 68.8788 146.213C68.2698 146.446 67.6913 146.609 67.0924 146.801L66.2195 148.364H64.0779L64.9305 146.822C64.6057 146.707 64.2901 146.568 63.9865 146.406C63.7043 146.226 63.4839 145.965 63.355 145.656C63.2261 145.347 63.195 145.007 63.2659 144.68C63.3924 143.815 63.6891 142.984 64.1388 142.234L66.3007 141.94C65.7831 143.056 65.7425 143.817 66.453 144.051C67.2379 142.643 68.0228 141.232 68.8078 139.818C68.4322 139.727 68.0668 139.646 67.7217 139.544C67.5219 139.513 67.336 139.423 67.1877 139.286C67.0394 139.148 66.9355 138.97 66.8894 138.773C66.8046 138.183 66.9113 137.582 67.1939 137.057C67.596 136.107 68.1253 135.216 68.7672 134.408C69.7737 133.084 71.0116 131.952 72.4212 131.069C72.9591 130.734 73.4362 130.49 74.0147 130.196L74.2076 130.105L75.4662 127.851L78.3285 126.826ZM68.7773 143.878C69.2988 143.741 69.7885 143.503 70.2186 143.178C70.633 142.905 70.9866 142.55 71.2573 142.134C71.5281 141.718 71.71 141.251 71.7919 140.762C71.731 140.285 71.2844 140.224 70.9088 140.082L68.7773 143.878ZM72.6851 132.926C72.2182 133.241 71.8122 133.474 71.4163 133.779C70.4622 134.52 69.7213 135.758 69.9344 136.225C70.0461 136.479 70.3607 136.509 70.6652 136.57L72.6851 132.926Z" fill="white"/>
<path d="M48.041 172.978L48.4369 179.474C48.5181 183.839 56.8309 187.208 67.0012 187.026C77.1715 186.843 85.3524 183.148 85.2712 178.784L84.8754 172.288L48.041 172.978Z" fill="#87FF53"/>
<path d="M66.1586 187.543C56.0086 187.543 48.0206 184.072 47.8886 179.484L47.5029 173.008C47.4967 172.942 47.5053 172.874 47.5281 172.811C47.5509 172.748 47.5874 172.691 47.6349 172.643C47.6792 172.592 47.7336 172.55 47.7947 172.52C47.8557 172.49 47.9223 172.474 47.9901 172.471L84.8651 171.75C84.9936 171.747 85.1183 171.794 85.2129 171.881C85.3075 171.968 85.3647 172.088 85.3726 172.217L85.7684 178.713C85.7684 181.057 83.8298 183.25 80.1859 184.894C76.0001 186.616 71.517 187.498 66.9909 187.493L66.1586 187.543ZM48.5788 173.475L48.9442 179.444C49.0254 183.504 57.2875 186.701 66.9909 186.549C71.3831 186.547 75.732 185.681 79.7901 184.001C82.9975 182.56 84.8651 180.662 84.7839 178.794L84.4185 172.805L48.5788 173.475Z" fill="#1F2223"/>
<path d="M66.6014 180.535C76.774 180.345 84.9544 176.656 84.873 172.296C84.7916 167.935 76.479 164.555 66.3065 164.745C56.1339 164.935 47.9535 168.623 48.0349 172.984C48.1164 177.344 56.4289 180.725 66.6014 180.535Z" fill="#87FF53"/>
<path d="M65.773 181.047C55.5621 181.047 47.6248 177.576 47.503 172.988C47.3812 168.4 55.623 164.442 66.2704 164.239C70.7902 164.072 75.2993 164.785 79.5466 166.34C83.2513 167.852 85.3118 169.964 85.3524 172.288C85.4031 174.602 83.4137 176.794 79.7699 178.439C75.5841 180.161 71.1009 181.043 66.5749 181.037L65.773 181.047ZM67.1433 165.244H66.3211C56.6177 165.426 48.4774 168.959 48.5485 172.968C48.6195 176.977 56.9019 180.195 66.6053 180.012C70.9874 180.015 75.3281 179.164 79.3842 177.505C82.5916 176.054 84.4592 174.155 84.3678 172.288C84.3678 170.43 82.4495 168.603 79.1913 167.274C75.3371 165.852 71.2508 165.163 67.1433 165.244Z" fill="#1F2223"/>
<path d="M79.5364 171.537L76.9278 171.791C76.7553 171.791 76.735 171.841 76.806 171.923C77.0781 172.164 77.2849 172.47 77.4073 172.812C77.5297 173.155 77.5638 173.522 77.5064 173.881C77.3135 174.572 76.4914 175.049 75.2328 175.333C74.8877 175.404 74.5121 175.455 74.1264 175.526L71.6092 173.323C72.0803 173.307 72.5345 173.143 72.9084 172.856C73.0301 172.656 73.1256 172.441 73.1926 172.217H73.0911L68.2191 172.704L68.3511 172.927C68.7154 173.452 68.9676 174.047 69.092 174.673C69.2443 175.688 68.4323 176.297 66.7169 176.592C65.0603 176.867 63.3653 176.805 61.7333 176.409C60.499 176.141 59.3231 175.653 58.262 174.968C57.724 174.602 57.247 174.227 56.7699 173.841L54.9734 174.024L53.7554 172.268L55.5113 172.085C55.4197 171.751 55.3485 171.412 55.2982 171.07C55.2873 170.733 55.3784 170.401 55.5595 170.116C55.7406 169.832 56.0033 169.609 56.3132 169.476C57.0955 169.086 57.9477 168.855 58.8202 168.796L60.3021 170.4C59.0943 170.613 58.4447 171.019 58.6578 171.73L63.4689 171.232C63.337 170.877 63.1949 170.522 63.0731 170.217C62.9907 170.034 62.9613 169.831 62.9882 169.632C63.0151 169.433 63.0973 169.246 63.2253 169.091C63.6652 168.688 64.2177 168.429 64.8087 168.35C65.8095 168.142 66.8333 168.066 67.8537 168.126C69.5188 168.193 71.1585 168.558 72.6953 169.202C73.284 169.446 73.7712 169.73 74.3193 170.014L74.5121 170.116L77.0699 169.852L79.5364 171.537ZM60.0788 173.496C60.4941 173.837 60.969 174.099 61.4795 174.267C61.9407 174.45 62.4345 174.536 62.9303 174.521C63.4261 174.505 63.9135 174.388 64.3621 174.176C64.7174 173.851 64.5144 173.445 64.3621 173.059L60.0788 173.496ZM71.2438 170.451C70.7262 170.248 70.2999 170.045 69.8127 169.893C68.6657 169.537 67.2244 169.639 66.9707 170.085C66.8286 170.329 66.9707 170.603 67.1026 170.877L71.2438 170.451Z" fill="white"/>
<path d="M99.5623 36.1561L103.825 41.0383C106.535 44.4284 115.143 42.0533 123.049 35.7095C130.956 29.3658 135.158 21.4995 132.448 18.1094L128.195 13.2273L99.5623 36.1561Z" fill="#87FF53"/>
<path d="M107.845 43.0987C107.024 43.1631 106.199 43.0404 105.432 42.7398C104.666 42.4391 103.978 41.9684 103.419 41.363L99.1767 36.491C99.1323 36.4397 99.0987 36.3801 99.0777 36.3156C99.0568 36.2511 99.049 36.183 99.0548 36.1155C99.0705 35.9765 99.1397 35.8491 99.2477 35.7602L127.871 12.8314C127.974 12.7504 128.105 12.7125 128.235 12.7257C128.366 12.739 128.486 12.8023 128.571 12.9024L132.834 17.7846C134.285 19.6014 134.052 22.5348 132.174 26.0467C129.921 29.9419 126.929 33.3589 123.364 36.1053C117.761 40.5916 111.925 43.0987 107.845 43.0987ZM100.293 36.2271L104.201 40.7033C106.708 43.8295 115.183 41.3529 122.725 35.3136C126.184 32.654 129.091 29.344 131.281 25.5696C132.925 22.5246 133.21 19.8755 132.053 18.4646L128.124 13.958L100.293 36.2271Z" fill="#1F2223"/>
<path d="M118.792 30.8314C126.698 24.4993 130.909 16.6209 128.197 13.2342C125.484 9.84764 116.876 12.2354 108.97 18.5674C101.063 24.8994 96.8525 32.7779 99.5647 36.1645C102.277 39.5511 110.885 37.1634 118.792 30.8314Z" fill="#87FF53"/>
<path d="M103.582 38.2165C102.762 38.2801 101.939 38.157 101.174 37.8563C100.41 37.5557 99.7231 37.0854 99.1664 36.4808C96.2331 32.8167 100.405 24.7677 108.647 18.2108C112.102 15.316 116.092 13.1263 120.39 11.7656C124.237 10.6998 127.14 11.1058 128.591 12.9125C131.514 16.5767 127.353 24.6155 119.111 31.1825C113.508 35.7399 107.672 38.2165 103.582 38.2165ZM124.176 12.202C122.987 12.2261 121.806 12.407 120.664 12.74C116.501 14.05 112.635 16.1639 109.286 18.9619C101.734 25.0519 97.4714 32.7355 99.9581 35.8414C102.445 38.9473 110.93 36.4707 118.472 30.4314C126.013 24.3922 130.286 16.6579 127.8 13.552C127.335 13.0704 126.768 12.6992 126.141 12.4655C125.514 12.2319 124.843 12.1419 124.176 12.202Z" fill="#1F2223"/>
<path d="M123.516 15.8765L121.618 17.673C121.496 17.7847 121.496 17.8253 121.618 17.8456C121.981 17.8698 122.331 17.9859 122.637 18.183C122.942 18.3801 123.192 18.6517 123.364 18.9722C123.628 19.632 123.303 20.4744 122.45 21.4894L121.699 22.3116L118.38 22.1086C118.776 21.6823 119.111 21.2763 119.111 20.9515C119.091 20.7213 119.036 20.4955 118.949 20.2816H118.857L115.315 23.6615L115.548 23.763C116.155 23.9523 116.715 24.267 117.193 24.6867C117.913 25.3667 117.66 26.3614 116.492 27.6403C115.351 28.8694 113.969 29.8506 112.432 30.5229C111.304 31.0804 110.082 31.4245 108.829 31.5379C108.18 31.5379 107.591 31.5379 106.962 31.5379L105.662 32.7661L103.632 32.1165L104.911 30.9086C104.639 30.7036 104.381 30.4797 104.14 30.2387C103.923 29.9848 103.79 29.6707 103.757 29.3386C103.725 29.0066 103.794 28.6725 103.957 28.3813C104.343 27.6107 104.874 26.9216 105.52 26.3513L107.662 26.7268C106.84 27.6302 106.576 28.3407 107.175 28.7568L110.666 25.4276C110.352 25.2348 110.017 25.0521 109.722 24.8491C109.535 24.7585 109.38 24.6126 109.278 24.4311C109.177 24.2495 109.133 24.0411 109.154 23.8341C109.259 23.2506 109.539 22.7127 109.956 22.2913C110.625 21.5179 111.393 20.8354 112.24 20.2613C113.591 19.3025 115.104 18.5943 116.706 18.1704C117.315 18.008 117.883 17.9369 118.482 17.8253H118.695L120.552 16.0592L123.516 15.8765ZM109.367 29.244C109.902 29.2683 110.436 29.189 110.94 29.0106C111.955 28.6655 113.052 27.7723 113.153 27.1836C113.255 26.5949 112.828 26.5238 112.514 26.2701L109.367 29.244ZM116.33 20.0075C115.802 20.1598 115.315 20.2613 114.868 20.4338C113.742 20.85 112.676 21.8041 112.737 22.3116C112.737 22.5856 113.062 22.7176 113.326 22.8597L116.33 20.0075Z" fill="white"/>
<path d="M62.5351 6.18311L58.0082 10.8115C54.8516 13.7956 57.927 22.1795 64.8696 29.5484C71.8122 36.9173 80.0033 40.4901 83.1396 37.5162L87.6665 32.8776L62.5351 6.18311Z" fill="#87FF53"/>
<path d="M80.1454 39.0692C78.458 39.0058 76.8008 38.6019 75.2734 37.8817C71.2186 35.9449 67.5811 33.2349 64.5652 29.9038C57.3181 22.2101 54.3238 13.6638 57.7342 10.4462L62.251 5.82798C62.2961 5.77622 62.3525 5.73556 62.4159 5.70916C62.4793 5.68275 62.5479 5.67131 62.6164 5.67573C62.7548 5.67984 62.886 5.73817 62.9818 5.83813L88.1233 32.5326C88.2133 32.627 88.2635 32.7524 88.2635 32.8828C88.2635 33.0132 88.2133 33.1386 88.1233 33.233L83.5964 37.8715C82.6472 38.707 81.4082 39.137 80.1454 39.0692ZM62.5352 6.91403L58.3737 11.1669C55.4606 13.9175 58.6071 22.1695 65.2351 29.2034C68.1864 32.4541 71.7537 35.0864 75.7302 36.9479C78.9376 38.3486 81.5563 38.4196 82.9062 37.1509L87.0779 32.8777L62.5352 6.91403Z" fill="#1F2223"/>
<path d="M87.7276 32.8936C90.8863 29.9191 87.8174 21.5296 80.873 14.1552C73.9286 6.78086 65.7384 3.21408 62.5797 6.18861C59.421 9.16314 62.4899 17.5526 69.4343 24.927C76.3787 32.3014 84.5689 35.8681 87.7276 32.8936Z" fill="#87FF53"/>
<path d="M84.6621 34.4409C80.5412 34.4409 74.5121 31.0305 69.0615 25.3059C61.8144 17.6122 58.8202 9.06589 62.2306 5.85849C63.9155 4.26494 66.859 4.26494 70.513 5.85849C74.575 7.79301 78.2196 10.5032 81.2415 13.8364C84.3872 17.044 86.8735 20.8372 88.5597 25.0014C89.9299 28.7366 89.7574 31.6699 88.0725 33.2635C87.1309 34.0826 85.9084 34.5046 84.6621 34.4409ZM65.6308 5.64534C64.6483 5.58905 63.6817 5.91245 62.9309 6.54869C60.028 9.27904 63.1745 17.531 69.8025 24.5751C76.4304 31.6192 84.4794 35.2427 87.3823 32.5124C88.7322 31.2436 88.8134 28.6249 87.6157 25.3363C85.9758 21.2948 83.5622 17.6125 80.5107 14.4961C77.5876 11.2581 74.056 8.62662 70.1171 6.75169C68.7123 6.08211 67.1859 5.70567 65.6308 5.64534Z" fill="#1F2223"/>
<path d="M84.7129 28.4319L82.7742 26.6861C82.6524 26.5643 82.6118 26.5744 82.6017 26.6861C82.6007 27.0516 82.5071 27.4109 82.3296 27.7304C82.1521 28.0499 81.8965 28.3192 81.5867 28.5131C80.9574 28.8277 80.0743 28.574 78.9984 27.8026C78.7142 27.5894 78.43 27.356 78.1255 27.1124L78.0545 23.7933C78.3835 24.1288 78.8095 24.3524 79.2725 24.4328C79.5024 24.3922 79.7249 24.3169 79.9322 24.2095V24.1181L76.3188 20.86C76.2842 20.9384 76.257 21.02 76.2376 21.1036C76.0928 21.7231 75.8235 22.3068 75.4459 22.8189C74.8268 23.5903 73.8118 23.4178 72.4009 22.352C71.0877 21.3136 69.9998 20.0185 69.2037 18.5458C68.5741 17.4614 68.1476 16.2713 67.9451 15.0339C67.8537 14.3944 67.8233 13.7956 67.7725 13.1764L66.4429 11.9787L66.9199 9.89796L68.2293 11.0652C68.4424 10.781 68.615 10.4765 68.8281 10.2431C69.0654 10.0092 69.3681 9.85289 69.6962 9.79489C70.0242 9.73689 70.3622 9.77991 70.6653 9.91826C71.4793 10.2353 72.2239 10.7076 72.8577 11.3088L72.6851 13.4708C71.7209 12.7298 70.9799 12.5167 70.5942 13.1561L74.1873 16.3737C74.3599 16.0387 74.5223 15.6936 74.6948 15.3587C74.7694 15.1714 74.898 15.0106 75.0643 14.8967C75.2306 14.7828 75.4271 14.721 75.6286 14.7192C76.2197 14.7709 76.7801 15.005 77.2323 15.3891C78.0592 15.9964 78.8061 16.7058 79.4552 17.5003C80.5118 18.7744 81.3363 20.2242 81.8912 21.7836C82.1043 22.3825 82.216 22.9407 82.3784 23.5294C82.3784 23.5903 82.3784 23.6614 82.3784 23.7426L84.2967 25.4478L84.7129 28.4319ZM70.2593 15.4399C70.2786 15.9753 70.3991 16.5022 70.6145 16.9928C71.0408 18.0078 72.0152 19.0228 72.6445 19.0228C73.2738 19.0228 73.284 18.6473 73.5073 18.3123L70.2593 15.4399ZM80.0236 21.6415C79.8307 21.1239 79.6886 20.6265 79.4755 20.2205C78.9781 19.1345 77.9327 18.1398 77.4455 18.2514C77.1714 18.3022 77.0699 18.5965 76.9481 18.8807L80.0236 21.6415Z" fill="white"/>
<path d="M119.375 198.069C115.762 204.088 119.812 217.425 119.812 217.425L125.171 221.323C129.022 223.638 133.634 224.328 137.994 223.242C142.354 222.156 146.104 219.383 148.419 215.532C150.734 211.681 151.425 207.068 150.339 202.708C149.253 198.348 146.48 194.598 142.629 192.283L136.671 189.37C136.671 189.37 122.999 192.05 119.375 198.069Z" fill="#87FF53"/>
<path d="M133.88 224.246C130.721 224.249 127.622 223.389 124.917 221.759L119.517 217.841C119.43 217.775 119.366 217.682 119.335 217.577C119.162 217.019 115.275 203.946 118.949 197.805C122.643 191.715 136.021 188.985 136.59 188.873C136.692 188.843 136.801 188.843 136.904 188.873L142.862 191.786C146.139 193.748 148.683 196.73 150.101 200.276C151.52 203.822 151.736 207.736 150.716 211.416C149.696 215.097 147.497 218.341 144.456 220.651C141.414 222.962 137.699 224.21 133.88 224.205V224.246ZM120.258 217.141L125.475 220.927C129.211 223.126 133.665 223.759 137.866 222.69C142.067 221.62 145.675 218.933 147.905 215.215C150.134 211.497 150.804 207.049 149.768 202.839C148.732 198.629 146.075 195 142.375 192.74L136.63 189.908C135.077 190.233 123.08 192.953 119.832 198.333C116.574 203.733 119.822 215.598 120.258 217.12V217.141Z" fill="#1F2223"/>
<path d="M130.215 221.525C139.571 221.525 147.156 213.941 147.156 204.585C147.156 195.229 139.571 187.645 130.215 187.645C120.859 187.645 113.275 195.229 113.275 204.585C113.275 213.941 120.859 221.525 130.215 221.525Z" fill="#87FF53"/>
<path d="M130.195 222.033C127.035 222.037 123.935 221.173 121.233 219.536C119.269 218.356 117.556 216.8 116.193 214.958C114.83 213.116 113.844 211.024 113.29 208.8C112.735 206.577 112.624 204.266 112.963 202C113.302 199.734 114.084 197.556 115.264 195.592C116.445 193.628 118 191.916 119.842 190.553C121.684 189.19 123.777 188.204 126 187.649C128.224 187.095 130.534 186.984 132.801 187.323C135.067 187.662 137.244 188.444 139.208 189.624C142.483 191.589 145.022 194.574 146.437 198.121C147.852 201.668 148.064 205.581 147.041 209.26C146.018 212.939 143.816 216.181 140.773 218.489C137.73 220.796 134.014 222.041 130.195 222.033ZM130.246 188.152C126.273 188.15 122.434 189.587 119.44 192.198C116.446 194.809 114.5 198.416 113.962 202.352C113.425 206.288 114.332 210.286 116.516 213.604C118.7 216.922 122.013 219.337 125.841 220.399C129.668 221.462 133.751 221.101 137.334 219.384C140.916 217.667 143.754 214.709 145.322 211.059C146.891 207.409 147.083 203.315 145.864 199.534C144.644 195.753 142.096 192.543 138.691 190.497C136.14 188.965 133.221 188.155 130.246 188.152Z" fill="#1F2223"/>
<path d="M120.715 196.831C121.425 197.247 122.126 197.673 122.826 198.099C122.968 198.181 123.039 198.17 123.141 198.049C123.971 197.129 125.018 196.432 126.186 196.019C127.406 195.588 128.741 195.617 129.941 196.1C130.266 196.232 130.591 196.384 130.956 196.536L128.997 199.805C128.496 199.518 127.915 199.404 127.343 199.48C126.906 199.595 126.476 199.734 126.054 199.896V199.987L130.114 202.433L130.418 202.129C131.12 201.361 131.91 200.68 132.773 200.099C133.41 199.643 134.159 199.368 134.94 199.303C135.722 199.239 136.505 199.388 137.209 199.733C138.575 200.291 139.669 201.362 140.254 202.718C140.736 203.823 140.856 205.052 140.599 206.229C140.447 206.95 140.203 207.671 139.99 208.422L141.583 209.376L139.777 212.421L138.142 211.406C137.615 211.913 137.127 212.421 136.61 212.868C135.602 213.751 134.325 214.27 132.986 214.339C131.835 214.367 130.701 214.053 129.728 213.436L131.667 210.218C132.237 210.533 132.895 210.65 133.539 210.553C134.183 210.456 134.777 210.149 135.229 209.68L130.855 207.062C130.317 207.559 129.84 208.077 129.231 208.564C128.592 209.181 127.811 209.631 126.957 209.873C126.074 210.092 125.145 210.031 124.298 209.701C123.251 209.325 122.325 208.672 121.618 207.813C121.114 207.189 120.754 206.462 120.565 205.682C120.375 204.903 120.361 204.092 120.522 203.306C120.669 202.67 120.852 202.044 121.07 201.429C121.07 201.357 121.07 201.297 121.151 201.205L118.959 199.886L120.715 196.831ZM137.036 206.635C137.269 206.099 137.346 205.508 137.259 204.93C137.169 204.443 136.903 204.006 136.512 203.701C136.121 203.396 135.633 203.245 135.138 203.276C134.434 203.472 133.796 203.854 133.291 204.382L137.036 206.635ZM123.841 202.839C123.769 203.337 123.735 203.839 123.74 204.342C123.762 204.614 123.844 204.877 123.979 205.115C124.114 205.352 124.299 205.557 124.521 205.715C124.743 205.874 124.997 205.982 125.265 206.032C125.534 206.082 125.81 206.073 126.074 206.006C126.612 205.774 127.093 205.427 127.485 204.991L123.841 202.839Z" fill="white"/>
<path d="M59.9774 194.608C53.0957 193.207 41.8597 201.459 41.8597 201.459L39.9718 207.803C39.5246 209.982 39.511 212.228 39.9318 214.413C40.3527 216.597 41.1997 218.678 42.4245 220.535C43.6493 222.392 45.2279 223.99 47.0702 225.237C48.9125 226.484 50.9824 227.356 53.1617 227.803C57.563 228.707 62.1429 227.824 65.8937 225.351C69.6445 222.877 72.2591 219.015 73.1623 214.613L73.9337 208.036C73.9337 208.036 66.849 196.019 59.9774 194.608Z" fill="#87FF53"/>
<path d="M56.6074 228.661C54.0152 228.665 51.4545 228.093 49.1114 226.984C46.7682 225.875 44.7013 224.259 43.0607 222.252C41.4201 220.245 40.2471 217.898 39.6267 215.381C39.0063 212.864 38.9542 210.241 39.4742 207.701L41.3722 201.317C41.4026 201.209 41.4711 201.115 41.5651 201.053C42.032 200.708 53.065 192.679 60.0787 194.11C67.0923 195.552 74.0755 207.305 74.3699 207.772C74.4194 207.869 74.4405 207.978 74.4308 208.087L73.6695 214.674C72.8739 218.615 70.7409 222.16 67.6316 224.709C64.5223 227.258 60.6278 228.654 56.6074 228.661ZM42.2959 201.764L40.4587 207.955C39.5892 212.228 40.453 216.672 42.8599 220.309C45.2669 223.946 49.02 226.477 53.2934 227.347C57.5669 228.216 62.0107 227.352 65.6473 224.945C69.284 222.538 71.8155 218.785 72.685 214.512L73.4259 208.148C72.6038 206.788 66.0672 196.374 59.896 195.105C53.7045 193.846 43.5951 200.85 42.2959 201.764Z" fill="#1F2223"/>
<path d="M57.4296 223.931C66.7855 223.931 74.37 216.347 74.37 206.991C74.37 197.635 66.7855 190.05 57.4296 190.05C48.0737 190.05 40.4893 197.635 40.4893 206.991C40.4893 216.347 48.0737 223.931 57.4296 223.931Z" fill="#87FF53"/>
<path d="M57.4601 224.449C54.9982 224.486 52.5564 224.002 50.2949 223.028C48.0334 222.055 46.0033 220.614 44.3381 218.8C42.6728 216.987 41.41 214.842 40.6325 212.505C39.855 210.169 39.5805 207.695 39.8269 205.245C40.0733 202.796 40.8351 200.426 42.0623 198.291C43.2895 196.157 44.9543 194.306 46.9474 192.86C48.9404 191.415 51.2168 190.407 53.6268 189.904C56.0369 189.4 58.5262 189.412 60.9314 189.939C65.4654 190.87 69.444 193.563 71.9926 197.427C74.5412 201.291 75.4511 206.009 74.5222 210.543C73.7014 214.465 71.5589 217.986 68.4531 220.517C65.3474 223.048 61.4666 224.436 57.4601 224.449ZM57.389 190.558C54.284 190.569 51.2455 191.459 48.6256 193.125C46.0057 194.792 43.9115 197.167 42.5858 199.975C41.2601 202.782 40.757 205.908 41.1349 208.99C41.5128 212.072 42.7561 214.984 44.7209 217.389C46.6857 219.793 49.2914 221.592 52.2364 222.576C55.1813 223.56 58.3449 223.69 61.3605 222.95C64.3762 222.211 67.1206 220.632 69.2757 218.396C71.4309 216.161 72.9086 213.361 73.5377 210.32L74.035 210.421L73.5377 210.32C74.4098 206.05 73.5519 201.608 71.1523 197.969C68.7526 194.331 65.0073 191.793 60.7385 190.913C59.6398 190.685 58.5213 190.566 57.3992 190.558H57.389Z" fill="#1F2223"/>
<path d="M61.5912 195.45C61.4288 196.262 61.2664 197.064 61.0938 197.866C61.0938 198.028 61.0938 198.089 61.2359 198.15C62.376 198.615 63.3812 199.358 64.1591 200.312C64.9718 201.32 65.387 202.591 65.3264 203.885C65.3264 204.23 65.2756 204.585 65.2452 204.961L61.5201 204.23C61.6307 203.667 61.5447 203.083 61.2765 202.576C61.0271 202.195 60.7524 201.833 60.4544 201.489H60.3833L59.4292 206.148L59.8149 206.321C60.7844 206.729 61.7039 207.246 62.5554 207.864C63.1966 208.313 63.7035 208.928 64.0218 209.643C64.3401 210.358 64.4577 211.147 64.3621 211.924C64.2884 213.394 63.6438 214.778 62.5656 215.781C61.6827 216.601 60.5642 217.123 59.3683 217.273C58.6274 217.364 57.8763 217.374 57.0947 217.425L56.7293 219.242L53.2885 218.531L53.6742 216.664C53.0246 216.339 52.3851 216.055 51.7863 215.71C50.6177 215.056 49.7052 214.026 49.198 212.786C48.7865 211.708 48.7053 210.531 48.9646 209.406L52.6389 210.168C52.5345 210.811 52.6438 211.471 52.9498 212.047C53.2559 212.622 53.7421 213.082 54.3339 213.355C54.679 211.67 55.014 210.015 55.3489 208.351C54.6892 208.016 54.0294 207.681 53.3798 207.336C52.5729 206.939 51.8758 206.35 51.3498 205.621C50.8462 204.866 50.5972 203.969 50.6393 203.063C50.6397 201.95 50.9451 200.858 51.5224 199.906C51.9431 199.223 52.5098 198.641 53.1819 198.202C53.854 197.763 54.6148 197.479 55.4098 197.369C56.0567 197.294 56.7075 197.26 57.3586 197.267H57.5921L58.1097 194.76L61.5912 195.45ZM57.7748 214.106C58.3555 214.15 58.9368 214.027 59.4495 213.751C59.8801 213.503 60.2047 213.105 60.3618 212.634C60.5189 212.162 60.4977 211.65 60.3021 211.193C59.8867 210.593 59.3144 210.119 58.6477 209.823L57.7748 214.106ZM56.9831 200.444C56.4867 200.544 55.9982 200.679 55.5215 200.85C55.2733 200.962 55.0524 201.127 54.8742 201.333C54.696 201.538 54.5647 201.781 54.4893 202.042C54.414 202.304 54.3965 202.579 54.438 202.848C54.4796 203.117 54.5791 203.374 54.7298 203.601C55.1216 204.032 55.5985 204.378 56.1305 204.616L56.9831 200.444Z" fill="white"/>
<path d="M109.885 69.6004C108.119 64.7081 104.942 57.8061 100.516 55.3904C93.4115 51.5841 78.2677 57.0144 78.2677 57.0144L74.1062 63.4089C73.0973 65.3126 72.4114 67.3706 72.0762 69.4989L109.885 69.6004Z" fill="#87FF53"/>
<path d="M109.885 70.1079H72.0557C71.9827 70.1093 71.9103 70.0945 71.8437 70.0647C71.777 70.0348 71.7177 69.9907 71.67 69.9354C71.6208 69.8792 71.5851 69.8125 71.5657 69.7403C71.5464 69.6682 71.5438 69.5925 71.5584 69.5192C71.9134 67.3129 72.6374 65.182 73.7 63.2161L77.8818 56.7911C77.9444 56.6998 78.0327 56.6292 78.1356 56.5881C78.7649 56.3648 93.5534 51.1173 100.79 54.9946C105.287 57.39 108.504 64.1296 110.402 69.4279C110.43 69.5045 110.439 69.5867 110.428 69.6674C110.417 69.7482 110.387 69.8252 110.341 69.8919C110.294 69.9586 110.232 70.0131 110.159 70.0507C110.087 70.0883 110.007 70.1079 109.925 70.1079H109.885ZM72.6546 69.0929H109.195C107.337 64.1093 104.343 58.0396 100.313 55.8979C93.8478 52.4469 80.2671 56.913 78.6431 57.5017L74.5831 63.7439C73.683 65.4204 73.043 67.2241 72.685 69.0929H72.6546Z" fill="#1F2223"/>
<path d="M113.113 69.6003C113.306 66.927 112.946 64.2425 112.056 61.7143C111.165 59.1861 109.764 56.8685 107.938 54.9061C106.112 52.9437 103.902 51.3786 101.444 50.3083C98.987 49.2381 96.3354 48.6858 93.655 48.6858C90.9747 48.6858 88.3231 49.2381 85.8657 50.3083C83.4083 51.3786 81.1977 52.9437 79.372 54.9061C77.5463 56.8685 76.1446 59.1861 75.2543 61.7143C74.364 64.2425 74.0043 66.927 74.1975 69.6003H113.113Z" fill="#87FF53"/>
<path d="M113.113 70.1078H74.1974C74.0696 70.1082 73.9463 70.0604 73.8522 69.9738C73.7581 69.8872 73.7001 69.7684 73.6899 69.6409C73.4943 66.8994 73.8654 64.1469 74.7802 61.5551C75.6949 58.9632 77.1336 56.5875 79.0067 54.5761C80.8798 52.5646 83.147 50.9605 85.6672 49.8636C88.1874 48.7667 90.9064 48.2007 93.655 48.2007C96.4035 48.2007 99.1226 48.7667 101.643 49.8636C104.163 50.9605 106.43 52.5646 108.303 54.5761C110.176 56.5875 111.615 58.9632 112.53 61.5551C113.444 64.1469 113.816 66.8994 113.62 69.6409C113.61 69.7684 113.552 69.8872 113.458 69.9738C113.364 70.0604 113.24 70.1082 113.113 70.1078ZM74.6745 69.0928H112.635C112.754 66.5264 112.351 63.9626 111.451 61.5563C110.551 59.1501 109.172 56.9514 107.397 55.0933C105.623 53.2351 103.491 51.756 101.129 50.7455C98.7666 49.735 96.2241 49.2139 93.655 49.2139C91.0858 49.2139 88.5433 49.735 86.1813 50.7455C83.8192 51.756 81.6866 53.2351 79.9124 55.0933C78.1382 56.9514 76.7593 59.1501 75.859 61.5563C74.9587 63.9626 74.5557 66.5264 74.6745 69.0928Z" fill="#1F2223"/>
<path d="M89.0673 67.3166C89.6661 67.9256 90.2853 68.5041 90.9044 69.103L90.6304 69.6003H97.8775C97.4309 69.1537 96.9741 68.7274 96.4869 68.3214L96.1215 67.9966L98.6996 63.1449H98.8011C99.0137 63.6204 99.1967 64.1085 99.3492 64.6065C99.4763 65.2553 99.3797 65.9279 99.0752 66.5147L102.952 68.5447C103.105 68.1489 103.267 67.7733 103.389 67.3876C103.887 65.9813 103.844 64.4397 103.267 63.0637C102.726 61.7544 101.864 60.6024 100.76 59.7142C100.618 59.5924 100.598 59.5112 100.679 59.3589C101.136 58.5266 101.582 57.6842 102.029 56.8519L98.456 55.0249L97.0452 57.5929L96.7914 57.5218C96.0708 57.3032 95.339 57.1236 94.599 56.9839C93.6845 56.8485 92.7515 56.9155 91.8658 57.1804C90.9801 57.4452 90.1633 57.9013 89.4733 58.5165C88.5134 59.3735 87.8105 60.4805 87.4433 61.7137C87.1042 62.6977 87.0865 63.764 87.3925 64.7587C87.7293 65.7374 88.305 66.6165 89.0673 67.3166ZM93.5536 60.8713C94.1348 60.8314 94.7181 60.8314 95.2994 60.8713C94.4975 62.3634 93.7464 63.7641 92.9953 65.1851C92.4819 64.7574 92.0665 64.2243 91.7773 63.622C91.6897 63.3238 91.6674 63.0103 91.712 62.7027C91.7565 62.3952 91.8669 62.1008 92.0354 61.8398C92.204 61.5787 92.4269 61.3571 92.6889 61.19C92.9509 61.0228 93.2458 60.9141 93.5536 60.8713Z" fill="white"/>
<path d="M118.908 70.1078H67.9145C67.7799 70.1078 67.6508 70.0543 67.5556 69.9591C67.4604 69.864 67.407 69.7349 67.407 69.6003C67.407 69.4657 67.4604 69.3366 67.5556 69.2414C67.6508 69.1462 67.7799 69.0928 67.9145 69.0928H118.908C119.043 69.0928 119.172 69.1462 119.267 69.2414C119.362 69.3366 119.416 69.4657 119.416 69.6003C119.416 69.7349 119.362 69.864 119.267 69.9591C119.172 70.0543 119.043 70.1078 118.908 70.1078Z" fill="#1F2223"/>
</g>
<defs>
<clipPath id="clip0">
<rect width="159" height="239.197" fill="white" transform="translate(0 0.802734)"/>
</clipPath>
</defs>
</svg>
