<svg width="32" height="32" viewBox="0 0 32 32" fill="none" xmlns="http://www.w3.org/2000/svg">
<path d="M25.8693 6.28088C24.8531 5.24335 23.6403 4.41882 22.3017 3.85551C20.9632 3.29219 19.5258 3.0014 18.0735 3.00013C18.0593 3 18.0455 3 18.0315 3C16.5855 2.99616 15.1531 3.27934 13.8174 3.83314C12.4816 4.38694 11.2691 5.20034 10.25 6.2262L6.03761 10.4901L6.03748 10.4902L6.0373 10.4904L1.98719 14.5901C1.61699 14.9665 1.41024 15.4738 1.41184 16.0018C1.41344 16.5298 1.62326 17.0358 1.99574 17.41L5.5774 20.9917C5.76264 21.178 5.98301 21.3257 6.22573 21.4263C6.46846 21.5269 6.72873 21.5783 6.99146 21.5775H7.00343C7.26814 21.5767 7.53004 21.5231 7.77371 21.4196C8.01739 21.3162 8.23793 21.1651 8.42237 20.9752L12.4249 16.8781L12.4252 16.8779L12.4256 16.8776L16.6221 12.5819C16.9939 12.2156 17.4937 12.0083 18.0157 12.0039C18.5377 11.9995 19.0409 12.1984 19.4188 12.5583C19.606 12.7402 19.7547 12.9578 19.8562 13.1982C19.9577 13.4386 20.0098 13.6969 20.0095 13.9579C20.0121 14.2353 19.9599 14.5105 19.856 14.7678C19.7521 15.025 19.5985 15.2592 19.4039 15.457L15.1406 19.5916L15.1397 19.5924L15.1392 19.5929L11.0328 23.5752C10.8424 23.7598 10.6907 23.9805 10.5863 24.2243C10.482 24.4682 10.4272 24.7304 10.4252 24.9956C10.4231 25.2608 10.4739 25.5238 10.5744 25.7692C10.675 26.0146 10.8233 26.2376 11.0109 26.4252L14.5927 30.007C14.9662 30.3781 15.4706 30.5875 15.9971 30.5901C16.5237 30.5926 17.0301 30.3881 17.4072 30.0206L21.5269 25.9808L21.5275 25.9802L21.5278 25.9798L25.7219 21.8669C30.028 17.5608 30.0941 10.569 25.8693 6.28088ZM6.99171 19.5774L3.40992 15.9957L6.74891 12.6159L10.3119 16.1789L6.99171 19.5774ZM16.007 28.5927L12.4252 25.011L15.8361 21.7031L19.3991 25.2662L16.007 28.5927Z" fill="#74F73C"/>
</svg>
