<svg width="32" height="32" viewBox="0 0 32 32" fill="none" xmlns="http://www.w3.org/2000/svg">
<path d="M20.0002 2C18.4219 2.00115 16.8661 2.37563 15.4601 3.09287C14.0541 3.81011 12.8377 4.84976 11.9102 6.12691C10.9827 7.40406 10.3705 8.88248 10.1235 10.4414C9.87653 12.0004 10.0018 13.5956 10.4891 15.0969L3.29309 22.2928C3.10559 22.4804 3.00025 22.7348 3.00024 23V28C3.00026 28.2652 3.10562 28.5196 3.29315 28.7071C3.48069 28.8946 3.73503 29 4.00024 29H9.00024C9.26546 29 9.5198 28.8946 9.70734 28.7071C9.89487 28.5196 10.0002 28.2652 10.0002 28V26H12.0002C12.2655 26 12.5198 25.8946 12.7073 25.7071C12.8949 25.5196 13.0002 25.2652 13.0002 25V23H15.0002C15.2655 23 15.5198 22.8947 15.7074 22.7072L16.9033 21.5111C18.2782 21.9587 19.7337 22.1028 21.1697 21.9336C22.6056 21.7643 23.9878 21.2858 25.2209 20.5308C26.454 19.7759 27.5088 18.7626 28.3126 17.5607C29.1163 16.3588 29.6499 14.997 29.8766 13.569C30.1032 12.141 30.0176 10.6808 29.6255 9.28912C29.2334 7.89742 28.5443 6.60729 27.6055 5.50763C26.6667 4.40797 25.5007 3.52494 24.1877 2.91939C22.8748 2.31383 21.4461 2.00017 20.0002 2ZM22.4999 11.5C22.1044 11.5 21.7177 11.3827 21.3888 11.1629C21.0599 10.9432 20.8036 10.6308 20.6522 10.2654C20.5008 9.89991 20.4612 9.49778 20.5384 9.10982C20.6155 8.72186 20.806 8.36549 21.0857 8.08579C21.3654 7.80608 21.7218 7.6156 22.1098 7.53843C22.4977 7.46126 22.8999 7.50087 23.2653 7.65224C23.6308 7.80362 23.9431 8.05996 24.1629 8.38886C24.3826 8.71776 24.4999 9.10444 24.4999 9.5C24.4999 10.0304 24.2892 10.5391 23.9141 10.9142C23.5391 11.2893 23.0304 11.5 22.4999 11.5Z" fill="#74F73C"/>
</svg>
