<svg width="406" height="306" viewBox="0 0 406 306" fill="none" xmlns="http://www.w3.org/2000/svg">
<path d="M233.115 166.773C228.984 167.878 224.742 168.515 220.468 168.672C216.296 168.996 214.48 166.976 214.185 162.835C213.292 150.138 213.83 137.592 205.334 127.148C211.384 125.004 217.241 122.353 222.843 119.221C224.944 121.809 227.675 123.788 230.08 126.082C234.242 130.111 237.415 135.047 239.352 140.506C241.288 145.964 241.937 151.797 241.245 157.547C240.951 159.902 240.352 162.358 238.677 164.043C237.205 165.505 235.115 166.195 233.115 166.773Z" fill="#DEE5EB"/>
<path d="M219.636 169.24C218.218 169.318 216.82 168.874 215.708 167.991C214.51 166.976 213.85 165.281 213.678 162.916C213.556 161.211 213.465 159.516 213.373 157.841C212.764 146.849 212.196 136.455 204.939 127.533C204.887 127.471 204.851 127.396 204.835 127.317C204.819 127.237 204.823 127.154 204.847 127.077C204.869 127 204.909 126.929 204.964 126.871C205.018 126.812 205.086 126.768 205.162 126.742C211.187 124.607 217.021 121.965 222.6 118.845C222.704 118.789 222.825 118.771 222.941 118.793C223.057 118.815 223.163 118.876 223.239 118.967C224.653 120.612 226.208 122.131 227.888 123.504C228.73 124.245 229.603 124.996 230.435 125.788C234.644 129.874 237.854 134.874 239.816 140.401C241.779 145.929 242.442 151.834 241.753 157.659C241.479 159.831 240.91 162.561 239.033 164.449C237.439 166.063 235.125 166.763 233.267 167.332C229.22 168.425 225.063 169.058 220.874 169.219H220.509C220.255 169.24 219.91 169.24 219.636 169.24ZM206.177 127.401C213.211 136.455 213.779 146.798 214.388 157.73C214.48 159.425 214.571 161.12 214.693 162.805C214.845 164.916 215.393 166.357 216.378 167.21C216.955 167.636 217.612 167.941 218.309 168.107C219.007 168.272 219.731 168.295 220.438 168.174H220.803C224.92 168.014 229.006 167.391 232.983 166.317C234.83 165.758 236.911 165.119 238.332 163.698C239.997 162.023 240.504 159.496 240.768 157.486C241.44 151.819 240.796 146.073 238.886 140.695C236.976 135.317 233.851 130.452 229.755 126.478C228.943 125.706 228.081 124.955 227.238 124.235C225.634 122.903 224.131 121.455 222.742 119.901C217.429 122.833 211.89 125.335 206.177 127.381V127.401Z" fill="#1F2223"/>
<path d="M204.908 150.716C204.908 150.716 193.53 137.369 194.058 127.869L175.362 137.531C175.362 137.531 181.208 168.519 189.216 175.553C197.225 182.587 204.908 150.716 204.908 150.716Z" fill="#DEE5EB"/>
<path d="M191.581 177.076C190.571 177.046 189.609 176.641 188.881 175.939C180.832 168.834 175.098 138.902 174.854 137.633C174.834 137.524 174.85 137.412 174.899 137.313C174.949 137.214 175.029 137.134 175.128 137.085L193.865 127.412C193.942 127.367 194.03 127.344 194.119 127.344C194.208 127.344 194.295 127.367 194.373 127.412C194.448 127.461 194.509 127.529 194.55 127.609C194.591 127.689 194.61 127.779 194.606 127.868C194.088 137.003 205.223 150.198 205.335 150.361C205.386 150.422 205.422 150.494 205.44 150.572C205.457 150.65 205.456 150.73 205.436 150.807C205.203 151.822 199.61 174.69 192.728 176.863C192.36 176.996 191.973 177.068 191.581 177.076V177.076ZM175.93 137.775C176.62 141.287 182.233 168.702 189.551 175.127C189.906 175.505 190.358 175.777 190.859 175.911C191.359 176.046 191.887 176.038 192.383 175.888C198.361 173.99 203.721 153.315 204.35 150.807C202.919 149.092 193.662 137.612 193.53 128.67L175.93 137.775Z" fill="#1F2223"/>
<path d="M233.846 130.751C232.03 133.757 230.881 137.118 230.477 140.606C230.072 144.094 230.422 147.628 231.501 150.97C227.38 151.112 223.056 151.66 219.748 154.127C216.439 156.593 214.673 161.536 216.926 164.997C214.073 164.608 211.167 164.953 208.485 166.002C205.803 167.05 203.433 168.765 201.599 170.986C200.072 167.994 197.634 165.566 194.636 164.052C191.638 162.537 188.237 162.015 184.923 162.561C186.75 158.917 184.07 154.259 180.294 152.706C176.519 151.153 172.174 151.944 168.348 153.254C161.801 155.471 155.799 159.051 150.738 163.759C146.921 161.912 142.1 163.86 139.573 167.22C137.045 170.58 136.213 174.965 135.939 179.197C135.695 182.902 135.837 186.82 137.705 190.027C139.305 192.458 141.445 194.487 143.957 195.955C155.633 203.562 169.554 206.956 183.421 205.577C183.654 209.901 189.054 211.667 193.378 212.022C205.13 212.979 216.96 211.96 228.375 209.008C230.072 208.481 231.828 208.171 233.602 208.084C235.947 208.084 238.19 208.947 240.464 209.475C249.71 211.606 259.353 208.206 267.696 203.669C276.415 198.929 284.89 192.22 287.763 182.719C289.529 176.852 288.96 170.539 287.763 164.53C283.845 144.058 254.552 96.8907 233.846 130.751Z" fill="white"/>
<path d="M202.178 212.885C199.224 212.885 196.25 212.753 193.286 212.509C188.597 212.113 183.522 210.226 182.913 206.115C169.089 207.402 155.236 203.96 143.622 196.351C141.048 194.84 138.857 192.756 137.218 190.261C135.188 186.759 135.188 182.475 135.381 179.096C135.624 175.35 136.264 170.559 139.116 166.844C141.592 163.627 146.414 161.282 150.636 163.099C155.702 158.458 161.679 154.921 168.185 152.716C173.26 151.01 177.239 150.838 180.487 152.178C181.642 152.665 182.686 153.38 183.558 154.28C184.43 155.18 185.112 156.246 185.562 157.415C186.123 158.833 186.191 160.399 185.755 161.861C188.918 161.521 192.112 162.108 194.948 163.55C197.785 164.991 200.141 167.225 201.731 169.981C203.524 167.999 205.747 166.454 208.23 165.465C210.712 164.477 213.389 164.07 216.053 164.277C214.398 160.612 216.347 155.964 219.484 153.619C222.803 151.142 227.035 150.574 230.852 150.381C229.885 147.066 229.618 143.586 230.065 140.162C230.512 136.737 231.665 133.443 233.45 130.487V130.487C239.104 121.251 245.803 117.292 253.364 118.612C260.682 119.931 268.721 126.529 275.999 137.186C281.997 145.956 286.849 156.644 288.362 164.429C289.377 169.615 290.28 176.385 288.362 182.871C285.915 190.991 279.084 198.096 268.062 204.115C257.445 209.891 248.431 211.799 240.474 209.962C239.824 209.82 239.185 209.637 238.545 209.464C236.984 208.96 235.363 208.667 233.724 208.591V208.591C232.14 208.663 230.572 208.932 229.055 209.393L228.649 209.505C220.003 211.745 211.109 212.88 202.178 212.885V212.885ZM183.37 205.049C183.49 205.047 183.606 205.091 183.695 205.171C183.749 205.216 183.793 205.271 183.824 205.334C183.856 205.397 183.874 205.466 183.877 205.536C184.08 209.353 188.952 211.119 193.368 211.494C205.092 212.489 216.901 211.494 228.294 208.551L228.7 208.439C230.3 207.958 231.953 207.678 233.623 207.607V207.607C235.347 207.684 237.054 207.991 238.698 208.52C239.327 208.693 239.956 208.865 240.585 209.008C248.299 210.784 257.079 208.906 267.463 203.253C278.252 197.386 284.921 190.433 287.286 182.607C288.757 177.715 288.768 172.183 287.286 164.652C284.596 150.828 269.188 122.54 253.1 119.647C245.995 118.368 239.652 122.205 234.232 131.045C232.461 133.981 231.341 137.263 230.947 140.668C230.553 144.074 230.894 147.525 231.948 150.787C231.972 150.862 231.978 150.941 231.966 151.019C231.954 151.097 231.923 151.17 231.877 151.234C231.833 151.299 231.775 151.353 231.706 151.39C231.636 151.427 231.559 151.447 231.481 151.447C227.654 151.589 223.361 152.056 220.011 154.492C216.966 156.755 215.18 161.394 217.312 164.642C217.371 164.723 217.404 164.819 217.407 164.919C217.41 165.019 217.383 165.118 217.33 165.202C217.276 165.287 217.198 165.353 217.106 165.393C217.014 165.432 216.912 165.443 216.814 165.423C214.049 165.053 211.235 165.395 208.639 166.419C206.044 167.442 203.753 169.112 201.985 171.27C201.931 171.337 201.86 171.388 201.78 171.42C201.7 171.452 201.614 171.463 201.528 171.453C201.444 171.442 201.363 171.411 201.294 171.361C201.225 171.311 201.169 171.245 201.132 171.168C199.655 168.278 197.295 165.932 194.395 164.472C191.496 163.012 188.206 162.514 185.004 163.048C184.911 163.064 184.816 163.055 184.729 163.021C184.641 162.987 184.564 162.93 184.507 162.856C184.457 162.776 184.431 162.685 184.431 162.592C184.431 162.498 184.457 162.407 184.507 162.328C184.839 161.626 185.021 160.863 185.042 160.087C185.063 159.311 184.922 158.54 184.628 157.821C184.228 156.785 183.625 155.84 182.855 155.04C182.084 154.24 181.162 153.602 180.142 153.162C177.097 151.924 173.342 152.147 168.551 153.721C162.073 155.92 156.134 159.466 151.123 164.124C151.048 164.194 150.953 164.238 150.852 164.253C150.75 164.267 150.647 164.251 150.555 164.205C146.881 162.429 142.283 164.49 139.958 167.514C137.279 171.016 136.67 175.634 136.436 179.217C136.223 182.415 136.233 186.495 138.142 189.763C139.703 192.123 141.787 194.093 144.232 195.518C155.797 203.093 169.616 206.461 183.37 205.059V205.049Z" fill="#1F2223"/>
<path d="M254.044 153.051C254.044 153.051 237.429 173.493 220.052 176.984L236.15 195.884C236.15 195.884 260.246 191.702 268.234 175.137L254.044 153.051Z" fill="white"/>
<path d="M236.15 196.391C236.076 196.394 236.002 196.378 235.935 196.347C235.868 196.315 235.809 196.268 235.764 196.209L219.666 177.36C219.608 177.293 219.569 177.211 219.553 177.124C219.537 177.036 219.544 176.946 219.575 176.863C219.603 176.779 219.652 176.704 219.718 176.645C219.784 176.587 219.864 176.546 219.951 176.528C236.952 173.107 253.446 152.97 253.649 152.767C253.698 152.705 253.762 152.657 253.835 152.625C253.907 152.593 253.986 152.579 254.065 152.584C254.146 152.588 254.225 152.612 254.296 152.652C254.366 152.693 254.426 152.749 254.471 152.817L268.681 174.904C268.725 174.979 268.749 175.065 268.749 175.152C268.749 175.24 268.725 175.326 268.681 175.401C260.672 192.007 236.465 196.381 236.201 196.422L236.15 196.391ZM220.986 177.36L236.343 195.386C239.043 194.849 260.216 190.2 267.656 175.229L253.983 153.914C251.253 157.06 236.495 173.716 220.986 177.36Z" fill="#1F2223"/>
<path d="M163.689 163.932C165.536 164.947 174.702 175.198 194.139 177.127L185.004 195.529C185.004 195.529 166.227 192.89 154.28 179.167L163.689 163.932Z" fill="white"/>
<path d="M184.943 196.066H184.872C184.679 196.066 165.831 193.224 153.844 179.502C153.782 179.414 153.748 179.309 153.748 179.202C153.748 179.095 153.782 178.99 153.844 178.903L163.313 163.678C163.383 163.567 163.492 163.487 163.619 163.455C163.746 163.423 163.88 163.441 163.994 163.505C164.517 163.852 165.016 164.235 165.486 164.652C173.556 171.554 183.588 175.75 194.17 176.649C194.252 176.659 194.33 176.688 194.399 176.734C194.468 176.78 194.525 176.841 194.565 176.913C194.605 176.985 194.626 177.065 194.626 177.147C194.626 177.229 194.605 177.309 194.565 177.38L185.43 195.782C185.385 195.872 185.315 195.946 185.229 195.996C185.142 196.047 185.043 196.071 184.943 196.066V196.066ZM154.859 179.106C165.689 191.286 182.04 194.544 184.659 195.001L193.347 177.583C182.803 176.546 172.833 172.294 164.785 165.403L163.841 164.632L154.859 179.106Z" fill="#1F2223"/>
<path d="M235.176 180.902C230.71 185.815 232.019 198.949 232.019 198.949L236.282 203.537C237.833 204.996 239.659 206.132 241.654 206.878C243.648 207.623 245.772 207.964 247.9 207.88C250.028 207.795 252.117 207.288 254.047 206.387C255.977 205.485 257.707 204.209 259.138 202.631C260.568 201.054 261.67 199.207 262.379 197.199C263.087 195.19 263.389 193.061 263.265 190.935C263.141 188.809 262.595 186.729 261.659 184.817C260.722 182.904 259.414 181.197 257.81 179.796L252.826 176C252.826 176 239.631 175.98 235.176 180.902Z" fill="#1F2223"/>
<path d="M247.031 208.206C242.927 208.214 238.97 206.686 235.937 203.922L231.643 199.294C231.571 199.211 231.525 199.108 231.511 198.999C231.461 198.451 230.232 185.581 234.8 180.557C239.347 175.482 252.228 175.482 252.826 175.482C252.936 175.485 253.042 175.52 253.131 175.583L258.125 179.38C260.552 181.575 262.274 184.44 263.073 187.614C263.871 190.788 263.711 194.127 262.611 197.21C261.512 200.292 259.522 202.979 256.895 204.931C254.268 206.883 251.122 208.012 247.853 208.175L247.031 208.206ZM232.506 198.725L236.647 203.202C239.717 205.858 243.705 207.206 247.757 206.958C251.809 206.709 255.603 204.884 258.326 201.874C261.049 198.863 262.484 194.905 262.325 190.849C262.166 186.793 260.425 182.96 257.475 180.171L252.654 176.507C251.121 176.507 239.54 176.842 235.551 181.237C231.552 185.642 232.435 197.193 232.506 198.725V198.725Z" fill="#1F2223"/>
<path d="M244.026 204.958C252.878 204.958 260.053 197.783 260.053 188.931C260.053 180.08 252.878 172.904 244.026 172.904C235.175 172.904 228 180.08 228 188.931C228 197.783 235.175 204.958 244.026 204.958Z" fill="white"/>
<path d="M244.016 205.475C239.663 205.367 235.527 203.548 232.505 200.412C229.484 197.275 227.82 193.075 227.874 188.72C227.928 184.366 229.696 180.208 232.794 177.147C235.893 174.087 240.072 172.371 244.427 172.371C248.782 172.371 252.962 174.087 256.06 177.147C259.159 180.208 260.927 184.366 260.981 188.72C261.035 193.075 259.371 197.275 256.349 200.412C253.328 203.548 249.192 205.367 244.838 205.475H244.016ZM244.016 173.411C243.762 173.411 243.498 173.411 243.245 173.411C239.182 173.513 235.323 175.211 232.504 178.138C229.685 181.065 228.133 184.984 228.183 189.048C228.234 193.111 229.884 196.991 232.775 199.847C235.667 202.702 239.567 204.303 243.63 204.303C247.694 204.303 251.594 202.702 254.486 199.847C257.377 196.991 259.027 193.111 259.078 189.048C259.128 184.984 257.576 181.065 254.757 178.138C251.937 175.211 248.079 173.513 244.016 173.411V173.411Z" fill="#1F2223"/>
<path d="M188.09 162.429L188.272 168.519C188.272 172.579 195.885 175.949 205.365 176.051C214.845 176.152 222.559 172.934 222.62 168.874L222.437 162.784L188.09 162.429Z" fill="white"/>
<path d="M205.801 176.528H205.355C201.139 176.559 196.957 175.77 193.043 174.204C189.622 172.691 187.745 170.661 187.775 168.479L187.582 162.44C187.579 162.372 187.59 162.305 187.615 162.242C187.639 162.179 187.677 162.122 187.724 162.074C187.771 162.025 187.828 161.986 187.891 161.959C187.954 161.933 188.021 161.92 188.09 161.922L222.417 162.277C222.548 162.277 222.674 162.328 222.769 162.419C222.863 162.509 222.919 162.633 222.924 162.764L223.107 168.854C223.067 173.189 215.495 176.528 205.801 176.528ZM188.607 162.937L188.79 168.469C188.79 170.215 190.465 171.96 193.459 173.27C197.243 174.789 201.288 175.551 205.365 175.513C214.419 175.625 222.062 172.549 222.092 168.834L221.92 163.282L188.607 162.937Z" fill="#1F2223"/>
<path d="M222.4 162.761C222.442 158.697 214.791 155.324 205.313 155.226C195.834 155.129 188.116 158.344 188.074 162.408C188.032 166.472 195.682 169.845 205.161 169.943C214.64 170.04 222.358 166.825 222.4 162.761Z" fill="#1F2223"/>
<path d="M205.598 170.468H205.172C195.266 170.357 187.531 166.824 187.582 162.419C187.633 158.014 195.418 154.634 205.335 154.746C209.55 154.707 213.733 155.493 217.646 157.06C221.067 158.572 222.945 160.602 222.924 162.785C222.904 164.967 220.986 166.956 217.525 168.398C213.718 169.843 209.67 170.545 205.598 170.468V170.468ZM204.918 155.751C196.068 155.751 188.678 158.796 188.597 162.429C188.516 166.063 196.149 169.352 205.182 169.453C209.262 169.566 213.325 168.876 217.139 167.423C220.184 166.165 221.889 164.459 221.909 162.734C221.909 161.008 220.225 159.273 217.24 157.953C213.454 156.434 209.404 155.675 205.324 155.72L204.918 155.751Z" fill="#1F2223"/>
<path d="M164.105 193.793L162.502 199.883C161.263 203.943 167.932 209.566 177.392 212.459C186.851 215.352 195.54 214.418 196.778 210.358L198.372 204.268L164.105 193.793Z" fill="#1F2223"/>
<path d="M187.775 214.691C184.208 214.636 180.669 214.058 177.27 212.976C167.384 209.931 160.695 204.156 162.045 199.781L163.628 193.691C163.67 193.561 163.756 193.449 163.872 193.376C163.934 193.349 164.002 193.334 164.07 193.334C164.138 193.334 164.205 193.349 164.268 193.376L198.524 203.75C198.647 203.79 198.75 203.875 198.812 203.988C198.874 204.101 198.891 204.234 198.859 204.359L197.265 210.449C196.433 213.24 192.769 214.691 187.775 214.691ZM164.481 194.391L163.019 200.004C161.872 203.74 168.541 209.21 177.564 211.971C186.588 214.732 195.174 213.92 196.311 210.205L197.783 204.572L164.481 194.391Z" fill="#1F2223"/>
<path d="M198.37 204.265C199.609 200.212 192.944 194.582 183.482 191.689C174.02 188.796 165.346 189.737 164.107 193.789C162.867 197.842 169.533 203.472 178.995 206.365C188.457 209.258 197.131 208.318 198.37 204.265Z" fill="white"/>
<path d="M189.358 208.571C185.789 208.514 182.246 207.936 178.843 206.856C168.967 203.811 162.278 198.025 163.618 193.661C164.958 189.296 173.768 188.2 183.634 191.225C193.5 194.25 200.199 200.045 198.859 204.42C198.027 207.12 194.362 208.571 189.358 208.571ZM173.118 190.535C168.602 190.535 165.262 191.712 164.582 193.935C163.445 197.65 170.104 203.07 179.127 205.882C188.151 208.693 196.748 207.81 197.925 204.115C199.062 200.401 192.403 194.93 183.37 192.169C180.053 191.136 176.603 190.592 173.129 190.555L173.118 190.535Z" fill="#1F2223"/>
<path d="M333.367 173.99L336.097 180.365L276.719 168.672L293.02 148.433L341.619 163.719L333.367 173.99Z" fill="#1F2223"/>
<path d="M336.097 180.872H335.965L276.577 169.179C276.493 169.16 276.414 169.12 276.349 169.064C276.283 169.007 276.233 168.935 276.202 168.854C276.172 168.771 276.164 168.682 276.178 168.595C276.192 168.508 276.228 168.426 276.283 168.357L292.584 148.128C292.648 148.049 292.735 147.991 292.833 147.962C292.931 147.933 293.035 147.934 293.132 147.966L341.73 163.241C341.81 163.268 341.882 163.313 341.94 163.373C341.999 163.433 342.041 163.506 342.065 163.586C342.086 163.665 342.088 163.746 342.073 163.825C342.057 163.905 342.023 163.979 341.974 164.043L333.935 174.061L336.554 180.151C336.59 180.236 336.602 180.329 336.59 180.42C336.577 180.511 336.54 180.597 336.483 180.669C336.437 180.729 336.379 180.778 336.312 180.813C336.246 180.848 336.172 180.868 336.097 180.872V180.872ZM277.643 168.327L335.254 179.684L332.92 174.183C332.886 174.098 332.875 174.006 332.887 173.915C332.899 173.824 332.935 173.738 332.991 173.665L340.786 163.982L293.223 149.021L277.643 168.327Z" fill="#1F2223"/>
<path d="M236.495 88.8925C236.495 88.8925 227.746 62.5837 236.292 53.063C250.066 55.4685 266.478 83.1679 266.478 83.1679C266.478 83.1679 260.195 102.362 236.495 88.8925Z" fill="#1F2223"/>
<path d="M251.639 94.201C247.112 94.201 241.966 92.577 236.282 89.3391C236.171 89.2777 236.087 89.176 236.048 89.0549C235.683 87.9689 227.299 62.3503 235.947 52.7179C236.005 52.657 236.077 52.6106 236.156 52.5824C236.235 52.5541 236.32 52.545 236.404 52.5555C250.258 54.9814 266.275 81.7672 266.945 82.904C266.985 82.9646 267.011 83.0338 267.02 83.1061C267.029 83.1783 267.02 83.2516 266.996 83.3202C266.185 85.5136 264.93 87.5159 263.309 89.2015C261.688 90.887 259.737 92.2193 257.577 93.1149C255.682 93.8411 253.668 94.2094 251.639 94.201V94.201ZM236.952 88.5576C244.95 93.0642 251.761 94.2923 257.252 92.1913C259.222 91.3468 261.004 90.1185 262.494 88.578C263.984 87.0375 265.152 85.2156 265.93 83.2187C264.408 80.7116 249.203 56.1486 236.495 53.6111C228.933 62.5736 236.211 86.2231 236.952 88.5576V88.5576Z" fill="#1F2223"/>
<path d="M210.744 96.911C210.744 96.911 237.185 79.2703 262.509 74.7434C287.834 70.2165 304.5 90.6281 319.238 88.2327L337.731 124.286C331.309 130.212 327.21 138.233 326.17 146.91C324.627 161.12 304.977 190.646 268.061 206.48L265.138 190.555L249.558 183.714L255.709 165.86L237.439 159.212L243.529 145.58L218.834 141.52L234.465 120.52L210.379 109.355L210.744 96.911Z" fill="#87FF53"/>
<path d="M268.062 206.957C267.98 206.958 267.899 206.937 267.828 206.896C267.76 206.862 267.7 206.811 267.654 206.75C267.609 206.688 267.578 206.617 267.564 206.541L264.692 190.941L249.355 184.201C249.237 184.151 249.143 184.058 249.092 183.941C249.041 183.824 249.037 183.692 249.081 183.572L255.07 166.195L237.317 159.719C237.251 159.697 237.191 159.661 237.14 159.614C237.09 159.567 237.05 159.509 237.023 159.445C236.972 159.315 236.972 159.17 237.023 159.039L242.798 146.007L218.753 142.007C218.668 141.994 218.587 141.96 218.52 141.906C218.452 141.853 218.4 141.783 218.367 141.703C218.336 141.621 218.326 141.533 218.336 141.447C218.347 141.36 218.378 141.277 218.428 141.206L233.704 120.743L210.166 109.781C210.075 109.739 209.999 109.672 209.947 109.587C209.895 109.502 209.868 109.404 209.872 109.304L210.227 96.911C210.231 96.8298 210.254 96.7507 210.295 96.6801C210.336 96.6096 210.392 96.5496 210.46 96.505C210.724 96.3223 237.287 78.7425 262.408 74.2562C277.014 71.6477 288.615 77.1591 298.857 82.0311C306.439 85.6344 312.985 88.7403 319.157 87.7456C319.271 87.7199 319.391 87.7353 319.494 87.7892C319.598 87.843 319.68 87.9318 319.725 88.0399L338.218 124.093C338.274 124.196 338.292 124.314 338.269 124.429C338.247 124.544 338.186 124.647 338.097 124.722C331.8 130.546 327.757 138.402 326.678 146.91C325.074 161.678 305.363 190.961 268.265 206.896C268.203 206.932 268.133 206.953 268.062 206.957V206.957ZM250.187 183.45L265.351 190.108C265.427 190.14 265.493 190.19 265.544 190.254C265.596 190.318 265.631 190.393 265.646 190.474L268.447 205.699C291.021 195.813 323.146 170.103 325.673 146.829C326.744 138.181 330.783 130.174 337.102 124.174L318.954 88.791C312.62 89.6639 306.002 86.5377 298.41 82.9649C288.311 78.164 276.862 72.7236 262.581 75.2712C238.86 79.5139 213.861 95.5712 211.232 97.2257L210.887 109.02L234.688 120.104C234.756 120.136 234.815 120.183 234.863 120.241C234.91 120.298 234.944 120.366 234.962 120.439C234.983 120.511 234.986 120.587 234.972 120.661C234.958 120.735 234.927 120.805 234.881 120.865L219.737 141.165L243.6 145.103C243.676 145.116 243.748 145.146 243.811 145.19C243.874 145.234 243.927 145.291 243.965 145.357C244 145.426 244.018 145.503 244.018 145.58C244.018 145.658 244 145.734 243.965 145.804L238.16 158.999L255.871 165.454C255.995 165.5 256.097 165.592 256.154 165.712C256.211 165.831 256.218 165.968 256.176 166.093L250.187 183.45Z" fill="#1F2223"/>
<path d="M329.652 126.61C330.25 127.671 331.083 128.581 332.088 129.269C334.209 130.487 336.868 129.584 339.132 128.67C340.185 128.334 341.137 127.741 341.903 126.945C343.161 125.402 342.786 123.139 342.288 121.21C340.258 113.598 330.037 81.5643 318.609 85.0457C305.779 88.9027 325.663 120.52 329.652 126.61Z" fill="#87FF53"/>
<path d="M334.432 130.315C333.523 130.332 332.625 130.104 331.834 129.655C330.756 128.938 329.865 127.974 329.235 126.843C326.13 122.134 310.844 98.1493 314.376 88.3444C314.69 87.4231 315.224 86.5922 315.931 85.9237C316.639 85.2551 317.498 84.7691 318.436 84.5077C319.37 84.2403 320.349 84.1699 321.312 84.3009C322.275 84.4319 323.2 84.7616 324.029 85.2689C334.706 91.2473 342.664 120.733 342.745 121.027C343.293 123.128 343.669 125.504 342.268 127.219C341.446 128.082 340.42 128.724 339.284 129.086C337.757 129.793 336.112 130.21 334.432 130.315V130.315ZM320.344 85.2486C319.807 85.245 319.273 85.3238 318.761 85.4821C317.967 85.6894 317.238 86.0913 316.639 86.6513C316.04 87.2113 315.59 87.9118 315.33 88.6895C311.889 98.2406 328.21 123.443 330.078 126.244C330.632 127.239 331.406 128.093 332.341 128.741C334.27 129.848 336.757 128.995 338.939 128.102C339.913 127.8 340.799 127.263 341.517 126.539C342.623 125.169 342.278 123.098 341.791 121.251C339.812 113.669 332.22 90.9529 323.521 86.1215C322.554 85.5649 321.46 85.2645 320.344 85.2486Z" fill="#1F2223"/>
<path d="M250.137 95.0536C250.137 95.0536 250.015 58.2192 254.593 53.5908C262.104 53.8141 267.879 61.995 273.36 71.6781C278.841 81.3612 279.216 85.8881 279.216 85.8881" fill="#87FF53"/>
<path d="M250.137 95.5612C250.002 95.5612 249.873 95.5077 249.778 95.4125C249.683 95.3173 249.629 95.1883 249.629 95.0537C249.629 93.5413 249.558 57.9554 254.237 53.2357C254.286 53.1859 254.344 53.1466 254.409 53.1204C254.474 53.0942 254.543 53.0816 254.613 53.0834C262.479 53.3169 268.488 62.0357 273.806 71.4245C279.277 81.0974 279.704 85.6345 279.714 85.8375C279.719 85.9041 279.711 85.9712 279.691 86.0348C279.67 86.0984 279.637 86.1573 279.594 86.2082C279.55 86.2591 279.497 86.301 279.438 86.3314C279.378 86.3618 279.313 86.3802 279.247 86.3856C279.18 86.3909 279.113 86.383 279.05 86.3625C278.986 86.3419 278.927 86.309 278.876 86.2656C278.825 86.2223 278.783 86.1693 278.753 86.1098C278.722 86.0503 278.704 85.9853 278.699 85.9187C278.699 85.9187 278.252 81.3613 272.913 71.932C267.838 62.8883 262.063 54.4943 254.806 54.1086C251.415 58.1686 250.593 82.5286 250.634 95.0537C250.634 95.1883 250.58 95.3173 250.485 95.4125C250.39 95.5077 250.261 95.5612 250.126 95.5612H250.137Z" fill="#1F2223"/>
<path d="M256.795 88.4865C256.795 88.4865 255.587 59.1327 257.648 59.3864C259.708 59.6402 270.67 76.6414 270.904 81.5642C271.137 86.4869 262.053 90.1409 256.795 88.4865Z" fill="#1F2223"/>
<path d="M259.688 89.3898C258.657 89.4064 257.631 89.2661 256.643 88.9736C256.544 88.9397 256.457 88.8772 256.394 88.7941C256.331 88.711 256.294 88.611 256.287 88.5067C256.095 83.8986 255.272 60.7972 257.099 59.0717C257.182 58.9978 257.278 58.9416 257.383 58.9066C257.488 58.8717 257.598 58.8588 257.708 58.8687C260.429 59.1935 271.198 76.9865 271.411 81.5337C271.492 83.2795 270.548 84.9644 268.67 86.4158C266.055 88.3114 262.917 89.3503 259.688 89.3898V89.3898ZM257.333 88.1007C260.469 88.9127 265.199 87.847 268.082 85.6241C269.208 84.7614 270.518 83.3607 270.437 81.5641C270.203 76.7226 259.84 61.0104 257.81 59.9345C256.795 61.6498 256.795 75.3117 257.333 88.1007Z" fill="#1F2223"/>
<path d="M296.248 103.671C296.111 103.67 295.98 103.616 295.883 103.519C295.789 103.422 295.737 103.293 295.737 103.158C295.737 103.024 295.789 102.895 295.883 102.798L304.135 94.8708C304.181 94.8189 304.238 94.7771 304.302 94.7482C304.365 94.7193 304.434 94.7038 304.504 94.7027C304.574 94.7016 304.643 94.7149 304.707 94.7418C304.772 94.7687 304.83 94.8086 304.878 94.859C304.927 94.9094 304.964 94.9692 304.988 95.0347C305.012 95.1003 305.023 95.1701 305.019 95.2398C305.015 95.3094 304.996 95.3776 304.965 95.4398C304.933 95.5021 304.889 95.5571 304.835 95.6016L296.593 103.529C296.499 103.617 296.377 103.667 296.248 103.671V103.671Z" fill="#1F2223"/>
<path d="M305.261 103.935C305.13 103.932 305.003 103.881 304.906 103.793L296.136 95.3681C296.051 95.2729 296.004 95.1488 296.006 95.0207C296.008 94.8926 296.059 94.7701 296.147 94.6776C296.236 94.5851 296.356 94.5296 296.484 94.5221C296.612 94.5146 296.738 94.5558 296.837 94.6373L305.616 103.062C305.664 103.108 305.701 103.163 305.727 103.224C305.753 103.285 305.766 103.351 305.766 103.417C305.766 103.483 305.753 103.549 305.727 103.61C305.701 103.671 305.664 103.726 305.616 103.772C305.572 103.822 305.517 103.863 305.456 103.891C305.395 103.919 305.328 103.934 305.261 103.935V103.935Z" fill="#1F2223"/>
<path d="M294.37 167.738L329.327 189.053L318.314 206.095L273.827 185.013" fill="#87FF53"/>
<path d="M318.314 206.612C318.24 206.626 318.165 206.626 318.091 206.612L273.603 185.48C273.543 185.451 273.49 185.41 273.445 185.36C273.401 185.31 273.367 185.251 273.345 185.188C273.324 185.125 273.315 185.058 273.319 184.992C273.323 184.925 273.341 184.86 273.37 184.8C273.398 184.74 273.438 184.687 273.487 184.642C273.536 184.598 273.594 184.564 273.656 184.543C273.718 184.521 273.784 184.512 273.85 184.516C273.916 184.52 273.981 184.537 274.04 184.566L318.131 205.465L328.627 189.225L294.117 168.184C294.001 168.114 293.918 168.001 293.885 167.87C293.853 167.738 293.874 167.6 293.944 167.484C294.014 167.368 294.127 167.285 294.258 167.253C294.39 167.22 294.529 167.241 294.644 167.311L329.601 188.626C329.661 188.661 329.712 188.708 329.753 188.764C329.793 188.82 329.821 188.884 329.834 188.951C329.851 189.017 329.853 189.085 329.84 189.152C329.828 189.218 329.802 189.281 329.763 189.337L318.71 206.379C318.665 206.444 318.607 206.499 318.538 206.54C318.47 206.58 318.393 206.605 318.314 206.612V206.612Z" fill="#1F2223"/>
<path d="M315.158 150.848C315.088 151.322 315.119 151.806 315.248 152.268C315.378 152.729 315.603 153.159 315.909 153.528C316.301 153.808 316.771 153.959 317.254 153.959C317.736 153.959 318.206 153.808 318.598 153.528C319.382 152.965 320.007 152.21 320.415 151.335C321.826 148.706 325.582 139.155 320.547 138.14C315.665 137.146 315.188 147.925 315.158 150.848Z" fill="#1F2223"/>
<path d="M317.198 154.492C316.602 154.507 316.022 154.297 315.574 153.903C315.209 153.493 314.938 153.008 314.778 152.482C314.619 151.956 314.575 151.403 314.65 150.858V150.858C314.65 147.813 315.086 140.607 317.939 138.333C318.311 138.022 318.751 137.803 319.223 137.692C319.695 137.581 320.187 137.581 320.659 137.694C321.195 137.79 321.699 138.016 322.127 138.352C322.555 138.688 322.895 139.125 323.115 139.622C324.739 143.104 321.745 149.986 320.862 151.64C320.401 152.599 319.702 153.424 318.832 154.035C318.337 154.33 317.773 154.487 317.198 154.492V154.492ZM315.665 150.848C315.605 151.251 315.626 151.661 315.727 152.055C315.828 152.449 316.007 152.819 316.254 153.142C316.56 153.353 316.923 153.465 317.294 153.465C317.666 153.465 318.028 153.353 318.334 153.142C319.038 152.613 319.597 151.915 319.958 151.112C321.207 148.798 323.501 142.789 322.202 139.998C322.045 139.643 321.802 139.333 321.496 139.096C321.189 138.858 320.828 138.701 320.446 138.638C320.121 138.556 319.781 138.553 319.454 138.629C319.128 138.705 318.824 138.858 318.568 139.074C316.538 140.719 315.726 146.179 315.665 150.818V150.848Z" fill="#1F2223"/>
<path d="M329.327 189.053L318.314 206.095L328.677 211.454L329.307 200.867L339.274 195.975L329.327 189.053Z" fill="#1F2223"/>
<path d="M328.677 211.961C328.597 211.96 328.517 211.943 328.444 211.91L318.081 206.551C318.016 206.52 317.959 206.475 317.913 206.42C317.868 206.364 317.834 206.3 317.816 206.23C317.798 206.161 317.795 206.088 317.807 206.018C317.819 205.947 317.847 205.88 317.888 205.82L328.86 188.779C328.898 188.722 328.947 188.673 329.003 188.635C329.06 188.597 329.124 188.571 329.191 188.558C329.258 188.544 329.327 188.545 329.394 188.558C329.461 188.572 329.524 188.598 329.581 188.637L339.528 195.559C339.598 195.612 339.654 195.681 339.691 195.761C339.728 195.84 339.745 195.928 339.741 196.016C339.735 196.104 339.705 196.189 339.655 196.262C339.605 196.335 339.537 196.394 339.457 196.432L329.753 201.192L329.144 211.484C329.139 211.569 329.114 211.651 329.069 211.724C329.025 211.797 328.964 211.857 328.89 211.9C328.824 211.935 328.752 211.956 328.677 211.961ZM319.045 205.871L328.18 210.621L328.759 200.796C328.768 200.709 328.799 200.625 328.849 200.553C328.898 200.48 328.965 200.421 329.043 200.38L338.239 195.873L329.428 189.733L319.045 205.871Z" fill="#1F2223"/>
<path d="M115.091 142.749L75.6784 172.255L66.1069 178.923L75.181 184.424L74.8461 195.518L85.6152 189.956L120.785 168.986L115.091 142.749Z" fill="#1F2223"/>
<path d="M74.8461 196.026C74.7491 196.024 74.6544 195.996 74.572 195.945C74.4976 195.897 74.4369 195.831 74.396 195.752C74.355 195.674 74.3352 195.586 74.3386 195.498L74.6634 184.708L65.843 179.39C65.7739 179.342 65.7175 179.279 65.6784 179.204C65.6394 179.13 65.619 179.047 65.619 178.964C65.619 178.88 65.6394 178.797 65.6784 178.723C65.7175 178.649 65.7739 178.585 65.843 178.537L75.4145 171.869L114.817 142.373C114.886 142.322 114.967 142.289 115.052 142.277C115.136 142.265 115.223 142.273 115.304 142.302C115.381 142.334 115.45 142.384 115.505 142.447C115.559 142.511 115.598 142.586 115.619 142.667L121.303 168.905C121.327 169.008 121.318 169.116 121.276 169.213C121.234 169.31 121.161 169.391 121.069 169.443L85.8791 190.392L75.11 195.965C75.03 196.011 74.9381 196.032 74.8461 196.026ZM66.99 178.893L75.4043 183.968C75.4799 184.015 75.5421 184.081 75.5848 184.159C75.6274 184.237 75.6492 184.325 75.6479 184.414L75.3434 194.655L85.3412 189.479L120.166 168.712L114.725 143.611L75.9423 172.64L66.99 178.893Z" fill="#1F2223"/>
<path d="M184.852 94.7287C184.852 94.7287 142.709 73.7588 112.036 96.3426C85.0165 116.237 77.6476 154.776 91.3399 183.633C105.032 212.489 175.737 214.864 175.737 214.864L169.556 203.384L185.674 183.45L163.953 167.991L185.329 160.683L169.089 141.733L177.209 130.173L165.912 118.196L177.96 113.121L170.287 101.113L184.852 94.7287Z" fill="#87FF53"/>
<path d="M175.737 215.351C163.247 214.726 150.825 213.118 138.588 210.54C112.695 204.927 96.6585 195.934 90.8831 183.826C84.0312 169.042 82.2887 152.399 85.9299 136.516C89.6347 119.86 98.8001 105.457 111.731 95.9164C142.313 73.4037 184.649 94.0386 185.075 94.2518C185.16 94.2971 185.231 94.3643 185.281 94.4465C185.331 94.5286 185.358 94.6226 185.359 94.7187C185.353 94.8149 185.322 94.9077 185.268 94.9879C185.215 95.0681 185.141 95.1328 185.055 95.1754L171.028 101.347L178.376 112.847C178.414 112.909 178.438 112.98 178.447 113.053C178.456 113.126 178.449 113.2 178.427 113.27C178.405 113.34 178.368 113.404 178.319 113.459C178.27 113.514 178.21 113.558 178.143 113.588L166.775 118.338L177.625 129.787C177.698 129.877 177.738 129.99 177.738 130.107C177.738 130.223 177.698 130.336 177.625 130.426L169.749 141.662L185.745 160.308C185.802 160.369 185.842 160.444 185.863 160.525C185.883 160.607 185.883 160.692 185.861 160.773C185.84 160.854 185.799 160.928 185.741 160.989C185.684 161.049 185.612 161.094 185.532 161.12L165.08 168.113L185.999 182.993C186.054 183.034 186.1 183.086 186.135 183.145C186.17 183.204 186.193 183.269 186.203 183.337C186.212 183.405 186.208 183.475 186.19 183.541C186.173 183.607 186.142 183.67 186.1 183.724L170.195 203.415L176.214 214.58C176.259 214.657 176.282 214.745 176.282 214.834C176.282 214.923 176.259 215.01 176.214 215.088C176.166 215.171 176.096 215.239 176.012 215.286C175.928 215.332 175.833 215.355 175.737 215.351V215.351ZM146.089 86.4464C134.924 86.4464 122.906 88.9738 112.34 96.7588C86.7115 115.628 77.6881 153.69 91.7966 183.399C104.383 209.901 166.663 213.849 174.864 214.306L169.109 203.608C169.057 203.524 169.029 203.427 169.029 203.329C169.029 203.23 169.057 203.133 169.109 203.05L184.892 183.521L163.577 168.377C163.499 168.325 163.438 168.251 163.4 168.165C163.363 168.078 163.35 167.983 163.364 167.89C163.38 167.798 163.419 167.711 163.478 167.638C163.536 167.566 163.613 167.509 163.699 167.474L184.385 160.369L168.632 141.997C168.564 141.909 168.527 141.8 168.527 141.688C168.527 141.576 168.564 141.467 168.632 141.378L176.498 130.152L165.526 118.49C165.47 118.43 165.429 118.357 165.408 118.277C165.386 118.197 165.385 118.113 165.404 118.033C165.419 117.954 165.454 117.88 165.506 117.818C165.557 117.756 165.624 117.707 165.699 117.678L177.199 112.877L169.85 101.377C169.81 101.316 169.784 101.248 169.774 101.176C169.763 101.104 169.768 101.031 169.789 100.961C169.812 100.891 169.849 100.827 169.898 100.773C169.947 100.719 170.007 100.676 170.073 100.646L183.614 94.6984C179.574 92.9018 163.933 86.4363 146.089 86.4363V86.4464Z" fill="#1F2223"/>
<path d="M77.7287 126.813C77.0402 126.806 76.3609 126.654 75.7349 126.367C75.1089 126.08 74.5502 125.665 74.095 125.148C73.3797 124.231 72.9423 123.128 72.8343 121.969C72.7264 120.811 72.9526 119.646 73.486 118.612C73.8114 117.961 74.2322 117.362 74.7345 116.836C72.305 116.462 69.8196 116.775 67.5584 117.739C66.5434 118.186 64.0973 119.464 63.7928 121.799C63.7853 121.865 63.7645 121.93 63.7317 121.988C63.6988 122.046 63.6545 122.097 63.6014 122.138C63.5483 122.179 63.4876 122.208 63.4228 122.225C63.358 122.242 63.2905 122.245 63.2244 122.235C63.0912 122.218 62.9705 122.148 62.8887 122.041C62.8069 121.935 62.7706 121.8 62.7879 121.667C63.1635 118.866 65.975 117.363 67.1626 116.856C69.7691 115.74 72.65 115.428 75.4348 115.963H75.6784C76.5271 115.304 77.4765 114.786 78.49 114.43C85.0063 112.146 91.8068 116.186 95.3796 120.906C95.4589 121.013 95.4937 121.147 95.4766 121.279C95.4596 121.412 95.3921 121.532 95.2882 121.616C95.178 121.695 95.0417 121.728 94.9076 121.71C94.7735 121.691 94.6517 121.621 94.5676 121.515C91.2181 117.079 84.8642 113.273 78.8249 115.425C78.1439 115.666 77.4932 115.987 76.8863 116.379C78.5872 116.897 80.0661 117.969 81.0884 119.424C82.2962 121.291 82.3977 124.316 80.4489 125.94C79.6724 126.541 78.7097 126.85 77.7287 126.813V126.813ZM75.8814 117.079C75.2443 117.653 74.7209 118.342 74.3386 119.109C73.8954 119.965 73.7049 120.929 73.7894 121.889C73.8739 122.848 74.2298 123.764 74.8157 124.529C75.4205 125.231 76.2651 125.682 77.1847 125.795C78.1043 125.908 79.0329 125.673 79.7892 125.138C81.2711 123.9 81.2203 121.454 80.2358 119.952C79.1818 118.497 77.6338 117.476 75.8814 117.079V117.079Z" fill="#1F2223"/>
<path d="M129.504 191.621L95.9581 215.098L84.7627 198.167L121.922 165.87" fill="#87FF53"/>
<path d="M95.9581 215.605H95.8667C95.8006 215.595 95.7376 215.57 95.6816 215.533C95.6257 215.497 95.5781 215.448 95.5419 215.392L84.3769 198.452C84.3079 198.35 84.279 198.226 84.2958 198.104C84.3127 197.983 84.3741 197.871 84.4683 197.792L121.627 165.495C121.678 165.451 121.737 165.417 121.801 165.396C121.864 165.375 121.931 165.366 121.998 165.371C122.065 165.376 122.13 165.393 122.191 165.423C122.251 165.453 122.304 165.495 122.348 165.546C122.392 165.596 122.426 165.655 122.447 165.719C122.468 165.782 122.477 165.849 122.472 165.916C122.467 165.983 122.449 166.049 122.419 166.109C122.389 166.169 122.348 166.222 122.297 166.266L85.4325 198.259L96.1002 214.387L129.209 191.205C129.264 191.166 129.326 191.138 129.391 191.123C129.456 191.108 129.524 191.106 129.59 191.118C129.656 191.129 129.719 191.153 129.776 191.189C129.833 191.225 129.881 191.272 129.92 191.327C129.996 191.438 130.026 191.574 130.003 191.706C129.98 191.839 129.907 191.958 129.798 192.037L96.3032 215.514C96.2038 215.587 96.0805 215.62 95.9581 215.605V215.605Z" fill="#1F2223"/>
<path d="M95.9581 215.098L84.7627 198.167L75.6987 205.516L85.1484 210.337L85.6254 221.431L95.9581 215.098Z" fill="#1F2223"/>
<path d="M85.6255 221.939C85.5406 221.938 85.4571 221.917 85.3819 221.878C85.3054 221.835 85.241 221.773 85.1949 221.699C85.1487 221.624 85.1222 221.539 85.118 221.451L84.6511 210.662L75.4653 205.962C75.3899 205.925 75.3251 205.869 75.2772 205.8C75.2293 205.731 75.1997 205.65 75.1913 205.567C75.1823 205.483 75.1942 205.398 75.2261 205.32C75.258 205.242 75.3088 205.173 75.374 205.12L84.4481 197.771C84.5022 197.725 84.5655 197.692 84.6338 197.672C84.7021 197.653 84.7737 197.648 84.8439 197.659C84.9141 197.669 84.9812 197.695 85.0407 197.734C85.1003 197.772 85.1508 197.823 85.189 197.883L96.4251 214.813C96.4633 214.871 96.4893 214.936 96.5015 215.004C96.5137 215.072 96.5119 215.142 96.4961 215.209C96.4629 215.343 96.3793 215.46 96.2627 215.534L85.93 221.857C85.8397 221.916 85.733 221.944 85.6255 221.939V221.939ZM76.6224 205.414L85.3819 209.891C85.4616 209.93 85.529 209.991 85.5773 210.066C85.6255 210.141 85.6526 210.228 85.6559 210.317L86.0924 220.548L95.2274 214.935L84.6511 198.908L76.6224 205.414Z" fill="#1F2223"/>
<path d="M228.203 208.53C229.451 206.328 214.064 196.909 214.064 196.909C214.064 196.909 195.794 220.426 177.666 225.948L194.21 242.624C194.21 242.624 216.642 229.125 228.203 208.53Z" fill="white"/>
<path d="M194.21 243.132C194.078 243.131 193.951 243.08 193.855 242.99L177.31 226.303C177.25 226.242 177.205 226.166 177.182 226.082C177.159 225.998 177.158 225.91 177.178 225.826C177.199 225.741 177.242 225.662 177.303 225.598C177.363 225.534 177.439 225.487 177.524 225.461C195.286 220.051 213.485 196.828 213.668 196.594C213.746 196.496 213.857 196.43 213.98 196.408C214.103 196.385 214.23 196.408 214.338 196.473C228.548 205.212 229.096 207.993 228.649 208.784C217.149 229.237 194.707 242.929 194.474 243.061C194.395 243.109 194.303 243.134 194.21 243.132V243.132ZM178.64 226.182L194.312 241.985C197.154 240.199 217.19 227.136 227.807 208.287C228.213 207.566 223.605 203.354 214.226 197.579C211.831 200.512 195.195 220.65 178.64 226.182Z" fill="#1F2223"/>
<path d="M259.302 215.27L243.143 219.381L242.95 226.009L266.58 231.957L259.302 215.27Z" fill="#87FF53"/>
<path d="M266.58 232.464H266.458L242.829 226.516C242.716 226.489 242.616 226.423 242.546 226.331C242.476 226.238 242.44 226.125 242.443 226.009L242.636 219.381C242.641 219.271 242.681 219.165 242.75 219.079C242.82 218.993 242.915 218.932 243.022 218.904L259.18 214.844C259.297 214.815 259.421 214.829 259.529 214.883C259.637 214.937 259.722 215.027 259.769 215.138L267.047 231.825C267.087 231.911 267.101 232.007 267.087 232.101C267.072 232.195 267.03 232.283 266.965 232.353C266.913 232.399 266.852 232.433 266.785 232.452C266.718 232.471 266.648 232.476 266.58 232.464ZM243.468 225.613L265.707 231.216L259.008 215.869L243.6 219.777L243.468 225.613Z" fill="#1F2223"/>
<path d="M171.718 223.928L152.889 225.106L152.605 234.88L171.565 229.196L171.718 223.928Z" fill="#87FF53"/>
<path d="M152.605 235.387C152.537 235.389 152.47 235.376 152.407 235.351C152.344 235.325 152.287 235.287 152.24 235.238C152.192 235.19 152.155 235.132 152.131 235.069C152.106 235.005 152.095 234.938 152.098 234.87L152.382 225.095C152.387 224.968 152.438 224.847 152.526 224.756C152.614 224.664 152.732 224.608 152.859 224.598L171.687 223.431C171.758 223.427 171.828 223.438 171.895 223.463C171.961 223.487 172.022 223.525 172.073 223.573C172.123 223.622 172.162 223.68 172.188 223.745C172.214 223.809 172.227 223.879 172.225 223.948L172.073 229.206C172.07 229.313 172.033 229.416 171.968 229.5C171.902 229.584 171.811 229.645 171.708 229.673L152.747 235.367L152.605 235.387ZM153.387 225.583L153.133 234.19L171.068 228.81L171.19 224.476L153.387 225.583Z" fill="#1F2223"/>
<path d="M211.912 209.343L210.633 214.783C209.618 218.376 215.627 223.208 224.031 225.552C232.435 227.897 240.068 226.892 241.073 223.299L242.352 217.859L211.912 209.343Z" fill="#1F2223"/>
<path d="M232.628 227.339C229.67 227.299 226.732 226.865 223.889 226.05C215.089 223.583 209.049 218.569 210.146 214.641L211.424 209.231C211.439 209.164 211.468 209.101 211.508 209.045C211.548 208.989 211.599 208.942 211.658 208.906C211.717 208.871 211.782 208.848 211.851 208.839C211.919 208.831 211.988 208.836 212.054 208.856L242.504 217.371C242.631 217.407 242.739 217.49 242.807 217.603C242.875 217.717 242.897 217.851 242.869 217.98L241.57 223.411C241.012 225.38 238.829 226.709 235.389 227.166C234.473 227.282 233.551 227.34 232.628 227.339V227.339ZM212.328 209.972L211.12 214.915C210.196 218.204 216.195 222.852 224.153 225.065C227.743 226.156 231.513 226.525 235.247 226.151C238.21 225.765 240.149 224.669 240.575 223.157L241.732 218.224L212.328 209.972Z" fill="#1F2223"/>
<path d="M242.353 217.849C243.36 214.248 237.363 209.423 228.958 207.071C220.552 204.72 212.922 205.733 211.914 209.333C210.907 212.934 216.904 217.759 225.31 220.111C233.715 222.462 241.345 221.45 242.353 217.849Z" fill="white"/>
<path d="M233.907 221.898C230.949 221.863 228.009 221.429 225.168 220.609C221.404 219.637 217.869 217.933 214.764 215.595C212.064 213.423 210.876 211.159 211.425 209.21C211.973 207.262 214.165 205.932 217.596 205.475C225.388 204.843 233.152 207.001 239.499 211.565C242.199 213.737 243.387 216.011 242.839 217.96C242.291 219.908 240.108 221.228 236.668 221.685C235.753 221.82 234.831 221.891 233.907 221.898V221.898ZM220.367 206.318C219.485 206.318 218.603 206.373 217.728 206.48C214.764 206.876 212.825 207.972 212.399 209.525C211.973 211.078 213.069 212.976 215.444 214.844C221.55 219.219 229.005 221.3 236.495 220.72C239.459 220.325 241.397 219.239 241.824 217.726C242.25 216.214 241.154 214.275 238.83 212.397C235.826 210.151 232.413 208.513 228.781 207.576C226.046 206.78 223.215 206.357 220.367 206.318V206.318Z" fill="#1F2223"/>
<path d="M164.044 236.555L164.572 242.107C164.765 245.842 171.982 248.501 180.7 248.054C189.419 247.608 196.321 244.208 196.128 240.472L195.611 234.92L164.044 236.555Z" fill="#1F2223"/>
<path d="M178.741 248.613C170.55 248.613 164.257 245.913 164.065 242.137L163.537 236.595C163.531 236.528 163.539 236.46 163.56 236.395C163.581 236.331 163.614 236.271 163.659 236.22C163.753 236.117 163.884 236.055 164.024 236.047L195.58 234.413C195.712 234.405 195.841 234.448 195.942 234.533C196.042 234.618 196.105 234.739 196.118 234.87L196.636 240.432C196.737 242.462 195.093 244.421 191.977 245.954C188.431 247.55 184.607 248.436 180.721 248.562C180.051 248.593 179.391 248.613 178.741 248.613ZM164.603 237.032L165.069 242.107C165.252 245.517 172.388 248.014 180.67 247.588C184.419 247.47 188.109 246.618 191.53 245.081C194.21 243.761 195.702 242.107 195.59 240.544L195.124 235.469L164.603 237.032Z" fill="#1F2223"/>
<path d="M180.165 242.506C188.882 242.056 195.791 238.663 195.598 234.929C195.405 231.195 188.183 228.534 179.466 228.984C170.75 229.435 163.84 232.827 164.033 236.561C164.227 240.295 171.449 242.957 180.165 242.506Z" fill="white"/>
<path d="M178.224 243.061C170.033 243.061 163.74 240.351 163.537 236.575C163.435 234.545 165.09 232.606 168.196 231.074C171.742 229.478 175.566 228.592 179.452 228.465C188.587 227.998 195.905 230.82 196.118 234.89C196.22 236.92 194.565 238.869 191.459 240.391C187.915 241.992 184.09 242.878 180.203 243C179.533 243.04 178.873 243.061 178.224 243.061ZM181.35 229.429C180.741 229.429 180.122 229.429 179.503 229.429C175.754 229.548 172.064 230.399 168.642 231.936C165.963 233.256 164.471 234.91 164.582 236.473C164.755 239.863 171.9 242.371 180.183 241.944C183.931 241.821 187.62 240.969 191.043 239.437C193.723 238.118 195.215 236.463 195.103 234.89C194.941 231.804 188.79 229.429 181.35 229.429V229.429Z" fill="#1F2223"/>
<path d="M191.987 150.31L191.784 156.4C191.47 160.46 198.889 164.348 208.4 165.068C217.91 165.789 225.817 163.038 226.132 158.978L226.335 152.888L191.987 150.31Z" fill="white"/>
<path d="M211.435 165.677C210.42 165.677 209.405 165.677 208.39 165.565C204.164 165.324 200.027 164.258 196.21 162.429C192.88 160.693 191.135 158.531 191.307 156.339L191.51 150.249C191.518 150.109 191.58 149.978 191.683 149.884C191.732 149.837 191.792 149.801 191.857 149.78C191.922 149.759 191.991 149.753 192.058 149.762L226.345 152.421C226.475 152.429 226.597 152.488 226.684 152.585C226.772 152.681 226.817 152.809 226.812 152.939L226.609 159.029C226.436 161.231 224.386 163.089 220.834 164.317C217.793 165.269 214.62 165.729 211.435 165.677V165.677ZM192.485 150.858L192.292 156.41C192.16 158.156 193.743 160.013 196.656 161.485C204.153 164.893 212.614 165.537 220.539 163.302C223.635 162.287 225.492 160.653 225.614 158.927L225.807 153.355L192.485 150.858Z" fill="#1F2223"/>
<path d="M226.324 152.912C226.633 148.848 219.193 144.971 209.707 144.251C200.222 143.531 192.282 146.242 191.974 150.305C191.665 154.369 199.105 158.247 208.591 158.967C218.076 159.686 226.016 156.976 226.324 152.912Z" fill="white"/>
<path d="M211.688 159.598C210.673 159.598 209.658 159.598 208.562 159.486C198.656 158.725 191.155 154.685 191.48 150.28C191.805 145.875 199.854 143.002 209.75 143.753C219.646 144.505 227.167 148.554 226.832 152.96C226.548 156.898 220.113 159.598 211.688 159.598ZM206.766 144.657C199.011 144.657 192.749 147.042 192.495 150.351C192.211 154.066 199.6 157.781 208.643 158.471C217.687 159.161 225.553 156.603 225.827 152.888C226.112 149.174 218.722 145.449 209.679 144.768C208.694 144.687 207.72 144.657 206.766 144.657Z" fill="#1F2223"/>
<path d="M194.474 191.032H194.342C194.213 190.996 194.104 190.911 194.037 190.795C193.971 190.68 193.953 190.542 193.987 190.413C194.551 188.583 195.813 187.048 197.499 186.14C199.108 185.284 200.852 184.71 202.655 184.445C205.214 183.886 207.855 183.813 210.44 184.231C213.113 184.686 215.514 186.137 217.159 188.291C217.235 188.403 217.265 188.539 217.242 188.671C217.22 188.804 217.146 188.923 217.037 189.002C216.926 189.076 216.79 189.104 216.658 189.081C216.526 189.059 216.408 188.987 216.327 188.88C214.836 186.935 212.657 185.635 210.237 185.246C207.776 184.849 205.262 184.921 202.827 185.46C201.14 185.701 199.505 186.23 197.996 187.023C196.539 187.797 195.446 189.113 194.951 190.687C194.917 190.787 194.853 190.874 194.768 190.936C194.682 190.998 194.58 191.031 194.474 191.032Z" fill="#1F2223"/>
<path d="M228.527 161.668C228.461 161.665 228.395 161.65 228.335 161.622C228.274 161.594 228.22 161.554 228.174 161.505C228.129 161.456 228.094 161.399 228.071 161.336C228.048 161.273 228.037 161.207 228.04 161.14C228.15 158.724 228.816 156.366 229.987 154.25C231.157 152.134 232.801 150.316 234.79 148.94C235.133 148.647 235.546 148.448 235.988 148.361C236.431 148.273 236.889 148.302 237.317 148.443C237.377 148.472 237.431 148.513 237.475 148.563C237.519 148.613 237.553 148.671 237.575 148.734C237.596 148.797 237.605 148.864 237.601 148.931C237.597 148.997 237.58 149.063 237.551 149.123C237.521 149.183 237.48 149.236 237.43 149.28C237.38 149.325 237.322 149.359 237.259 149.38C237.196 149.402 237.129 149.411 237.062 149.407C236.996 149.403 236.931 149.385 236.871 149.356C236.536 149.194 236.018 149.356 235.358 149.782C233.489 151.068 231.944 152.77 230.847 154.756C229.749 156.741 229.129 158.955 229.035 161.221C229.02 161.345 228.96 161.459 228.866 161.542C228.773 161.624 228.652 161.669 228.527 161.668V161.668Z" fill="#1F2223"/>
<path d="M223.838 238.727L212.937 236.636L198.646 245.517L212.714 252.937L223.838 238.727Z" fill="#87FF53"/>
<path d="M212.714 253.485C212.632 253.486 212.551 253.465 212.48 253.424L198.412 246.005C198.334 245.963 198.267 245.902 198.219 245.827C198.171 245.753 198.143 245.667 198.138 245.578C198.138 245.488 198.16 245.399 198.203 245.319C198.245 245.24 198.307 245.172 198.382 245.121L212.673 236.23C212.781 236.16 212.912 236.134 213.038 236.159L223.939 238.26C224.024 238.279 224.102 238.318 224.167 238.375C224.232 238.431 224.281 238.503 224.312 238.584C224.342 238.664 224.352 238.751 224.34 238.836C224.328 238.922 224.295 239.003 224.244 239.072L213.079 253.282C213.036 253.34 212.981 253.388 212.918 253.423C212.855 253.458 212.785 253.479 212.714 253.485ZM199.671 245.517L212.582 252.338L222.924 239.143L213.038 237.245L199.671 245.517Z" fill="#1F2223"/>
<path d="M249.314 238.341C248.299 237.081 246.836 236.261 245.232 236.051C243.627 235.841 242.003 236.258 240.697 237.214C241.928 238.585 242.954 240.127 243.742 241.792C244.371 243.304 245.031 245.314 246.665 245.344C248.299 245.375 250.35 245.111 251.74 244.045C253.131 242.979 253.77 240.625 252.471 239.417C251.527 238.554 250.045 238.605 248.99 237.874" fill="#87FF53"/>
<path d="M246.726 245.842C244.869 245.842 244.097 243.924 243.478 242.411L243.306 241.995C242.512 240.37 241.486 238.869 240.261 237.539C240.179 237.432 240.139 237.298 240.149 237.164C240.167 237.028 240.236 236.905 240.342 236.819C241.034 236.289 241.826 235.904 242.669 235.686C243.513 235.468 244.392 235.422 245.255 235.55C246.703 235.719 248.055 236.361 249.101 237.377C249.174 237.389 249.243 237.417 249.304 237.458C249.765 237.732 250.265 237.934 250.786 238.057C251.532 238.234 252.227 238.581 252.816 239.072C253.129 239.368 253.37 239.731 253.523 240.133C253.676 240.536 253.736 240.967 253.699 241.396C253.652 241.991 253.48 242.57 253.195 243.095C252.91 243.619 252.518 244.078 252.045 244.441C250.512 245.649 248.411 245.761 246.726 245.842ZM241.438 237.316C242.575 238.6 243.519 240.043 244.24 241.599L244.412 242.026C244.95 243.335 245.559 244.817 246.706 244.837C248.218 244.756 250.157 244.654 251.517 243.639C251.874 243.359 252.168 243.006 252.378 242.603C252.588 242.201 252.709 241.758 252.735 241.305C252.762 241.026 252.725 240.744 252.629 240.48C252.532 240.217 252.378 239.978 252.177 239.782C251.683 239.415 251.115 239.159 250.512 239.031C250.218 238.94 249.913 238.849 249.619 238.737C249.566 238.777 249.505 238.806 249.44 238.823C249.376 238.839 249.309 238.843 249.243 238.833C249.177 238.824 249.113 238.802 249.056 238.768C248.999 238.734 248.948 238.689 248.909 238.636C248.454 238.056 247.889 237.573 247.246 237.214C246.603 236.855 245.895 236.627 245.163 236.545C243.87 236.365 242.554 236.637 241.438 237.316V237.316Z" fill="#1F2223"/>
</svg>
