<svg width="32" height="32" viewBox="0 0 32 32" fill="none" xmlns="http://www.w3.org/2000/svg">
<path d="M28.9827 10.0145C28.7011 9.69571 28.355 9.44039 27.9672 9.26549C27.5795 9.09058 27.159 9.00009 26.7336 9H19.9993V7C19.9978 5.67438 19.4705 4.40349 18.5331 3.46613C17.5958 2.52877 16.3249 2.00151 14.9993 2C14.8136 1.99999 14.6315 2.0517 14.4735 2.14933C14.3156 2.24697 14.1879 2.38668 14.1049 2.55279L9.38122 12H3.99927C3.46902 12.0006 2.96067 12.2115 2.58572 12.5865C2.21078 12.9614 1.99987 13.4698 1.99927 14V25C1.99987 25.5302 2.21078 26.0386 2.58572 26.4135C2.96067 26.7885 3.46902 26.9994 3.99927 27H25.2336C25.9646 26.999 26.6701 26.7315 27.218 26.2478C27.766 25.7641 28.1189 25.0972 28.2106 24.3721L29.7106 12.3721C29.7632 11.95 29.7255 11.5215 29.6 11.1151C29.4746 10.7086 29.2641 10.3335 28.9827 10.0145ZM3.99927 14H8.99927V25H3.99927V14Z" fill="#74F73C"/>
</svg>
