<svg width="32" height="32" viewBox="0 0 32 32" fill="none" xmlns="http://www.w3.org/2000/svg">
<path d="M14.9701 26.8502C14.9384 26.9777 14.8819 27.0977 14.8037 27.2033C14.7256 27.3089 14.6274 27.398 14.5147 27.4656C14.4021 27.5332 14.2772 27.5779 14.1473 27.5971C14.0173 27.6164 13.8849 27.6098 13.7575 27.5778L9.99 26.636C9.68435 26.5591 9.40102 26.4115 9.16285 26.2051L6.34401 23.7548C6.14384 23.5808 6.02098 23.3344 6.00246 23.0698C5.98393 22.8053 6.07127 22.5442 6.24526 22.344C6.41924 22.1438 6.66562 22.021 6.93019 22.0024C7.19476 21.9839 7.45585 22.0713 7.65602 22.2453L10.4751 24.6957L14.2426 25.6376C14.37 25.6694 14.4899 25.726 14.5954 25.8042C14.7009 25.8824 14.79 25.9806 14.8575 26.0932C14.9251 26.2058 14.9698 26.3306 14.9891 26.4605C15.0084 26.5904 15.002 26.7228 14.9701 26.8502ZM31.5453 14.9445C31.4643 15.1975 31.3333 15.4317 31.1601 15.6332C30.9869 15.8347 30.775 15.9994 30.537 16.1175L27.6285 17.5718L25.7601 19.7575C25.7536 19.7651 25.7465 19.7721 25.7398 19.7795C25.7336 19.7863 25.7275 19.793 25.7212 19.7996C25.7164 19.8046 25.712 19.8099 25.7072 19.8148L21.1076 24.4146C20.7305 24.7893 20.2204 24.9996 19.6887 24.9995C19.5267 24.9995 19.3653 24.9797 19.2081 24.9404L11.9635 23.1293C11.6916 23.0617 11.4371 22.9374 11.2166 22.7645L4.46303 17.4835L1.46302 15.9835C1.22549 15.8647 1.01399 15.6998 0.840867 15.4984C0.667746 15.297 0.536471 15.0631 0.454701 14.8104C0.372932 14.5577 0.342306 14.2913 0.36461 14.0266C0.386913 13.762 0.4617 13.5044 0.584607 13.269L3.6587 7.38185C3.90331 6.91891 4.31891 6.56969 4.81707 6.40849C5.31523 6.2473 5.85662 6.28686 6.32606 6.51875L9.12294 7.91718L15.2069 6.14351C15.6652 6.01007 16.1561 6.04477 16.5911 6.24135L20.7157 8.10768H22.764L25.6741 6.65273C26.1435 6.42066 26.6849 6.38101 27.1831 6.54224C27.6813 6.70346 28.0969 7.05281 28.3413 7.51589L31.4154 13.4029C31.5392 13.6381 31.6144 13.8957 31.6367 14.1605C31.659 14.4253 31.6279 14.6919 31.5453 14.9445ZM23.4654 19.2281L19.5092 16.3508L18.5 17.1077C17.6329 17.7529 16.5808 18.1013 15.5 18.1013C14.4192 18.1013 13.3672 17.7529 12.5 17.1077L11.8224 16.5995C11.5932 16.4276 11.4036 16.2084 11.2664 15.9568C11.1293 15.7052 11.0478 15.4271 11.0275 15.1413C11.0072 14.8555 11.0485 14.5686 11.1487 14.3002C11.2489 14.0317 11.4056 13.788 11.6082 13.5853L16.5 8.69349C16.5715 8.62309 16.6481 8.5581 16.7292 8.49906L15.7667 8.06355L9.67628 9.83909L6.2718 16.359L12.4486 21.1891L19.6932 23.0003L23.4654 19.2281ZM25.8008 16.6319L22.394 10.1077H20.5028L20.4994 10.1079C20.4978 10.1079 20.4963 10.1077 20.4948 10.1077H17.9142L13.0225 14.9995L13.7 15.5077C14.2203 15.8948 14.8515 16.1038 15.5 16.1038C16.1485 16.1038 16.7798 15.8948 17.3001 15.5077L18.9 14.3077C19.0711 14.1794 19.2788 14.1092 19.4927 14.1077C19.7065 14.1061 19.9152 14.1731 20.0881 14.299L24.8405 17.7552L25.8008 16.6319Z" fill="#74F73C"/>
</svg>
