<svg width="267" height="47" viewBox="0 0 267 47" fill="none" xmlns="http://www.w3.org/2000/svg">
<path d="M44.2184 19.9217C44.2184 29.2673 36.6423 36.8434 27.2967 36.8434C17.9511 36.8434 10.375 29.2673 10.375 19.9217C10.375 10.5761 17.9511 3 27.2967 3C36.6423 3 44.2184 10.5761 44.2184 19.9217Z" fill="#272727" fill-opacity="0.6"/>
<path fill-rule="evenodd" clip-rule="evenodd" d="M22.4621 3.70076C15.4722 5.78103 10.3751 12.2561 10.3751 19.9217C10.3751 27.5873 15.4722 34.0624 22.462 36.1427C20.9301 36.5986 19.3073 36.8434 17.6273 36.8434C8.28167 36.8434 0.705566 29.2673 0.705566 19.9217C0.705566 10.5761 8.28167 3 17.6273 3C19.3073 3 20.9301 3.24483 22.4621 3.70076Z" fill="#272727" fill-opacity="0.25"/>
<path d="M54.0443 19.9217C54.0443 29.2673 46.4682 36.8434 37.1226 36.8434C27.777 36.8434 20.2009 29.2673 20.2009 19.9217C20.2009 10.5761 27.777 3 37.1226 3C46.4682 3 54.0443 10.5761 54.0443 19.9217Z" fill="#272727"/>
<path d="M79.4716 2.14718V36.0001H73.3391V2.14718H79.4716Z" fill="#272727"/>
<path d="M90.9008 21.1233V36.0001H84.917V10.6104H90.6363V14.9247H90.9338C91.5179 13.5031 92.4491 12.3736 93.7274 11.5361C95.0167 10.6986 96.609 10.2798 98.5045 10.2798C100.257 10.2798 101.783 10.6545 103.083 11.4038C104.395 12.1532 105.408 13.2386 106.125 14.6602C106.852 16.0817 107.21 17.8063 107.199 19.834V36.0001H101.215V20.7597C101.215 19.0626 100.775 17.7347 99.893 16.776C99.0224 15.8173 97.8157 15.3379 96.2729 15.3379C95.2261 15.3379 94.2949 15.5693 93.4794 16.0322C92.675 16.484 92.0413 17.1396 91.5785 17.9992C91.1267 18.8587 90.9008 19.9001 90.9008 21.1233Z" fill="#272727"/>
<path d="M134.121 10.6104L125.079 36.0001H118.467L109.425 10.6104H115.806L121.641 29.4708H121.905L127.757 10.6104H134.121Z" fill="#272727"/>
<path d="M147.707 36.4959C145.161 36.4959 142.963 35.967 141.112 34.9091C139.271 33.8402 137.855 32.3305 136.863 30.3799C135.872 28.4184 135.376 26.1098 135.376 23.454C135.376 20.8423 135.872 18.5502 136.863 16.5776C137.866 14.5941 139.266 13.0513 141.062 11.9493C142.858 10.8363 144.969 10.2798 147.393 10.2798C148.958 10.2798 150.434 10.5333 151.823 11.0402C153.222 11.5361 154.457 12.3075 155.526 13.3543C156.605 14.4012 157.454 15.7346 158.071 17.3545C158.688 18.9634 158.997 20.8809 158.997 23.1069V24.9417H138.186V20.9084H153.261C153.25 19.7624 153.002 18.743 152.517 17.8504C152.032 16.9468 151.355 16.236 150.484 15.7181C149.624 15.2002 148.622 14.9412 147.476 14.9412C146.252 14.9412 145.178 15.2387 144.252 15.8338C143.327 16.4178 142.605 17.1892 142.087 18.148C141.58 19.0957 141.321 20.137 141.31 21.2721V24.7929C141.31 26.2696 141.58 27.5368 142.12 28.5947C142.66 29.6416 143.415 30.4461 144.385 31.0081C145.354 31.5591 146.489 31.8346 147.79 31.8346C148.66 31.8346 149.448 31.7133 150.153 31.4709C150.859 31.2175 151.47 30.8483 151.988 30.3634C152.506 29.8785 152.897 29.278 153.162 28.5617L158.749 29.1898C158.396 30.6665 157.724 31.9558 156.732 33.0578C155.751 34.1487 154.495 34.9973 152.963 35.6033C151.432 36.1984 149.68 36.4959 147.707 36.4959Z" fill="#272727"/>
<path d="M183.195 17.3215L177.74 17.9165C177.586 17.3655 177.316 16.8476 176.93 16.3627C176.556 15.8779 176.049 15.4867 175.41 15.1891C174.77 14.8916 173.988 14.7428 173.062 14.7428C171.817 14.7428 170.77 15.0128 169.922 15.5528C169.084 16.0928 168.671 16.7925 168.682 17.6521C168.671 18.3904 168.941 18.991 169.492 19.4538C170.054 19.9166 170.98 20.2968 172.269 20.5944L176.6 21.52C179.002 22.038 180.787 22.8589 181.955 23.9829C183.135 25.107 183.73 26.5781 183.741 28.3964C183.73 29.9943 183.261 31.4048 182.336 32.628C181.421 33.8402 180.148 34.7879 178.517 35.4711C176.886 36.1543 175.013 36.4959 172.897 36.4959C169.79 36.4959 167.288 35.8458 165.393 34.5454C163.497 33.2341 162.368 31.4103 162.004 29.0741L167.839 28.5121C168.104 29.6581 168.666 30.5232 169.525 31.1073C170.385 31.6913 171.503 31.9833 172.881 31.9833C174.302 31.9833 175.443 31.6913 176.302 31.1073C177.173 30.5232 177.608 29.8014 177.608 28.9419C177.608 28.2146 177.327 27.614 176.765 27.1401C176.214 26.6663 175.355 26.3026 174.186 26.0492L169.856 25.14C167.42 24.6331 165.619 23.7791 164.45 22.5779C163.282 21.3657 162.704 19.834 162.715 17.9827C162.704 16.4178 163.128 15.0624 163.988 13.9163C164.858 12.7593 166.065 11.8667 167.608 11.2385C169.161 10.5994 170.952 10.2798 172.98 10.2798C175.955 10.2798 178.297 10.9134 180.005 12.1807C181.724 13.448 182.787 15.1616 183.195 17.3215Z" fill="#272727"/>
<path d="M200.422 10.6104V15.2387H185.826V10.6104H200.422ZM189.43 4.52746H195.414V28.3633C195.414 29.1678 195.535 29.7849 195.777 30.2146C196.031 30.6334 196.361 30.9199 196.769 31.0742C197.177 31.2285 197.629 31.3056 198.124 31.3056C198.499 31.3056 198.841 31.2781 199.149 31.223C199.469 31.1679 199.711 31.1183 199.877 31.0742L200.885 35.7521C200.565 35.8623 200.108 35.9835 199.513 36.1158C198.929 36.248 198.213 36.3251 197.364 36.3472C195.865 36.3913 194.515 36.1654 193.314 35.6695C192.113 35.1625 191.16 34.3801 190.455 33.3222C189.76 32.2643 189.419 30.942 189.43 29.3551V4.52746Z" fill="#272727"/>
<path d="M204.495 36.0001V10.6104H210.479V36.0001H204.495ZM207.504 7.00692C206.556 7.00692 205.741 6.69286 205.058 6.06473C204.374 5.42558 204.033 4.6597 204.033 3.7671C204.033 2.86347 204.374 2.09759 205.058 1.46946C205.741 0.830316 206.556 0.510742 207.504 0.510742C208.463 0.510742 209.278 0.830316 209.95 1.46946C210.634 2.09759 210.975 2.86347 210.975 3.7671C210.975 4.6597 210.634 5.42558 209.95 6.06473C209.278 6.69286 208.463 7.00692 207.504 7.00692Z" fill="#272727"/>
<path d="M221.685 21.1233V36.0001H215.701V10.6104H221.421V14.9247H221.718C222.302 13.5031 223.234 12.3736 224.512 11.5361C225.801 10.6986 227.394 10.2798 229.289 10.2798C231.041 10.2798 232.567 10.6545 233.868 11.4038C235.179 12.1532 236.193 13.2386 236.909 14.6602C237.636 16.0817 237.995 17.8063 237.984 19.834V36.0001H232V20.7597C232 19.0626 231.559 17.7347 230.677 16.776C229.807 15.8173 228.6 15.3379 227.057 15.3379C226.011 15.3379 225.079 15.5693 224.264 16.0322C223.459 16.484 222.826 17.1396 222.363 17.9992C221.911 18.8587 221.685 19.9001 221.685 21.1233Z" fill="#272727"/>
<path d="M254.177 46.0501C252.029 46.0501 250.183 45.7581 248.64 45.174C247.097 44.601 245.857 43.8296 244.921 42.8599C243.984 41.8901 243.334 40.8157 242.97 39.6366L248.359 38.3307C248.601 38.8266 248.954 39.317 249.417 39.8019C249.88 40.2978 250.502 40.7055 251.285 41.0251C252.078 41.3557 253.075 41.521 254.277 41.521C255.974 41.521 257.379 41.1077 258.492 40.2812C259.605 39.4658 260.161 38.1214 260.161 36.248V31.4379H259.864C259.555 32.055 259.103 32.6886 258.508 33.3388C257.924 33.9889 257.147 34.5344 256.178 34.9752C255.219 35.416 254.012 35.6364 252.557 35.6364C250.607 35.6364 248.838 35.1791 247.251 34.2644C245.676 33.3388 244.419 31.9613 243.483 30.132C242.557 28.2917 242.094 25.9886 242.094 23.2226C242.094 20.4346 242.557 18.0818 243.483 16.1644C244.419 14.2359 245.681 12.7758 247.268 11.784C248.855 10.7812 250.624 10.2798 252.574 10.2798C254.062 10.2798 255.285 10.5333 256.244 11.0402C257.213 11.5361 257.985 12.1366 258.558 12.8419C259.131 13.5362 259.566 14.1918 259.864 14.809H260.194V10.6104H266.095V36.4133C266.095 38.5842 265.577 40.3804 264.542 41.802C263.506 43.2235 262.09 44.287 260.293 44.9922C258.497 45.6975 256.459 46.0501 254.177 46.0501ZM254.227 30.942C255.494 30.942 256.574 30.6334 257.467 30.0163C258.359 29.3992 259.037 28.5121 259.5 27.355C259.963 26.1979 260.194 24.8094 260.194 23.1895C260.194 21.5916 259.963 20.1921 259.5 18.991C259.048 17.7898 258.376 16.8586 257.483 16.1974C256.602 15.5252 255.516 15.1891 254.227 15.1891C252.894 15.1891 251.781 15.5363 250.888 16.2305C249.995 16.9248 249.323 17.878 248.871 19.0901C248.42 20.2913 248.194 21.6578 248.194 23.1895C248.194 24.7433 248.42 26.1043 248.871 27.2724C249.334 28.4294 250.012 29.3331 250.905 29.9832C251.808 30.6224 252.916 30.942 254.227 30.942Z" fill="#272727"/>
</svg>
