<svg width="125" height="33" viewBox="0 0 125 33" fill="none" xmlns="http://www.w3.org/2000/svg">
<path fill-rule="evenodd" clip-rule="evenodd" d="M32.6301 23.8499C29.9004 29.0128 24.4734 32.5388 18.2384 32.5388H2.39062V23.8499H32.6301" fill="#636C70"/>
<path fill-rule="evenodd" clip-rule="evenodd" d="M32.6296 8.69253H0.990723V0.00366211H18.2383C24.4733 0.00366211 29.8999 3.52963 32.6296 8.69253" fill="#636C70"/>
<path fill-rule="evenodd" clip-rule="evenodd" d="M34.307 16.2714C34.307 17.624 34.1299 18.9778 33.7792 20.311H4.68799V12.2319H33.7792C34.1299 13.5646 34.307 14.9184 34.307 16.2714" fill="#636C70"/>
<path fill-rule="evenodd" clip-rule="evenodd" d="M55.4353 7.68964V21.9057H53.1169L52.9542 20.5228C52.1813 21.7227 50.9407 22.1294 49.7205 22.1294C46.7715 22.1294 44.5547 20.177 44.5547 16.8823C44.5547 13.4249 46.7308 11.6352 49.6595 11.6352C50.717 11.6352 52.3644 12.2047 52.9542 13.2418V7.68964H55.4353ZM47.0359 16.8823C47.0359 18.6313 48.2968 19.8313 49.8831 19.8313C51.4492 19.8313 52.7915 18.6924 52.7915 16.8823C52.7915 15.1333 51.4492 13.9537 49.8831 13.9537C48.2968 13.9537 47.0359 15.0722 47.0359 16.8823V16.8823Z" fill="#636C70"/>
<path fill-rule="evenodd" clip-rule="evenodd" d="M67.6987 11.8792L61.577 26.0953H58.8518L60.7228 21.7431L56.7163 11.8792H59.6043L61.1296 16.2112L62.0855 19.0381L63.1227 16.2722L64.9531 11.8792H67.6987" fill="#636C70"/>
<path fill-rule="evenodd" clip-rule="evenodd" d="M76.3826 21.9057V16.6586C76.3826 15.1333 75.5487 13.974 73.9624 13.974C72.4371 13.974 71.3998 15.2553 71.3998 16.7806V21.9057H68.939V11.8589H71.1558L71.3185 13.2215C72.3354 12.225 73.3523 11.7165 74.6132 11.7165C76.9724 11.7165 78.8638 13.4859 78.8638 16.6382V21.9057H76.3826" fill="#636C70"/>
<path fill-rule="evenodd" clip-rule="evenodd" d="M88.9514 11.8792H91.3309V21.9057H88.992L88.87 20.4414C88.3006 21.621 86.7345 22.1904 85.616 22.2108C82.6467 22.2311 80.4502 20.4007 80.4502 16.8823C80.4502 13.4249 82.7483 11.6148 85.677 11.6352C87.0193 11.6352 88.3006 12.2656 88.87 13.2622L88.9514 11.8792ZM82.9314 16.8823C82.9314 18.7941 84.2534 19.933 85.9007 19.933C89.8056 19.933 89.8056 13.852 85.9007 13.852C84.2534 13.852 82.9314 14.9706 82.9314 16.8823V16.8823Z" fill="#636C70"/>
<path fill-rule="evenodd" clip-rule="evenodd" d="M100.291 21.9057V16.5366C100.291 15.2146 99.5994 14.0147 98.2368 14.0147C96.8945 14.0147 96.1013 15.2146 96.1013 16.5366V21.9057H93.6201V11.8589H95.9183L96.1013 13.0791C96.6301 12.0623 97.7893 11.6962 98.7452 11.6962C99.9452 11.6962 101.145 12.1843 101.715 13.5673C102.609 12.1436 103.769 11.7368 105.07 11.7368C107.918 11.7368 109.321 13.4859 109.321 16.4959V21.9057H106.84V16.4959C106.84 15.1739 106.291 14.0554 104.948 14.0554C103.606 14.0554 102.772 15.2146 102.772 16.5366V21.9057H100.291" fill="#636C70"/>
<path fill-rule="evenodd" clip-rule="evenodd" d="M114.353 9.05228C114.353 10.9844 111.424 10.9844 111.424 9.05228C111.424 7.12019 114.353 7.12019 114.353 9.05228ZM111.648 21.9057H114.129V11.8385H111.648V21.9057Z" fill="#636C70"/>
<path fill-rule="evenodd" clip-rule="evenodd" d="M124.969 20.6244C123.81 21.7634 122.59 22.2108 121.105 22.2108C118.197 22.2108 115.777 20.4618 115.777 16.9027C115.777 13.3436 118.197 11.5945 121.105 11.5945C122.529 11.5945 123.627 12.0013 124.725 13.0791L123.159 14.7265C122.57 14.1977 121.837 13.9333 121.146 13.9333C119.478 13.9333 118.258 15.1536 118.258 16.9027C118.258 18.8144 119.56 19.8313 121.105 19.8313C121.898 19.8313 122.692 19.6076 123.302 18.9974L124.969 20.6244" fill="#636C70"/>
</svg>
