<svg width="406" height="306" viewBox="0 0 406 306" fill="none" xmlns="http://www.w3.org/2000/svg">
<path d="M200.97 127.128L81.3522 121.464C81.3522 121.464 91.7864 92.1 145.145 79.4024C196.189 67.2224 220.529 73.4139 220.529 73.4139L200.97 127.128Z" fill="#87FF53"/>
<path d="M200.97 127.625L81.3319 121.971C81.2529 121.968 81.1758 121.946 81.107 121.908C81.0382 121.869 80.9796 121.814 80.9361 121.748C80.892 121.682 80.8637 121.606 80.8531 121.527C80.8426 121.448 80.8501 121.367 80.8752 121.291C80.9767 120.997 92.0402 91.5214 144.972 78.9049C171.362 72.6119 190.495 71.3026 201.934 71.333C214.317 71.333 220.356 72.8555 220.61 72.9164C220.746 72.9583 220.862 73.0486 220.935 73.1702C220.963 73.2361 220.977 73.3068 220.977 73.3783C220.977 73.4497 220.963 73.5204 220.935 73.5863L201.447 127.3C201.41 127.396 201.344 127.479 201.259 127.537C201.174 127.595 201.073 127.626 200.97 127.625ZM82.0932 120.987L200.635 126.61L219.808 73.8299C213.886 72.7827 207.877 72.3035 201.863 72.3988H201.65C190.282 72.3988 171.332 73.7183 145.216 79.9402C117.811 86.4667 102.058 97.4693 93.6439 105.559C86.0923 112.755 82.9559 119.018 82.0932 120.987Z" fill="#1F2223"/>
<path d="M294.411 223.867C294.411 223.867 310.184 214.408 318.436 192.808L324.648 113.415L277.745 142.18L294.411 223.867Z" fill="white"/>
<path d="M294.411 224.375C294.344 224.388 294.275 224.388 294.208 224.375C294.134 224.34 294.07 224.289 294.019 224.226C293.968 224.163 293.932 224.089 293.914 224.009L277.247 142.363C277.227 142.26 277.239 142.154 277.28 142.057C277.322 141.961 277.392 141.88 277.481 141.825L324.384 113.06C324.463 113.01 324.554 112.984 324.648 112.984C324.741 112.984 324.833 113.01 324.912 113.06C324.991 113.11 325.056 113.181 325.098 113.265C325.141 113.349 325.161 113.443 325.155 113.537L318.943 192.889C318.952 192.936 318.952 192.985 318.943 193.032C310.722 214.539 294.868 224.253 294.705 224.344C294.613 224.385 294.51 224.395 294.411 224.375V224.375ZM278.313 142.464L294.766 223.035C305.311 215.427 313.373 204.872 317.939 192.697L324.029 114.41L278.313 142.464Z" fill="#1F2223"/>
<path d="M299.516 151.792L200.97 109.081L226.203 57.6409C226.203 57.6409 274.304 60.9701 307.738 85.7868C347.313 115.151 305.819 148.108 299.516 151.792Z" fill="#87FF53"/>
<path d="M299.506 152.3C299.443 152.314 299.377 152.314 299.313 152.3L200.787 109.588C200.724 109.563 200.667 109.525 200.62 109.476C200.572 109.427 200.536 109.368 200.513 109.304C200.486 109.24 200.472 109.171 200.472 109.101C200.472 109.031 200.486 108.962 200.513 108.898L225.746 57.458C225.791 57.366 225.862 57.2897 225.951 57.239C226.04 57.1883 226.142 57.1655 226.244 57.1738C226.721 57.1738 274.872 60.7973 308.042 85.4212C319.958 94.2619 325.693 104.28 325.094 115.191C324.079 134.222 303.708 149.965 299.719 152.269C299.651 152.295 299.579 152.305 299.506 152.3ZM201.681 108.827L299.476 151.224C303.83 148.554 323.095 133.35 324.1 115.09C324.678 104.544 319.086 94.7897 307.464 86.1926C275.999 62.8476 230.892 58.5339 226.528 58.1685L201.681 108.827Z" fill="#1F2223"/>
<path d="M299.506 151.792L294.411 223.867L200.99 182.374V109.081L299.506 151.792Z" fill="#1F2223"/>
<path d="M294.411 224.375C294.344 224.388 294.275 224.388 294.208 224.375L200.777 182.872C200.689 182.832 200.614 182.768 200.562 182.687C200.51 182.606 200.482 182.511 200.483 182.415V109.081C200.483 108.999 200.503 108.917 200.542 108.845C200.581 108.772 200.637 108.71 200.706 108.665C200.78 108.622 200.864 108.6 200.95 108.6C201.035 108.6 201.119 108.622 201.193 108.665L299.709 151.366C299.807 151.408 299.888 151.48 299.943 151.571C299.998 151.662 300.022 151.768 300.014 151.873L294.939 223.938C294.928 224.066 294.871 224.185 294.776 224.271C294.682 224.358 294.559 224.406 294.431 224.405L294.411 224.375ZM201.498 182.039L293.964 223.106L298.978 152.117L201.538 109.863L201.498 182.039Z" fill="#1F2223"/>
<path d="M200.99 182.374L84.9149 181.41L81.3522 121.464L200.99 127.128V182.374Z" fill="#1F2223"/>
<path d="M200.97 182.882L84.9048 181.917C84.7753 181.918 84.6506 181.868 84.5563 181.78C84.4619 181.691 84.4051 181.57 84.3973 181.44L80.8448 121.535C80.8409 121.464 80.8515 121.394 80.8759 121.327C80.9003 121.261 80.9381 121.201 80.9869 121.149C81.0323 121.092 81.0917 121.048 81.1594 121.022C81.2271 120.995 81.3006 120.987 81.3726 120.997L200.97 126.61C201.101 126.615 201.225 126.671 201.316 126.766C201.407 126.86 201.457 126.986 201.457 127.118V182.364C201.455 182.498 201.4 182.625 201.306 182.72C201.211 182.815 201.084 182.869 200.95 182.871L200.97 182.882ZM85.392 180.913L200.483 181.856V127.625L81.8902 121.992L85.392 180.913Z" fill="#1F2223"/>
<path d="M120.663 231.632C120.663 231.632 105.134 222.497 95.5521 213.311C85.9705 204.126 83.1691 190.383 83.1691 190.383L81.3522 151.914L200.97 147.428V168.296L172.55 199.842L120.663 231.632Z" fill="white"/>
<path d="M120.663 232.17C120.573 232.172 120.485 232.147 120.409 232.099C120.247 232.007 104.718 222.862 95.1969 213.707C85.6762 204.552 82.7022 190.646 82.6718 190.514L80.8448 151.944C80.8403 151.876 80.8497 151.808 80.8724 151.743C80.8951 151.678 80.9305 151.619 80.9767 151.569C81.0727 151.475 81.1983 151.418 81.332 151.406L200.97 146.91C201.038 146.906 201.105 146.917 201.168 146.942C201.231 146.966 201.288 147.004 201.335 147.052C201.387 147.098 201.428 147.154 201.456 147.217C201.484 147.28 201.498 147.348 201.498 147.417V168.286C201.494 168.412 201.448 168.534 201.366 168.631L172.946 200.177L172.834 200.268L120.927 232.068C120.851 232.128 120.759 232.163 120.663 232.17V232.17ZM81.8801 152.401L83.6766 190.352C83.6766 190.413 86.5491 203.943 95.8566 212.946C104.616 221.37 118.542 229.805 120.623 231.043L172.225 199.446L200.442 168.103V147.925L81.8801 152.401Z" fill="#1F2223"/>
<path d="M200.97 147.428L119.668 199.842C119.668 199.842 97.8561 192.585 87.9091 176.061C77.9621 159.537 82.5804 142.068 82.5804 142.068L200.97 147.428Z" fill="#87FF53"/>
<path d="M119.689 200.35H119.537C119.313 200.279 97.3994 192.829 87.4727 176.355C77.546 159.882 82.0425 142.15 82.0831 141.977C82.1095 141.863 82.1765 141.761 82.2716 141.692C82.3668 141.623 82.4836 141.591 82.6007 141.602L200.97 146.91C201.078 146.914 201.181 146.953 201.266 147.02C201.35 147.088 201.411 147.18 201.439 147.284C201.467 147.388 201.461 147.498 201.423 147.599C201.384 147.7 201.314 147.785 201.224 147.844L119.973 200.269C119.887 200.32 119.789 200.348 119.689 200.35V200.35ZM82.9763 142.596C82.3774 145.276 79.4339 161.039 88.3354 175.797C97.5314 191.022 117.283 198.452 119.628 199.284L199.376 147.864L82.9763 142.596Z" fill="#1F2223"/>
<path d="M200.99 147.428V199.842L120.663 231.632L119.689 199.842L200.99 147.428Z" fill="#1F2223"/>
<path d="M120.663 232.17C120.566 232.17 120.471 232.141 120.389 232.089C120.321 232.044 120.264 231.984 120.224 231.914C120.183 231.843 120.16 231.764 120.156 231.683L119.141 199.893C119.141 199.805 119.162 199.719 119.203 199.641C119.244 199.563 119.302 199.497 119.374 199.446L200.676 147.032C200.754 146.984 200.843 146.959 200.934 146.959C201.026 146.959 201.115 146.984 201.193 147.032C201.273 147.076 201.339 147.141 201.385 147.22C201.432 147.298 201.456 147.387 201.457 147.478V199.893C201.457 199.996 201.425 200.096 201.367 200.181C201.31 200.266 201.228 200.332 201.132 200.37L120.805 232.16C120.759 232.169 120.711 232.173 120.663 232.17V232.17ZM120.206 200.147L121.15 230.921L200.483 199.527V148.361L120.206 200.147Z" fill="#1F2223"/>
<path d="M198.321 226.537V248.136C198.321 248.136 149.459 247.973 120.663 231.632L120.003 209.84L193.946 212.377L198.321 226.537Z" fill="white"/>
<path d="M198.321 248.643C197.823 248.643 148.992 248.288 120.409 232.079C120.335 232.034 120.274 231.971 120.229 231.897C120.185 231.823 120.16 231.739 120.156 231.652L119.496 209.84C119.491 209.771 119.501 209.701 119.526 209.636C119.55 209.572 119.588 209.513 119.638 209.464C119.687 209.415 119.746 209.376 119.81 209.35C119.875 209.324 119.944 209.311 120.014 209.312L193.967 211.87C194.073 211.874 194.175 211.912 194.259 211.977C194.343 212.043 194.404 212.133 194.433 212.235L198.808 226.384C198.813 226.435 198.813 226.486 198.808 226.537V248.136C198.805 248.269 198.751 248.397 198.656 248.491C198.613 248.537 198.561 248.575 198.504 248.601C198.446 248.627 198.384 248.641 198.321 248.643V248.643ZM121.181 231.327C147.997 246.39 192.566 247.567 197.834 247.618V226.618L193.571 212.885L120.491 210.378L121.181 231.327Z" fill="#1F2223"/>
<path d="M200.97 159.313L120.003 209.84C120.003 209.84 128.184 217.798 153.915 222.416C179.645 227.034 198.321 226.537 198.321 226.537L200.97 159.313Z" fill="#87FF53"/>
<path d="M196.829 227.095C182.402 226.933 168.016 225.547 153.823 222.954C128.235 218.366 119.983 210.581 119.648 210.246C119.592 210.194 119.548 210.129 119.522 210.056C119.496 209.984 119.487 209.907 119.496 209.83C119.505 209.754 119.53 209.681 119.571 209.616C119.611 209.551 119.665 209.496 119.729 209.454L200.716 158.928C200.796 158.88 200.887 158.855 200.98 158.855C201.073 158.855 201.164 158.88 201.244 158.928C201.322 158.975 201.387 159.042 201.431 159.123C201.476 159.203 201.499 159.293 201.498 159.385L198.828 226.608C198.821 226.736 198.766 226.858 198.674 226.948C198.582 227.038 198.46 227.09 198.331 227.095H196.829ZM120.856 209.952C122.988 211.647 132.183 218.072 153.996 221.949C168.458 224.614 183.128 225.997 197.834 226.08L200.442 160.298L120.856 209.952Z" fill="#1F2223"/>
<path d="M295.01 215.453L294.411 223.867C294.411 223.867 275.948 235.428 264.326 238.91V230.018L295.01 215.453Z" fill="white"/>
<path d="M264.326 239.417C264.216 239.419 264.109 239.383 264.022 239.315C263.958 239.269 263.906 239.208 263.87 239.138C263.835 239.067 263.817 238.989 263.819 238.909V230.018C263.819 229.922 263.846 229.827 263.896 229.745C263.946 229.663 264.018 229.596 264.103 229.551L294.797 214.996C294.871 214.949 294.957 214.924 295.045 214.924C295.133 214.924 295.219 214.949 295.294 214.996C295.367 215.045 295.425 215.112 295.464 215.19C295.503 215.268 295.522 215.355 295.517 215.443L294.918 223.867C294.912 223.945 294.887 224.02 294.847 224.087C294.806 224.154 294.751 224.211 294.685 224.253C294.502 224.375 276.029 235.895 264.468 239.356C264.426 239.387 264.378 239.408 264.326 239.417V239.417ZM264.834 230.333V238.26C275.603 234.829 291.853 224.882 293.924 223.603L294.441 216.316L264.834 230.333Z" fill="#1F2223"/>
<path d="M264.326 230.018C275.255 226.804 285.61 221.889 295.01 215.453L213.688 177.279L264.326 230.018Z" fill="#87FF53"/>
<path d="M264.326 230.526C264.257 230.526 264.189 230.512 264.126 230.484C264.063 230.456 264.007 230.415 263.961 230.363L213.323 177.583C213.247 177.492 213.205 177.377 213.205 177.259C213.205 177.14 213.247 177.025 213.323 176.934C213.393 176.839 213.494 176.771 213.609 176.742C213.723 176.712 213.844 176.723 213.952 176.771L295.274 214.956C295.354 214.994 295.424 215.052 295.476 215.125C295.527 215.198 295.559 215.283 295.568 215.372C295.572 215.46 295.555 215.547 295.518 215.627C295.481 215.706 295.425 215.776 295.355 215.829C285.896 222.281 275.489 227.219 264.509 230.465L264.326 230.526ZM215.951 178.893L264.479 229.45C274.954 226.303 284.902 221.613 293.995 215.534L215.951 178.893Z" fill="#1F2223"/>
<path d="M264.326 223.218V238.91C243.086 246.002 220.723 249.13 198.351 248.136V226.537L264.326 223.218Z" fill="white"/>
<path d="M206.715 248.867C203.954 248.867 201.146 248.792 198.29 248.644C198.162 248.634 198.042 248.576 197.954 248.482C197.866 248.388 197.815 248.265 197.813 248.136V226.537C197.813 226.407 197.862 226.283 197.951 226.188C198.04 226.094 198.161 226.037 198.29 226.029L264.265 222.71C264.334 222.708 264.403 222.719 264.467 222.743C264.532 222.767 264.591 222.804 264.641 222.851C264.691 222.898 264.731 222.955 264.759 223.018C264.787 223.081 264.802 223.149 264.803 223.218V238.91C264.803 239.014 264.771 239.116 264.711 239.201C264.651 239.287 264.566 239.351 264.468 239.387C245.839 245.578 226.346 248.778 206.715 248.867V248.867ZM198.828 247.649C232.019 249.344 260.449 239.742 263.788 238.514V223.756L198.828 227.024V247.649Z" fill="#1F2223"/>
<path d="M200.97 160.907L264.367 223.218C264.367 223.218 253.852 226.78 235.734 229.693C223.359 231.518 210.87 232.45 198.361 232.485L200.97 160.907Z" fill="#87FF53"/>
<path d="M198.564 232.992H198.311C198.243 232.991 198.177 232.976 198.116 232.948C198.055 232.92 198 232.88 197.955 232.83C197.906 232.783 197.868 232.726 197.843 232.663C197.819 232.6 197.808 232.532 197.813 232.464L200.422 160.887C200.424 160.788 200.455 160.693 200.511 160.611C200.567 160.53 200.645 160.467 200.737 160.43C200.829 160.395 200.93 160.387 201.027 160.407C201.124 160.427 201.213 160.473 201.285 160.542L264.682 222.863C264.741 222.923 264.785 222.997 264.81 223.079C264.835 223.16 264.839 223.246 264.824 223.329C264.803 223.415 264.761 223.493 264.703 223.559C264.644 223.624 264.571 223.674 264.489 223.705C255.09 226.573 245.493 228.741 235.774 230.191C223.453 232.005 211.018 232.941 198.564 232.992V232.992ZM201.386 162.074L198.849 231.977C211.153 231.91 223.438 230.977 235.612 229.186C244.995 227.756 254.27 225.687 263.372 222.994L201.386 162.074Z" fill="#1F2223"/>
<path d="M148.109 99.9966C148.022 99.997 147.938 99.9723 147.865 99.9255L104.169 75.9106C104.051 75.846 103.963 75.737 103.925 75.6076C103.887 75.4781 103.902 75.3389 103.966 75.2204C104.031 75.102 104.14 75.0141 104.269 74.976C104.399 74.9379 104.538 74.9528 104.657 75.0174L148.352 99.0425C148.411 99.0744 148.463 99.1175 148.505 99.1695C148.547 99.2215 148.578 99.2813 148.597 99.3454C148.616 99.4095 148.622 99.4768 148.615 99.5432C148.608 99.6097 148.588 99.6741 148.555 99.7327C148.511 99.8121 148.446 99.8783 148.367 99.9246C148.289 99.971 148.2 99.9958 148.109 99.9966Z" fill="#DEE5EB"/>
<path d="M271.878 95.4089C271.786 95.4082 271.695 95.3823 271.616 95.334C271.538 95.2857 271.474 95.2169 271.431 95.1349C271.37 95.0147 271.358 94.8754 271.398 94.7464C271.437 94.6175 271.526 94.5092 271.644 94.4447L324.424 67.0397C324.541 66.9956 324.669 66.9956 324.785 67.0397C324.901 67.0838 324.997 67.1689 325.054 67.279C325.112 67.3891 325.127 67.5164 325.097 67.6369C325.067 67.7574 324.994 67.8627 324.891 67.9329L272.111 95.3379C272.041 95.3818 271.961 95.4064 271.878 95.4089V95.4089Z" fill="#DEE5EB"/>
<path d="M124.419 248.867C124.342 248.868 124.267 248.851 124.198 248.817C124.129 248.784 124.069 248.735 124.023 248.674C123.94 248.569 123.902 248.435 123.917 248.302C123.932 248.169 123.999 248.047 124.104 247.963C126.134 246.339 173.839 208.064 175.605 207.059C175.72 207.007 175.849 207 175.969 207.038C176.089 207.076 176.19 207.157 176.253 207.266C176.316 207.375 176.337 207.503 176.311 207.626C176.285 207.749 176.214 207.858 176.113 207.932C174.783 208.713 141.927 234.971 124.733 248.755C124.646 248.83 124.534 248.87 124.419 248.867V248.867Z" fill="#DEE5EB"/>
<path d="M114.695 249.922H93.9789C93.8451 249.92 93.7175 249.865 93.6229 249.771C93.5283 249.676 93.474 249.549 93.4714 249.415C93.4714 249.28 93.5249 249.151 93.62 249.056C93.7152 248.961 93.8443 248.907 93.9789 248.907H114.695C114.83 248.907 114.959 248.961 115.054 249.056C115.149 249.151 115.203 249.28 115.203 249.415C115.2 249.549 115.146 249.676 115.051 249.771C114.956 249.865 114.829 249.92 114.695 249.922V249.922Z" fill="#DEE5EB"/>
<path d="M114.695 244.35H93.9789C93.8443 244.35 93.7152 244.296 93.62 244.201C93.5249 244.106 93.4714 243.977 93.4714 243.842C93.4714 243.708 93.5249 243.579 93.62 243.484C93.7152 243.388 93.8443 243.335 93.9789 243.335H114.695C114.83 243.335 114.959 243.388 115.054 243.484C115.149 243.579 115.203 243.708 115.203 243.842C115.203 243.977 115.149 244.106 115.054 244.201C114.959 244.296 114.83 244.35 114.695 244.35Z" fill="#DEE5EB"/>
<path d="M114.695 238.676H93.9789C93.8443 238.676 93.7152 238.623 93.62 238.527C93.5249 238.432 93.4714 238.303 93.4714 238.169C93.474 238.035 93.5283 237.907 93.6229 237.813C93.7175 237.718 93.8451 237.664 93.9789 237.661H114.695C114.829 237.664 114.956 237.718 115.051 237.813C115.146 237.907 115.2 238.035 115.203 238.169C115.203 238.303 115.149 238.432 115.054 238.527C114.959 238.623 114.83 238.676 114.695 238.676Z" fill="#DEE5EB"/>
<path d="M106.737 255.251H93.9789C93.8443 255.251 93.7152 255.198 93.62 255.103C93.5249 255.008 93.4714 254.878 93.4714 254.744C93.474 254.61 93.5283 254.482 93.6229 254.388C93.7175 254.293 93.8451 254.239 93.9789 254.236H106.737C106.872 254.236 107.001 254.29 107.096 254.385C107.191 254.48 107.245 254.609 107.245 254.744C107.245 254.878 107.191 255.008 107.096 255.103C107.001 255.198 106.872 255.251 106.737 255.251Z" fill="#DEE5EB"/>
<path d="M95.9378 65.3041H72.1158C71.9812 65.3041 71.8521 65.2506 71.7569 65.1554C71.6617 65.0602 71.6083 64.9312 71.6083 64.7966C71.6083 64.662 71.6617 64.5329 71.7569 64.4377C71.8521 64.3425 71.9812 64.2891 72.1158 64.2891H95.9378C96.0724 64.2891 96.2015 64.3425 96.2967 64.4377C96.3919 64.5329 96.4453 64.662 96.4453 64.7966C96.4453 64.9312 96.3919 65.0602 96.2967 65.1554C96.2015 65.2506 96.0724 65.3041 95.9378 65.3041Z" fill="#DEE5EB"/>
<path d="M95.9378 70.6429H72.1158C71.982 70.6403 71.8544 70.586 71.7598 70.4914C71.6652 70.3968 71.6109 70.2692 71.6083 70.1354C71.6083 70.0008 71.6617 69.8717 71.7569 69.7766C71.8521 69.6814 71.9812 69.6279 72.1158 69.6279H95.9378C96.0724 69.6279 96.2015 69.6814 96.2967 69.7766C96.3919 69.8717 96.4453 70.0008 96.4453 70.1354C96.4427 70.2692 96.3884 70.3968 96.2938 70.4914C96.1992 70.586 96.0716 70.6403 95.9378 70.6429V70.6429Z" fill="#DEE5EB"/>
<path d="M86.7927 75.9715H72.1158C71.9812 75.9715 71.8521 75.9181 71.7569 75.8229C71.6617 75.7277 71.6083 75.5986 71.6083 75.464C71.6109 75.3303 71.6652 75.2027 71.7598 75.1081C71.8544 75.0134 71.982 74.9591 72.1158 74.9565H86.7927C86.9273 74.9565 87.0564 75.01 87.1515 75.1052C87.2467 75.2004 87.3002 75.3294 87.3002 75.464C87.3002 75.5986 87.2467 75.7277 87.1515 75.8229C87.0564 75.9181 86.9273 75.9715 86.7927 75.9715Z" fill="#DEE5EB"/>
<path d="M358.762 65.3041H334.95C334.815 65.3041 334.686 65.2506 334.591 65.1554C334.496 65.0602 334.443 64.9312 334.443 64.7966C334.443 64.662 334.496 64.5329 334.591 64.4377C334.686 64.3425 334.815 64.2891 334.95 64.2891H358.762C358.896 64.2891 359.026 64.3425 359.121 64.4377C359.216 64.5329 359.269 64.662 359.269 64.7966C359.269 64.9312 359.216 65.0602 359.121 65.1554C359.026 65.2506 358.896 65.3041 358.762 65.3041Z" fill="#DEE5EB"/>
<path d="M358.762 70.6429H334.95C334.815 70.6429 334.686 70.5895 334.591 70.4943C334.496 70.3991 334.443 70.27 334.443 70.1354C334.443 70.0008 334.496 69.8717 334.591 69.7766C334.686 69.6814 334.815 69.6279 334.95 69.6279H358.762C358.896 69.6279 359.026 69.6814 359.121 69.7766C359.216 69.8717 359.269 70.0008 359.269 70.1354C359.269 70.27 359.216 70.3991 359.121 70.4943C359.026 70.5895 358.896 70.6429 358.762 70.6429Z" fill="#DEE5EB"/>
<path d="M349.617 75.9715H334.95C334.815 75.9715 334.686 75.9181 334.591 75.8229C334.496 75.7277 334.443 75.5986 334.443 75.464C334.443 75.3294 334.496 75.2004 334.591 75.1052C334.686 75.01 334.815 74.9565 334.95 74.9565H349.617C349.751 74.9565 349.88 75.01 349.976 75.1052C350.071 75.2004 350.124 75.3294 350.124 75.464C350.124 75.5986 350.071 75.7277 349.976 75.8229C349.88 75.9181 349.751 75.9715 349.617 75.9715Z" fill="#DEE5EB"/>
<path d="M331.326 252.592H295.01C294.875 252.592 294.746 252.538 294.651 252.443C294.556 252.348 294.502 252.219 294.502 252.084V235.794C294.502 235.659 294.556 235.53 294.651 235.435C294.746 235.34 294.875 235.286 295.01 235.286H331.326C331.461 235.286 331.59 235.34 331.685 235.435C331.78 235.53 331.834 235.659 331.834 235.794V252.084C331.834 252.219 331.78 252.348 331.685 252.443C331.59 252.538 331.461 252.592 331.326 252.592ZM295.517 251.577H330.819V236.301H295.517V251.577Z" fill="#DEE5EB"/>
<path d="M324.648 241.731H301.201C301.067 241.731 300.938 241.678 300.842 241.583C300.747 241.487 300.694 241.358 300.694 241.224C300.694 241.089 300.747 240.96 300.842 240.865C300.938 240.77 301.067 240.716 301.201 240.716H324.648C324.782 240.716 324.911 240.77 325.007 240.865C325.102 240.96 325.155 241.089 325.155 241.224C325.155 241.358 325.102 241.487 325.007 241.583C324.911 241.678 324.782 241.731 324.648 241.731Z" fill="#DEE5EB"/>
<path d="M324.648 247.639H301.201C301.067 247.639 300.938 247.585 300.842 247.49C300.747 247.395 300.694 247.266 300.694 247.131C300.694 246.996 300.747 246.867 300.842 246.772C300.938 246.677 301.067 246.624 301.201 246.624H324.648C324.782 246.624 324.911 246.677 325.007 246.772C325.102 246.867 325.155 246.996 325.155 247.131C325.155 247.266 325.102 247.395 325.007 247.49C324.911 247.585 324.782 247.639 324.648 247.639Z" fill="#DEE5EB"/>
</svg>
