<svg width="252" height="218" viewBox="0 0 252 218" fill="none" xmlns="http://www.w3.org/2000/svg">
<path d="M163.25 61.0513C163.25 61.0513 174.324 61.5689 190.513 75.1699C206.703 88.7709 212.62 98.1495 212.62 98.1495V44.3545C212.62 44.3545 192.066 20.5325 164.915 11.4685L163.25 61.0513Z" fill="#DEE5EB"/>
<path d="M212.62 98.6571C212.535 98.659 212.451 98.6383 212.376 98.5974C212.301 98.5564 212.238 98.4965 212.194 98.4237C212.133 98.3323 206.104 88.9334 190.189 75.5557C174.273 62.178 163.332 61.5589 163.22 61.5589C163.088 61.5485 162.965 61.4881 162.876 61.3899C162.788 61.2918 162.74 61.1634 162.743 61.0311L164.357 11.4889C164.36 11.41 164.382 11.3329 164.421 11.264C164.459 11.1952 164.514 11.1366 164.58 11.0931C164.643 11.0452 164.717 11.0137 164.794 11.0013C164.872 10.9889 164.952 10.996 165.027 11.022C192.046 20.0251 212.793 43.8268 213.006 44.0704C213.086 44.1596 213.129 44.2755 213.128 44.3952V98.1902C213.128 98.3001 213.092 98.4069 213.026 98.4947C212.96 98.5826 212.868 98.6467 212.762 98.6774L212.62 98.6571ZM163.768 60.5845C166.133 60.8484 176.425 62.6145 190.838 74.7945C203.404 85.3505 209.869 93.4705 212.153 96.5561V44.5881C210.418 42.6291 190.747 20.9081 165.392 12.1994L163.768 60.5845Z" fill="#1F2223"/>
<path d="M46.7285 79.8287V31.941C65.3291 25.4812 85.0377 22.8234 104.685 24.1255V70.0644C104.685 70.0644 69.2108 71.0388 46.7285 79.8287Z" fill="#DEE5EB"/>
<path d="M46.7387 80.3364C46.6352 80.3348 46.5339 80.3068 46.4443 80.2552C46.3784 80.2053 46.3249 80.1409 46.2879 80.0669C46.251 79.993 46.2315 79.9115 46.2312 79.8289V31.9412C46.2303 31.8407 46.2599 31.7423 46.3161 31.6589C46.3722 31.5756 46.4523 31.5112 46.5458 31.4743C65.2352 25.017 85.0235 22.3464 104.756 23.6182C104.884 23.6284 105.002 23.6864 105.089 23.7805C105.175 23.8745 105.223 23.9978 105.223 24.1257V70.0544C105.226 70.1201 105.215 70.1856 105.192 70.2471C105.169 70.3086 105.133 70.3647 105.088 70.4121C105.042 70.4595 104.987 70.4973 104.927 70.523C104.867 70.5487 104.801 70.562 104.736 70.5619C104.381 70.5619 69.0585 71.648 46.8808 80.3059C46.8349 80.322 46.7871 80.3322 46.7387 80.3364ZM47.2462 32.2964V79.0981C68.1247 71.1608 99.8739 69.7296 104.208 69.5672V24.6027C84.9007 23.429 65.5502 26.0427 47.2462 32.2964Z" fill="#1F2223"/>
<path d="M53.6305 71.9422C53.5203 71.9446 53.4127 71.9087 53.326 71.8407C53.2617 71.7946 53.2097 71.7336 53.1743 71.6628C53.1389 71.5921 53.1213 71.5138 53.123 71.4347V37.4018C53.123 37.2672 53.1764 37.1381 53.2716 37.0429C53.3668 36.9478 53.4959 36.8943 53.6305 36.8943C53.7643 36.8969 53.8918 36.9512 53.9865 37.0458C54.0811 37.1404 54.1354 37.268 54.138 37.4018V70.7445C58.7359 69.3032 84.7098 61.4065 94.403 63.4162C94.4697 63.4296 94.533 63.4559 94.5895 63.4937C94.646 63.5315 94.6944 63.5801 94.7321 63.6367C94.7698 63.6932 94.796 63.7566 94.8092 63.8233C94.8224 63.89 94.8224 63.9586 94.809 64.0252C94.7957 64.0919 94.7694 64.1552 94.7315 64.2117C94.6937 64.2682 94.6452 64.3167 94.5886 64.3544C94.5321 64.3921 94.4686 64.4183 94.402 64.4314C94.3353 64.4446 94.2667 64.4446 94.2 64.4312C84.05 62.3302 54.0872 71.8407 53.7827 71.9422H53.6305Z" fill="#1F2223"/>
<path d="M24.5 106.452C24.5 106.452 7.24499 113.618 0.718542 134.791V92.4453C0.718542 92.4453 0.342993 71.922 24.5 58.8894V106.452Z" fill="#DEE5EB"/>
<path d="M0.667792 135.298H0.596743C0.475655 135.284 0.364288 135.225 0.283814 135.133C0.203341 135.041 0.159375 134.923 0.160292 134.801V92.4452C0.160292 92.2422 0.160294 71.4651 24.2056 58.4427C24.2834 58.4 24.3707 58.3777 24.4594 58.3777C24.5481 58.3777 24.6354 58.4 24.7131 58.4427C24.788 58.4882 24.8497 58.5524 24.8924 58.6288C24.9351 58.7053 24.9573 58.7916 24.9567 58.8791V106.442C24.9562 106.542 24.9261 106.64 24.8701 106.723C24.8141 106.806 24.7348 106.871 24.6421 106.909C19.0191 109.729 14.0338 113.671 9.99407 118.493C5.95439 123.315 2.9461 128.913 1.155 134.943C1.12244 135.047 1.05756 135.137 0.969872 135.201C0.882186 135.265 0.776312 135.299 0.667792 135.298ZM23.9417 59.752C1.15499 72.4598 1.155 92.232 1.155 92.435V131.736C5.26352 120.646 13.3895 111.506 23.9214 106.127L23.9417 59.752Z" fill="#1F2223"/>
<path d="M0.667786 92.4453C0.667786 92.4453 4.90034 110.857 21.1911 116.958V166.51C21.1911 166.51 2.62674 153.66 0.667786 134.791V92.4453Z" fill="white"/>
<path d="M21.1911 167.017C21.089 167.018 20.9894 166.986 20.9069 166.926C20.714 166.794 2.11922 153.731 0.170421 134.842V92.4453C0.155615 92.3107 0.194888 92.1757 0.279594 92.0701C0.364299 91.9645 0.487498 91.8968 0.622096 91.882C0.756693 91.8672 0.891664 91.9064 0.997308 91.9911C1.10295 92.0758 1.17062 92.1991 1.18542 92.3337C1.18542 92.5062 5.56007 110.553 21.3941 116.491C21.4887 116.527 21.5701 116.591 21.628 116.674C21.6859 116.758 21.7176 116.856 21.7189 116.958V166.51C21.7181 166.602 21.6922 166.693 21.6439 166.771C21.5957 166.85 21.5268 166.914 21.4448 166.956C21.3677 167 21.2797 167.022 21.1911 167.017ZM1.15497 95.7339V134.791C2.82972 150.95 17.1108 162.795 20.6633 165.505V117.313C8.70657 112.654 3.18497 101.306 1.15497 95.7339Z" fill="#1F2223"/>
<path d="M219.857 132.243C217.949 132.619 135.267 170.813 135.267 170.813C135.267 170.813 102.909 159.009 102.158 159.385C101.407 159.76 183.662 125.473 183.662 125.473L219.857 132.243Z" fill="white"/>
<path d="M135.267 171.311C135.21 171.321 135.151 171.321 135.094 171.311C122.6 166.753 103.528 159.953 102.219 159.902V159.851C101.833 159.933 101.792 159.851 101.691 159.618C101.638 159.498 101.634 159.362 101.68 159.239C101.725 159.116 101.816 159.015 101.934 158.958H101.995C103.112 158.552 182.657 125.392 183.459 125.057C183.555 125.027 183.658 125.027 183.753 125.057L219.948 131.827C220.063 131.852 220.166 131.914 220.242 132.004C220.317 132.095 220.36 132.207 220.365 132.325C220.367 132.442 220.327 132.556 220.253 132.648C220.178 132.739 220.074 132.8 219.959 132.822C218.121 133.289 163.9 158.197 135.48 171.392C135.404 171.381 135.331 171.353 135.267 171.311ZM103.802 159.263C106.725 160.085 114.429 162.653 135.267 170.255C143.854 166.286 206.764 137.247 218.071 132.416L183.733 125.991L143.133 142.911L115.119 154.573L105.883 158.41L103.802 159.263Z" fill="#1F2223"/>
<path d="M135.267 166.094H135.115L113.12 159.364C113.02 159.335 112.932 159.275 112.869 159.193C112.805 159.111 112.769 159.011 112.764 158.907C112.759 158.804 112.786 158.701 112.84 158.612C112.894 158.523 112.974 158.453 113.069 158.41L175.268 132.345C175.382 132.296 175.51 132.291 175.628 132.33C175.746 132.369 175.846 132.45 175.908 132.558L182.383 143.987C182.411 144.051 182.425 144.12 182.425 144.19C182.425 144.26 182.411 144.329 182.383 144.393C182.364 144.462 182.33 144.525 182.282 144.578C182.235 144.631 182.175 144.672 182.109 144.697L135.419 166.104C135.368 166.108 135.317 166.104 135.267 166.094ZM114.754 158.786L135.237 165.048L181.226 143.957L175.248 133.36L114.754 158.786Z" fill="#DEE5EB"/>
<path d="M100.239 1.07504C97.6499 1.66718 95.2236 2.82488 93.1343 4.46514C91.1043 5.92674 89.0743 8.20034 89.7543 10.5551C90.0284 11.4585 90.6678 12.4938 90.0994 13.2449C89.7137 13.7422 88.9931 13.7828 88.3739 13.8742C87.1766 14.0525 86.0516 14.5574 85.1223 15.3332C84.1931 16.1091 83.4957 17.126 83.1066 18.2724C82.7175 19.4187 82.6518 20.65 82.9167 21.8312C83.1816 23.0124 83.7669 24.0978 84.6083 24.9681C83.5199 25.0295 82.4557 25.3136 81.4815 25.8028C80.5072 26.292 79.6438 26.9759 78.9445 27.8122C78.2452 28.6485 77.725 29.6194 77.416 30.6648C77.107 31.7102 77.0158 32.8079 77.148 33.89C77.3761 35.034 77.7621 36.1408 78.295 37.1786C79.1374 38.9345 80.1524 40.7717 79.8581 42.69C77.8281 42.2739 75.9402 44.4155 76.0518 46.4861C76.1861 47.5154 76.5698 48.4964 77.1695 49.3437C77.7691 50.191 78.5666 50.879 79.4927 51.348C77.4627 51.6931 76.2345 54.058 76.5695 56.088C77.0583 58.1169 78.3275 59.8712 80.1017 60.9702C82.1522 62.3877 84.5129 63.2925 86.9855 63.6087C89.4581 63.9248 91.9705 63.6431 94.3117 62.787C94.5148 63.7407 94.9607 64.6258 95.6061 65.3567C96.2516 66.0875 97.0749 66.6393 97.9961 66.9587C99.8505 67.567 101.803 67.8184 103.751 67.6996C107.385 67.6996 111.343 67.3748 114.033 64.9287C114.642 64.3806 115.19 63.4975 114.784 62.787C114.287 61.9141 112.683 61.904 112.592 60.9093C115.314 60.7372 117.925 59.7702 120.103 58.1282C120.895 57.6053 121.568 56.9225 122.081 56.1236C122.593 55.3247 122.932 54.4275 123.077 53.4896C123.119 52.7349 122.971 51.9816 122.646 51.2989C122.322 50.6161 121.831 50.0258 121.219 49.5819C122.732 48.2522 124.406 46.3237 123.605 44.5069C122.955 43.025 120.925 42.01 121.351 40.5382C122.452 40.0685 123.419 39.3334 124.167 38.3987C124.914 37.4639 125.418 36.3586 125.635 35.1815C125.851 34.0044 125.772 32.792 125.405 31.6528C125.039 30.5135 124.396 29.4827 123.534 28.6526C124.94 28.1353 126.151 27.1942 126.999 25.9594C127.848 24.7245 128.292 23.2566 128.271 21.7584C128.25 20.2602 127.764 18.8055 126.881 17.5951C125.998 16.3847 124.761 15.4782 123.341 15.0008C123.831 14.1976 124.098 13.2779 124.113 12.3369C124.129 11.3959 123.893 10.4678 123.429 9.64893C122.965 8.83001 122.291 8.15001 121.476 7.67937C120.661 7.20873 119.735 6.96457 118.793 6.97219C119.186 6.31369 119.309 5.52908 119.137 4.78207C118.965 4.03507 118.511 3.38336 117.87 2.96294C116.536 2.17986 114.956 1.92629 113.444 2.25244C110.927 2.61784 109.222 3.32834 106.948 2.25244C104.675 1.17654 102.777 0.59799 100.239 1.07504Z" fill="white"/>
<path d="M103.264 68.2071C101.411 68.2936 99.5579 68.0284 97.8033 67.4256C96.8982 67.1017 96.0787 66.576 95.4069 65.8884C94.7352 65.2008 94.2287 64.3693 93.926 63.4569C91.5758 64.2323 89.0778 64.4525 86.6282 64.1003C84.1786 63.7481 81.8439 62.833 79.8073 61.4269C77.9303 60.2454 76.5898 58.3766 76.0721 56.22C75.9116 55.2562 76.0434 54.2664 76.4504 53.3782C76.8574 52.49 77.5211 51.744 78.3559 51.2363C77.5724 50.7106 76.9144 50.0189 76.4285 49.2102C75.9425 48.4015 75.6407 47.4957 75.5443 46.5572C75.5174 45.8891 75.6433 45.2236 75.9125 44.6115C76.1816 43.9994 76.5868 43.4568 77.0973 43.025C77.4035 42.7316 77.7647 42.5016 78.1601 42.3483C78.5556 42.1951 78.9774 42.1214 79.4013 42.1318C79.2969 40.6328 78.8414 39.1795 78.0717 37.8891L77.8382 37.4019C77.2853 36.3224 76.8856 35.1712 76.6507 33.9813C76.4829 32.8274 76.5676 31.6508 76.8988 30.5328C77.23 29.4148 77.7998 28.382 78.569 27.5056C79.8453 25.9404 81.6507 24.8969 83.644 24.5723C82.9355 23.5841 82.4924 22.4306 82.3572 21.2223C82.222 20.0139 82.3991 18.791 82.8717 17.6707C83.3442 16.5503 84.0964 15.57 85.0563 14.8235C86.0161 14.0771 87.1514 13.5894 88.3536 13.4073H88.5566C89.054 13.3362 89.5716 13.2753 89.7442 12.9911C89.9167 12.7069 89.8355 12.1588 89.5513 11.4179C89.4701 11.1946 89.3889 10.9814 89.3179 10.7581C88.445 7.8349 91.1753 5.31771 92.8907 4.07941C95.0315 2.38851 97.5259 1.20199 100.189 0.608103C102.756 0.131053 104.705 0.699453 107.202 1.85655C108.857 2.60765 110.196 2.36405 111.912 2.03925C112.389 1.9479 112.876 1.85655 113.404 1.77535C115.044 1.41734 116.76 1.70447 118.195 2.57721C118.609 2.87221 118.961 3.24668 119.229 3.67882C119.497 4.11096 119.677 4.59216 119.758 5.09441C119.816 5.56346 119.763 6.03953 119.605 6.48495C120.508 6.60647 121.368 6.93916 122.118 7.45599C122.867 7.97281 123.484 8.65918 123.918 9.4593C124.352 10.2594 124.592 11.1507 124.617 12.0607C124.641 12.9707 124.451 13.8737 124.061 14.6963C125.439 15.2731 126.62 16.2364 127.462 17.4698C128.304 18.7032 128.771 20.154 128.806 21.647C128.842 23.14 128.444 24.6114 127.662 25.8833C126.879 27.1553 125.745 28.1735 124.396 28.815C125.172 29.7226 125.729 30.7969 126.022 31.9545C126.315 33.112 126.337 34.3217 126.087 35.4892C125.836 36.6568 125.32 37.7509 124.578 38.6864C123.836 39.622 122.888 40.3737 121.808 40.8833C121.808 41.4111 122.194 41.8983 122.823 42.6189C123.314 43.0966 123.722 43.6522 124.031 44.2633C124.721 45.8365 124.031 47.6128 122.001 49.5514C122.541 50.0534 122.964 50.6684 123.24 51.3527C123.515 52.0369 123.636 52.7735 123.594 53.5099C123.445 54.5214 123.085 55.4903 122.538 56.354C121.991 57.2177 121.268 57.957 120.417 58.524C118.413 60.0318 116.053 60.9967 113.566 61.3254L113.921 61.4979C114.454 61.6953 114.914 62.0492 115.241 62.5129C115.432 63.0033 115.452 63.5438 115.297 64.0468C115.142 64.5498 114.822 64.9857 114.388 65.2839C111.628 67.791 107.649 68.1564 103.761 68.1868L103.264 68.2071ZM94.3015 62.31C94.4247 62.3087 94.5441 62.3523 94.6374 62.4326C94.7308 62.5129 94.7918 62.6245 94.809 62.7464C94.992 63.6126 95.3983 64.4158 95.9876 65.0764C96.577 65.737 97.3289 66.2319 98.1687 66.5121C99.9615 67.0968 101.849 67.3379 103.731 67.2225C107.415 67.2225 111.171 66.8571 113.688 64.5835C114.165 64.1471 114.581 63.4874 114.338 63.0611C114.101 62.7854 113.796 62.5756 113.455 62.4521C112.876 62.178 112.155 61.8228 112.074 60.9904C112.066 60.8544 112.109 60.7201 112.196 60.6149C112.24 60.562 112.294 60.5185 112.355 60.4871C112.416 60.4557 112.483 60.437 112.551 60.4322C115.174 60.2675 117.691 59.3357 119.788 57.7526C120.803 57.0117 122.417 55.479 122.559 53.4795C122.597 52.8124 122.466 52.1467 122.179 51.5435C121.891 50.9404 121.457 50.4194 120.915 50.0285C120.852 49.9849 120.8 49.9274 120.763 49.8605C120.726 49.7936 120.705 49.7191 120.702 49.6427C120.696 49.5663 120.709 49.4897 120.739 49.4191C120.769 49.3486 120.816 49.2861 120.874 49.2368C122.904 47.4605 123.665 45.938 123.128 44.7099C122.859 44.2051 122.517 43.7432 122.113 43.3396C121.382 42.5479 120.549 41.6446 120.874 40.4367C120.895 40.3621 120.932 40.2932 120.983 40.2352C121.034 40.1771 121.097 40.1315 121.169 40.1018C122.192 39.6649 123.092 38.9814 123.787 38.1121C124.482 37.2429 124.951 36.215 125.152 35.1203C125.353 34.0256 125.28 32.8981 124.939 31.8386C124.598 30.7791 124 29.8205 123.199 29.0484C123.136 28.9877 123.089 28.9124 123.062 28.8291C123.036 28.7458 123.03 28.6573 123.046 28.5714C123.067 28.4888 123.107 28.4124 123.164 28.3488C123.22 28.2852 123.292 28.2362 123.371 28.206C124.68 27.7263 125.808 26.8519 126.598 25.7036C127.389 24.5554 127.803 23.1899 127.784 21.796C127.766 20.402 127.314 19.0483 126.493 17.922C125.671 16.7957 124.52 15.9522 123.199 15.5083C123.126 15.4849 123.06 15.4453 123.006 15.3925C122.951 15.3398 122.91 15.2752 122.884 15.2038C122.849 15.1363 122.831 15.0615 122.831 14.9856C122.831 14.9097 122.849 14.8349 122.884 14.7674C123.322 14.0444 123.56 13.2183 123.575 12.3732C123.589 11.5281 123.38 10.6942 122.967 9.9566C122.554 9.21896 121.953 8.60392 121.226 8.17415C120.498 7.74438 119.669 7.51524 118.824 7.5101C118.729 7.50913 118.636 7.48211 118.556 7.43199C118.475 7.38187 118.41 7.31058 118.367 7.2259C118.327 7.13973 118.311 7.04457 118.32 6.9501C118.329 6.85562 118.363 6.76518 118.418 6.68795C118.568 6.48271 118.674 6.2489 118.73 6.00099C118.786 5.75308 118.79 5.49633 118.743 5.24665C118.619 4.50889 118.211 3.84913 117.606 3.40951C116.381 2.69177 114.929 2.47021 113.546 2.79035C113.028 2.8614 112.531 2.95275 112.094 3.03395C110.278 3.37905 108.715 3.6734 106.766 2.77005C104.462 1.7043 102.706 1.1765 100.361 1.6028C97.848 2.17874 95.494 3.30543 93.4692 4.90155C92.2715 5.77445 89.5615 8.0582 90.2821 10.4739C90.343 10.6668 90.4141 10.8596 90.4953 11.0626C90.713 11.4489 90.8257 11.8855 90.8222 12.329C90.8186 12.7724 90.6989 13.2072 90.475 13.59C90.2366 13.8407 89.9502 14.041 89.6329 14.1787C89.3155 14.3165 88.9736 14.3889 88.6277 14.3918H88.4247C87.3215 14.5601 86.2858 15.0283 85.4307 15.7453C84.5755 16.4622 83.9338 17.4003 83.5756 18.4572C83.2173 19.514 83.1564 20.649 83.3994 21.7382C83.6424 22.8273 84.1799 23.8288 84.9534 24.6332C85.0231 24.7039 85.0701 24.794 85.0881 24.8916C85.1062 24.9893 85.0947 25.0902 85.0549 25.1813C85.0142 25.2713 84.9487 25.3478 84.8659 25.4017C84.7832 25.4557 84.6867 25.4848 84.588 25.4858C83.5753 25.5468 82.5856 25.8134 81.6794 26.2695C80.7731 26.7255 79.9692 27.3613 79.3168 28.1382C78.6643 28.9151 78.1769 29.8168 77.8843 30.7882C77.5917 31.7596 77.5001 32.7804 77.6149 33.7885C77.8473 34.8846 78.2299 35.9434 78.7517 36.935L78.9852 37.412C79.8073 39.0969 80.6599 40.8427 80.3656 42.7408C80.3562 42.8086 80.3323 42.8737 80.2955 42.9315C80.2587 42.9893 80.2099 43.0385 80.1524 43.0757C80.0958 43.1162 80.0313 43.1443 79.9631 43.1583C79.8949 43.1723 79.8246 43.1718 79.7566 43.1569C79.395 43.0938 79.0236 43.115 78.6715 43.2188C78.3194 43.3227 77.9961 43.5065 77.7266 43.7558C77.342 44.0844 77.035 44.4943 76.8279 44.956C76.6208 45.4176 76.5187 45.9194 76.5289 46.4252C76.6539 47.3711 77.0102 48.2715 77.5661 49.0469C78.1219 49.8223 78.8604 50.4488 79.716 50.8709C79.808 50.9227 79.8816 51.002 79.9265 51.0976C79.9713 51.1932 79.9852 51.3005 79.9662 51.4044C79.9472 51.5083 79.8963 51.6037 79.8205 51.6773C79.7447 51.7509 79.6479 51.799 79.5434 51.8149C77.7672 52.1194 76.7623 54.261 77.0465 55.9764C77.5176 57.8669 78.7086 59.4986 80.3656 60.5235C82.3436 61.9093 84.6277 62.7955 87.0227 63.1066C89.4177 63.4177 91.8524 63.1444 94.1188 62.31C94.1793 62.3003 94.241 62.3003 94.3015 62.31Z" fill="#1F2223"/>
<path d="M127.827 64.8779C127.827 64.8779 157.029 102.433 158.764 102.646C158.764 102.646 189.59 98.312 191.508 95.2772C193.426 92.2423 195.568 93.0848 195.568 93.0848C195.568 93.0848 197.456 89.4308 199.831 89.0248C202.206 88.6188 209.636 93.0848 205.312 95.9775C200.988 98.8703 162.621 123.037 157.414 123.586C140.921 125.291 125.137 85.7362 126.964 80.4886L127.827 64.8779Z" fill="white"/>
<path d="M156.45 124.103C151.537 124.103 146.239 120.672 141.042 114.105C132.049 102.747 125.279 84.3759 126.518 80.3565L127.34 64.8473C127.344 64.7437 127.38 64.6439 127.444 64.562C127.508 64.4801 127.596 64.4202 127.695 64.3906C127.793 64.3606 127.898 64.361 127.996 64.3918C128.094 64.4226 128.18 64.4824 128.243 64.5631C139.52 79.0675 156.826 100.829 158.856 102.118C170.69 100.454 189.793 97.0431 191.102 95.0131C192.716 92.4553 194.543 92.3741 195.365 92.5162C195.933 91.5012 197.649 88.9028 199.801 88.4562C201.749 88.0807 206.012 90.3847 206.987 92.7903C207.26 93.4373 207.274 94.1645 207.027 94.8218C206.78 95.479 206.289 96.0162 205.657 96.3225C202.348 98.5047 163.027 123.443 157.526 124.012C157.169 124.062 156.81 124.093 156.45 124.103ZM128.284 66.248L127.533 80.458C127.542 80.5015 127.542 80.5465 127.533 80.59C126.416 83.7974 132.608 101.783 141.864 113.456C145.6 118.165 151.334 123.606 157.445 123.017C162.408 122.499 199.567 99.1645 205.15 95.4902C206.165 94.8304 206.459 94.0692 206.094 93.176C205.271 91.146 201.465 89.2073 200.004 89.4611C198.248 89.796 196.583 92.3437 196.086 93.2978C196.029 93.4107 195.931 93.4977 195.812 93.5411C195.693 93.5844 195.563 93.5809 195.446 93.5312C195.385 93.5312 193.629 92.9019 191.975 95.5612C189.945 98.7077 162.043 102.666 158.866 103.153C158.822 103.163 158.777 103.163 158.734 103.153C157.008 102.91 137.49 78.1134 128.263 66.2582L128.284 66.248Z" fill="#1F2223"/>
<path d="M106.187 54.7482C106.187 54.7482 92.9922 49.4093 76.874 63.2437C69.6167 69.4149 68.145 76.1647 65.1 83.087C67.5461 106.229 76.0112 146.261 76.0112 146.261H131.227C131.227 146.261 135.683 112.695 137.317 92.4656C138.332 79.8796 132.577 70.4604 129.593 65.4666C124.477 56.8086 106.187 54.7482 106.187 54.7482Z" fill="#87FF53"/>
<path d="M97.58 57.7324C98.595 59.6711 115.414 103.742 115.414 103.742V62.5232L97.58 57.7324Z" fill="#1F2223"/>
<path d="M115.424 104.25C115.321 104.25 115.22 104.22 115.135 104.162C115.049 104.104 114.984 104.021 114.947 103.925C114.784 103.488 98.1179 59.8536 97.1334 57.9657C97.0882 57.8778 97.0697 57.7787 97.08 57.6804C97.0904 57.5821 97.1292 57.489 97.1917 57.4125C97.2542 57.336 97.3377 57.2794 97.4319 57.2496C97.5261 57.2199 97.627 57.2183 97.7221 57.245L115.556 62.0257C115.665 62.055 115.761 62.1198 115.829 62.2099C115.897 62.3 115.933 62.4102 115.931 62.523V103.742C115.933 103.861 115.892 103.977 115.815 104.068C115.739 104.159 115.632 104.22 115.515 104.24L115.424 104.25ZM98.4732 58.5036C100.869 64.3094 111.567 92.2422 114.916 100.992V62.9087L98.4732 58.5036Z" fill="#1F2223"/>
<path d="M122.031 21.0503L122.864 23.8517C123.229 25.1001 124.305 25.5366 124.762 26.5719C125.218 27.6072 125.056 29.8503 125.117 31.1191C125.354 34.203 125.135 37.305 124.467 40.3251C124.006 42.2892 122.981 44.076 121.519 45.4661C120.057 46.8562 118.221 47.7893 116.236 48.1508L115.85 60.6657C115.85 60.6657 115.708 67.0704 107.892 65.8321C105.627 65.4672 103.493 64.5298 101.692 63.1087C99.8906 61.6877 98.4822 59.8301 97.6003 57.7121L97.4886 41.4721C97.4886 39.7364 96.7984 36.4783 97.4886 34.834C98.1788 33.1897 101.173 32.1747 102.493 30.6217C104.253 28.5727 105.275 25.9922 105.395 23.2934C106.813 23.3571 108.22 23.0217 109.456 22.3255C110.692 21.6294 111.708 20.6002 112.389 19.3552C113.521 20.7352 115.147 21.6195 116.921 21.8204C118.695 22.0212 120.477 21.5229 121.889 20.4311L122.031 21.0503Z" fill="white"/>
<path d="M109.76 66.502C109.08 66.4992 108.401 66.4415 107.73 66.3295C105.375 65.9654 103.154 64.9995 101.281 63.5254C99.4089 62.0514 97.9487 60.1189 97.042 57.9151C97.0324 57.858 97.0324 57.7997 97.042 57.7426L96.9304 41.4417C96.9304 40.9342 96.8593 40.2643 96.7984 39.5538C96.6259 37.8283 96.433 35.8693 96.9202 34.6209C97.3567 33.5348 98.595 32.733 99.7927 31.9717C100.61 31.5071 101.359 30.9297 102.016 30.2564C103.708 28.2994 104.688 25.8275 104.797 23.2427C104.799 23.1757 104.814 23.1098 104.842 23.0489C104.87 22.9879 104.91 22.933 104.959 22.8875C105.007 22.8373 105.066 22.7991 105.131 22.7762C105.196 22.7532 105.266 22.7462 105.335 22.7555C106.654 22.8149 107.964 22.5018 109.115 21.8521C110.265 21.2024 111.21 20.2422 111.841 19.0812C111.881 19.0049 111.941 18.9404 112.014 18.8941C112.087 18.8478 112.171 18.8214 112.257 18.8173C112.342 18.8116 112.428 18.8271 112.506 18.8626C112.584 18.898 112.652 18.9522 112.703 19.0203C113.75 20.2908 115.248 21.1064 116.884 21.2956C118.519 21.4849 120.164 21.0332 121.473 20.0353C121.538 19.9797 121.615 19.9412 121.699 19.9235C121.782 19.9058 121.868 19.9093 121.95 19.9338C122.03 19.96 122.102 20.005 122.16 20.0651C122.218 20.1252 122.261 20.1986 122.285 20.2789L122.478 20.9184L123.31 23.7198C123.5 24.2403 123.814 24.7069 124.224 25.0799C124.638 25.4478 124.982 25.888 125.239 26.3791C125.602 27.5397 125.733 28.7608 125.624 29.9722C125.624 30.3883 125.624 30.774 125.624 31.109C125.871 34.2439 125.648 37.3979 124.965 40.4673C124.483 42.4505 123.459 44.2606 122.007 45.6947C120.555 47.1289 118.732 48.1304 116.743 48.5873L116.357 60.6962C116.311 61.5335 116.099 62.3533 115.733 63.1078C115.367 63.8623 114.855 64.5365 114.226 65.0912C112.956 66.0835 111.37 66.5844 109.76 66.502ZM98.0976 57.6411C98.9677 59.6451 100.327 61.3987 102.051 62.7412C103.774 64.0836 105.807 64.9719 107.963 65.3246C110.389 65.7205 112.277 65.3246 113.556 64.3096C114.601 63.3693 115.239 62.0584 115.332 60.6556L115.728 48.1001C115.734 47.9784 115.781 47.8623 115.863 47.7717C115.944 47.681 116.054 47.6213 116.175 47.6027C118.054 47.2647 119.794 46.384 121.179 45.0692C122.564 43.7544 123.535 42.0629 123.97 40.2034C124.63 37.2303 124.842 34.1752 124.599 31.1394C124.599 30.7943 124.599 30.3883 124.599 29.9519C124.694 28.8872 124.594 27.8141 124.305 26.7851C124.106 26.4062 123.845 26.0631 123.534 25.7701C123.008 25.286 122.61 24.6792 122.376 24.004L121.554 21.2432C120.137 22.1198 118.468 22.4962 116.812 22.3122C115.156 22.1283 113.609 21.3945 112.419 20.2282C111.677 21.295 110.692 22.1698 109.544 22.7805C108.397 23.3911 107.121 23.7201 105.822 23.7401C105.577 26.3692 104.512 28.8548 102.777 30.8451C102.082 31.6359 101.275 32.3199 100.381 32.8751C99.3664 33.5551 98.2194 34.2555 97.9048 35.0472C97.6052 36.5155 97.5845 38.0271 97.8439 39.503C97.9149 40.2338 97.986 40.9342 97.986 41.533L98.0976 57.6411Z" fill="#1F2223"/>
<path d="M101.823 35.0166C101.823 35.0166 98.2296 26.2064 93.7027 31.5453C89.1758 36.8842 95.3369 43.096 99.2142 42.7103" fill="white"/>
<path d="M98.8488 43.2278C96.5244 43.2278 93.7738 41.3602 92.4238 38.7923C91.751 37.5984 91.475 36.2216 91.6355 34.8607C91.7961 33.4997 92.3849 32.225 93.317 31.2204C94.5452 29.7791 95.8444 29.1904 97.1842 29.3629C100.229 29.8501 102.208 34.6206 102.259 34.8236C102.292 34.8861 102.312 34.9549 102.317 35.0255C102.322 35.096 102.312 35.1669 102.288 35.2334C102.264 35.3 102.227 35.3608 102.178 35.412C102.129 35.4632 102.07 35.5035 102.005 35.5305C101.939 35.5576 101.869 35.5706 101.798 35.5688C101.727 35.5671 101.658 35.5505 101.594 35.5203C101.53 35.49 101.473 35.4467 101.427 35.3932C101.381 35.3396 101.346 35.277 101.325 35.2093C101.325 35.2093 99.4781 30.7636 96.9913 30.3678C96.0271 30.2155 95.0425 30.723 94.058 31.8801C93.2627 32.7342 92.7601 33.8193 92.6232 34.9783C92.4864 36.1372 92.7223 37.3096 93.2967 38.3254C94.5249 40.6599 97.1334 42.3854 99.133 42.2027C99.2676 42.1892 99.402 42.2298 99.5067 42.3155C99.6114 42.4011 99.6778 42.5248 99.6912 42.6594C99.7047 42.794 99.6641 42.9285 99.5784 43.0332C99.4928 43.1379 99.3691 43.2042 99.2345 43.2177C99.1063 43.2297 98.9774 43.2331 98.8488 43.2278Z" fill="#1F2223"/>
<path d="M118.184 40.5179C117.288 40.498 116.398 40.365 115.535 40.122C115.401 40.083 115.287 39.9921 115.22 39.8693C115.152 39.7465 115.136 39.602 115.175 39.4674C115.214 39.3328 115.305 39.2192 115.428 39.1516C115.551 39.084 115.695 39.068 115.83 39.107C116.5 39.31 118.459 39.7262 119.463 39.239C119.697 38.7315 118.134 35.6966 116.073 32.7937C115.997 32.6827 115.967 32.5464 115.99 32.4138C116.013 32.2812 116.086 32.1626 116.195 32.0832C116.25 32.0443 116.311 32.0165 116.377 32.0016C116.442 31.9866 116.51 31.9847 116.576 31.9961C116.642 32.0074 116.705 32.0317 116.762 32.0676C116.818 32.1034 116.867 32.1501 116.906 32.205C117.829 33.5245 120.834 37.9296 120.417 39.513C120.382 39.6489 120.318 39.776 120.231 39.886C120.144 39.9961 120.034 40.0868 119.91 40.1525C119.369 40.3993 118.779 40.524 118.184 40.5179Z" fill="#1F2223"/>
<path d="M115.079 44.3139C114.349 44.315 113.622 44.2194 112.917 44.0297C110.791 43.4228 108.951 42.0766 107.73 40.2336C107.703 40.1717 107.689 40.1051 107.689 40.0377C107.688 39.9704 107.701 39.9036 107.727 39.8412C107.752 39.7788 107.79 39.7222 107.837 39.6745C107.885 39.6269 107.942 39.5892 108.004 39.5637C108.128 39.5158 108.266 39.5176 108.389 39.5687C108.512 39.6197 108.61 39.716 108.664 39.8377C109.8 41.439 111.464 42.589 113.363 43.0857C115.809 43.6947 118.367 42.9944 120.955 41.0557C121.062 40.9832 121.193 40.9542 121.32 40.9747C121.448 40.9951 121.563 41.0634 121.642 41.1656C121.721 41.2679 121.758 41.3964 121.745 41.5249C121.733 41.6535 121.672 41.7725 121.575 41.8576C119.743 43.3773 117.457 44.2418 115.079 44.3139Z" fill="#1F2223"/>
<path d="M116.236 48.1506C116.236 48.1506 109.527 48.7799 105.72 47.6736C105.72 47.6736 109.598 57.6713 115.952 57.8236L116.236 48.1506Z" fill="#1F2223"/>
<path d="M115.952 58.3311C109.334 58.1687 105.416 48.2826 105.253 47.8563C105.219 47.7694 105.21 47.6743 105.228 47.5825C105.246 47.4907 105.29 47.4061 105.355 47.3386C105.42 47.269 105.502 47.2182 105.593 47.1914C105.684 47.1646 105.781 47.1629 105.873 47.1864C109.537 48.2521 116.134 47.6533 116.205 47.6431C116.276 47.638 116.347 47.648 116.413 47.6725C116.48 47.697 116.541 47.7354 116.591 47.7852C116.647 47.8319 116.691 47.8913 116.719 47.9584C116.747 48.0255 116.759 48.0984 116.753 48.1709L116.469 57.8337C116.468 57.9004 116.453 57.9661 116.427 58.0272C116.4 58.0883 116.361 58.1435 116.313 58.1897C116.265 58.2358 116.209 58.2721 116.147 58.2964C116.084 58.3206 116.018 58.3324 115.952 58.3311ZM106.593 48.4044C107.679 50.7389 110.897 56.7578 115.464 57.2755L115.718 48.6987C112.676 48.9665 109.612 48.8677 106.593 48.4044Z" fill="#1F2223"/>
<path d="M112.062 33.3032C112.606 33.2923 113.031 32.5111 113.012 31.5583C112.993 30.6056 112.537 29.842 111.993 29.8529C111.45 29.8637 111.024 30.6449 111.044 31.5977C111.063 32.5505 111.519 33.3141 112.062 33.3032Z" fill="#1F2223"/>
<path d="M121.112 33.122C121.656 33.1112 122.081 32.33 122.062 31.3772C122.043 30.4244 121.587 29.6608 121.043 29.6717C120.5 29.6826 120.074 30.4638 120.093 31.4166C120.112 32.3693 120.569 33.1329 121.112 33.122Z" fill="#1F2223"/>
<path d="M109.76 34.9861C106.806 34.9861 106.654 34.7831 106.522 34.6207C106.39 34.4583 106.136 34.1132 106.045 28.6829C106.045 28.5518 106.096 28.4257 106.187 28.3311C106.277 28.2364 106.401 28.1807 106.532 28.1754C116.439 27.6882 116.743 27.7796 116.845 27.81C116.952 27.8455 117.046 27.9153 117.11 28.0088C117.174 28.1024 117.206 28.2144 117.2 28.3277L116.794 34.3466C116.784 34.4706 116.729 34.5867 116.639 34.6728C116.549 34.7589 116.431 34.8089 116.307 34.8135C113.211 34.9049 111.13 34.9861 109.76 34.9861ZM107.283 33.8899C108.238 34.0117 112.115 33.9508 115.759 33.8087L116.104 28.7337C114.632 28.7337 110.166 28.9468 107.02 29.0991C107.025 30.6995 107.113 32.2986 107.283 33.8899Z" fill="#1F2223"/>
<path d="M128.375 34.8136H119.017C118.951 34.8149 118.885 34.803 118.823 34.7787C118.762 34.7543 118.706 34.7178 118.659 34.6715C118.611 34.6252 118.574 34.5699 118.548 34.5089C118.522 34.4479 118.509 34.3824 118.509 34.3162L118.459 28.2871C118.459 28.1543 118.511 28.0267 118.604 27.9318C118.697 27.8369 118.823 27.7823 118.956 27.7796C128.548 27.6883 128.832 27.7796 128.933 27.7796C129.041 27.8151 129.134 27.8849 129.198 27.9784C129.263 28.072 129.294 28.184 129.289 28.2973L128.883 34.3162C128.883 34.3824 128.869 34.4479 128.844 34.5089C128.818 34.5699 128.781 34.6252 128.733 34.6715C128.686 34.7178 128.63 34.7543 128.569 34.7787C128.507 34.803 128.441 34.8149 128.375 34.8136ZM119.524 33.7986H127.908L128.243 28.7236C126.822 28.7236 122.519 28.7236 119.474 28.7236L119.524 33.7986Z" fill="#1F2223"/>
<path d="M118.966 31.3829H116.642C116.507 31.3829 116.378 31.3295 116.283 31.2343C116.188 31.1391 116.134 31.01 116.134 30.8754C116.134 30.7408 116.188 30.6117 116.283 30.5166C116.378 30.4214 116.507 30.3679 116.642 30.3679H118.966C119.101 30.3679 119.23 30.4214 119.325 30.5166C119.42 30.6117 119.474 30.7408 119.474 30.8754C119.474 31.01 119.42 31.1391 119.325 31.2343C119.23 31.3295 119.101 31.3829 118.966 31.3829Z" fill="#1F2223"/>
<path d="M88.4958 92.4452C88.4958 92.4452 85.7045 120.033 87.0646 126.661L133.359 133.177C133.359 133.177 145.224 132.71 150.939 134.75C154.44 135.999 160.794 141.47 159.647 143.185C158.5 144.9 155.364 147.042 152.542 146.23C149.721 145.418 141.783 142.891 141.783 142.891C141.783 142.891 147.965 148.483 144.25 148.108C140.535 147.732 136.424 145.124 136.424 145.124C136.424 145.124 110.704 150.006 94.2407 149.184C73.9407 148.169 65.303 143.358 63.0091 131.35C60.7152 119.343 63.1411 88.0097 65.1508 83.0869" fill="white"/>
<path d="M98.2702 149.793C96.8593 149.793 95.4891 149.793 94.2102 149.691C73.4331 148.615 64.8462 143.672 62.5117 131.421C60.1772 119.17 62.7046 87.7153 64.6838 82.8636C64.7083 82.8016 64.7449 82.7452 64.7916 82.6976C64.8383 82.6501 64.8941 82.6124 64.9557 82.5869C65.0172 82.5613 65.0833 82.5484 65.1499 82.5488C65.2165 82.5493 65.2824 82.5632 65.3436 82.5896C65.4056 82.614 65.462 82.6507 65.5095 82.6974C65.5571 82.7441 65.5947 82.7999 65.6203 82.8614C65.6459 82.9229 65.6588 82.989 65.6583 83.0556C65.6579 83.1223 65.644 83.1881 65.6176 83.2493C63.679 88.03 61.2328 119.272 63.5064 131.228C65.7293 142.881 74.0624 147.6 94.2609 148.646C110.501 149.478 136.079 144.677 136.333 144.586C136.459 144.563 136.589 144.589 136.698 144.657C136.698 144.657 140.758 147.194 144.3 147.56C144.513 147.621 144.738 147.621 144.95 147.56C145.062 147.103 143.407 145.043 141.448 143.276C141.36 143.198 141.301 143.092 141.282 142.975C141.264 142.858 141.287 142.739 141.347 142.637C141.406 142.537 141.498 142.46 141.607 142.419C141.716 142.379 141.835 142.377 141.946 142.414C142.017 142.414 149.863 144.961 152.674 145.733C155.222 146.433 158.186 144.484 159.262 142.87C159.299 142.78 159.318 142.684 159.318 142.586C159.318 142.489 159.299 142.392 159.262 142.302C158.602 140.272 153.791 136.212 150.817 135.197C145.255 133.167 133.562 133.654 133.43 133.654L87.0443 127.138C86.9398 127.123 86.8426 127.076 86.7662 127.003C86.6898 126.93 86.638 126.836 86.618 126.732C85.2579 120.104 87.9273 93.4907 88.039 92.364C88.0456 92.2974 88.0654 92.2327 88.097 92.1737C88.1287 92.1146 88.1717 92.0624 88.2235 92.02C88.2753 91.9776 88.335 91.9458 88.3991 91.9265C88.4633 91.9071 88.5306 91.9006 88.5972 91.9073C88.6639 91.9139 88.7286 91.9337 88.7876 91.9653C88.8466 91.997 88.8988 92.0399 88.9412 92.0918C88.9836 92.1436 89.0154 92.2033 89.0348 92.2674C89.0541 92.3316 89.0606 92.3989 89.054 92.4655C89.054 92.7294 86.3845 119.13 87.5518 126.184L133.491 132.649C133.887 132.649 145.427 132.193 151.172 134.243C154.217 135.329 159.414 139.521 160.236 141.987C160.334 142.219 160.376 142.47 160.358 142.72C160.34 142.971 160.264 143.213 160.134 143.429C158.856 145.347 155.476 147.56 152.431 146.717C150.512 146.179 146.27 144.85 143.722 144.038C145.001 145.388 146.3 147.083 145.884 147.996C145.661 148.494 145.102 148.697 144.229 148.605C141.44 148.149 138.767 147.149 136.363 145.662C134.12 146.098 113.668 149.793 98.2702 149.793Z" fill="#1F2223"/>
<path d="M88.4958 92.9529H88.445C88.3127 92.9281 88.1953 92.8528 88.1176 92.7429C88.0399 92.633 88.0081 92.4971 88.0288 92.3642L91.6524 72.2265C91.6766 72.092 91.7533 71.9725 91.8656 71.8945C91.9779 71.8164 92.1167 71.7862 92.2513 71.8104C92.3859 71.8346 92.5053 71.9113 92.5834 72.0236C92.6614 72.1359 92.6916 72.2747 92.6674 72.4093L89.054 92.5468C89.0272 92.6713 88.9554 92.7816 88.8524 92.8565C88.7494 92.9314 88.6225 92.9657 88.4958 92.9529Z" fill="#1F2223"/>
<path d="M162.032 164.561V91.41C162.032 91.41 225.206 88.9842 251.352 62.8276V138.435C251.352 138.435 225.206 159.75 162.032 164.561Z" fill="#87FF53"/>
<path d="M162.033 165.069C161.906 165.067 161.783 165.02 161.687 164.937C161.637 164.888 161.596 164.83 161.568 164.765C161.54 164.701 161.526 164.631 161.525 164.561V91.4101C161.525 91.2789 161.576 91.1528 161.666 91.0582C161.757 90.9636 161.881 90.9078 162.012 90.9026C162.642 90.9026 225.287 88.1824 250.967 62.4826C251.04 62.4136 251.131 62.3666 251.23 62.3469C251.329 62.3271 251.431 62.3355 251.525 62.3709C251.619 62.4097 251.7 62.4759 251.756 62.561C251.812 62.6461 251.841 62.7461 251.84 62.848V138.435C251.841 138.512 251.824 138.587 251.791 138.656C251.757 138.725 251.708 138.785 251.647 138.831C251.393 139.044 224.678 160.308 162.073 165.109L162.033 165.069ZM162.54 91.8871V164.013C221.715 159.364 248.358 140.029 250.845 138.151V64.0559C225.602 88.0505 168.427 91.5928 162.54 91.8871Z" fill="#1F2223"/>
<path d="M31.3918 191.641V141.48C31.3918 141.48 59.4566 160.024 101.427 155.893V204.836C101.427 204.836 73.9406 213.149 31.3918 191.641Z" fill="white"/>
<path d="M86.7905 206.856C74.4887 206.856 55.1428 204.217 31.1584 192.098C31.0763 192.053 31.0077 191.987 30.9595 191.907C30.9114 191.826 30.8854 191.735 30.8843 191.641V141.48C30.8851 141.389 30.91 141.3 30.9563 141.221C31.0026 141.143 31.0689 141.078 31.1482 141.033C31.2262 140.986 31.3158 140.961 31.4071 140.961C31.4984 140.961 31.5879 140.986 31.6659 141.033C31.9501 141.216 60.0859 159.435 101.366 155.365C101.435 155.359 101.505 155.366 101.571 155.387C101.637 155.408 101.699 155.442 101.752 155.487C101.802 155.536 101.843 155.594 101.871 155.658C101.899 155.723 101.913 155.792 101.914 155.862V204.806C101.915 204.914 101.881 205.02 101.817 205.108C101.753 205.196 101.662 205.26 101.559 205.293C101.437 205.334 96.159 206.856 86.7905 206.856ZM31.8993 191.337C71.0073 211.007 97.5394 205.273 100.919 204.42V156.421C63.4252 159.943 36.751 145.256 31.8993 142.363V191.337Z" fill="#1F2223"/>
<path d="M176.75 151.072C176.623 151.072 176.5 151.025 176.405 150.94C176.354 150.891 176.314 150.833 176.286 150.768C176.258 150.704 176.243 150.635 176.242 150.564V98.4542C176.242 98.3279 176.288 98.206 176.373 98.1121C176.457 98.0183 176.574 97.9593 176.699 97.9467C179.957 97.632 192.554 96.1197 192.686 96.1095C192.756 96.1015 192.828 96.1081 192.896 96.1291C192.964 96.15 193.027 96.1848 193.081 96.2313C193.136 96.2774 193.18 96.335 193.209 96.3999C193.239 96.4648 193.254 96.5354 193.254 96.6068V147.722C193.253 147.822 193.223 147.92 193.167 148.003C193.111 148.086 193.032 148.151 192.939 148.189C188.25 150.219 177.247 151.041 176.78 151.072H176.75ZM177.257 98.9109V150.016C179.511 149.823 188.138 149.001 192.239 147.387V97.1854C189.813 97.4696 180.577 98.5658 177.227 98.9109H177.257Z" fill="#1F2223"/>
<path d="M202.622 145.743C202.503 145.743 202.388 145.699 202.298 145.621C202.242 145.573 202.198 145.514 202.166 145.447C202.135 145.381 202.117 145.309 202.115 145.235V104.788C202.116 104.668 202.159 104.552 202.237 104.461C202.315 104.37 202.423 104.31 202.541 104.29C207.974 103.312 213.296 101.792 218.426 99.7533C218.499 99.7133 218.581 99.6924 218.664 99.6924C218.748 99.6924 218.83 99.7133 218.903 99.7533C218.972 99.801 219.028 99.8647 219.067 99.9389C219.106 100.013 219.126 100.096 219.126 100.18V139.765C219.126 139.857 219.1 139.947 219.051 140.026C219.003 140.105 218.934 140.169 218.852 140.211C213.761 142.817 208.323 144.68 202.704 145.743H202.622ZM203.13 105.214V144.626C208.332 143.575 213.37 141.834 218.111 139.45V100.981C213.263 102.853 208.251 104.27 203.14 105.214H203.13Z" fill="#1F2223"/>
<path d="M227.764 136.659C227.651 136.661 227.54 136.625 227.449 136.557C227.389 136.508 227.34 136.446 227.306 136.376C227.273 136.306 227.256 136.229 227.256 136.151V107.427C227.258 107.314 227.296 107.205 227.366 107.117C227.436 107.029 227.533 106.966 227.642 106.939C232.685 105.67 237.485 103.582 241.852 100.758C241.932 100.711 242.023 100.686 242.116 100.686C242.209 100.686 242.3 100.711 242.38 100.758C242.463 100.801 242.533 100.867 242.582 100.948C242.63 101.028 242.655 101.121 242.654 101.215V130.264C242.654 130.349 242.632 130.433 242.592 130.507C242.551 130.582 242.492 130.645 242.421 130.69C237.887 133.373 232.992 135.393 227.886 136.689L227.764 136.659ZM228.271 107.823V135.502C232.955 134.255 237.451 132.388 241.639 129.95V102.108C237.486 104.656 232.983 106.581 228.271 107.823Z" fill="#1F2223"/>
<path d="M222.75 88.8319C222.615 88.848 222.48 88.8101 222.373 88.7263C222.266 88.6425 222.198 88.5199 222.181 88.3853C222.165 88.2507 222.203 88.1152 222.287 88.0086C222.371 87.902 222.493 87.833 222.628 87.8169C222.74 87.8169 234.27 84.7719 242.928 78.2353C243.037 78.1571 243.171 78.124 243.304 78.1429C243.436 78.1618 243.556 78.2313 243.638 78.3368C243.719 78.4445 243.754 78.5798 243.735 78.713C243.716 78.8463 243.645 78.9665 243.537 79.0473C234.686 85.7463 222.973 88.771 222.861 88.8014L222.75 88.8319Z" fill="white"/>
<path d="M231.489 91.481C231.354 91.5079 231.215 91.4803 231.1 91.4041C230.986 91.328 230.907 91.2096 230.88 91.075C230.853 90.9404 230.881 90.8006 230.957 90.6864C231.033 90.5722 231.151 90.4929 231.286 90.466L233.062 89.6743C236.61 88.3106 239.936 86.4257 242.928 84.0816C243.032 84.0126 243.157 83.9843 243.281 84.0019C243.404 84.0196 243.517 84.0821 243.597 84.1774C243.677 84.2728 243.72 84.3943 243.716 84.519C243.713 84.6436 243.663 84.7625 243.578 84.853C240.512 87.2568 237.109 89.196 233.478 90.6081L231.702 91.3896C231.638 91.4349 231.566 91.4661 231.489 91.481Z" fill="white"/>
<path d="M16.7657 125.971C16.6653 125.97 16.567 125.942 16.4815 125.89C11.3908 122.325 6.90215 117.97 3.185 112.989C3.10848 112.881 3.07732 112.747 3.09819 112.616C3.11905 112.485 3.19028 112.368 3.29665 112.289C3.40646 112.211 3.54191 112.18 3.67445 112.201C3.807 112.222 3.92627 112.293 4.00714 112.4C7.65184 117.279 12.0513 121.544 17.0397 125.037C17.1517 125.113 17.2293 125.23 17.2558 125.363C17.2824 125.496 17.2558 125.634 17.1818 125.747C17.1358 125.816 17.0738 125.872 17.0013 125.91C16.9288 125.949 16.848 125.97 16.7657 125.971Z" fill="#DEE5EB"/>
<path d="M16.7657 135.299C16.6653 135.298 16.567 135.27 16.4815 135.217C11.3908 131.652 6.90215 127.297 3.185 122.317C3.10848 122.209 3.07732 122.075 3.09819 121.944C3.11905 121.813 3.19028 121.695 3.29665 121.616C3.40646 121.539 3.54191 121.508 3.67445 121.529C3.807 121.55 3.92627 121.621 4.00714 121.728C7.65101 126.61 12.0505 130.879 17.0397 134.375C17.1517 134.451 17.2293 134.568 17.2558 134.701C17.2824 134.834 17.2558 134.972 17.1818 135.085C17.1347 135.152 17.0722 135.206 16.9998 135.243C16.9274 135.28 16.8471 135.299 16.7657 135.299Z" fill="#DEE5EB"/>
<path d="M16.7657 144.627C16.6653 144.626 16.567 144.598 16.4815 144.545C11.3908 140.98 6.90215 136.625 3.185 131.645C3.10848 131.536 3.07732 131.403 3.09819 131.272C3.11905 131.141 3.19028 131.023 3.29665 130.944C3.40646 130.867 3.54191 130.836 3.67445 130.857C3.807 130.877 3.92627 130.949 4.00714 131.056C7.6457 135.933 12.0382 140.199 17.0194 143.693C17.1314 143.769 17.209 143.886 17.2355 144.019C17.2621 144.152 17.2355 144.29 17.1615 144.403C17.1175 144.469 17.0587 144.523 16.99 144.562C16.9213 144.6 16.8445 144.623 16.7657 144.627Z" fill="#DEE5EB"/>
<path d="M204.236 80.3363C204.163 80.3383 204.09 80.3239 204.024 80.294C203.957 80.2641 203.898 80.2196 203.851 80.1637C193.173 67.8924 172.457 55.3876 172.254 55.2658C172.179 55.2195 172.118 55.1552 172.076 55.0789C172.033 55.0026 172.01 54.9167 172.01 54.8293V21.7099C172.01 21.5753 172.063 21.4462 172.159 21.351C172.254 21.2559 172.383 21.2024 172.517 21.2024C172.651 21.205 172.779 21.2593 172.873 21.3539C172.968 21.4485 173.022 21.5761 173.025 21.7099V54.5451C175.41 56.0067 194.462 67.8315 204.622 79.504C204.715 79.5989 204.767 79.7264 204.767 79.8592C204.767 79.9921 204.715 80.1196 204.622 80.2145C204.514 80.3028 204.376 80.3464 204.236 80.3363Z" fill="#1F2223"/>
<path d="M193.051 58.6762C192.698 58.6771 192.35 58.5936 192.036 58.4326C190.229 57.5292 189.722 54.2305 189.184 50.7389C188.798 48.2115 188.392 45.603 187.499 44.0602C187.423 43.8814 187.298 43.728 187.138 43.6183C186.978 43.5086 186.79 43.447 186.596 43.441C183.774 43.3395 177.856 51.0434 175.796 54.0173C175.714 54.1109 175.601 54.1712 175.478 54.187C175.355 54.2027 175.23 54.1727 175.127 54.1026C175.025 54.0326 174.952 53.9274 174.921 53.8069C174.891 53.6864 174.906 53.559 174.964 53.4489C175.745 52.3121 182.698 42.426 186.545 42.426H186.636C187.001 42.4382 187.355 42.5483 187.662 42.7447C187.969 42.9412 188.218 43.2168 188.382 43.5425C189.397 45.2477 189.783 47.9578 190.189 50.5765C190.666 53.6215 191.153 56.839 192.493 57.5191C192.789 57.628 193.108 57.6627 193.421 57.6202C193.734 57.5778 194.032 57.4594 194.289 57.2755C196.466 56.0721 198.4 54.4752 199.994 52.5659C201.815 50.4204 204 48.6131 206.449 47.227C206.566 47.1612 206.704 47.1446 206.834 47.1808C206.963 47.2169 207.073 47.3029 207.139 47.4198C207.201 47.5387 207.215 47.6772 207.177 47.8059C207.139 47.9347 207.053 48.0437 206.936 48.11C204.586 49.4491 202.491 51.1909 200.745 53.2561C199.068 55.2468 197.042 56.915 194.766 58.1788C194.243 58.4816 193.655 58.6523 193.051 58.6762Z" fill="#1F2223"/>
<path d="M62.9786 69.2018C62.844 69.2018 62.7149 69.1483 62.6198 69.0532C62.5246 68.958 62.4711 68.8289 62.4711 68.6943V40.0409C62.4705 39.9323 62.5046 39.8265 62.5686 39.7388C62.6325 39.6511 62.7229 39.5862 62.8264 39.5537C64.7528 38.9513 66.725 38.5066 68.7235 38.224C68.7937 38.2146 68.865 38.2217 68.9319 38.2446C68.9989 38.2675 69.0596 38.3056 69.1092 38.356C69.1643 38.4016 69.2084 38.4591 69.2383 38.5241C69.2682 38.5891 69.283 38.66 69.2818 38.7315V66.8064C69.2792 66.9402 69.2249 67.0678 69.1303 67.1624C69.0356 67.257 68.9081 67.3113 68.7743 67.3139C68.6397 67.3139 68.5106 67.2604 68.4154 67.1653C68.3203 67.0701 68.2668 66.941 68.2668 66.8064V39.2999C66.6504 39.5664 65.0534 39.9393 63.4861 40.4164V68.6943C63.4861 68.8289 63.4327 68.958 63.3375 69.0532C63.2423 69.1483 63.1132 69.2018 62.9786 69.2018Z" fill="#1F2223"/>
<path d="M86.9936 197.305C86.8931 197.299 86.7964 197.265 86.7153 197.205C86.6342 197.146 86.5722 197.064 86.5368 196.97L75.3718 165.83L63.07 189.784C63.0295 189.859 62.9714 189.923 62.9007 189.971C62.83 190.018 62.7488 190.048 62.664 190.058C62.5784 190.065 62.4922 190.051 62.4139 190.015C62.3357 189.98 62.268 189.924 62.2174 189.855L50.0374 173.929L42.3437 186.14C42.2725 186.251 42.1613 186.331 42.033 186.363C41.9046 186.396 41.7688 186.377 41.6535 186.312L35.1068 182.364C35.0495 182.331 34.9996 182.286 34.9598 182.233C34.92 182.18 34.8913 182.12 34.8752 182.055C34.8591 181.991 34.8561 181.924 34.8662 181.859C34.8763 181.793 34.8995 181.73 34.9342 181.674C34.9686 181.616 35.0141 181.566 35.068 181.526C35.122 181.486 35.1833 181.458 35.2484 181.441C35.3135 181.425 35.3812 181.422 35.4475 181.433C35.5137 181.443 35.5773 181.466 35.6346 181.501L41.7246 185.176L49.4893 172.732C49.5333 172.662 49.593 172.604 49.6635 172.562C49.734 172.52 49.8133 172.494 49.8953 172.488C49.9777 172.483 50.0601 172.499 50.1347 172.534C50.2093 172.57 50.2736 172.624 50.3216 172.691L62.5016 188.566L74.9861 164.287C75.032 164.201 75.1019 164.129 75.1873 164.082C75.2727 164.034 75.3701 164.012 75.4676 164.019C75.5652 164.025 75.6588 164.06 75.7373 164.118C75.8157 164.176 75.8756 164.256 75.9098 164.348L87.0748 195.437L92.4441 184.069C92.4696 184.004 92.5082 183.945 92.5574 183.896C92.6067 183.847 92.6656 183.808 92.7304 183.783C92.7952 183.757 92.8647 183.745 92.9343 183.748C93.004 183.75 93.0724 183.767 93.1353 183.797C93.1982 183.827 93.2542 183.87 93.2999 183.922C93.3455 183.975 93.3799 184.036 93.4007 184.103C93.4216 184.169 93.4285 184.239 93.4211 184.309C93.4137 184.378 93.3921 184.445 93.3576 184.506L87.43 197.021C87.3881 197.102 87.3258 197.17 87.2493 197.22C87.1728 197.27 87.0847 197.299 86.9936 197.305Z" fill="#DEE5EB"/>
<path d="M41.9174 187.439C42.7751 187.439 43.4703 186.744 43.4703 185.886C43.4703 185.029 42.7751 184.333 41.9174 184.333C41.0597 184.333 40.3644 185.029 40.3644 185.886C40.3644 186.744 41.0597 187.439 41.9174 187.439Z" fill="white"/>
<path d="M41.9174 187.947C41.5159 187.947 41.1234 187.828 40.7896 187.605C40.4557 187.382 40.1956 187.064 40.0419 186.694C39.8883 186.323 39.8481 185.914 39.9264 185.521C40.0047 185.127 40.1981 184.765 40.482 184.481C40.7659 184.197 41.1276 184.004 41.5214 183.926C41.9151 183.847 42.3233 183.888 42.6942 184.041C43.0652 184.195 43.3822 184.455 43.6053 184.789C43.8283 185.123 43.9474 185.515 43.9474 185.917C43.9474 186.455 43.7335 186.971 43.3528 187.352C42.9721 187.733 42.4558 187.947 41.9174 187.947ZM41.9174 184.841C41.7166 184.841 41.5204 184.9 41.3535 185.012C41.1866 185.123 41.0565 185.282 40.9797 185.467C40.9028 185.653 40.8827 185.857 40.9219 186.054C40.9611 186.251 41.0577 186.432 41.1997 186.574C41.3416 186.715 41.5225 186.812 41.7194 186.851C41.9163 186.89 42.1203 186.87 42.3058 186.794C42.4913 186.717 42.6498 186.587 42.7613 186.42C42.8729 186.253 42.9324 186.057 42.9324 185.856C42.9324 185.587 42.8254 185.328 42.6351 185.138C42.4447 184.948 42.1866 184.841 41.9174 184.841Z" fill="#DEE5EB"/>
<path d="M49.946 174.589C50.8037 174.589 51.499 173.894 51.499 173.036C51.499 172.179 50.8037 171.483 49.946 171.483C49.0883 171.483 48.3931 172.179 48.3931 173.036C48.3931 173.894 49.0883 174.589 49.946 174.589Z" fill="white"/>
<path d="M49.946 175.097C49.5445 175.097 49.152 174.978 48.8182 174.755C48.4844 174.531 48.2242 174.214 48.0705 173.843C47.9169 173.473 47.8767 173.064 47.955 172.671C48.0333 172.277 48.2267 171.915 48.5106 171.631C48.7945 171.347 49.1562 171.154 49.55 171.076C49.9438 170.997 50.3519 171.038 50.7229 171.191C51.0938 171.345 51.4108 171.605 51.6339 171.939C51.857 172.273 51.976 172.665 51.976 173.067C51.976 173.605 51.7621 174.121 51.3814 174.502C51.0007 174.883 50.4844 175.097 49.946 175.097ZM49.946 171.991C49.7453 171.991 49.549 172.05 49.3821 172.162C49.2152 172.273 49.0851 172.432 49.0083 172.617C48.9315 172.803 48.9114 173.007 48.9505 173.204C48.9897 173.401 49.0864 173.581 49.2283 173.723C49.3703 173.865 49.5511 173.962 49.748 174.001C49.9449 174.04 50.149 174.02 50.3344 173.943C50.5199 173.867 50.6784 173.737 50.79 173.57C50.9015 173.403 50.961 173.206 50.961 173.006C50.961 172.737 50.8541 172.478 50.6637 172.288C50.4734 172.098 50.2152 171.991 49.946 171.991Z" fill="#DEE5EB"/>
<path d="M75.4226 166.114C76.2802 166.114 76.9755 165.419 76.9755 164.561C76.9755 163.703 76.2802 163.008 75.4226 163.008C74.5649 163.008 73.8696 163.703 73.8696 164.561C73.8696 165.419 74.5649 166.114 75.4226 166.114Z" fill="white"/>
<path d="M75.4226 166.622C75.0211 166.622 74.6286 166.502 74.2948 166.279C73.9609 166.056 73.7007 165.739 73.5471 165.368C73.3934 164.997 73.3533 164.589 73.4316 164.195C73.5099 163.802 73.7032 163.44 73.9871 163.156C74.271 162.872 74.6328 162.679 75.0265 162.601C75.4203 162.522 75.8285 162.562 76.1994 162.716C76.5704 162.87 76.8874 163.13 77.1105 163.464C77.3335 163.798 77.4526 164.19 77.4526 164.592C77.4526 165.13 77.2387 165.646 76.858 166.027C76.4773 166.408 75.961 166.622 75.4226 166.622ZM75.4226 163.516C75.2218 163.516 75.0256 163.575 74.8587 163.687C74.6918 163.798 74.5617 163.957 74.4848 164.142C74.408 164.328 74.3879 164.532 74.4271 164.729C74.4662 164.926 74.5629 165.106 74.7049 165.248C74.8468 165.39 75.0277 165.487 75.2246 165.526C75.4215 165.565 75.6255 165.545 75.811 165.468C75.9965 165.392 76.155 165.261 76.2665 165.095C76.378 164.928 76.4376 164.731 76.4376 164.531C76.4376 164.261 76.3306 164.003 76.1403 163.813C75.9499 163.623 75.6918 163.516 75.4226 163.516Z" fill="#DEE5EB"/>
<path d="M86.9936 198.351C87.8512 198.351 88.5465 197.655 88.5465 196.798C88.5465 195.94 87.8512 195.245 86.9936 195.245C86.1359 195.245 85.4406 195.94 85.4406 196.798C85.4406 197.655 86.1359 198.351 86.9936 198.351Z" fill="white"/>
<path d="M86.9936 198.858C86.5921 198.858 86.1996 198.739 85.8658 198.516C85.5319 198.293 85.2717 197.976 85.1181 197.605C84.9644 197.234 84.9242 196.826 85.0026 196.432C85.0809 196.038 85.2742 195.676 85.5581 195.392C85.842 195.109 86.2038 194.915 86.5975 194.837C86.9913 194.759 87.3995 194.799 87.7704 194.952C88.1413 195.106 88.4584 195.366 88.6814 195.7C88.9045 196.034 89.0236 196.426 89.0236 196.828C89.0236 197.366 88.8097 197.883 88.429 198.263C88.0483 198.644 87.532 198.858 86.9936 198.858ZM86.9936 195.752C86.7163 195.752 86.4504 195.862 86.2543 196.058C86.0583 196.254 85.9481 196.52 85.9481 196.797C85.9481 197.075 86.0583 197.341 86.2543 197.537C86.4504 197.733 86.7163 197.843 86.9936 197.843C87.2708 197.843 87.5368 197.733 87.7328 197.537C87.9289 197.341 88.039 197.075 88.039 196.797C88.039 196.52 87.9289 196.254 87.7328 196.058C87.5368 195.862 87.2708 195.752 86.9936 195.752Z" fill="#DEE5EB"/>
<path d="M62.5727 191.103C63.4303 191.103 64.1256 190.408 64.1256 189.55C64.1256 188.693 63.4303 187.997 62.5727 187.997C61.715 187.997 61.0197 188.693 61.0197 189.55C61.0197 190.408 61.715 191.103 62.5727 191.103Z" fill="white"/>
<path d="M62.5727 191.611C62.1712 191.611 61.7787 191.492 61.4449 191.269C61.111 191.046 60.8508 190.729 60.6972 190.358C60.5435 189.987 60.5033 189.579 60.5817 189.185C60.66 188.791 60.8533 188.429 61.1372 188.145C61.4211 187.861 61.7828 187.668 62.1766 187.59C62.5704 187.511 62.9786 187.552 63.3495 187.705C63.7204 187.859 64.0375 188.119 64.2605 188.453C64.4836 188.787 64.6027 189.179 64.6027 189.581C64.6027 190.119 64.3888 190.636 64.0081 191.016C63.6274 191.397 63.111 191.611 62.5727 191.611ZM62.5727 188.505C62.3719 188.505 62.1757 188.564 62.0088 188.676C61.8418 188.787 61.7117 188.946 61.6349 189.131C61.5581 189.317 61.538 189.521 61.5772 189.718C61.6163 189.915 61.713 190.096 61.8549 190.238C61.9969 190.38 62.1778 190.476 62.3746 190.515C62.5715 190.555 62.7756 190.534 62.9611 190.458C63.1466 190.381 63.3051 190.251 63.4166 190.084C63.5281 189.917 63.5877 189.721 63.5877 189.52C63.5877 189.251 63.4807 188.993 63.2904 188.802C63.1 188.612 62.8419 188.505 62.5727 188.505Z" fill="#DEE5EB"/>
<path d="M169.351 173.412C148.614 183.674 126 183.846 126 183.846V217.047C141.005 217.52 155.895 214.285 169.351 207.628V173.412Z" fill="white"/>
<path d="M128.669 217.605C127.776 217.605 126.893 217.605 125.99 217.605C125.858 217.6 125.733 217.544 125.64 217.45C125.548 217.356 125.495 217.229 125.492 217.097V183.846C125.492 183.711 125.546 183.582 125.641 183.487C125.736 183.392 125.865 183.338 126 183.338C126.223 183.338 148.736 183.044 169.127 172.955C169.204 172.915 169.289 172.894 169.376 172.894C169.463 172.894 169.548 172.915 169.625 172.955C169.696 173.001 169.755 173.064 169.796 173.138C169.837 173.213 169.858 173.296 169.858 173.381V207.597C169.86 207.691 169.836 207.784 169.787 207.865C169.739 207.946 169.668 208.011 169.584 208.054C156.868 214.358 142.863 217.628 128.669 217.605ZM126.507 216.59C141.157 216.973 155.682 213.808 168.843 207.363V174.224C150.147 183.247 129.928 184.232 126.507 184.374V216.59Z" fill="#1F2223"/>
<path d="M136.15 197.833C136.103 199.469 136.384 201.099 136.978 202.624C137.572 204.15 138.466 205.541 139.606 206.715C140.747 207.89 142.112 208.823 143.62 209.46C145.128 210.098 146.749 210.426 148.386 210.426C150.023 210.426 151.643 210.098 153.151 209.46C154.659 208.823 156.024 207.89 157.165 206.715C158.306 205.541 159.2 204.15 159.793 202.624C160.387 201.099 160.669 199.469 160.622 197.833H148.33V185.602C145.096 185.618 141.999 186.914 139.717 189.205C137.435 191.497 136.153 194.599 136.15 197.833Z" fill="#87FF53"/>
<path d="M150.36 183.795V196.036H162.54C162.54 192.8 161.259 189.696 158.976 187.402C156.694 185.108 153.596 183.812 150.36 183.795Z" fill="#DEE5EB"/>
<path d="M189.945 174.437C189.826 174.439 189.71 174.397 189.619 174.321C189.528 174.245 189.467 174.138 189.448 174.021C189.424 173.888 189.453 173.751 189.529 173.639C189.605 173.527 189.721 173.449 189.854 173.422C190.097 173.422 213.94 168.956 227.52 161.374C227.579 161.333 227.645 161.304 227.715 161.29C227.785 161.276 227.857 161.277 227.927 161.293C227.997 161.309 228.062 161.339 228.119 161.382C228.176 161.425 228.224 161.48 228.258 161.543C228.293 161.605 228.314 161.674 228.32 161.746C228.326 161.817 228.316 161.888 228.293 161.956C228.269 162.023 228.231 162.085 228.182 162.137C228.133 162.189 228.074 162.23 228.007 162.257C214.285 169.92 190.28 174.386 190.036 174.437H189.945Z" fill="#DEE5EB"/>
<path d="M189.945 183.43C189.81 183.442 189.677 183.4 189.573 183.314C189.469 183.227 189.404 183.103 189.392 182.968C189.38 182.834 189.422 182.7 189.508 182.596C189.595 182.492 189.719 182.427 189.854 182.415C190.097 182.364 213.94 177.939 227.52 170.357C227.579 170.315 227.645 170.287 227.715 170.273C227.785 170.259 227.857 170.26 227.927 170.276C227.997 170.292 228.062 170.322 228.119 170.365C228.176 170.408 228.224 170.463 228.258 170.526C228.293 170.588 228.314 170.657 228.32 170.728C228.326 170.8 228.317 170.871 228.293 170.939C228.269 171.006 228.231 171.068 228.182 171.12C228.133 171.172 228.074 171.213 228.008 171.24C214.285 178.913 190.28 183.369 190.036 183.42L189.945 183.43Z" fill="#DEE5EB"/>
<path d="M189.945 192.423C189.81 192.435 189.677 192.393 189.573 192.306C189.469 192.22 189.404 192.095 189.392 191.961C189.38 191.826 189.422 191.692 189.508 191.589C189.595 191.485 189.719 191.42 189.854 191.408C190.097 191.408 213.94 186.932 227.52 179.349C227.638 179.286 227.776 179.271 227.904 179.307C228.033 179.343 228.143 179.427 228.211 179.542C228.243 179.601 228.263 179.665 228.27 179.732C228.277 179.798 228.271 179.865 228.252 179.93C228.234 179.994 228.202 180.054 228.16 180.106C228.118 180.158 228.066 180.201 228.008 180.233C214.285 187.906 190.28 192.362 190.036 192.413L189.945 192.423Z" fill="#DEE5EB"/>
<path d="M189.945 201.416C189.81 201.428 189.677 201.386 189.573 201.299C189.469 201.213 189.404 201.088 189.392 200.954C189.38 200.819 189.422 200.685 189.508 200.582C189.595 200.478 189.719 200.413 189.854 200.401C196.784 199.057 203.638 197.346 210.387 195.275C210.516 195.236 210.655 195.25 210.775 195.313C210.894 195.375 210.985 195.482 211.027 195.61C211.065 195.738 211.051 195.875 210.988 195.993C210.925 196.111 210.819 196.199 210.692 196.239C203.902 198.313 197.007 200.024 190.036 201.365L189.945 201.416Z" fill="#DEE5EB"/>
<path d="M35.3706 97.1143C35.2829 97.1158 35.1962 97.0941 35.1196 97.0513C35.0429 97.0085 34.979 96.9462 34.9342 96.8707C34.8671 96.7532 34.8486 96.6142 34.8828 96.4833C34.9169 96.3524 35.001 96.2401 35.1169 96.1704C41.9986 92.1104 56.0665 89.1364 56.6653 89.0146C56.73 88.9997 56.7971 88.998 56.8625 89.0094C56.9278 89.0208 56.9903 89.0452 57.0461 89.0812C57.1019 89.1171 57.15 89.1639 57.1874 89.2187C57.2249 89.2735 57.251 89.3353 57.2642 89.4003C57.2792 89.4656 57.281 89.5333 57.2697 89.5993C57.2584 89.6654 57.2341 89.7286 57.1983 89.7852C57.1624 89.8418 57.1157 89.8908 57.0608 89.9292C57.0059 89.9677 56.9439 89.9949 56.8785 90.0093C56.7262 90.0093 42.364 93.0543 35.6244 97.0534C35.5455 97.0928 35.4588 97.1136 35.3706 97.1143Z" fill="#DEE5EB"/>
<path d="M35.3707 102.21C35.2599 102.209 35.1526 102.171 35.065 102.103C34.9775 102.036 34.9145 101.941 34.8857 101.834C34.857 101.727 34.864 101.614 34.9058 101.511C34.9475 101.408 35.0217 101.322 35.1169 101.266C41.9986 97.2057 56.0665 94.2318 56.6654 94.1607C56.8 94.1325 56.9403 94.1588 57.0554 94.234C57.1706 94.3092 57.2512 94.427 57.2794 94.5616C57.3077 94.6962 57.2813 94.8366 57.2062 94.9517C57.131 95.0669 57.0131 95.1475 56.8785 95.1757C56.7263 95.1757 42.364 98.2207 35.6244 102.22C35.5405 102.239 35.4528 102.236 35.3707 102.21Z" fill="#DEE5EB"/>
<path d="M35.3706 107.305C35.2821 107.304 35.1952 107.281 35.1186 107.236C35.0421 107.192 34.9785 107.128 34.9342 107.051C34.8671 106.934 34.8486 106.795 34.8828 106.664C34.9169 106.533 35.001 106.421 35.1169 106.351C41.9986 102.291 56.0665 99.3169 56.6653 99.2459C56.797 99.2216 56.9329 99.2493 57.0445 99.3231C57.1562 99.3969 57.2349 99.5111 57.2642 99.6417C57.2791 99.7064 57.2808 99.7734 57.2694 99.8388C57.258 99.9042 57.2336 99.9667 57.1976 100.022C57.1617 100.078 57.1149 100.126 57.0601 100.164C57.0053 100.201 56.9435 100.227 56.8785 100.241C56.7262 100.241 42.364 103.286 35.6244 107.285C35.5422 107.31 35.4557 107.316 35.3706 107.305Z" fill="#DEE5EB"/>
<path d="M35.3707 112.39C35.2599 112.389 35.1526 112.352 35.065 112.284C34.9775 112.216 34.9145 112.121 34.8857 112.014C34.857 111.907 34.864 111.794 34.9058 111.691C34.9475 111.589 35.0217 111.503 35.1169 111.446C39.1542 109.312 43.4255 107.653 47.845 106.503C47.9796 106.465 48.1237 106.483 48.2455 106.551C48.3673 106.62 48.4569 106.734 48.4946 106.869C48.5323 107.003 48.515 107.147 48.4465 107.269C48.3779 107.391 48.2638 107.48 48.1292 107.518C43.8055 108.639 39.6237 110.25 35.665 112.319C35.5772 112.374 35.4739 112.399 35.3707 112.39Z" fill="#DEE5EB"/>
</svg>
