<svg width="320" height="220" viewBox="0 0 320 220" fill="none" xmlns="http://www.w3.org/2000/svg">
<path d="M1.01526 189.909C1.01526 189.909 176.468 183.037 202.777 183.037C238.698 183.037 244.93 165.346 250.654 141.575C256.795 116.027 271.584 61.3286 271.584 61.3286L256.795 61.9884L305.515 1.08838L319.37 61.3286L310.377 61.8361C310.377 61.8361 295.507 136.946 290.371 156.404C281.998 188.214 278.476 215 196.839 215C117.984 215 21.904 219.06 21.904 219.06L1.01526 189.909Z" fill="white"/>
<path d="M21.975 219.587C21.8947 219.59 21.8152 219.571 21.7441 219.534C21.6729 219.497 21.6127 219.442 21.569 219.374L0.660038 190.213C0.607562 190.138 0.576187 190.049 0.569145 189.958C0.562103 189.866 0.579646 189.774 0.619972 189.691C0.660298 189.608 0.721947 189.538 0.798568 189.487C0.875189 189.436 0.964011 189.406 1.05589 189.401C2.80169 189.34 176.803 182.53 202.828 182.53C237.713 182.53 244.24 166.29 250.208 141.463C255.922 117.712 269.249 68.2102 270.954 61.8665L256.876 62.4958C256.777 62.5026 256.679 62.4791 256.594 62.4283C256.508 62.3775 256.441 62.3019 256.399 62.2116C256.348 62.1294 256.321 62.0344 256.321 61.9375C256.321 61.8406 256.348 61.7457 256.399 61.6635L305.119 0.763469C305.178 0.688237 305.257 0.631796 305.347 0.601127C305.438 0.570459 305.535 0.566911 305.627 0.590921C305.719 0.612126 305.804 0.658378 305.872 0.724614C305.94 0.790851 305.989 0.87452 306.013 0.96647L319.867 61.2067C319.883 61.2786 319.882 61.3529 319.866 61.4246C319.851 61.4964 319.82 61.564 319.776 61.6229C319.732 61.6825 319.676 61.7316 319.611 61.7667C319.546 61.8018 319.474 61.822 319.4 61.8259L310.793 62.3131C309.636 68.1595 295.751 137.971 290.869 156.515C290.524 157.794 290.199 159.073 289.854 160.332C285.997 175.201 282.363 189.249 269.868 199.287C256.095 210.341 232.882 215.527 196.788 215.527C118.836 215.527 22.8378 219.587 21.8837 219.587H21.975ZM1.97954 190.386L22.178 218.562C27.9432 218.319 120.958 214.502 196.86 214.502C274.822 214.502 281.033 190.497 288.91 160.098C289.235 158.829 289.57 157.561 289.925 156.282C295 137.048 309.768 62.4958 309.92 61.7548C309.941 61.6433 309.997 61.5417 310.082 61.4663C310.167 61.3909 310.274 61.3459 310.387 61.3387L318.781 60.8718L305.272 2.23522L257.891 61.43L271.553 60.821C271.635 60.8128 271.718 60.8263 271.792 60.8602C271.867 60.894 271.932 60.9471 271.98 61.0139C272.029 61.076 272.062 61.1488 272.078 61.2263C272.094 61.3039 272.092 61.3841 272.071 61.4605C271.919 62.0086 257.222 116.443 251.142 141.696C245.245 166.198 238.332 183.545 202.777 183.545C177.767 183.545 15.885 189.838 1.97954 190.386Z" fill="#1F2223"/>
<path d="M76.6937 158.921C76.2979 159.195 66.5437 161.357 66.5437 161.357L67.2136 174.207L79.6473 170.41L76.6937 158.921Z" fill="white"/>
<path d="M67.2339 174.714C67.1288 174.714 67.0264 174.682 66.9395 174.623C66.8778 174.578 66.8267 174.521 66.7898 174.454C66.753 174.387 66.7313 174.313 66.7264 174.237L66.0565 161.387C66.0487 161.267 66.0843 161.147 66.1569 161.05C66.2295 160.954 66.3343 160.886 66.4523 160.86C70.0556 160.058 75.9527 158.708 76.4602 158.484C76.5262 158.445 76.6016 158.424 76.6784 158.424C76.7553 158.424 76.8307 158.445 76.8967 158.484C76.9718 158.514 77.0382 158.562 77.0896 158.624C77.1411 158.686 77.176 158.76 77.191 158.84L80.165 170.329C80.1993 170.456 80.1823 170.591 80.1177 170.705C80.0531 170.819 79.946 170.903 79.8199 170.938L67.3861 174.735C67.3345 174.738 67.2828 174.731 67.2339 174.714ZM67.0918 161.763L67.7109 173.537L79.0586 170.035L76.3384 159.53C74.755 160.027 70.695 160.961 67.0918 161.763Z" fill="#1F2223"/>
<path d="M227.827 153.744L239.368 160.595L246.483 149.867L237.561 144.548L227.827 153.744Z" fill="white"/>
<path d="M239.368 161.103C239.276 161.1 239.185 161.076 239.104 161.032L227.573 154.181C227.504 154.142 227.445 154.086 227.403 154.019C227.36 153.952 227.335 153.875 227.33 153.795C227.321 153.717 227.331 153.638 227.357 153.564C227.383 153.491 227.426 153.424 227.482 153.369L237.216 144.183C237.296 144.106 237.399 144.058 237.509 144.045C237.618 144.032 237.73 144.056 237.825 144.112L246.747 149.431C246.805 149.467 246.856 149.514 246.896 149.57C246.936 149.626 246.964 149.69 246.979 149.757C246.994 149.824 246.996 149.893 246.984 149.961C246.972 150.029 246.946 150.093 246.909 150.151L239.804 160.87C239.757 160.942 239.692 161.001 239.616 161.042C239.539 161.083 239.454 161.104 239.368 161.103ZM228.67 153.653L239.185 159.885L245.742 150.009L237.622 145.157L228.67 153.653Z" fill="#1F2223"/>
<path d="M200.453 32.5329L197.824 27.803C197.824 27.803 193.693 26.382 192.688 24.352C191.683 22.322 190.993 19.6322 192.211 18.7492C193.429 17.8661 200.564 14.9531 201.833 15.8361C203.102 16.7192 209.314 29.5589 209.314 29.5589" fill="white"/>
<path d="M200.453 33.0101C200.363 33.0096 200.275 32.9848 200.198 32.9384C200.121 32.8919 200.058 32.8255 200.016 32.7462L197.469 28.1787C196.626 27.8641 193.206 26.504 192.231 24.545C191.135 22.3526 190.394 19.4091 191.917 18.3028C192.932 17.5821 200.473 14.2428 202.067 15.3897C203.376 16.2931 208.674 27.1434 209.72 29.3054C209.754 29.3659 209.776 29.433 209.783 29.5023C209.791 29.5716 209.784 29.6417 209.763 29.7082C209.742 29.7747 209.708 29.8362 209.662 29.8888C209.616 29.9415 209.56 29.9842 209.497 30.0142C209.434 30.0443 209.366 30.061 209.296 30.0635C209.227 30.0659 209.157 30.054 209.092 30.0284C209.028 30.0029 208.969 29.9642 208.919 29.9149C208.87 29.8656 208.832 29.8067 208.806 29.7418C205.761 23.4894 202.209 16.7194 201.488 16.222C200.767 15.7247 193.936 18.049 192.454 19.1249C191.571 19.7644 192.12 22.1699 193.084 24.0984C193.845 25.6006 196.839 26.91 197.935 27.2855C198.052 27.328 198.149 27.4109 198.21 27.519L200.849 32.2489C200.882 32.3065 200.904 32.3704 200.913 32.4368C200.922 32.5031 200.917 32.5705 200.899 32.635C200.881 32.6994 200.85 32.7596 200.808 32.8118C200.766 32.8641 200.715 32.9073 200.656 32.9391C200.595 32.9786 200.525 33.0029 200.453 33.0101Z" fill="#1F2223"/>
<path d="M183.624 42.9266L205.497 56.0506L197.682 31.4267C197.682 31.4267 208.765 26.8592 209.577 26.3517C210.389 25.8442 233.937 63.998 222.62 72.2906C211.303 80.5831 177.27 67.0938 177.27 67.0938L183.624 42.9266Z" fill="#87FF53"/>
<path d="M90.7003 118.561L54.0154 98.2765C51.9452 97.1318 49.339 97.8821 48.1943 99.9523L36.4951 121.111C35.3504 123.181 36.1006 125.787 38.1708 126.932L74.8557 147.216C76.9259 148.361 79.5321 147.611 80.6768 145.54L92.3761 124.382C93.5208 122.312 92.7705 119.706 90.7003 118.561Z" fill="white"/>
<path d="M76.9068 148.263C76.1005 148.262 75.3076 148.056 74.6027 147.664L37.9105 127.405C36.7992 126.791 35.9772 125.76 35.6251 124.541C35.273 123.321 35.4197 122.011 36.0327 120.899L47.7357 99.7361C48.0389 99.1857 48.4478 98.7006 48.939 98.3087C49.4302 97.9167 49.994 97.6257 50.598 97.4524C51.2023 97.2745 51.8362 97.2197 52.4621 97.2912C53.088 97.3626 53.6932 97.559 54.2418 97.8685L90.9341 118.168C92.0454 118.783 92.8673 119.813 93.2194 121.033C93.5715 122.253 93.4249 123.563 92.8118 124.675L81.1089 145.837C80.8049 146.388 80.3943 146.873 79.9012 147.263C79.408 147.653 78.8421 147.942 78.2364 148.111C77.8031 148.227 77.3551 148.278 76.9068 148.263ZM51.9276 98.2441C51.5839 98.2477 51.2423 98.299 50.9126 98.3963C49.9546 98.6757 49.1451 99.3211 48.6593 100.193L36.9259 121.315C36.4427 122.19 36.3263 123.221 36.6022 124.182C36.8781 125.143 37.5238 125.955 38.3977 126.441L75.0899 146.741C75.9597 147.211 76.9794 147.32 77.9289 147.044C78.8784 146.769 79.6816 146.131 80.1649 145.269L91.8679 124.106C92.1077 123.674 92.2599 123.199 92.3156 122.707C92.3714 122.216 92.3296 121.719 92.1927 121.244C92.0596 120.766 91.8321 120.319 91.5235 119.93C91.215 119.542 90.8316 119.219 90.3961 118.98L53.7039 98.6805C53.1565 98.3916 52.5465 98.2418 51.9276 98.2441Z" fill="#1F2223"/>
<path d="M85.5344 126.329C85.448 126.329 85.3634 126.305 85.2908 126.258L50.3951 106.943C50.2784 106.876 50.192 106.767 50.1541 106.638C50.1162 106.51 50.1298 106.371 50.1921 106.252C50.224 106.194 50.2671 106.142 50.3191 106.1C50.3711 106.058 50.4309 106.026 50.495 106.007C50.5591 105.989 50.6264 105.983 50.6928 105.99C50.7593 105.997 50.8237 106.017 50.8823 106.049L85.8186 125.334C85.8774 125.366 85.9292 125.409 85.9713 125.461C86.0133 125.513 86.0447 125.573 86.0635 125.637C86.0824 125.701 86.0884 125.769 86.0812 125.835C86.074 125.902 86.0537 125.966 86.0216 126.025C85.9795 126.118 85.9108 126.196 85.8241 126.251C85.7374 126.305 85.6366 126.332 85.5344 126.329Z" fill="#DEE5EB"/>
<path d="M80.5101 113.449C80.4211 113.446 80.3341 113.421 80.2564 113.378L63.9352 104.354C63.8763 104.323 63.8243 104.28 63.7825 104.227C63.7408 104.175 63.7099 104.115 63.6919 104.05C63.6739 103.986 63.6691 103.919 63.6778 103.852C63.6864 103.786 63.7084 103.722 63.7423 103.664L65.4678 100.538C65.9491 99.6735 66.753 99.0344 67.7039 98.7606C68.6548 98.4867 69.6754 98.6003 70.5428 99.0765L81.2003 104.974C82.067 105.453 82.7078 106.257 82.9819 107.209C83.256 108.16 83.1409 109.182 82.6619 110.049L80.9466 113.195C80.8799 113.312 80.7709 113.399 80.6421 113.439L80.5101 113.449ZM64.869 103.715L80.3071 112.251L81.789 109.561C81.9628 109.249 82.0731 108.906 82.1136 108.55C82.1541 108.195 82.124 107.836 82.0249 107.492C81.9258 107.149 81.7598 106.829 81.5365 106.55C81.3131 106.271 81.0367 106.039 80.7233 105.867L70.0556 100C69.421 99.6549 68.6757 99.5743 67.9819 99.7758C67.2881 99.9773 66.7019 100.445 66.3509 101.076L64.869 103.715Z" fill="#1F2223"/>
<path d="M86.9351 93.4633C86.9351 93.4633 85.2096 96.5083 84.2352 98.7515C83.4882 100.911 82.9711 103.142 82.6924 105.41C82.1646 104.679 81.241 104.395 80.6624 103.786C80.526 104.759 80.2275 105.703 79.7793 106.577C79.548 107.013 79.2115 107.384 78.8003 107.657C78.3891 107.93 77.9162 108.096 77.4245 108.14C76.9013 108.128 76.3863 108.007 75.9122 107.785C74.1664 107.085 71.2838 105.806 71.0504 103.623C71.0263 102.78 71.2485 101.947 71.6898 101.228C73.2732 98.1831 79.9418 90.2864 81.038 89.0481" fill="white"/>
<path d="M77.4143 108.648C76.8466 108.626 76.2884 108.495 75.77 108.262C74.2983 107.663 70.8574 106.283 70.5834 103.674C70.5497 102.732 70.7932 101.8 71.2837 100.995C73.0295 97.5843 80.6217 88.8147 80.6928 88.6827C80.7816 88.5804 80.9075 88.5176 81.0426 88.5081C81.1778 88.4986 81.3111 88.5432 81.4134 88.632C81.5157 88.7208 81.5786 88.8466 81.5881 88.9818C81.5976 89.1169 81.553 89.2503 81.4642 89.3526C79.5052 91.6059 73.6081 98.6805 72.1871 101.462C71.7915 102.094 71.5838 102.827 71.5882 103.573C71.7811 105.339 74.1257 106.506 76.1456 107.318C76.5567 107.509 77.0019 107.616 77.4549 107.633C77.8574 107.588 78.2427 107.445 78.5771 107.217C78.9116 106.989 79.1849 106.682 79.3733 106.323C79.7955 105.5 80.0768 104.611 80.2056 103.695C80.2243 103.601 80.2683 103.515 80.3327 103.445C80.3972 103.376 80.4796 103.325 80.571 103.299C80.6638 103.274 80.7617 103.276 80.8533 103.305C80.945 103.334 81.0266 103.388 81.0886 103.461C81.3365 103.707 81.6165 103.919 81.9209 104.09L82.3675 104.385C82.6342 102.393 83.1175 100.436 83.8088 98.5485C84.8238 96.2749 86.4681 93.3314 86.5392 93.2096C86.6065 93.0925 86.7176 93.007 86.8479 92.9718C86.9783 92.9365 87.1174 92.9546 87.2345 93.0219C87.3516 93.0892 87.4371 93.2002 87.4724 93.3306C87.5076 93.461 87.4895 93.6 87.4222 93.7171C87.4222 93.7171 85.6967 96.7621 84.7325 98.9545C84.0146 101.074 83.5147 103.26 83.2404 105.481C83.2275 105.581 83.1848 105.676 83.1179 105.752C83.051 105.828 82.9629 105.882 82.8649 105.907C82.7662 105.931 82.6626 105.926 82.5669 105.892C82.4712 105.858 82.3878 105.796 82.3269 105.714C82.063 105.404 81.7428 105.145 81.383 104.953L81.0277 104.72C80.8788 105.462 80.6187 106.177 80.2563 106.841C79.9818 107.352 79.5831 107.785 79.0971 108.1C78.611 108.416 78.0532 108.604 77.4752 108.648H77.4143Z" fill="#1F2223"/>
<path d="M169.353 103.177L128.875 104.05L108.575 156.14C115.68 157.52 128.641 157.713 135.279 162.037L155.387 124.675C155.387 124.675 231.065 156.84 231.481 159.256L241.347 144.548L169.353 103.177Z" fill="#1F2223"/>
<path d="M135.32 162.534C135.223 162.536 135.127 162.507 135.046 162.453C130.367 159.408 122.186 158.393 115.619 157.642C112.99 157.327 110.544 157.023 108.514 156.627C108.441 156.612 108.373 156.582 108.313 156.539C108.253 156.495 108.204 156.439 108.168 156.374C108.132 156.309 108.111 156.238 108.106 156.164C108.101 156.09 108.112 156.016 108.138 155.947L128.438 103.857C128.474 103.764 128.536 103.684 128.618 103.628C128.699 103.572 128.796 103.542 128.895 103.542L169.363 102.659C169.456 102.655 169.549 102.68 169.627 102.73L241.631 144.102C241.691 144.137 241.744 144.184 241.785 144.24C241.827 144.295 241.858 144.359 241.875 144.426C241.889 144.494 241.889 144.565 241.875 144.633C241.861 144.701 241.834 144.765 241.794 144.822L231.938 159.52C231.882 159.605 231.802 159.671 231.708 159.709C231.613 159.747 231.509 159.755 231.41 159.733C231.325 159.715 231.246 159.676 231.18 159.619C231.114 159.562 231.064 159.49 231.035 159.408C229.248 157.134 185.218 137.87 155.691 125.314L135.797 162.26C135.764 162.321 135.719 162.375 135.665 162.418C135.611 162.462 135.549 162.494 135.483 162.514L135.32 162.534ZM109.265 155.754C111.123 156.089 113.325 156.353 115.7 156.637C122.501 157.449 130.184 158.373 135.097 161.316L154.95 124.441C155.007 124.328 155.105 124.241 155.224 124.198C155.343 124.154 155.473 124.158 155.59 124.208C177.047 133.343 225.31 154.049 231.319 158.525L240.586 144.721L169.181 103.684L129.19 104.547L109.265 155.754Z" fill="#1F2223"/>
<path d="M169.353 103.177L128.875 104.05L148.16 47.6362C148.16 47.6362 168.034 50.1331 171.221 52.7112C174.408 55.2893 169.353 103.177 169.353 103.177Z" fill="white"/>
<path d="M128.875 104.557C128.796 104.559 128.717 104.541 128.647 104.506C128.576 104.471 128.515 104.419 128.469 104.354C128.42 104.288 128.388 104.211 128.376 104.13C128.363 104.048 128.371 103.965 128.398 103.887L147.683 47.4737C147.723 47.3643 147.799 47.2718 147.899 47.211C147.998 47.1502 148.115 47.1247 148.231 47.1388C149.043 47.2403 168.287 49.6763 171.576 52.3457C174.864 55.0152 170.764 95.199 169.911 103.228C169.899 103.35 169.843 103.463 169.753 103.547C169.664 103.631 169.547 103.68 169.424 103.684L128.946 104.557H128.875ZM148.474 48.235L129.565 103.532L168.856 102.68C170.784 84.2573 172.997 54.8934 170.886 53.1374C168.409 51.1176 154.25 48.9353 148.474 48.235Z" fill="#1F2223"/>
<path d="M155.427 44.7129C154.788 44.9971 155.113 53.7261 155.082 54.4975C154.798 61.775 154.828 69.2048 154.311 76.4215C153.296 90.6924 142.516 104.243 134.437 115.326C133.371 116.798 132.163 118.371 130.377 118.838C129.088 119.085 127.757 118.983 126.52 118.544C121.185 117.042 116.226 114.434 111.965 110.891C111.358 110.464 110.886 109.873 110.605 109.186C110.26 108.049 110.95 106.892 111.62 105.907C119.994 93.169 127.261 65.5102 131.707 50.9247C131.717 50.9247 145.023 49.2499 155.427 44.7129Z" fill="#87FF53"/>
<path d="M183.624 42.9266C183.857 43.0179 180.792 67.7027 180.711 68.6974C180.122 76.249 174.337 91.6973 169.688 97.4828C171.2 89.4237 168.734 78.3196 166.399 70.5955C165.263 66.8298 166.135 59.2681 166.399 55.3705C166.399 54.9949 166.775 46.3674 166.592 46.3167C166.602 46.3167 177.575 40.724 183.624 42.9266Z" fill="#87FF53"/>
<path d="M161.873 56.0505L158.411 58.4662L160.563 60.4962C160.563 60.4962 154.92 79.02 145.521 80.2481C136.122 81.4763 132.803 79.9842 132.803 79.9842L126.825 85.5667C126.825 85.5667 134.143 89.0177 134.66 89.2918C135.178 89.5658 152.068 88.429 156.27 78.7764C158.769 73.0858 160.763 67.1862 162.228 61.1458L164.177 59.4L161.873 56.0505Z" fill="#1F2223"/>
<path d="M148.85 73.6911C148.757 73.6915 148.667 73.6661 148.588 73.6177C148.509 73.5693 148.445 73.4998 148.403 73.4171L142.516 61.8867C142.465 61.7805 142.451 61.6595 142.479 61.5446C142.507 61.4297 142.574 61.3281 142.669 61.2574L148.018 57.2786L142.547 54.8527C142.464 54.8184 142.393 54.763 142.338 54.6921C142.284 54.6211 142.25 54.5371 142.238 54.4486C142.227 54.3601 142.239 54.2701 142.274 54.1878C142.308 54.1055 142.364 54.0338 142.435 53.9798L150.555 47.697C150.607 47.6513 150.668 47.6169 150.734 47.5957C150.8 47.5744 150.87 47.567 150.939 47.5737C151.008 47.5804 151.075 47.6012 151.135 47.6347C151.196 47.6682 151.249 47.7138 151.291 47.7686C151.334 47.8235 151.364 47.8864 151.381 47.9535C151.398 48.0207 151.402 48.0906 151.391 48.159C151.38 48.2274 151.355 48.2929 151.318 48.3513C151.28 48.4097 151.232 48.46 151.174 48.4988L143.775 54.264L149.266 56.7C149.348 56.735 149.419 56.791 149.473 56.8622C149.526 56.9335 149.56 57.0176 149.571 57.106C149.577 57.1945 149.562 57.2832 149.527 57.3645C149.491 57.4458 149.437 57.5173 149.368 57.5729L143.663 61.8156L149.347 72.9806C149.408 73.1005 149.418 73.2393 149.376 73.3667C149.334 73.4942 149.244 73.5998 149.124 73.6607C149.038 73.6982 148.942 73.7088 148.85 73.6911Z" fill="#1F2223"/>
<path d="M122.115 106.263C121.999 106.263 121.887 106.224 121.797 106.152C121.706 106.08 121.643 105.979 121.618 105.867C121.587 105.736 121.609 105.599 121.68 105.485C121.75 105.371 121.863 105.289 121.993 105.258C126.794 104.141 135.543 101.857 135.625 101.837C135.759 101.804 135.902 101.825 136.021 101.896C136.14 101.967 136.225 102.083 136.259 102.218C136.293 102.352 136.271 102.495 136.2 102.614C136.129 102.733 136.013 102.819 135.878 102.852C135.797 102.852 127.038 105.156 122.227 106.273L122.115 106.263Z" fill="#1F2223"/>
<path d="M178.579 78.888H178.447C178.319 78.8524 178.209 78.7674 178.143 78.6515C178.076 78.5356 178.058 78.3981 178.092 78.2689C178.153 78.0253 184.568 53.6856 181.726 46.6719C181.679 46.5466 181.682 46.4078 181.735 46.2848C181.788 46.1617 181.886 46.064 182.01 46.0122C182.072 45.9875 182.138 45.9752 182.205 45.9761C182.272 45.977 182.338 45.9911 182.399 46.0175C182.46 46.0439 182.516 46.0821 182.562 46.13C182.609 46.1778 182.645 46.2344 182.67 46.2964C185.634 53.6247 179.341 77.5178 179.077 78.5328C179.042 78.6371 178.975 78.7278 178.886 78.7917C178.797 78.8555 178.689 78.8893 178.579 78.888Z" fill="#1F2223"/>
<path d="M170.246 69.6007C170.161 69.6012 170.077 69.5802 170.003 69.5398C169.886 69.4736 169.8 69.3645 169.762 69.2358C169.724 69.107 169.737 68.9685 169.8 68.8496L176.154 57.4207L170.896 55.208C170.82 55.1776 170.753 55.1294 170.7 55.0676C170.647 55.0058 170.61 54.9321 170.591 54.8528C170.576 54.774 170.578 54.6926 170.6 54.6151C170.621 54.5376 170.66 54.4661 170.713 54.4062L175.291 49.2195L170.612 47.4737C170.486 47.4238 170.385 47.3269 170.33 47.2037C170.275 47.0805 170.271 46.9406 170.317 46.814C170.341 46.7511 170.377 46.6935 170.423 46.6445C170.469 46.5956 170.524 46.5563 170.586 46.5289C170.647 46.5015 170.713 46.4866 170.78 46.485C170.848 46.4834 170.914 46.4952 170.977 46.5196L176.336 48.5496C176.413 48.5802 176.481 48.6282 176.536 48.6899C176.59 48.7516 176.63 48.8252 176.651 48.9049C176.671 48.9843 176.672 49.0676 176.652 49.1473C176.633 49.227 176.594 49.3006 176.539 49.3616L171.941 54.5686L177.067 56.7204C177.198 56.7814 177.299 56.8905 177.351 57.0249C177.379 57.0908 177.393 57.1615 177.393 57.233C177.393 57.3044 177.379 57.3751 177.351 57.441L170.733 69.3571C170.684 69.4398 170.612 69.5067 170.525 69.5498C170.439 69.593 170.342 69.6106 170.246 69.6007Z" fill="#1F2223"/>
<path d="M158.34 41.0285C156.335 39.8024 154.632 38.1407 153.357 36.1667C149.977 30.9699 149.611 24.6058 151.53 18.729C152.545 15.5622 154.767 12.639 157.914 11.5123C161.598 10.2537 165.689 11.7458 169.515 11.0759C170.182 10.9161 170.861 10.8109 171.545 10.7612C172.365 10.7727 173.172 10.9633 173.91 11.3195C175.064 11.8731 176.074 12.6862 176.861 13.6952C177.648 14.7042 178.191 15.8817 178.447 17.1354C178.666 18.3497 178.605 19.5977 178.269 20.7849C177.933 21.972 177.331 23.067 176.509 23.9867C174.996 25.8441 174.611 28.4019 173.19 30.4624C171.845 32.2319 170.373 33.901 168.785 35.4562C167.861 36.4122 166.889 37.3201 165.872 38.1764C164.775 39.1203 163.151 40.9676 161.812 41.4751C161.236 41.6593 160.626 41.7148 160.026 41.6376C159.426 41.5604 158.851 41.3525 158.34 41.0285Z" fill="white"/>
<path d="M160.644 42.1957C159.749 42.1677 158.874 41.9202 158.097 41.4751C156.008 40.202 154.24 38.4656 152.93 36.4001C151.302 33.7523 150.287 30.7734 149.96 27.6822C149.634 24.5909 150.003 21.4657 151.042 18.5361C152.24 14.8415 154.747 12.0299 157.752 10.9946C159.916 10.406 162.178 10.2644 164.4 10.5785C166.085 10.7798 167.789 10.7798 169.475 10.5785L170.023 10.4668C170.53 10.3483 171.046 10.277 171.566 10.2537C172.463 10.2594 173.348 10.4676 174.154 10.8627C175.38 11.448 176.454 12.3101 177.291 13.3809C178.127 14.4518 178.704 15.7023 178.975 17.0339C179.213 18.3198 179.153 19.643 178.801 20.9025C178.449 22.162 177.815 23.3244 176.945 24.3013C176.222 25.2953 175.648 26.3895 175.24 27.5493C174.83 28.6714 174.296 29.7439 173.646 30.7465C172.611 32.1743 171.456 33.5121 170.195 34.7456L169.18 35.7606C168.249 36.7324 167.266 37.654 166.237 38.5214C165.943 38.7752 165.608 39.0898 165.222 39.4349C164.3 40.4483 163.203 41.2872 161.984 41.9115C161.559 42.0885 161.105 42.1848 160.644 42.1957ZM158.614 40.5819C159.061 40.868 159.565 41.0542 160.09 41.1278C160.616 41.2014 161.151 41.1606 161.659 41.0082C162.741 40.4176 163.719 39.6529 164.552 38.7447C164.917 38.3895 165.263 38.0545 165.567 37.7906C166.569 36.95 167.525 36.0555 168.429 35.111C168.764 34.7456 169.109 34.4005 169.444 34.096C170.663 32.9023 171.78 31.6088 172.784 30.2289C173.391 29.2698 173.894 28.2491 174.286 27.1839C174.726 25.932 175.348 24.752 176.133 23.6821C176.907 22.8191 177.475 21.7912 177.794 20.6763C178.112 19.5614 178.172 18.3887 177.97 17.247C177.731 16.0714 177.221 14.9677 176.481 14.0234C175.741 13.0791 174.792 12.3201 173.707 11.8066C173.049 11.4646 172.318 11.287 171.576 11.289C171.118 11.3147 170.663 11.3792 170.216 11.4818L169.637 11.5935C167.885 11.8121 166.112 11.8121 164.359 11.5935C162.274 11.2952 160.151 11.423 158.117 11.969C155.407 12.8927 153.143 15.4708 152.027 18.8609C151.034 21.6473 150.678 24.621 150.985 27.5631C151.292 30.5053 152.255 33.3411 153.803 35.8621C155.029 37.7644 156.666 39.3669 158.594 40.5514L158.614 40.5819Z" fill="#1F2223"/>
<path d="M174.905 31.4265C174.905 31.4265 177.95 37.2425 177.128 38.2981C176.306 39.3537 173.86 38.3691 173.86 38.3691" fill="white"/>
<path d="M175.829 39.2928C175.087 39.2678 174.355 39.1132 173.667 38.8361C173.605 38.8116 173.548 38.7749 173.501 38.7282C173.453 38.6815 173.416 38.6258 173.39 38.5642C173.365 38.5027 173.352 38.4366 173.352 38.37C173.353 38.3034 173.366 38.2375 173.393 38.1763C173.417 38.1143 173.454 38.0577 173.5 38.0099C173.547 37.962 173.602 37.9238 173.664 37.8974C173.725 37.871 173.791 37.8569 173.858 37.856C173.924 37.8551 173.991 37.8674 174.053 37.8921C174.722 38.1763 176.265 38.5519 176.732 37.9835C177.047 37.5064 175.981 34.5528 174.459 31.6702C174.397 31.55 174.385 31.4107 174.425 31.2817C174.465 31.1528 174.553 31.0445 174.672 30.98C174.731 30.9482 174.796 30.9285 174.863 30.922C174.93 30.9156 174.997 30.9224 175.061 30.9423C175.126 30.9621 175.185 30.9945 175.237 31.0375C175.288 31.0806 175.331 31.1335 175.362 31.1931C176.326 33.0303 178.488 37.4252 177.524 38.6229C177.309 38.8541 177.046 39.0343 176.752 39.1502C176.459 39.2661 176.143 39.3149 175.829 39.2928Z" fill="#1F2223"/>
<path d="M174.966 19.3075C177.077 21.4085 175.9 30.1375 175.636 32.7156C175.25 36.3426 174.783 39.9526 174.235 43.5457C173.88 45.8396 167.932 45.3016 166.947 44.5607V53.6957C166.947 53.6957 164.014 54.193 159.436 51.5033C154.859 48.8135 154.94 47.6564 154.94 47.6564L156.361 37.2222C156.361 37.2222 160.289 37.6282 163.07 33.1622C165.851 28.6962 166.46 21.4999 166.46 21.4999C166.46 21.4999 172.906 17.2572 174.966 19.3075Z" fill="white"/>
<path d="M166.359 54.2236C163.83 54.0968 161.379 53.3056 159.254 51.9297C154.879 49.3516 154.463 48.0626 154.493 47.6261L155.914 37.1513C155.922 37.0858 155.942 37.0224 155.975 36.9649C156.007 36.9074 156.05 36.8568 156.102 36.8162C156.154 36.7756 156.214 36.7457 156.277 36.7283C156.341 36.7109 156.407 36.7064 156.473 36.7149C156.615 36.7149 160.137 37.0194 162.705 32.9086C165.384 28.6152 166.014 21.5406 166.024 21.4696C166.028 21.3937 166.051 21.32 166.09 21.2547C166.129 21.1894 166.183 21.1343 166.247 21.094C166.937 20.6373 173.078 16.6686 175.382 18.9422C177.26 20.8098 176.884 26.6258 176.275 32.0763L176.194 32.7665C175.808 36.3901 175.341 40.0441 174.793 43.627C174.713 44.0244 174.522 44.3908 174.241 44.6836C173.961 44.9765 173.603 45.1838 173.21 45.2815C171.337 45.8248 169.348 45.8248 167.475 45.2815V53.6654C167.475 53.7864 167.432 53.9036 167.354 53.9963C167.276 54.089 167.168 54.1515 167.049 54.1729C166.82 54.2031 166.59 54.2201 166.359 54.2236ZM155.468 47.6464C155.539 47.8393 156.097 48.9152 159.731 51.0568C161.744 52.3717 164.077 53.1155 166.481 53.2086V44.5101C166.481 44.4149 166.508 44.3218 166.559 44.2414C166.61 44.1609 166.682 44.0964 166.768 44.0551C166.854 44.0139 166.949 43.9975 167.044 44.008C167.138 44.0184 167.228 44.0552 167.303 44.1142C169.084 44.7849 171.035 44.8632 172.865 44.3375C173.413 44.1244 173.717 43.83 173.768 43.4748C174.316 39.9121 174.783 36.2683 175.169 32.6549L175.24 31.9951C175.565 29.1125 176.428 21.4594 174.651 19.6933C173.261 18.3129 168.754 20.7083 167.008 21.835C166.866 23.1748 166.115 29.3866 163.567 33.477C161.203 37.2528 158.066 37.7299 156.858 37.7603L155.468 47.6464Z" fill="#1F2223"/>
<path d="M174.408 40.8358C173.39 40.9388 172.369 40.6741 171.529 40.0895C170.689 39.5049 170.087 38.6391 169.83 37.6487" fill="white"/>
<path d="M174.042 41.3635C172.979 41.3742 171.942 41.0324 171.094 40.3915C170.246 39.7506 169.633 38.8468 169.353 37.8211C169.311 37.6932 169.32 37.5538 169.378 37.4324C169.437 37.3111 169.541 37.2175 169.668 37.1715C169.73 37.1493 169.797 37.1398 169.863 37.1437C169.929 37.1475 169.994 37.1646 170.054 37.1939C170.113 37.2233 170.167 37.2642 170.21 37.3144C170.254 37.3646 170.287 37.423 170.307 37.4862C170.527 38.3707 171.059 39.1461 171.805 39.6701C172.551 40.194 173.46 40.4313 174.367 40.3383C174.433 40.3283 174.5 40.3313 174.565 40.3473C174.63 40.3632 174.691 40.3918 174.745 40.4314C174.799 40.471 174.844 40.5209 174.878 40.578C174.913 40.6352 174.936 40.6986 174.946 40.7646C174.963 40.8975 174.929 41.032 174.849 41.1399C174.77 41.2478 174.651 41.3207 174.519 41.3432C174.519 41.3432 174.316 41.3635 174.042 41.3635Z" fill="#1F2223"/>
<path d="M167.729 33.0709C167.715 32.1537 167.448 31.2582 166.958 30.4827C166.663 29.836 166.273 29.2373 165.801 28.7064C165.564 28.4439 165.272 28.2375 164.945 28.1022C164.618 27.967 164.266 27.9064 163.913 27.9249C163.599 27.9724 163.299 28.0878 163.034 28.2631C162.77 28.4384 162.546 28.6694 162.38 28.9399C162.04 29.4699 161.825 30.0703 161.751 30.6958C161.556 32.0533 161.723 33.4381 162.234 34.7105C162.746 35.983 163.584 37.0979 164.664 37.9429L164.481 37.7095" fill="white"/>
<path d="M164.664 38.4199C164.55 38.4221 164.44 38.3864 164.349 38.3184C163.205 37.4093 162.317 36.2183 161.773 34.8623C161.228 33.5063 161.046 32.0319 161.243 30.5841C161.334 29.8823 161.58 29.2095 161.964 28.615C162.174 28.2917 162.452 28.0174 162.777 27.8107C163.103 27.6041 163.47 27.4699 163.852 27.4173C164.283 27.3896 164.715 27.4592 165.115 27.6208C165.516 27.7824 165.875 28.032 166.166 28.3511C166.673 28.9166 167.091 29.5568 167.404 30.2492C167.95 31.1039 168.239 32.0974 168.237 33.1115C168.231 33.1781 168.213 33.243 168.182 33.3026C168.152 33.3621 168.11 33.4151 168.059 33.4584C168.008 33.5018 167.949 33.5347 167.886 33.5553C167.822 33.5758 167.755 33.5837 167.688 33.5784C167.622 33.573 167.557 33.5546 167.497 33.5242C167.438 33.4938 167.385 33.4519 167.341 33.401C167.298 33.3501 167.265 33.2912 167.245 33.2276C167.224 33.1639 167.216 33.0969 167.222 33.0303C167.195 32.2094 166.949 31.4106 166.511 30.7161C166.238 30.1158 165.879 29.5585 165.445 29.0616C165.26 28.8538 165.031 28.6889 164.775 28.5785C164.519 28.468 164.242 28.4147 163.963 28.4222C163.726 28.4633 163.5 28.5531 163.299 28.6858C163.098 28.8186 162.927 28.9914 162.796 29.1936C162.501 29.6607 162.314 30.1877 162.248 30.7364C162.083 31.9187 162.208 33.1234 162.613 34.2464C163.018 35.3695 163.691 36.3769 164.572 37.1816C164.635 37.1912 164.695 37.2133 164.749 37.2464C164.803 37.2795 164.85 37.323 164.887 37.3745L165.06 37.6079C165.142 37.6978 165.188 37.8156 165.188 37.9378C165.188 38.06 165.142 38.1777 165.06 38.2677C165.009 38.3206 164.947 38.3618 164.879 38.3881C164.81 38.4144 164.737 38.4253 164.664 38.4199Z" fill="#1F2223"/>
<path d="M166.947 44.5099C165.231 43.7699 163.765 42.5505 162.725 40.998C162.725 40.998 162.39 46.5399 166.968 48.6004L166.947 44.5099Z" fill="#1F2223"/>
<path d="M166.958 49.108C166.891 49.1219 166.822 49.1219 166.755 49.108C161.923 46.9257 162.218 41.0793 162.218 40.988C162.223 40.8773 162.265 40.7716 162.337 40.687C162.408 40.6023 162.506 40.5435 162.614 40.5193C162.722 40.4951 162.835 40.507 162.936 40.5532C163.036 40.5993 163.119 40.6772 163.172 40.7748C164.154 42.2142 165.523 43.347 167.12 44.0431C167.213 44.0812 167.292 44.1459 167.348 44.2289C167.404 44.312 167.434 44.4098 167.435 44.51V48.57C167.437 48.6557 167.418 48.7407 167.379 48.817C167.34 48.8933 167.282 48.9585 167.211 49.0065C167.136 49.0601 167.049 49.0949 166.958 49.108ZM163.334 42.6424C163.455 43.6634 163.797 44.646 164.335 45.5222C164.873 46.3984 165.594 47.1474 166.45 47.7174V44.8348C165.296 44.2842 164.242 43.543 163.334 42.6424Z" fill="#1F2223"/>
<path d="M173.574 28.8466C173.762 28.1542 173.696 27.5333 173.425 27.4598C173.155 27.3863 172.783 27.8881 172.595 28.5805C172.407 29.2729 172.473 29.8938 172.744 29.9673C173.014 30.0408 173.386 29.539 173.574 28.8466Z" fill="#1F2223"/>
<path d="M174.286 28.3105C174.194 28.3074 174.103 28.2831 174.022 28.2394L171.606 26.8286C171.489 26.7599 171.404 26.6476 171.37 26.5162C171.336 26.3849 171.355 26.2453 171.424 26.1282C171.492 26.0111 171.605 25.9261 171.736 25.8918C171.867 25.8576 172.007 25.8769 172.124 25.9455L174.54 27.3564C174.64 27.4105 174.719 27.4969 174.765 27.6016C174.81 27.7064 174.819 27.8233 174.789 27.9336C174.76 28.0438 174.694 28.141 174.603 28.2094C174.512 28.2778 174.4 28.3134 174.286 28.3105Z" fill="#1F2223"/>
<path d="M138.7 49.9199C138.7 49.9199 114.99 52.4067 100.759 60.6383C92.7916 65.2464 79.4443 89.3527 79.4443 89.3527L89.98 94.5089L112.554 72.1789C119.78 71.5394 134.955 67.1039 134.955 67.1039L138.7 49.9199Z" fill="#87FF53"/>
<path d="M116.137 71.4988C117.487 71.2654 134.955 67.0938 134.955 67.0938L116.137 71.4988Z" fill="white"/>
<path d="M116.137 72.0064C116.002 72.0185 115.868 71.9767 115.764 71.8901C115.661 71.8035 115.595 71.6792 115.583 71.5446C115.571 71.41 115.613 71.2761 115.7 71.1724C115.786 71.0686 115.911 71.0035 116.045 70.9914C117.365 70.758 134.67 66.6371 134.843 66.5863C134.973 66.5558 135.111 66.5782 135.225 66.6485C135.339 66.7189 135.421 66.8315 135.452 66.9619C135.483 67.0937 135.461 67.2323 135.39 67.3481C135.32 67.4638 135.208 67.5474 135.076 67.581C134.366 67.7434 117.578 71.7527 116.218 71.9963L116.137 72.0064Z" fill="#1F2223"/>
<path d="M135.32 162.037C135.32 162.037 75.2524 175.232 76.0339 174.146L74.6738 158.017L119.141 141.666L130.641 159.296" fill="#1F2223"/>
<path d="M76.2369 174.663C75.7497 174.663 75.6787 174.562 75.6076 174.45C75.5489 174.36 75.5205 174.253 75.5264 174.146L74.1663 158.058C74.1593 157.947 74.188 157.837 74.2483 157.744C74.3086 157.651 74.3973 157.579 74.5013 157.54L118.968 141.189C119.076 141.148 119.195 141.146 119.304 141.183C119.414 141.22 119.506 141.294 119.567 141.392L131.067 159.022C131.14 159.135 131.164 159.273 131.136 159.404C131.107 159.535 131.028 159.65 130.915 159.723C130.859 159.76 130.797 159.786 130.731 159.798C130.665 159.811 130.598 159.81 130.532 159.796C130.467 159.781 130.405 159.754 130.351 159.715C130.296 159.677 130.25 159.627 130.215 159.57L118.938 142.315L75.2118 158.363L76.5008 173.699C80.5608 173.354 113.305 166.351 135.219 161.519C135.353 161.491 135.493 161.517 135.609 161.592C135.724 161.668 135.804 161.786 135.833 161.92C135.861 162.055 135.835 162.195 135.759 162.31C135.684 162.425 135.566 162.506 135.432 162.534C135.29 162.534 120.562 165.802 105.997 168.898C83.3825 173.679 77.8 174.663 76.2369 174.663Z" fill="#1F2223"/>
<path d="M193.754 25.5397C195.885 25.9457 198.007 24.9307 199.844 23.8446C200.539 23.5077 201.123 22.9796 201.529 22.3221C201.704 21.8941 201.757 21.4261 201.684 20.9696C201.611 20.513 201.413 20.0854 201.112 19.7339C200.798 19.3424 200.399 19.0275 199.946 18.8129C199.492 18.5984 198.996 18.4899 198.494 18.4956C198.341 18.4956 198.118 18.4956 198.138 18.3027" fill="white"/>
<path d="M194.738 26.1385C194.374 26.1395 194.01 26.1055 193.652 26.037C193.587 26.0237 193.525 25.9976 193.469 25.9603C193.414 25.923 193.367 25.8752 193.33 25.8196C193.293 25.7639 193.268 25.7016 193.255 25.6362C193.243 25.5707 193.243 25.5034 193.256 25.4381C193.268 25.3732 193.293 25.3114 193.33 25.2562C193.366 25.201 193.413 25.1536 193.468 25.1168C193.522 25.0799 193.584 25.0544 193.649 25.0416C193.714 25.0288 193.78 25.029 193.845 25.0423C195.875 25.4178 197.905 24.4231 199.62 23.398C200.226 23.1175 200.74 22.6704 201.102 22.1089C201.23 21.7696 201.264 21.4025 201.201 21.0455C201.139 20.6885 200.982 20.3548 200.747 20.0789C200.48 19.7525 200.141 19.4913 199.758 19.3154C199.375 19.1395 198.956 19.0535 198.534 19.0639C198.274 19.0738 198.019 18.9829 197.824 18.8102C197.763 18.7438 197.716 18.665 197.688 18.5792C197.66 18.4934 197.651 18.4025 197.661 18.3128C197.674 18.1799 197.739 18.0574 197.842 17.9719C197.944 17.8864 198.076 17.8448 198.209 17.8561C198.279 17.8595 198.348 17.8787 198.409 17.9121C198.471 17.9454 198.524 17.9922 198.565 18.0489C199.137 18.0525 199.701 18.1827 200.217 18.4301C200.733 18.6776 201.188 19.0361 201.549 19.4801C201.905 19.9085 202.137 20.4266 202.22 20.9778C202.302 21.5291 202.231 22.0924 202.016 22.6063C201.577 23.3593 200.923 23.9638 200.138 24.3419C198.523 25.3971 196.663 26.0161 194.738 26.1385Z" fill="#1F2223"/>
<path d="M239.368 160.595C239.368 160.595 246.757 167.436 249.102 166.685C251.446 165.934 267.128 137.849 264.235 137.129C261.342 136.408 246.483 149.836 246.483 149.836L239.368 160.595Z" fill="#1F2223"/>
<path d="M248.746 167.274C245.975 167.274 240.21 162.067 239.023 160.961C238.935 160.88 238.878 160.77 238.863 160.651C238.848 160.532 238.876 160.412 238.941 160.311L246.046 149.583L246.128 149.492C248.645 147.218 261.353 135.931 264.347 136.672C264.611 136.733 265.057 136.977 265.078 137.809C265.189 141.869 252.005 166.351 249.223 167.244C249.067 167.279 248.906 167.289 248.746 167.274ZM240.027 160.514C243.022 163.235 247.569 166.604 248.949 166.239C250.492 165.64 260.805 148.202 263.525 140.255C264.286 138.042 264.063 137.616 264.053 137.606C262.195 137.169 252.553 145.076 246.869 150.202L240.027 160.514Z" fill="#1F2223"/>
<path d="M66.564 161.357C66.564 161.357 55.3381 162.981 55.0742 164.057C54.8103 165.132 57.3681 192.994 59.53 191.776C61.692 190.558 67.2338 174.207 67.2338 174.207L66.564 161.357Z" fill="#1F2223"/>
<path d="M59.3879 192.365C59.2033 192.361 59.025 192.297 58.8804 192.182C58.5049 191.898 57.3579 191.025 55.7542 177.8C55.0031 171.639 54.4144 164.666 54.5768 163.986C54.6682 163.641 54.9321 162.575 66.4828 160.941C66.5529 160.931 66.6243 160.935 66.6925 160.955C66.7607 160.974 66.8241 161.007 66.8786 161.052C66.9345 161.093 66.9802 161.147 67.0119 161.208C67.0436 161.27 67.0605 161.338 67.0613 161.408L67.7414 174.268C67.751 174.328 67.751 174.39 67.7414 174.45C66.8076 177.211 62.0269 191.046 59.8041 192.294C59.6748 192.356 59.5306 192.381 59.3879 192.365ZM55.5512 164.25C55.5512 165.102 55.9572 171.111 56.7794 177.84C58.109 188.691 59.1139 190.832 59.4082 191.238C60.951 189.949 64.6558 180.216 66.7264 174.136L66.0869 161.956C61.3164 162.646 56.282 163.671 55.5512 164.25Z" fill="#1F2223"/>
<path d="M207.487 61.1459C207.379 61.1472 207.274 61.1145 207.187 61.0525C207.099 60.9905 207.034 60.9024 206.999 60.8008L198.372 35.2735C198.329 35.1456 198.338 35.0062 198.397 34.8848C198.456 34.7635 198.56 34.6699 198.686 34.6239C198.816 34.582 198.956 34.5925 199.078 34.6533C199.199 34.7141 199.292 34.8202 199.336 34.9487L207.964 60.476C207.986 60.5393 207.996 60.6064 207.992 60.6734C207.988 60.7404 207.971 60.8061 207.942 60.8665C207.913 60.9269 207.872 60.9809 207.821 61.0254C207.771 61.0698 207.712 61.1039 207.649 61.1256C207.596 61.1416 207.541 61.1485 207.487 61.1459Z" fill="#1F2223"/>
<path d="M160.208 202.058C206.197 202.058 243.478 200.122 243.478 197.734C243.478 195.346 206.197 193.41 160.208 193.41C114.219 193.41 76.9373 195.346 76.9373 197.734C76.9373 200.122 114.219 202.058 160.208 202.058Z" fill="#DEE5EB"/>
</svg>
