<svg width="32" height="32" viewBox="0 0 32 32" fill="none" xmlns="http://www.w3.org/2000/svg">
<path d="M27.001 8H22V7C21.9991 6.20463 21.6827 5.4421 21.1203 4.87968C20.5579 4.31727 19.7954 4.00091 19 4H13C12.2046 4.00091 11.4421 4.31727 10.8797 4.87968C10.3173 5.4421 10.0009 6.20463 10 7V8H5.00098C4.47073 8.00061 3.96237 8.21151 3.58743 8.58646C3.21249 8.9614 3.00158 9.46975 3.00098 10V26C3.00158 26.5302 3.21249 27.0386 3.58743 27.4135C3.96237 27.7885 4.47073 27.9994 5.00098 28H27.001C27.5312 27.9994 28.0396 27.7885 28.4145 27.4135C28.7895 27.0386 29.0004 26.5302 29.001 26V10C29.0004 9.46975 28.7895 8.9614 28.4145 8.58646C28.0396 8.21151 27.5312 8.00061 27.001 8ZM12 7C12.0003 6.73488 12.1058 6.4807 12.2932 6.29323C12.4807 6.10576 12.7349 6.0003 13 6H19C19.2651 6.0003 19.5193 6.10576 19.7068 6.29323C19.8942 6.4807 19.9997 6.73488 20 7V8H12V7ZM27.001 10L27.0014 15.2008C23.6257 17.0384 19.8434 18.0008 16 18C12.1575 18.0007 8.37603 17.0388 5.00098 15.202V10H27.001ZM13.5 15C13.5 14.7348 13.6054 14.4804 13.7929 14.2929C13.9804 14.1054 14.2348 14 14.5 14H17.5C17.7652 14 18.0196 14.1054 18.2071 14.2929C18.3946 14.4804 18.5 14.7348 18.5 15C18.5 15.2652 18.3946 15.5196 18.2071 15.7071C18.0196 15.8946 17.7652 16 17.5 16H14.5C14.2348 16 13.9804 15.8946 13.7929 15.7071C13.6054 15.5196 13.5 15.2652 13.5 15Z" fill="#74F73C"/>
</svg>
