<svg width="312" height="252" viewBox="0 0 312 252" fill="none" xmlns="http://www.w3.org/2000/svg">
<path d="M175.031 230.79C175.031 230.79 167.733 239.346 159.583 239.143C159.583 239.143 157.908 233.52 153.29 235.804C148.672 238.087 145.505 241.741 136.623 240.523C131.107 239.787 125.538 239.533 119.977 239.762C119.977 239.762 116.932 233.672 109.411 238.595C109.411 238.595 110.254 235.753 94.1863 239.488C94.1863 239.488 100.875 232.058 93.8209 233.155C88.1637 234.214 82.5878 235.669 77.1343 237.509C77.1343 237.509 89.3752 226.638 84.7874 223.512C80.1996 220.386 31.6826 207.627 31.6826 207.627C31.6826 207.627 85.5284 218.721 84.1987 213.382C82.8691 208.043 72.8003 203.882 80.3011 187.175C87.802 170.468 73.1961 158.116 73.1961 158.116C73.1961 158.116 92.1462 180.75 90.0248 173.401C87.9035 166.053 63.9698 121.718 63.9698 121.718C63.9698 121.718 94.0138 177.908 97.1298 172.63C100.246 167.352 87.3351 74.2563 87.3351 74.2563C87.3351 74.2563 110.02 143.753 111.695 137.186C113.37 130.619 112.578 117.485 112.578 117.485C112.578 117.485 118.962 145.57 120.891 138.008C122.819 130.447 119.754 66.2378 119.754 66.2378C119.754 66.2378 130.564 129.645 135.101 120.236C139.638 110.827 141.739 48.0185 141.739 48.0185C141.739 48.0185 146.54 83.9901 148.56 72.0131C150.58 60.0361 157.309 12.8792 157.309 12.8792C157.309 12.8792 155.919 87.8471 165.115 88.6693C174.31 89.4914 191.819 0.364258 191.819 0.364258C191.819 0.364258 185.912 90.8414 197.747 61.3556C209.582 31.8699 221.518 -0.640593 221.274 1.09506C221.031 2.83071 202.395 119.089 213.408 116.084C224.421 113.08 235.515 88.3851 235.515 88.3851C235.515 88.3851 220.422 137.714 224.817 137.46C229.212 137.207 234.216 130.132 234.216 130.132C234.216 130.132 224.005 140.861 229.8 141.53C235.596 142.2 258.637 118.835 258.637 118.835C258.637 118.835 239.768 143.997 244.427 143.043C249.085 142.089 284.397 113.689 284.397 113.689C284.397 113.689 245.411 154.167 251.714 151.762C258.017 149.356 283.342 136.364 283.342 136.364C283.342 136.364 235.87 170.651 248.152 166.205C260.433 161.759 290.528 149.163 290.254 150.199C289.98 151.234 233.83 193.844 240.235 193.092C246.639 192.341 284.336 170.874 284.336 170.874C284.336 170.874 234.703 208.663 253.673 202.816C272.644 196.97 292.578 190.047 292.578 190.047C292.578 190.047 236.652 212.631 242.275 216.031C247.898 219.432 266.209 225.481 266.209 225.481C266.209 225.481 232.795 222.01 233.465 227.724C234.135 233.439 239.656 234.992 239.656 234.992C239.656 234.992 218.788 225.857 218.341 229.622C217.895 233.388 221.092 236.078 221.092 236.078C221.092 236.078 207.004 226.943 199.056 230.069C199.056 230.069 192.337 225.38 187.475 229.054C187.465 229.054 178.411 227.542 175.031 230.79Z" fill="#87FF53"/>
<path d="M104.357 233.581C104.822 232.973 105.327 232.396 105.869 231.855C106.681 230.962 107.341 229.622 106.712 228.597C106.405 228.159 105.989 227.808 105.504 227.582C101.815 225.574 97.6013 224.739 93.4252 225.187C94.1669 224.012 94.6421 222.689 94.8175 221.31C94.9928 219.932 94.8641 218.532 94.4402 217.209C93.0801 212.286 89.3652 209.211 88.7968 204.014C88.2284 198.817 89.1622 193.63 90.1468 188.586L92.4204 176.852C92.5478 178.12 92.9256 179.35 93.532 180.47C94.1383 181.59 94.9611 182.579 95.9526 183.379C99.6167 181.745 102.043 178.03 103.058 174.142C104.073 170.255 103.819 166.154 103.433 162.155C102.452 152.187 100.539 142.332 97.7187 132.72L105.839 147.732C107.168 150.178 109.259 153.02 111.99 152.462C112.538 147.211 113.089 141.963 113.644 136.719C114.987 141.139 117.142 145.269 119.998 148.899C124.535 148.757 128.27 144.839 129.701 140.566C131.132 136.293 130.716 131.583 130.331 127.057C131.236 132.969 133.414 138.613 136.715 143.601C147.342 129.543 146.581 110.238 145.342 92.6582L148.387 100.839C149.424 93.6036 149.828 86.2917 149.595 78.9861L155.898 97.1039C157.076 100.474 159.116 104.483 162.689 104.392C164.719 104.331 166.465 102.808 167.906 101.347C176.613 92.3005 183.009 81.2875 186.551 69.2421C185.94 75.9336 186.95 82.6738 189.495 88.8925C196.886 78.7035 202.956 67.6195 207.562 55.905C204.748 69.9762 203.139 84.2616 202.751 98.6061C202.477 108.756 203.167 119.799 209.917 127.341C211.094 128.65 212.901 129.899 214.474 129.117C215.123 128.724 215.661 128.172 216.037 127.513L220.777 120.621L215.885 139.998C215.347 142.15 215.053 144.951 216.9 146.088C218.93 147.357 221.488 145.408 223.122 143.601C220.71 149.942 219.14 156.573 218.453 163.322C225.666 159.777 232.734 155.947 239.656 151.833C239.2 152.097 238.641 156.025 238.438 156.766C237.779 158.856 236.926 160.897 236.226 162.977C234.774 167.322 233.495 171.737 232.389 176.172C231.973 177.837 231.881 180.121 233.485 180.72C234.19 180.906 234.935 180.867 235.617 180.608C239.491 179.521 243.194 177.898 246.619 175.787C242.062 183.825 234.754 189.682 229.567 197.315C228.735 198.553 227.933 200.208 228.786 201.375C229.402 202.062 230.26 202.484 231.181 202.552C235.706 203.339 240.365 202.627 244.447 200.522L231.942 212.753C233.701 212.451 235.51 212.813 237.017 213.768C234.424 214.377 232.056 215.707 230.186 217.605C232.017 219.871 234.496 221.524 237.291 222.345C234.013 221.391 229.953 221.715 229.253 225.522L219.61 222.629C217.758 221.941 215.789 221.621 213.814 221.685C213.187 221.712 212.572 221.872 212.011 222.154C211.449 222.435 210.953 222.832 210.556 223.319C210.183 223.822 210.013 224.448 210.081 225.071C210.148 225.693 210.449 226.268 210.922 226.679C205.36 225.207 199.676 224.242 193.941 223.796C189.322 223.431 184.806 224.659 180.269 224.517C176.138 224.395 172.869 223.979 169.012 226.283C166.262 227.927 164.09 230.871 164.171 234.078C164.293 232.16 161.928 231.185 160.019 230.921C154.251 230.178 148.389 230.722 142.856 232.515C139.019 233.733 136.948 235.641 132.503 234.545C129.62 233.875 126.9 232.586 124.007 231.947C117.298 230.475 110.386 232.637 103.849 234.778C103.936 234.349 104.109 233.942 104.357 233.581Z" fill="white"/>
<path d="M116.171 158.522L122.83 187.622C122.603 186.351 121.966 185.19 121.016 184.316C120.067 183.441 118.857 182.902 117.572 182.78C115.772 176.013 112.988 169.546 109.31 163.586C110.873 169.443 113.938 179.035 111.259 184.455C110.863 185.247 108.082 187.185 107.32 188.322C106.062 190.23 107.067 194.077 103.636 194.412C101.708 194.585 100.297 192.687 99.3121 191.022C99.2334 195.653 99.9193 200.266 101.342 204.674C99.0456 203.344 97.1841 201.376 95.9829 199.01C96.9269 205.739 99.4644 212.418 104.215 217.28C110.305 223.441 137.385 241.275 141.161 225.095C141.556 226.253 142.5 226.659 142.866 227.268C143.262 226.253 144.246 225.187 144.581 224.091C144.903 224.994 145.125 225.93 145.241 226.882C149.717 225.014 151.493 221.807 153.198 217.361C157.878 205.283 162.658 192.433 160.364 179.674C164.643 188.863 166.465 199.005 165.653 209.109C165.348 212.834 163.968 217.351 165.531 220.914C168.403 220.295 172.372 214.885 174.118 212.469C176.969 208.274 179.16 203.666 180.614 198.807C180.802 203.787 179.887 208.747 177.934 213.332C177.824 213.509 177.756 213.709 177.735 213.916C177.713 214.124 177.74 214.334 177.812 214.529C178.239 215.25 179.325 214.641 179.842 214.002C185.243 207.453 189.221 199.852 191.525 191.682C193.738 195.112 193.778 199.477 193.423 203.547C192.925 209.138 191.809 214.656 190.094 220C194.509 216.246 197.678 211.236 199.178 205.638C198.254 209.099 198.823 214.235 198.599 217.879C200.7 215.463 201.715 218.285 202.659 220.132C203.072 219.279 203.411 218.393 203.674 217.483C204.628 218.033 205.738 218.249 206.829 218.096C207.919 217.943 208.927 217.431 209.693 216.641C209.466 217.233 209.359 217.864 209.376 218.498C209.393 219.132 209.536 219.756 209.795 220.335C211.377 218.263 213.529 216.697 215.986 215.829C219.346 219.087 226.045 217.036 227.019 212.459C225.895 213.408 224.585 214.114 223.173 214.529C221.761 214.945 220.278 215.063 218.818 214.874C219.839 210.631 221.305 206.508 223.193 202.573C221.689 204.236 219.85 205.562 217.795 206.461C215.741 207.361 213.519 207.814 211.277 207.79C219.478 203.064 226.741 196.871 232.703 189.52C226.258 192.159 218.991 194.392 212.403 191.996L229.658 169.057C222.967 174.547 215.049 178.339 206.577 180.111L210.373 161.678C207.538 165.193 205.037 168.965 202.903 172.945C204.801 159.376 208.128 146.046 212.83 133.177C207.877 140.397 202.697 147.458 197.29 154.36L200.66 136.395L194.682 144.21C196.034 139.572 196.931 134.813 197.361 130L186.024 143.997C184.775 123.91 197.392 105.64 201.675 85.939C197.615 92.7801 193.284 99.4723 188.683 106.016C188.401 99.3861 187.38 92.8087 185.638 86.4059C184.217 91.897 182.4 97.9363 177.518 100.849C176.092 101.51 174.732 102.305 173.458 103.224C171.661 104.838 171.062 107.355 170.514 109.7C167.925 120.874 164.488 131.834 160.232 142.485L158.253 117.648C157.693 121.681 156.418 125.582 154.488 129.168C153.462 123.669 153.158 118.059 153.584 112.481C153.682 127.017 152.126 141.516 148.946 155.7C147.472 154.159 146.57 152.161 146.388 150.036L145.769 155.213L144.754 152.807C144.881 160.167 143.895 167.504 141.83 174.569L133.051 145.489L138.126 183.907L128.646 161.384C129.539 168.601 130.493 175.929 130.767 183.196C128.25 179.37 124.565 180.06 122.556 175.482C120.373 170.255 117.43 164.094 116.171 158.522Z" fill="#DEE5EB"/>
<path d="M273.994 224.496L285.362 223.796C281.302 223.796 277.455 224.151 275.445 224.344C274.521 224.395 273.994 224.496 273.994 224.496Z" fill="#1F2223"/>
<path d="M283.129 242.32C287.3 240.158 311.853 231.774 311.853 231.774C311.853 231.774 300.688 230.272 304.748 226.953C308.808 223.634 310.838 222.253 310.838 222.253L285.321 223.796C291.959 223.796 299.156 224.446 299.876 227.643C301.175 233.489 274.633 242.553 257.246 245.619C265.987 242.748 274.149 238.35 281.352 232.627C256.262 251.831 181.395 249.242 181.395 249.242C181.395 249.242 197.859 250.653 216.291 250.582C228.826 250.775 258.921 251.13 265.61 250.298C265.61 250.298 262.565 245.964 270.868 246.238C279.17 246.512 292.68 245.558 292.68 245.558C292.68 245.558 278.967 244.492 283.129 242.32Z" fill="#1F2223"/>
<path d="M120.617 250.237C113.695 250.024 106.772 249.659 99.8603 249.222C94.4503 248.877 89.1723 248.207 83.8537 247.466C82.25 247.253 70.1816 245.314 69.7249 245.771C71.392 244.105 73.2973 242.696 75.3785 241.589C63.5537 245.568 49.1407 244.766 38.6253 237.813C36.1881 236.313 34.1094 234.297 32.5353 231.906C31.0128 229.44 30.0384 225.979 31.6929 223.502C32.5049 222.284 38.9907 218.559 40.4117 218.742C31.2767 217.574 22.1417 220.163 13.3924 222.731C16.1549 222.638 18.919 222.853 21.6342 223.37C23.0451 223.634 24.6792 224.152 25.136 225.481C25.8059 227.217 24.0601 229.044 22.2432 229.44C18.4471 230.282 13.5142 229.095 9.53541 229.338C6.42274 229.521 3.30669 229.649 0.187256 229.724C4.78831 229.726 9.37913 230.157 13.8999 231.013C22.3447 232.404 25.8566 235.276 32.2714 240.97C32.511 241.139 32.6835 241.387 32.7586 241.67C32.8297 242.188 32.2613 242.543 31.7436 242.757L24.9025 245.71C36.5953 245.548 47.1513 248.694 58.5295 250.156C88.9287 254.064 120.617 250.237 120.617 250.237Z" fill="#1F2223"/>
<path d="M207.765 169.301C203.045 166.367 197.615 163.302 192.245 164.774C191.529 164.897 190.891 165.298 190.469 165.89C190.313 166.263 190.232 166.663 190.232 167.068C190.232 167.472 190.313 167.872 190.469 168.245C191.528 171.574 193.205 174.673 195.412 177.38C184.176 164.185 167.276 157.608 151.097 151.487C144.5 148.991 137.121 146.484 130.574 149.133L131.447 152.543C129.305 147.925 124.941 144.788 120.688 141.977C112.669 136.672 104.428 131.732 95.9626 127.158C90.8165 124.377 85.4878 121.697 79.7226 120.763C73.9574 119.83 67.5426 120.885 63.2491 124.823C59.1891 128.488 57.4738 134.212 57.6768 139.673C57.8798 145.134 59.8387 150.371 62.2341 155.273C65.1105 161.178 68.6448 166.738 72.7698 171.848L42.4213 139.541C38.9602 135.856 35.3163 131.675 35.1641 126.62C39.1226 131.228 47.3441 129.766 50.8458 124.763C54.3476 119.759 53.5863 112.786 50.6936 107.436C47.8008 102.087 43.1014 98.0071 38.5136 94.0486C50.234 100.55 62.9089 105.158 76.0686 107.7C78.8598 108.238 82.0875 108.573 84.1886 106.685C86.99 104.27 86.2186 99.5804 84.1886 96.5354C82.1586 93.4904 79.2252 90.8818 77.9565 87.4004C89.5388 100.437 104.398 110.137 120.992 115.496C124.423 116.602 128.534 117.394 131.335 115.13C135.253 111.953 133.528 105.731 131.477 101.123C135.669 108.015 142.927 112.349 149.9 116.409L180.441 134.161C189.363 139.358 198.335 144.575 206.293 151.153C214.768 158.166 221.944 166.591 229.08 174.964C234.449 181.268 239.839 187.55 245.178 193.884C239.687 191.032 234.875 186.19 229.557 182.881C222.32 178.375 214.87 174.031 207.765 169.301Z" fill="#1F2223"/>
<path d="M289.98 186.505C286.935 182.963 282.773 180.588 278.571 178.537C272.158 175.407 265.48 172.849 258.616 170.894C260.56 171.512 262.632 171.611 264.625 171.182C266.619 170.753 268.466 169.81 269.984 168.448C262.558 159.977 252.285 154.521 241.108 153.112C241.402 151.01 239.91 149.123 238.448 147.6C227.537 136.212 213.266 128.752 199.269 121.494L185.181 114.186C194.255 117.942 202.71 123.068 211.774 126.853C220.838 130.639 230.866 133.075 240.478 131.066C239.89 134.233 239.402 137.846 241.392 140.383C242.604 141.71 244.123 142.718 245.817 143.317C250.693 145.458 255.7 147.286 260.809 148.788C259.52 152.472 263.397 155.751 266.696 157.841C278.986 165.683 290.205 175.09 300.069 185.825C301.749 187.61 303.328 189.487 304.799 191.448C305.475 192.201 305.882 193.158 305.956 194.168C305.887 194.918 305.62 195.635 305.185 196.249C299.744 205.171 289.087 207.099 279.657 208.845C292.101 209.566 297.623 195.478 289.98 186.505Z" fill="#1F2223"/>
<path d="M222.99 87.2279C222.99 87.2279 223.183 83.5029 226.177 77.0779C227.746 73.5571 229.638 70.1897 231.831 67.0193L222.99 87.2279Z" fill="#87FF53"/>
<path d="M119.572 201.598C119.894 205.37 120.546 209.106 121.52 212.763C116.902 207.688 115.613 200.583 114.872 193.742C114.588 193.671 114.365 194.006 114.253 194.28C112.132 199.467 111.594 205.536 113.938 210.622C115.256 213.257 117.06 215.62 119.257 217.584C122.2 220.386 129.833 225.775 126.362 218.082C123.713 212.296 120.302 208.246 119.572 201.598Z" fill="white"/>
<path d="M56.7227 174.802C57.8563 177.411 58.7103 180.133 59.2703 182.922C59.4333 183.395 59.4851 183.9 59.4217 184.396C59.3584 184.892 59.1815 185.367 58.9049 185.784C57.8899 186.85 56.1644 186.241 54.9464 185.49C45.4866 179.623 40.4624 168.864 35.9558 158.694C33.9258 162.368 36.0979 166.814 38.2192 170.397C43.8355 179.87 49.6583 189.225 55.6874 198.462C55.0844 195.518 54.91 192.503 55.1697 189.509C54.8348 193.336 67.1569 196.219 69.6335 197.102C72.648 191.55 59.9402 179.207 56.7227 174.802Z" fill="#87FF53"/>
<path d="M105.808 55.2047C105.787 59.3949 105.403 63.5754 104.661 67.6994C100.232 60.2173 96.3116 52.445 92.9277 44.4355L105.108 94.1705L105.26 71.6782C107.08 75.2356 108.268 79.0821 108.772 83.0461C108.214 79.047 109.137 75.2408 108.437 71.0692C107.625 66.0551 105.788 60.2797 105.808 55.2047Z" fill="#87FF53"/>
<path d="M247.786 101.58C247.123 104.354 246.836 107.205 246.934 110.055C254.353 104.615 260.758 97.9362 267.132 91.2981C262.396 101.268 256.688 110.747 250.09 119.596L250.415 112.867C245.959 112.806 242.356 116.318 239.321 119.586C240.119 118.638 240.528 117.423 240.468 116.186C239.859 116.775 238.672 117.313 238.134 117.911C239.646 111.923 246.335 107.487 247.786 101.58Z" fill="#87FF53"/>
<path d="M53.7286 68.2474C50.4806 65.7505 47.5371 62.7055 43.7207 61.1424C51.8407 69.0797 59.169 77.5854 66.7003 86.0099C65.3199 82.2544 62.6403 77.3519 63.3711 73.3528C67.8168 74.1141 69.2378 75.9309 68.8623 70.8458C68.5578 66.7046 63.4117 61.1931 60.4885 58.6658C62.7215 62.5431 64.7718 67.1309 64.8733 71.6172C60.9554 72.8555 56.8345 70.6225 53.7286 68.2474Z" fill="#1F2223"/>
<path d="M256.16 102.697C261.945 107.29 267.374 112.315 272.4 117.729L245.32 75.9412C262.209 92.2725 279.505 109.182 288.965 130.69L274.562 112.227C273.273 110.573 271.324 108.726 269.396 109.538C270.614 109.02 281.829 132.751 282.327 135.024C277.13 134.151 273.537 125.057 270.634 121.088C266.006 114.775 261.073 108.746 256.16 102.697Z" fill="#1F2223"/>
</svg>
