<svg width="604" height="104" viewBox="0 0 604 104" fill="none" xmlns="http://www.w3.org/2000/svg">
<path d="M99.031 44.1774C99.031 65.447 81.7886 82.6895 60.5189 82.6895C39.2493 82.6895 22.0068 65.447 22.0068 44.1774C22.0068 22.9077 39.2493 5.66528 60.5189 5.66528C81.7886 5.66528 99.031 22.9077 99.031 44.1774Z" fill="#9FA6A9"/>
<path fill-rule="evenodd" clip-rule="evenodd" d="M49.5156 7.26013C33.6074 11.9946 22.0069 26.7313 22.0069 44.1774C22.0069 61.6235 33.6073 76.3601 49.5155 81.0946C46.029 82.1323 42.3356 82.6895 38.5121 82.6895C17.2425 82.6895 0 65.447 0 44.1774C0 22.9077 17.2425 5.66528 38.5121 5.66528C42.3357 5.66528 46.0291 6.22249 49.5156 7.26013Z" fill="#4C585E"/>
<path d="M121.393 44.1774C121.393 65.447 104.151 82.6895 82.8812 82.6895C61.6116 82.6895 44.3691 65.447 44.3691 44.1774C44.3691 22.9077 61.6116 5.66528 82.8812 5.66528C104.151 5.66528 121.393 22.9077 121.393 44.1774Z" fill="white"/>
<path d="M179.263 3.72438V80.7701H165.306V3.72438H179.263Z" fill="white"/>
<path d="M205.275 46.9121V80.7701H191.656V22.9858H204.673V32.8046H205.35C206.679 29.5693 208.798 26.9986 211.708 25.0925C214.642 23.1864 218.266 22.2334 222.58 22.2334C226.568 22.2334 230.041 23.0861 233.001 24.7916C235.985 26.497 238.293 28.9674 239.923 32.2027C241.578 35.438 242.393 39.363 242.368 43.9777V80.7701H228.75V46.0845C228.75 42.2222 227.746 39.2 225.74 37.0181C223.759 34.8361 221.012 33.7451 217.501 33.7451C215.119 33.7451 212.999 34.2718 211.143 35.3252C209.313 36.3534 207.871 37.8457 206.817 39.8019C205.789 41.7582 205.275 44.1282 205.275 46.9121Z" fill="white"/>
<path d="M303.639 22.9858L283.061 80.7701H268.013L247.435 22.9858H261.956L275.236 65.9102H275.838L289.155 22.9858H303.639Z" fill="white"/>
<path d="M334.56 81.8987C328.766 81.8987 323.763 80.6948 319.55 78.2872C315.361 75.8544 312.138 72.4185 309.881 67.9793C307.624 63.5151 306.495 58.2608 306.495 52.2165C306.495 46.2726 307.624 41.0559 309.881 36.5666C312.163 32.0522 315.349 28.541 319.437 26.033C323.525 23.4999 328.328 22.2334 333.845 22.2334C337.406 22.2334 340.767 22.8102 343.927 23.9639C347.112 25.0925 349.921 26.8481 352.354 29.2307C354.812 31.6133 356.743 34.648 358.148 38.3348C359.552 41.9964 360.254 46.3603 360.254 51.4265V55.6023H312.891V46.4231H347.2C347.175 43.8147 346.611 41.4948 345.507 39.4634C344.404 37.4068 342.861 35.7891 340.88 34.6104C338.924 33.4316 336.642 32.8422 334.033 32.8422C331.249 32.8422 328.804 33.5194 326.697 34.8737C324.591 36.203 322.948 37.9586 321.769 40.1405C320.615 42.2974 320.026 44.6674 320.001 47.2507V55.2637C320.001 58.6245 320.615 61.5087 321.844 63.9163C323.073 66.2989 324.791 68.1298 326.998 69.4088C329.205 70.6628 331.789 71.2899 334.748 71.2899C336.729 71.2899 338.523 71.014 340.128 70.4622C341.733 69.8854 343.125 69.0452 344.303 67.9417C345.482 66.8382 346.373 65.4713 346.974 63.8411L359.69 65.2707C358.887 68.6314 357.358 71.5657 355.1 74.0737C352.868 76.5566 350.009 78.4878 346.523 79.8672C343.037 81.2215 339.049 81.8987 334.56 81.8987Z" fill="white"/>
<path d="M415.327 38.2595L402.913 39.6138C402.562 38.3598 401.947 37.1811 401.069 36.0776C400.217 34.974 399.063 34.0837 397.608 33.4065C396.154 32.7294 394.373 32.3908 392.266 32.3908C389.432 32.3908 387.05 33.0053 385.119 34.2342C383.212 35.4631 382.272 37.0557 382.297 39.0119C382.272 40.6923 382.886 42.0591 384.14 43.1125C385.419 44.1659 387.526 45.0311 390.461 45.7083L400.317 47.815C405.784 48.9938 409.847 50.8622 412.506 53.4204C415.189 55.9785 416.544 59.3267 416.569 63.4649C416.544 67.1015 415.478 70.3117 413.371 73.0956C411.289 75.8544 408.393 78.0113 404.681 79.5662C400.969 81.1212 396.705 81.8987 391.89 81.8987C384.818 81.8987 379.124 80.419 374.811 77.4595C370.497 74.475 367.926 70.3243 367.099 65.0073L380.378 63.7282C380.98 66.3366 382.259 68.3053 384.216 69.6346C386.172 70.9638 388.717 71.6284 391.852 71.6284C395.088 71.6284 397.684 70.9638 399.64 69.6346C401.621 68.3053 402.612 66.6626 402.612 64.7064C402.612 63.0511 401.972 61.6842 400.693 60.6058C399.439 59.5273 397.483 58.6997 394.824 58.1229L384.968 56.0538C379.425 54.9001 375.325 52.9564 372.666 50.2227C370.008 47.4639 368.691 43.9778 368.716 39.7643C368.691 36.203 369.657 33.1181 371.613 30.5098C373.594 27.8764 376.341 25.8449 379.852 24.4154C383.388 22.9607 387.463 22.2334 392.078 22.2334C398.85 22.2334 404.179 23.6755 408.067 26.5597C411.979 29.4439 414.399 33.3438 415.327 38.2595Z" fill="white"/>
<path d="M454.534 22.9858V33.5194H421.316V22.9858H454.534ZM429.517 9.14165H443.135V63.3897C443.135 65.2205 443.411 66.625 443.963 67.6031C444.54 68.5561 445.292 69.2082 446.22 69.5593C447.148 69.9105 448.176 70.086 449.305 70.086C450.158 70.086 450.935 70.0233 451.637 69.8979C452.365 69.7725 452.916 69.6597 453.293 69.5593L455.587 80.2058C454.86 80.4566 453.819 80.7325 452.465 81.0334C451.136 81.3344 449.506 81.5099 447.574 81.5601C444.164 81.6604 441.091 81.1463 438.358 80.0177C435.624 78.864 433.454 77.0833 431.849 74.6757C430.269 72.268 429.492 69.2584 429.517 65.6469V9.14165Z" fill="white"/>
<path d="M463.805 80.7701V22.9858H477.423V80.7701H463.805ZM470.652 14.7847C468.495 14.7847 466.639 14.0699 465.084 12.6403C463.529 11.1857 462.751 9.44261 462.751 7.41113C462.751 5.35458 463.529 3.61152 465.084 2.18195C466.639 0.727318 468.495 0 470.652 0C472.834 0 474.69 0.727318 476.219 2.18195C477.774 3.61152 478.552 5.35458 478.552 7.41113C478.552 9.44261 477.774 11.1857 476.219 12.6403C474.69 14.0699 472.834 14.7847 470.652 14.7847Z" fill="white"/>
<path d="M502.927 46.9121V80.7701H489.309V22.9858H502.325V32.8046H503.002C504.331 29.5693 506.451 26.9986 509.36 25.0925C512.294 23.1864 515.918 22.2334 520.232 22.2334C524.22 22.2334 527.693 23.0861 530.653 24.7916C533.637 26.497 535.945 28.9674 537.575 32.2027C539.23 35.438 540.045 39.363 540.02 43.9777V80.7701H526.402V46.0845C526.402 42.2222 525.399 39.2 523.392 37.0181C521.411 34.8361 518.665 33.7451 515.153 33.7451C512.771 33.7451 510.652 34.2718 508.796 35.3252C506.965 36.3534 505.523 37.8457 504.469 39.8019C503.441 41.7582 502.927 44.1282 502.927 46.9121Z" fill="white"/>
<path d="M576.876 103.643C571.985 103.643 567.784 102.978 564.273 101.649C560.762 100.345 557.94 98.5894 555.809 96.3824C553.677 94.1753 552.197 91.73 551.369 89.0465L563.634 86.0745C564.185 87.2031 564.988 88.3192 566.041 89.4227C567.095 90.5513 568.512 91.4792 570.292 92.2066C572.098 92.959 574.368 93.3352 577.102 93.3352C580.964 93.3352 584.162 92.3947 586.695 90.5137C589.228 88.6577 590.494 85.598 590.494 81.3344V70.387H589.817C589.115 71.7915 588.087 73.2335 586.732 74.7133C585.403 76.193 583.635 77.4345 581.428 78.4377C579.246 79.4408 576.5 79.9424 573.189 79.9424C568.75 79.9424 564.725 78.9016 561.113 76.82C557.527 74.7133 554.667 71.5783 552.536 67.415C550.429 63.2266 549.376 57.9849 549.376 51.6898C549.376 45.3446 550.429 39.99 552.536 35.6261C554.667 31.2371 557.539 27.914 561.151 25.6568C564.762 23.3745 568.787 22.2334 573.227 22.2334C576.612 22.2334 579.396 22.8102 581.578 23.9639C583.785 25.0925 585.541 26.4594 586.845 28.0645C588.149 29.6445 589.14 31.1368 589.817 32.5413H590.569V22.9858H604V81.7106C604 86.6513 602.821 90.7394 600.463 93.9747C598.106 97.21 594.883 99.6302 590.795 101.235C586.707 102.84 582.067 103.643 576.876 103.643ZM576.989 69.2584C579.873 69.2584 582.331 68.5561 584.362 67.1517C586.394 65.7472 587.936 63.7282 588.989 61.0948C590.043 58.4614 590.569 55.3014 590.569 51.6146C590.569 47.978 590.043 44.7928 588.989 42.0591C587.961 39.3254 586.431 37.2062 584.4 35.7014C582.393 34.1715 579.923 33.4065 576.989 33.4065C573.954 33.4065 571.421 34.1966 569.389 35.7766C567.358 37.3566 565.828 39.5261 564.8 42.2849C563.772 45.0186 563.257 48.1285 563.257 51.6146C563.257 55.1509 563.772 58.2483 564.8 60.9067C565.853 63.5401 567.396 65.5967 569.427 67.0764C571.484 68.5311 574.004 69.2584 576.989 69.2584Z" fill="white"/>
</svg>
