<svg width="32" height="32" viewBox="0 0 32 32" fill="none" xmlns="http://www.w3.org/2000/svg">
<path d="M25.9999 4.00002H5.99988C5.46963 4.00062 4.96127 4.21152 4.58633 4.58647C4.21139 4.96141 4.00048 5.46977 3.99988 6.00002V13.3333C3.99988 24.515 13.4781 28.2239 15.3782 28.8538C15.7814 28.9906 16.2184 28.9906 16.6216 28.8539C18.5216 28.2239 27.9999 24.515 27.9999 13.3333V6.00002C27.9993 5.46977 27.7884 4.96141 27.4134 4.58647C27.0385 4.21152 26.5301 4.00062 25.9999 4.00002ZM5.99988 6.00002H25.9999V13.3333C25.9999 15.5436 25.5756 17.4204 24.9003 19.0096L16.5734 13.1808C16.4053 13.0631 16.2051 13 15.9999 13C15.7947 13 15.5945 13.0631 15.4264 13.1808L7.09937 19.0096C6.42419 17.4204 5.99988 15.5436 5.99988 13.3333V6.00002Z" fill="#74F73C"/>
</svg>
