<svg width="124" height="34" viewBox="0 0 124 34" fill="none" xmlns="http://www.w3.org/2000/svg">
<path fill-rule="evenodd" clip-rule="evenodd" d="M0.888627 30.3037C2.07478 32.3601 4.20019 33.5877 6.57408 33.5877H6.57412C9.2662 33.5877 11.7759 32.14 13.1238 29.8097L16.2773 24.3575H0.575186C-0.284866 26.2737 -0.180443 28.4503 0.888627 30.3037" fill="#636C70"/>
<path fill-rule="evenodd" clip-rule="evenodd" d="M27.2328 29.8046C28.5801 32.1381 31.0909 33.5877 33.7854 33.5877H33.7869C36.161 33.5877 38.2871 32.3602 39.4741 30.3042C40.5439 28.4513 40.6495 26.2743 39.7912 24.3575H24.0879L27.2328 29.8046" fill="#636C70"/>
<path fill-rule="evenodd" clip-rule="evenodd" d="M38.3995 21.8762L32.7606 12.1123H7.60664L1.96777 21.8762H38.3995" fill="#636C70"/>
<path fill-rule="evenodd" clip-rule="evenodd" d="M20.4893 0.00372314H19.89C16.629 0.00372314 13.5902 1.75792 11.9592 4.58171L9.04053 9.63103H31.3299L28.4195 4.58071C26.7891 1.75792 23.7503 0.00372314 20.4893 0.00372314" fill="#636C70"/>
<path fill-rule="evenodd" clip-rule="evenodd" d="M50.6152 20.5593C50.6152 18.608 51.4789 17.1684 53.1104 16.5287C53.8461 16.2407 55.1257 16.0808 56.9491 16.0808H57.9087C58.7085 16.0808 59.4122 16.1128 60.052 16.1768V14.3534C60.052 12.0182 58.8684 11.2185 56.1813 11.2185C55.0617 11.2185 53.9741 11.3784 52.8865 11.6983C52.4066 11.8263 52.1507 11.8263 52.0548 11.4424L51.8948 10.7706C51.7668 10.3867 51.8628 10.1628 52.2467 10.0669C53.6222 9.65099 54.9977 9.42707 56.3413 9.42707C60.4359 9.42707 62.1313 10.8026 62.1313 14.1295V25.0698C62.1313 25.3257 62.0673 25.3897 61.7794 25.3897H60.7238C60.4359 25.3897 60.3079 25.2937 60.3079 25.0698L60.244 23.9821H60.18C59.4762 25.1018 58.3566 25.6776 56.7891 25.6776H55.1897C53.7822 25.6776 52.5026 25.2617 51.7668 24.5259C50.9991 23.7582 50.6152 22.7666 50.6152 21.519V20.5593ZM52.7265 21.263C52.7265 22.2547 52.9505 22.9265 53.3983 23.3424C53.8142 23.7262 54.4539 23.9181 55.3496 23.9181H56.6612C58.8045 23.9181 60.052 22.7666 60.052 20.5913V17.9362C59.5402 17.8722 58.9004 17.8402 58.1326 17.8402H56.3413C54.9977 17.8402 54.0701 18.0641 53.5262 18.48C52.9824 18.8959 52.7265 19.5996 52.7265 20.5913V21.263V21.263Z" fill="#636C70"/>
<path fill-rule="evenodd" clip-rule="evenodd" d="M66.4814 4.08489C66.4814 3.86097 66.6094 3.73298 66.8653 3.73298H68.1769C68.4328 3.73298 68.5607 3.86097 68.5607 4.08489V21.1991C68.5607 22.3507 68.5927 22.7346 68.8486 23.2144C69.0086 23.4383 69.3925 23.5663 70.0002 23.5663H70.8639C71.0559 23.5663 71.2478 23.5982 71.2478 23.9181V25.0058C71.2478 25.2617 71.1518 25.3897 70.9279 25.3897H69.7123C68.5607 25.3897 67.729 25.1337 67.2492 24.6539C66.7373 24.1101 66.4814 23.1184 66.4814 21.7109V4.08489" fill="#636C70"/>
<path fill-rule="evenodd" clip-rule="evenodd" d="M74.3823 5.49241C74.3823 4.46876 74.9581 3.98889 75.8539 3.98889H75.9818C76.9095 3.98889 77.3893 4.50072 77.3893 5.49241V5.68433C77.3893 6.70798 76.8455 7.21981 75.9818 7.21981H75.8539C74.7982 7.21981 74.3823 6.73998 74.3823 5.68433V5.49241ZM74.8622 10.0669C74.8622 9.8429 74.9901 9.71498 75.2461 9.71498H76.5576C76.8135 9.71498 76.9415 9.8429 76.9415 10.0669V25.1337C76.9415 25.2937 76.8455 25.3897 76.6536 25.3897H75.1181C74.9581 25.3897 74.8622 25.2937 74.8622 25.1337V10.0669V10.0669Z" fill="#636C70"/>
<path fill-rule="evenodd" clip-rule="evenodd" d="M81.0039 16.9765C81.0039 11.3144 82.8913 9.42707 87.1458 9.42707C89.1931 9.42707 90.6326 10.0669 91.4963 11.3464H91.5603L91.7202 10.0988C91.7522 9.8429 91.9122 9.71498 92.2001 9.71498H92.9678C93.3197 9.71498 93.4157 9.77894 93.4157 10.1308V30.6998C93.4157 30.9238 93.3197 31.0517 93.0958 31.0517H91.6563C91.4324 31.0517 91.3364 30.9238 91.3364 30.6998V23.9821H91.2724C90.3767 25.1018 88.9692 25.6776 87.0498 25.6776C82.6993 25.6776 81.0039 23.5982 81.0039 18.48V16.9765ZM83.1152 18.32C83.1152 20.4953 83.467 21.9988 84.1708 22.7985C84.8426 23.5663 85.7383 23.8862 87.3058 23.8862C89.8648 23.8862 91.3364 22.5746 91.3364 20.0475V15.3131C91.3364 12.7219 89.8648 11.2185 87.1778 11.2185C85.7703 11.2185 84.9386 11.5064 84.2988 12.1781C83.499 13.0419 83.1152 14.7373 83.1152 17.2644V18.32V18.32Z" fill="#636C70"/>
<path fill-rule="evenodd" clip-rule="evenodd" d="M97.5737 10.2268C97.5737 9.9389 97.7656 9.71498 98.0216 9.71498H99.2051C99.4931 9.71498 99.653 9.8749 99.653 10.1628V20.6233C99.653 21.9028 99.8769 22.6066 100.485 23.1184C101.029 23.6303 101.988 23.8862 103.364 23.8862C104.675 23.8862 105.667 23.5982 106.307 22.9904C106.851 22.4787 107.042 21.9028 107.042 20.6233V10.1308C107.042 9.8749 107.202 9.71498 107.426 9.71498H108.77C108.994 9.71498 109.122 9.8429 109.122 10.1308V20.8792C109.122 22.5106 108.642 23.7262 107.714 24.5259C106.787 25.3257 105.539 25.6776 103.364 25.6776C101.38 25.6776 99.9409 25.2937 99.0132 24.5259C98.0535 23.7262 97.5737 22.5106 97.5737 20.8792V10.2268" fill="#636C70"/>
<path fill-rule="evenodd" clip-rule="evenodd" d="M112.449 20.5593C112.449 18.608 113.312 17.1684 114.944 16.5287C115.68 16.2407 116.959 16.0808 118.783 16.0808H119.742C120.542 16.0808 121.246 16.1128 121.885 16.1768V14.3534C121.885 12.0182 120.702 11.2185 118.015 11.2185C116.895 11.2185 115.808 11.3784 114.72 11.6983C114.24 11.8263 113.984 11.8263 113.888 11.4424L113.728 10.7706C113.6 10.3867 113.696 10.1628 114.08 10.0669C115.456 9.65099 116.831 9.42707 118.175 9.42707C122.269 9.42707 123.965 10.8026 123.965 14.1295V25.0698C123.965 25.3257 123.901 25.3897 123.613 25.3897H122.557C122.269 25.3897 122.141 25.2937 122.141 25.0698L122.077 23.9821H122.013C121.31 25.1018 120.19 25.6776 118.623 25.6776H117.023C115.616 25.6776 114.336 25.2617 113.6 24.5259C112.833 23.7582 112.449 22.7666 112.449 21.519V20.5593ZM114.56 21.263C114.56 22.2547 114.784 22.9265 115.232 23.3424C115.648 23.7262 116.287 23.9181 117.183 23.9181H118.495C120.638 23.9181 121.885 22.7666 121.885 20.5913V17.9362C121.374 17.8722 120.734 17.8402 119.966 17.8402H118.175C116.831 17.8402 115.904 18.0641 115.36 18.48C114.816 18.8959 114.56 19.5996 114.56 20.5913V21.263V21.263Z" fill="#636C70"/>
</svg>
