<svg width="960" height="642" viewBox="0 0 960 642" fill="none" xmlns="http://www.w3.org/2000/svg">
<rect width="960" height="642" fill="#DBF3FF"/>
<path d="M469.434 507.701C528.986 507.701 577.262 505.65 577.262 503.12C577.262 500.591 528.986 498.54 469.434 498.54C409.881 498.54 361.605 500.591 361.605 503.12C361.605 505.65 409.881 507.701 469.434 507.701Z" fill="#E6E7E8"/>
<path d="M496.199 277.7C496.021 277.33 495.985 276.907 496.098 276.513L542.49 165.19C542.607 164.906 542.841 164.973 543.025 165.357C581.358 247.541 691.026 158.586 729.36 240.77C729.53 241.148 729.566 241.573 729.46 241.974L683.068 353.297C682.951 353.581 682.701 353.498 682.534 353.13C644.217 270.946 534.532 359.884 496.199 277.7Z" fill="white"/>
<path d="M729.142 241.289L682.751 352.611C644.4 270.427 534.749 359.382 496.416 277.198L542.807 165.875C581.141 248.042 690.809 159.188 729.142 241.289Z" fill="#231F20"/>
<path d="M548.575 204.292C542.953 198.5 538.382 191.774 535.067 184.415L542.807 165.875C546.115 173.23 550.68 179.951 556.298 185.736L548.575 204.292Z" fill="#96FF68"/>
<path d="M557.77 234.484C551.446 231.671 545.703 227.702 540.835 222.782L548.575 204.242C553.441 209.157 559.178 213.126 565.493 215.945L557.77 234.484Z" fill="#96FF68"/>
<path d="M584.986 221.428C578.269 220.487 571.711 218.637 565.493 215.928L573.233 197.388C579.447 200.089 585.999 201.934 592.709 202.871L584.986 221.428Z" fill="#96FF68"/>
<path d="M598.46 241.356C591.367 241.449 584.276 241.019 577.246 240.068L584.986 221.512C592.009 222.49 599.094 222.948 606.184 222.883L598.46 241.356Z" fill="#96FF68"/>
<path d="M628.234 222.13C620.845 222.464 613.439 222.815 606.184 222.799L613.924 204.259C621.18 204.259 628.569 203.925 635.975 203.573L628.234 222.13Z" fill="#96FF68"/>
<path d="M642.545 240.068C635.289 240.068 627.9 240.403 620.494 240.737L628.218 222.18C635.624 221.846 643.03 221.512 650.285 221.512L642.545 240.068Z" fill="#96FF68"/>
<path d="M671.5 222.849C664.478 221.857 657.392 221.393 650.302 221.461L658.025 202.905C665.149 202.833 672.269 203.297 679.324 204.292L671.5 222.849Z" fill="#96FF68"/>
<path d="M683.252 246.889C677.034 244.18 670.476 242.33 663.76 241.389L671.5 222.849C678.23 223.787 684.8 225.643 691.026 228.366L683.252 246.889Z" fill="#96FF68"/>
<path d="M707.911 240.068C703.058 235.152 697.332 231.184 691.026 228.366L698.749 209.809C705.067 212.633 710.809 216.601 715.684 221.512L707.911 240.068Z" fill="#96FF68"/>
<path d="M713.678 278.402C710.38 271.038 705.807 264.315 700.171 258.541L707.911 240.068C713.536 245.847 718.103 252.57 721.402 259.929L713.678 278.402Z" fill="#96FF68"/>
<path d="M533.111 241.389C527.486 235.606 522.914 228.885 519.603 221.528L527.344 202.972C530.643 210.331 535.209 217.053 540.835 222.832L533.111 241.389Z" fill="#96FF68"/>
<path d="M542.239 271.598C535.926 268.773 530.19 264.806 525.321 259.895L533.061 241.339C537.923 246.258 543.661 250.227 549.979 253.041L542.239 271.598Z" fill="#96FF68"/>
<path d="M569.522 258.458C562.804 257.53 556.245 255.685 550.029 252.974L557.77 234.418C563.974 237.178 570.527 239.079 577.246 240.068L569.522 258.458Z" fill="#96FF68"/>
<path d="M582.98 278.519C575.889 278.587 568.803 278.123 561.782 277.131L569.522 258.575C576.543 259.567 583.629 260.031 590.72 259.962L582.98 278.519Z" fill="#96FF68"/>
<path d="M612.771 259.243C605.381 259.578 597.975 259.912 590.72 259.912L598.46 241.355C605.716 241.355 613.105 241.021 620.511 240.687L612.771 259.243Z" fill="#96FF68"/>
<path d="M627.098 277.131C619.842 277.131 612.436 277.465 605.047 277.8L612.771 259.243C620.177 258.909 627.583 258.558 634.838 258.575L627.098 277.131Z" fill="#96FF68"/>
<path d="M656.036 259.945C649.013 258.968 641.928 258.51 634.838 258.575L642.545 240.068C649.635 240.003 656.72 240.461 663.743 241.439L656.036 259.945Z" fill="#96FF68"/>
<path d="M667.788 284.002C661.572 281.292 655.013 279.447 648.296 278.519L656.036 259.962C662.752 260.905 669.31 262.756 675.529 265.462L667.788 284.002Z" fill="#96FF68"/>
<path d="M692.447 277.081C687.581 272.166 681.844 268.198 675.529 265.379L683.252 246.822C689.571 249.636 695.308 253.605 700.17 258.524L692.447 277.081Z" fill="#96FF68"/>
<path d="M698.215 315.498C694.895 308.146 690.325 301.426 684.707 295.638L692.447 277.081C698.064 282.854 702.629 289.564 705.938 296.908L698.215 315.498Z" fill="#96FF68"/>
<path d="M517.647 278.519C512.026 272.733 507.455 266.012 504.139 258.658L511.88 240.068C515.179 247.427 519.745 254.15 525.371 259.929L517.647 278.519Z" fill="#96FF68"/>
<path d="M526.825 308.711C520.513 305.886 514.777 301.919 509.907 297.008L517.647 278.452C522.514 283.366 528.251 287.334 534.566 290.154L526.825 308.711Z" fill="#96FF68"/>
<path d="M554.058 295.638C547.345 294.724 540.788 292.901 534.566 290.221L542.289 271.665C548.506 274.373 555.065 276.218 561.782 277.148L554.058 295.638Z" fill="#96FF68"/>
<path d="M567.516 315.582C560.425 315.641 553.34 315.178 546.318 314.194L554.058 295.638C561.08 296.63 568.165 297.094 575.256 297.025L567.516 315.582Z" fill="#96FF68"/>
<path d="M597.307 296.357C589.918 296.691 582.512 297.025 575.256 297.025L582.98 278.469C590.252 278.469 597.641 278.134 605.047 277.8L597.307 296.357Z" fill="#96FF68"/>
<path d="M611.634 314.228C604.378 314.228 596.972 314.562 589.583 314.896L597.307 296.357C604.713 296.006 612.119 295.671 619.374 295.671L611.634 314.228Z" fill="#96FF68"/>
<path d="M640.572 297.059C633.55 296.075 626.465 295.612 619.374 295.671L627.098 277.131C634.188 277.066 641.273 277.524 648.296 278.502L640.572 297.059Z" fill="#96FF68"/>
<path d="M652.325 321.099C646.106 318.395 639.548 316.551 632.832 315.615L640.572 297.059C647.288 297.996 653.845 299.841 660.065 302.542L652.325 321.099Z" fill="#96FF68"/>
<path d="M676.983 314.194C672.113 309.284 666.378 305.316 660.065 302.492L667.788 283.952C674.104 286.771 679.841 290.739 684.707 295.654L676.983 314.194Z" fill="#96FF68"/>
<path d="M682.751 352.612C679.451 345.261 674.897 338.54 669.293 332.751L677.033 314.194C682.651 319.98 687.217 326.7 690.524 334.055L682.751 352.612Z" fill="#96FF68"/>
<path d="M546.368 156.296C546.368 156.986 546.226 157.669 545.95 158.302L543.008 165.34L496.115 277.466L484.78 304.582L452.816 381.015L403.115 499.877C402.887 500.563 402.521 501.195 402.038 501.732C401.556 502.27 400.967 502.702 400.31 503.002C399.653 503.302 398.94 503.463 398.218 503.475C397.495 503.487 396.778 503.349 396.112 503.071C395.445 502.793 394.842 502.38 394.342 501.859C393.842 501.337 393.455 500.718 393.206 500.04C392.956 499.362 392.849 498.64 392.891 497.918C392.934 497.197 393.125 496.492 393.452 495.848L446.681 368.56L478.829 291.659L536.287 154.257C536.777 153.174 537.619 152.289 538.676 151.748C539.734 151.206 540.944 151.039 542.108 151.274C543.273 151.508 544.323 152.131 545.088 153.041C545.853 153.95 546.286 155.092 546.318 156.279L546.368 156.296Z" fill="white"/>
<path d="M541.119 151.03C541.809 151.03 542.492 151.172 543.125 151.448C544.083 151.847 544.902 152.519 545.479 153.382C546.056 154.244 546.365 155.258 546.368 156.296C546.368 156.986 546.226 157.669 545.95 158.302L543.008 165.34L496.115 277.466L484.78 304.582L452.816 381.015L403.115 499.877C402.721 500.837 402.049 501.658 401.185 502.233C400.321 502.808 399.304 503.111 398.266 503.104C397.407 503.098 396.561 502.881 395.805 502.471C395.048 502.062 394.404 501.473 393.929 500.757C393.453 500.04 393.161 499.218 393.078 498.362C392.995 497.506 393.123 496.643 393.452 495.848L446.681 368.56L478.829 291.659L536.287 154.256C536.684 153.297 537.357 152.477 538.22 151.9C539.082 151.322 540.097 151.014 541.135 151.013L541.119 151.03ZM541.135 149.492C539.796 149.48 538.484 149.87 537.37 150.613C536.255 151.355 535.389 152.414 534.883 153.655L477.425 291.074L445.26 367.975L392.048 495.263C391.364 496.922 391.363 498.784 392.046 500.443C392.728 502.103 394.039 503.425 395.692 504.123C396.513 504.467 397.394 504.643 398.283 504.642C399.625 504.657 400.941 504.268 402.059 503.526C403.177 502.783 404.046 501.722 404.552 500.479L454.254 381.616L486.201 305.267L497.536 278.151C497.536 278.151 497.536 278.151 497.536 278.034L544.345 166.026L547.304 158.988C547.757 157.96 547.943 156.834 547.845 155.715C547.748 154.596 547.37 153.52 546.747 152.585C546.124 151.651 545.276 150.888 544.281 150.368C543.285 149.848 542.175 149.587 541.052 149.609L541.135 149.492Z" fill="#231F20"/>
<path d="M464.585 352.912L472.493 334.005C470.737 331.28 469.049 328.505 467.478 325.646C467.298 325.48 467.13 325.301 466.976 325.111C466.491 324.526 466.04 323.907 465.588 323.305L460.322 335.81C461.994 341.461 463.382 347.162 464.585 352.912Z" fill="#D1D3D4"/>
<path d="M444.508 277.7C444.686 277.33 444.721 276.907 444.608 276.513L398.216 165.19C398.099 164.906 397.865 164.973 397.681 165.357C359.348 247.541 249.68 158.586 211.347 240.77C211.176 241.148 211.141 241.573 211.246 241.974L257.638 353.297C257.755 353.581 258.006 353.498 258.173 353.13C296.49 270.946 406.174 359.884 444.508 277.7Z" fill="white"/>
<path d="M211.564 241.289C249.898 159.105 359.565 247.976 397.899 165.875L444.29 277.198C405.957 359.382 296.306 270.511 257.955 352.611L211.564 241.289Z" fill="#231F20"/>
<path d="M392.131 204.292C397.753 198.5 402.324 191.774 405.639 184.415L397.899 165.875C394.591 173.23 390.025 179.951 384.408 185.736L392.131 204.292Z" fill="#96FF68"/>
<path d="M382.936 234.485C389.26 231.671 395.003 227.702 399.871 222.782L392.131 204.292C387.265 209.208 381.529 213.176 375.213 215.995L382.936 234.485Z" fill="#96FF68"/>
<path d="M355.72 221.428C362.437 220.487 368.995 218.637 375.213 215.928L367.473 197.388C361.259 200.089 354.707 201.934 347.997 202.871L355.72 221.428Z" fill="#96FF68"/>
<path d="M342.246 241.356C349.339 241.449 356.43 241.019 363.46 240.068L355.72 221.512C348.697 222.49 341.612 222.948 334.522 222.883L342.246 241.356Z" fill="#96FF68"/>
<path d="M312.471 222.13C319.861 222.464 327.267 222.815 334.522 222.799L326.782 204.259C319.526 204.259 312.137 203.925 304.731 203.573L312.471 222.13Z" fill="#96FF68"/>
<path d="M298.161 240.068C305.417 240.068 312.806 240.403 320.212 240.737L312.488 222.18C305.082 221.846 297.676 221.512 290.421 221.512L298.161 240.068Z" fill="#96FF68"/>
<path d="M269.206 222.849C276.228 221.858 283.314 221.394 290.404 221.462L282.681 202.905C275.584 202.837 268.493 203.301 261.466 204.293L269.206 222.849Z" fill="#96FF68"/>
<path d="M257.454 246.889C263.672 244.18 270.229 242.33 276.946 241.389L269.206 222.849C262.476 223.787 255.906 225.643 249.68 228.366L257.454 246.889Z" fill="#96FF68"/>
<path d="M232.795 240.068C237.648 235.152 243.374 231.184 249.68 228.366L241.99 209.776C235.672 212.6 229.931 216.567 225.055 221.478L232.795 240.068Z" fill="#96FF68"/>
<path d="M227.028 278.402C230.326 271.038 234.899 264.315 240.536 258.541L232.795 240.068C227.17 245.847 222.604 252.57 219.304 259.929L227.028 278.402Z" fill="#96FF68"/>
<path d="M407.595 241.389C413.22 235.606 417.792 228.885 421.103 221.528L413.363 202.972C410.063 210.331 405.497 217.053 399.871 222.832L407.595 241.389Z" fill="#96FF68"/>
<path d="M398.467 271.598C404.78 268.773 410.516 264.806 415.385 259.895L407.645 241.339C402.783 246.258 397.045 250.227 390.727 253.041L398.467 271.598Z" fill="#96FF68"/>
<path d="M371.184 258.458C377.902 257.53 384.461 255.685 390.677 252.974L382.937 234.418C376.732 237.178 370.179 239.079 363.46 240.068L371.184 258.458Z" fill="#96FF68"/>
<path d="M357.726 278.519C364.817 278.587 371.903 278.123 378.924 277.131L371.184 258.458C364.162 259.45 357.077 259.914 349.986 259.845L357.726 278.519Z" fill="#96FF68"/>
<path d="M327.935 259.243C335.325 259.578 342.73 259.912 349.986 259.912L342.246 241.355C334.99 241.355 327.601 241.021 320.195 240.687L327.935 259.243Z" fill="#96FF68"/>
<path d="M313.608 277.131C320.864 277.131 328.27 277.465 335.659 277.8L327.935 259.243C320.529 258.909 313.123 258.558 305.868 258.575L313.608 277.131Z" fill="#96FF68"/>
<path d="M284.67 259.945C291.693 258.968 298.778 258.51 305.868 258.575L298.161 240.068C291.071 240.003 283.986 240.461 276.963 241.439L284.67 259.945Z" fill="#96FF68"/>
<path d="M272.918 284.002C279.134 281.292 285.693 279.447 292.41 278.519L284.67 259.962C277.954 260.905 271.396 262.756 265.177 265.462L272.918 284.002Z" fill="#96FF68"/>
<path d="M248.259 277.081C253.125 272.166 258.862 268.198 265.177 265.379L257.454 246.822C251.136 249.636 245.398 253.605 240.536 258.524L248.259 277.081Z" fill="#96FF68"/>
<path d="M242.491 315.498C245.811 308.146 250.381 301.426 255.999 295.638L248.259 277.081C242.642 282.854 238.077 289.564 234.768 296.908L242.491 315.498Z" fill="#96FF68"/>
<path d="M423.059 278.519C428.68 272.733 433.251 266.012 436.567 258.658L428.826 240.068C425.527 247.427 420.961 254.15 415.335 259.929L423.059 278.519Z" fill="#96FF68"/>
<path d="M413.881 308.711C420.193 305.886 425.929 301.919 430.799 297.009L423.059 278.519C418.192 283.433 412.455 287.401 406.141 290.221L413.881 308.711Z" fill="#96FF68"/>
<path d="M386.648 295.638C393.361 294.723 399.918 292.901 406.141 290.221L398.467 271.598C392.25 274.306 385.692 276.151 378.974 277.081L386.648 295.638Z" fill="#96FF68"/>
<path d="M373.19 315.582C380.281 315.641 387.366 315.178 394.388 314.194L386.648 295.638C379.627 296.63 372.541 297.094 365.45 297.025L373.19 315.582Z" fill="#96FF68"/>
<path d="M343.399 296.357C350.788 296.691 358.194 297.025 365.45 297.025L357.726 278.519C350.454 278.519 343.065 278.184 335.659 277.85L343.399 296.357Z" fill="#96FF68"/>
<path d="M329.072 314.228C336.328 314.228 343.734 314.562 351.123 314.896L343.399 296.357C335.993 296.006 328.587 295.671 321.332 295.671L329.072 314.228Z" fill="#96FF68"/>
<path d="M300.134 297.059C307.156 296.075 314.241 295.612 321.332 295.671L313.608 277.131C306.518 277.066 299.433 277.524 292.41 278.502L300.134 297.059Z" fill="#96FF68"/>
<path d="M288.381 321.099C294.6 318.395 301.158 316.551 307.874 315.615L300.134 297.059C293.418 297.996 286.861 299.841 280.641 302.542L288.381 321.099Z" fill="#96FF68"/>
<path d="M263.723 314.194C268.593 309.284 274.328 305.316 280.641 302.492L272.918 284.002C266.602 286.821 260.865 290.789 255.999 295.705L263.723 314.194Z" fill="#96FF68"/>
<path d="M258.039 352.612C261.314 345.267 265.839 338.547 271.413 332.751L263.673 314.194C258.055 319.98 253.489 326.7 250.182 334.055L258.039 352.612Z" fill="#96FF68"/>
<path d="M544.446 502.719C545.726 502.177 546.74 501.15 547.266 499.863C547.792 498.575 547.788 497.132 547.254 495.848L404.435 154.257C403.89 152.979 402.862 151.969 401.575 151.446C400.288 150.923 398.846 150.93 397.564 151.465C396.281 152.004 395.263 153.03 394.734 154.317C394.204 155.605 394.206 157.05 394.739 158.336L537.575 499.927C538.12 501.205 539.148 502.215 540.435 502.738C541.722 503.261 543.164 503.254 544.446 502.719Z" fill="white"/>
<path d="M399.587 151.03C400.624 151.029 401.637 151.335 402.5 151.909C403.363 152.483 404.036 153.3 404.435 154.256L547.254 495.848C547.787 497.134 547.789 498.579 547.26 499.867C546.73 501.154 545.712 502.18 544.429 502.719C543.786 502.98 543.1 503.116 542.406 503.12C541.37 503.121 540.356 502.815 539.494 502.241C538.631 501.667 537.957 500.85 537.558 499.894L394.739 158.302C394.217 157.02 394.22 155.583 394.749 154.304C395.278 153.024 396.289 152.004 397.564 151.465C398.207 151.203 398.894 151.067 399.587 151.063V151.03ZM399.587 149.542C398.692 149.538 397.805 149.715 396.979 150.06C395.321 150.754 394.005 152.077 393.318 153.738C392.973 154.559 392.796 155.439 392.796 156.329C392.796 157.219 392.973 158.1 393.318 158.921L536.154 500.512C536.659 501.752 537.525 502.812 538.64 503.554C539.755 504.297 541.067 504.687 542.406 504.675C543.301 504.679 544.188 504.502 545.014 504.157C546.672 503.463 547.989 502.14 548.675 500.479C549.02 499.658 549.198 498.778 549.198 497.888C549.198 496.998 549.02 496.117 548.675 495.296L405.84 153.671C405.334 152.431 404.468 151.371 403.353 150.629C402.238 149.887 400.926 149.497 399.587 149.509V149.542Z" fill="#231F20"/>
<path d="M444.508 278.519C444.329 278.522 444.156 278.461 444.018 278.348C443.88 278.234 443.787 278.076 443.755 277.9C443.755 277.7 442.986 273.136 452.298 269.291L456.661 263.607C456.784 263.446 456.965 263.34 457.165 263.312C457.366 263.284 457.569 263.336 457.731 263.456C457.811 263.517 457.879 263.593 457.929 263.68C457.979 263.767 458.012 263.863 458.024 263.963C458.036 264.063 458.029 264.164 458.002 264.261C457.974 264.357 457.928 264.448 457.865 264.526L453.368 270.377C453.291 270.492 453.18 270.579 453.05 270.628C444.842 273.972 445.26 277.599 445.26 277.633C445.277 277.732 445.273 277.833 445.25 277.931C445.227 278.028 445.185 278.12 445.125 278.201C445.066 278.282 444.991 278.351 444.905 278.402C444.819 278.454 444.724 278.488 444.625 278.502L444.508 278.519Z" fill="#231F20"/>
<path d="M397.681 166.126C397.512 166.119 397.349 166.061 397.213 165.959C397.055 165.834 396.952 165.651 396.927 165.451C396.902 165.251 396.957 165.049 397.08 164.889C398.75 162.745 401.114 161.25 403.767 160.659C405.117 160.489 406.485 160.784 407.645 161.495L409.818 156.48C409.899 156.295 410.05 156.149 410.238 156.074C410.425 155.998 410.635 156 410.821 156.079C410.913 156.119 410.996 156.176 411.065 156.249C411.134 156.321 411.188 156.406 411.224 156.5C411.26 156.593 411.277 156.693 411.274 156.793C411.271 156.892 411.248 156.991 411.206 157.082L408.665 162.883C408.622 162.99 408.555 163.086 408.467 163.161C408.38 163.237 408.276 163.291 408.163 163.317C408.049 163.349 407.929 163.354 407.813 163.331C407.697 163.307 407.588 163.257 407.495 163.184C407.009 162.772 406.443 162.465 405.834 162.281C405.224 162.097 404.583 162.04 403.95 162.114C401.721 162.673 399.74 163.954 398.317 165.758C398.249 165.867 398.155 165.957 398.045 166.021C397.934 166.085 397.809 166.121 397.681 166.126Z" fill="#231F20"/>
<path d="M452.766 270.628C452.586 270.616 452.416 270.541 452.286 270.416C452.155 270.292 452.073 270.125 452.053 269.946C452.033 269.766 452.077 269.586 452.177 269.435C452.277 269.285 452.426 269.175 452.599 269.123L460.189 267.452C460.375 267.435 460.56 267.486 460.711 267.596C460.862 267.706 460.968 267.867 461.009 268.049C461.05 268.231 461.023 268.422 460.934 268.586C460.844 268.749 460.698 268.875 460.523 268.94L452.933 270.611L452.766 270.628Z" fill="#231F20"/>
<path d="M415.335 163.418H407.946C407.742 163.418 407.546 163.337 407.402 163.192C407.258 163.048 407.177 162.853 407.177 162.649C407.177 162.445 407.258 162.249 407.402 162.105C407.546 161.961 407.742 161.88 407.946 161.88H415.335C415.539 161.88 415.735 161.961 415.879 162.105C416.023 162.249 416.104 162.445 416.104 162.649C416.104 162.853 416.023 163.048 415.879 163.192C415.735 163.337 415.539 163.418 415.335 163.418Z" fill="#231F20"/>
<path d="M496.115 278.251C495.945 278.249 495.78 278.19 495.647 278.084C495.514 277.978 495.42 277.831 495.379 277.666C494.922 275.938 493.808 274.456 492.276 273.535C490.743 272.614 488.912 272.327 487.171 272.735C487.063 272.747 486.954 272.737 486.851 272.705C486.747 272.674 486.651 272.621 486.569 272.551L482.055 268.772C481.901 268.64 481.805 268.452 481.786 268.249C481.767 268.047 481.828 267.845 481.955 267.686C482.099 267.547 482.29 267.469 482.49 267.469C482.69 267.469 482.882 267.547 483.025 267.686L487.321 271.247C489.397 270.896 491.529 271.332 493.301 272.47C495.072 273.608 496.356 275.365 496.901 277.399C496.942 277.596 496.905 277.801 496.8 277.972C496.694 278.143 496.527 278.267 496.332 278.318L496.115 278.251Z" fill="#231F20"/>
<path d="M482.507 273.604C482.319 273.598 482.139 273.523 482.003 273.394C481.866 273.265 481.781 273.09 481.765 272.903C481.748 272.715 481.801 272.528 481.913 272.377C482.025 272.226 482.189 272.121 482.373 272.083L486.92 271.213C487.119 271.183 487.322 271.231 487.486 271.346C487.651 271.461 487.766 271.635 487.806 271.832C487.826 271.93 487.825 272.03 487.806 272.128C487.786 272.226 487.747 272.318 487.691 272.401C487.635 272.483 487.563 272.554 487.479 272.608C487.396 272.663 487.302 272.7 487.204 272.718L482.657 273.587L482.507 273.604Z" fill="#231F20"/>
<path d="M543.008 166.109C542.893 166.108 542.78 166.082 542.676 166.033C542.572 165.984 542.48 165.913 542.406 165.825C542.306 165.675 539.698 162.615 532.844 163.401C532.698 163.456 532.538 163.456 532.392 163.401L525.003 159.339C524.851 159.229 524.744 159.067 524.703 158.884C524.662 158.701 524.689 158.509 524.78 158.345C524.87 158.181 525.018 158.055 525.194 157.992C525.371 157.928 525.564 157.932 525.739 158.001L532.927 161.947C540.483 161.144 543.476 164.789 543.61 164.956C543.734 165.114 543.791 165.315 543.77 165.515C543.748 165.715 543.648 165.898 543.493 166.026C543.345 166.106 543.174 166.135 543.008 166.109Z" fill="#231F20"/>
<path d="M525.371 165.056C525.197 165.059 525.027 165 524.893 164.89C524.758 164.78 524.667 164.625 524.635 164.454C524.613 164.358 524.61 164.258 524.627 164.16C524.643 164.062 524.679 163.969 524.732 163.885C524.784 163.801 524.853 163.728 524.934 163.671C525.015 163.614 525.107 163.573 525.204 163.551L532.593 161.88C532.792 161.835 533.001 161.872 533.174 161.982C533.346 162.092 533.468 162.265 533.512 162.465C533.557 162.664 533.52 162.873 533.41 163.046C533.3 163.218 533.127 163.34 532.927 163.384L525.538 165.056H525.371Z" fill="#231F20"/>
</svg>
