<svg width="32" height="32" viewBox="0 0 32 32" fill="none" xmlns="http://www.w3.org/2000/svg">
<path d="M15.9993 19C19.8653 19 22.9993 15.866 22.9993 12C22.9993 8.13401 19.8653 5 15.9993 5C12.1333 5 8.99927 8.13401 8.99927 12C8.99927 15.866 12.1333 19 15.9993 19Z" fill="#74F73C"/>
<path d="M15.9993 1C13.7343 0.999132 11.5243 1.69775 9.67131 3.00036C7.81836 4.30298 6.41289 6.14603 5.64699 8.27761C4.88109 10.4092 4.79214 12.7253 5.39229 14.9093C5.99244 17.0934 7.25242 19.0388 9 20.4797V30C8.99998 30.1705 9.04355 30.3381 9.12655 30.487C9.20956 30.6359 9.32925 30.7611 9.47426 30.8507C9.61927 30.9403 9.78479 30.9914 9.95508 30.999C10.1254 31.0067 10.2948 30.9707 10.4473 30.8944L15.9991 28.118L21.5529 30.8945C21.7053 30.9707 21.8747 31.0067 22.045 30.999C22.2153 30.9913 22.3808 30.9403 22.5258 30.8506C22.6708 30.761 22.7904 30.6358 22.8734 30.487C22.9564 30.3381 23 30.1705 23 30V20.4785C24.7472 19.0374 26.0068 17.0919 26.6066 14.9079C27.2065 12.724 27.1173 10.4081 26.3512 8.2767C25.5852 6.14535 24.1797 4.30252 22.3268 3.00008C20.474 1.69764 18.2641 0.99913 15.9993 1ZM15.9993 21C14.2192 21 12.4792 20.4722 10.9991 19.4832C9.51909 18.4943 8.36554 17.0887 7.68435 15.4442C7.00316 13.7996 6.82493 11.99 7.1722 10.2442C7.51947 8.49836 8.37663 6.89471 9.63531 5.63604C10.894 4.37737 12.4976 3.5202 14.2435 3.17293C15.9893 2.82567 17.7989 3.0039 19.4434 3.68508C21.088 4.36627 22.4936 5.51983 23.4825 6.99987C24.4714 8.47991 24.9993 10.22 24.9993 12C24.9966 14.3861 24.0475 16.6737 22.3603 18.361C20.673 20.0482 18.3854 20.9973 15.9993 21Z" fill="#74F73C"/>
</svg>
