<svg width="32" height="32" viewBox="0 0 32 32" fill="none" xmlns="http://www.w3.org/2000/svg">
<path d="M17.4145 15.9998L21.7071 11.7072L21.7072 11.707L26.0001 7.41419C26.2798 7.13448 26.4703 6.77812 26.5474 6.39016C26.6246 6.00221 26.585 5.60008 26.4336 5.23463C26.2823 4.86919 26.0259 4.55683 25.697 4.33707C25.3681 4.11731 24.9815 4.00001 24.5859 4H7.41427C7.01871 4.00001 6.63204 4.11731 6.30315 4.33707C5.97426 4.55683 5.71792 4.86919 5.56654 5.23463C5.41517 5.60008 5.37557 6.00221 5.45274 6.39016C5.52991 6.77812 5.72038 7.13448 6.00008 7.41419L14.5857 16.0002L6.00008 24.5858C5.72038 24.8655 5.52991 25.2219 5.45274 25.6098C5.37557 25.9978 5.41517 26.3999 5.56654 26.7654C5.71792 27.1308 5.97426 27.4432 6.30315 27.6629C6.63204 27.8827 7.01871 28 7.41427 28H24.5859C24.9815 28 25.3681 27.8827 25.697 27.6629C26.0259 27.4432 26.2822 27.1308 26.4336 26.7654C26.585 26.3999 26.6246 25.9978 26.5474 25.6098C26.4703 25.2219 26.2798 24.8655 26.0001 24.5858L17.4145 15.9998ZM24.5853 6.00061L21.5859 9H10.415L7.41513 6L24.5853 6.00061ZM7.41488 25.9994L15.0001 18.4142V21C15.0001 21.2652 15.1054 21.5196 15.293 21.7071C15.4805 21.8946 15.7349 22 16.0001 22C16.2653 22 16.5197 21.8946 16.7072 21.7071C16.8947 21.5196 17.0001 21.2652 17.0001 21V18.4147L24.585 26L7.41488 25.9994Z" fill="#74F73C"/>
</svg>
