<svg width="960" height="642" viewBox="0 0 960 642" fill="none" xmlns="http://www.w3.org/2000/svg">
<rect width="960" height="642" fill="#8FF763"/>
<path d="M478.23 218.621H517.499C518.393 218.621 519.278 218.797 520.103 219.139C520.929 219.481 521.679 219.982 522.311 220.614C522.943 221.246 523.444 221.996 523.786 222.821C524.128 223.647 524.304 224.532 524.304 225.425V467.998C524.304 469.803 523.587 471.533 522.311 472.809C521.035 474.085 519.304 474.802 517.499 474.802H478.23V218.621Z" fill="#231F20"/>
<path d="M517.499 475.638H478.23C478.009 475.634 477.799 475.544 477.643 475.389C477.488 475.233 477.398 475.023 477.394 474.802V218.621C477.398 218.401 477.488 218.191 477.643 218.035C477.799 217.879 478.009 217.789 478.23 217.785H517.499C519.524 217.79 521.465 218.596 522.897 220.028C524.329 221.46 525.135 223.4 525.139 225.425V467.998C525.135 470.023 524.329 471.964 522.897 473.396C521.465 474.827 519.524 475.634 517.499 475.638ZM479.049 473.966H517.499C519.081 473.962 520.596 473.332 521.715 472.213C522.833 471.095 523.463 469.58 523.468 467.998V225.425C523.468 223.842 522.839 222.324 521.72 221.205C520.6 220.086 519.082 219.457 517.499 219.457H479.049V473.966Z" fill="#231F20"/>
<path d="M333.204 212.636L316.386 220.494L326.35 469.653H344.455L333.204 212.636Z" fill="#231F20"/>
<path d="M344.455 470.489H326.35C326.134 470.489 325.926 470.406 325.77 470.256C325.615 470.107 325.523 469.903 325.514 469.687L315.483 220.594C315.474 220.431 315.514 220.269 315.598 220.13C315.681 219.99 315.804 219.878 315.952 219.808L332.786 211.951C332.908 211.889 333.043 211.857 333.179 211.857C333.316 211.857 333.45 211.889 333.572 211.951C333.694 212.019 333.795 212.119 333.866 212.239C333.936 212.36 333.973 212.497 333.973 212.636L345.224 469.653C345.232 469.767 345.216 469.882 345.175 469.988C345.135 470.095 345.072 470.192 344.99 470.272C344.845 470.408 344.654 470.486 344.455 470.489ZM327.152 468.817H343.586L332.435 214.007L317.239 221.095L327.152 468.817Z" fill="#231F20"/>
<path d="M489.966 468.55C489.855 472.061 488.633 475.447 486.476 478.219C484.319 480.992 481.338 483.009 477.962 483.98C433.539 496.329 386.588 496.329 342.165 483.98C338.789 483.009 335.808 480.992 333.651 478.219C331.494 475.447 330.272 472.061 330.162 468.55L322.438 218.621C322.308 214.848 323.475 211.144 325.744 208.126C328.014 205.109 331.248 202.96 334.909 202.037C359.519 196.268 384.729 193.462 410.005 193.678C435.286 193.462 460.502 196.269 485.117 202.037C488.785 202.956 492.027 205.102 494.305 208.119C496.583 211.136 497.76 214.842 497.639 218.621L489.966 468.55Z" fill="white"/>
<path d="M410.139 494.078C387.082 494.207 364.121 491.095 341.931 484.833C338.385 483.815 335.254 481.698 332.989 478.787C330.724 475.876 329.441 472.32 329.326 468.634L321.535 218.655C321.418 214.687 322.658 210.798 325.05 207.631C327.442 204.464 330.844 202.207 334.692 201.235C350.139 197.423 375.734 192.876 409.921 192.876C444.109 192.876 469.787 197.423 485.234 201.235C489.083 202.207 492.484 204.464 494.876 207.631C497.268 210.798 498.508 214.687 498.391 218.655L490.668 468.583C490.552 472.27 489.27 475.826 487.004 478.737C484.739 481.648 481.608 483.765 478.063 484.783C455.965 491.033 433.103 494.162 410.139 494.078ZM410.139 194.548C376.051 194.548 350.59 199.062 335.244 202.907C331.746 203.754 328.643 205.774 326.453 208.63C324.263 211.486 323.117 215.006 323.207 218.604L330.931 468.533C331.033 471.868 332.192 475.084 334.241 477.716C336.291 480.348 339.124 482.261 342.332 483.178C386.629 495.498 433.448 495.498 477.745 483.178C480.95 482.257 483.78 480.343 485.829 477.711C487.878 475.08 489.039 471.866 489.146 468.533L496.87 218.604C496.979 215.018 495.86 211.502 493.699 208.638C491.537 205.774 488.462 203.735 484.984 202.856C469.62 199.062 444.159 194.548 410.139 194.548Z" fill="#231F20"/>
<path d="M468.851 225.241H351.259C346.08 225.241 341.881 229.44 341.881 234.62V320.565C341.881 325.745 346.08 329.944 351.259 329.944H468.851C474.031 329.944 478.23 325.745 478.23 320.565V234.62C478.23 229.44 474.031 225.241 468.851 225.241Z" fill="#96FF68"/>
<path d="M408.049 349.303C380.67 349.197 353.32 347.522 326.132 344.287C325.911 344.259 325.71 344.143 325.573 343.966C325.437 343.789 325.376 343.565 325.405 343.343C325.434 343.121 325.55 342.92 325.727 342.784C325.904 342.647 326.128 342.587 326.35 342.616C327.436 342.766 436.385 356.742 493.677 337.233C493.877 337.19 494.086 337.222 494.263 337.323C494.441 337.424 494.576 337.587 494.642 337.781C494.708 337.975 494.7 338.186 494.621 338.374C494.542 338.563 494.396 338.716 494.212 338.804C470.489 346.912 438.074 349.303 408.049 349.303Z" fill="#231F20"/>
<path d="M377.706 448.238H351.075C349.33 448.238 347.916 449.653 347.916 451.398V461.529C347.916 463.274 349.33 464.688 351.075 464.688H377.706C379.451 464.688 380.866 463.274 380.866 461.529V451.398C380.866 449.653 379.451 448.238 377.706 448.238Z" fill="#96FF68"/>
<path d="M377.69 465.524H351.075C350.016 465.524 348.999 465.103 348.25 464.354C347.501 463.604 347.08 462.588 347.08 461.528V451.398C347.08 450.338 347.501 449.322 348.25 448.572C348.999 447.823 350.016 447.402 351.075 447.402H377.69C378.217 447.398 378.741 447.498 379.229 447.696C379.718 447.895 380.162 448.189 380.537 448.56C380.911 448.932 381.209 449.374 381.411 449.861C381.614 450.348 381.719 450.87 381.719 451.398V461.528C381.719 462.056 381.614 462.578 381.411 463.065C381.209 463.552 380.911 463.994 380.537 464.366C380.162 464.737 379.718 465.031 379.229 465.229C378.741 465.428 378.217 465.528 377.69 465.524ZM351.075 449.074C350.459 449.074 349.868 449.319 349.432 449.754C348.996 450.19 348.752 450.781 348.752 451.398V461.528C348.752 462.145 348.996 462.736 349.432 463.172C349.868 463.607 350.459 463.852 351.075 463.852H377.69C378.306 463.852 378.897 463.607 379.333 463.172C379.769 462.736 380.014 462.145 380.014 461.528V451.398C380.014 450.781 379.769 450.19 379.333 449.754C378.897 449.319 378.306 449.074 377.69 449.074H351.075Z" fill="#231F20"/>
<path d="M423.379 448.238H396.748C395.003 448.238 393.588 449.653 393.588 451.398V461.529C393.588 463.274 395.003 464.688 396.748 464.688H423.379C425.124 464.688 426.539 463.274 426.539 461.529V451.398C426.539 449.653 425.124 448.238 423.379 448.238Z" fill="#D1D3D4"/>
<path d="M423.379 465.524H396.765C395.705 465.524 394.689 465.103 393.94 464.354C393.19 463.604 392.769 462.588 392.769 461.529V451.398C392.769 450.338 393.19 449.322 393.94 448.572C394.689 447.823 395.705 447.402 396.765 447.402H423.396C424.456 447.402 425.472 447.823 426.221 448.572C426.971 449.322 427.392 450.338 427.392 451.398V461.529C427.392 462.055 427.288 462.576 427.086 463.061C426.884 463.547 426.588 463.988 426.215 464.36C425.843 464.731 425.4 465.025 424.913 465.225C424.427 465.425 423.905 465.526 423.379 465.524ZM396.765 449.074C396.458 449.072 396.154 449.13 395.87 449.246C395.587 449.362 395.328 449.533 395.111 449.749C394.893 449.965 394.721 450.221 394.603 450.504C394.485 450.787 394.424 451.091 394.424 451.398V461.529C394.424 462.145 394.669 462.736 395.105 463.172C395.541 463.607 396.132 463.852 396.748 463.852H423.379C423.996 463.852 424.587 463.607 425.022 463.172C425.458 462.736 425.703 462.145 425.703 461.529V451.398C425.703 450.781 425.458 450.19 425.022 449.754C424.587 449.319 423.996 449.074 423.379 449.074H396.765Z" fill="#231F20"/>
<path d="M469.052 448.238H442.421C440.676 448.238 439.261 449.653 439.261 451.398V461.529C439.261 463.274 440.676 464.688 442.421 464.688H469.052C470.797 464.688 472.211 463.274 472.211 461.529V451.398C472.211 449.653 470.797 448.238 469.052 448.238Z" fill="#96FF68"/>
<path d="M469.052 465.524H442.42C441.361 465.524 440.344 465.103 439.595 464.354C438.846 463.604 438.425 462.588 438.425 461.529V451.398C438.425 450.338 438.846 449.322 439.595 448.572C440.344 447.823 441.361 447.402 442.42 447.402H469.052C470.111 447.402 471.128 447.823 471.877 448.572C472.626 449.322 473.047 450.338 473.047 451.398V461.529C473.047 462.588 472.626 463.604 471.877 464.354C471.128 465.103 470.111 465.524 469.052 465.524ZM442.42 449.074C441.804 449.074 441.213 449.319 440.777 449.754C440.341 450.19 440.097 450.781 440.097 451.398V461.529C440.097 462.145 440.341 462.736 440.777 463.172C441.213 463.607 441.804 463.852 442.42 463.852H469.052C469.668 463.852 470.259 463.607 470.695 463.172C471.13 462.736 471.375 462.145 471.375 461.529V451.398C471.375 450.781 471.13 450.19 470.695 449.754C470.259 449.319 469.668 449.074 469.052 449.074H442.42Z" fill="#231F20"/>
<path d="M377.69 439.194H351.075C350.016 439.194 348.999 438.773 348.25 438.023C347.501 437.274 347.08 436.258 347.08 435.198V425.067C347.08 424.008 347.501 422.991 348.25 422.242C348.999 421.493 350.016 421.072 351.075 421.072H377.69C378.75 421.072 379.766 421.493 380.515 422.242C381.264 422.991 381.685 424.008 381.685 425.067V435.198C381.685 436.258 381.264 437.274 380.515 438.023C379.766 438.773 378.75 439.194 377.69 439.194ZM351.075 422.744C350.459 422.744 349.868 422.988 349.432 423.424C348.996 423.86 348.752 424.451 348.752 425.067V435.198C348.752 435.814 348.996 436.406 349.432 436.841C349.868 437.277 350.459 437.522 351.075 437.522H377.69C378.306 437.522 378.897 437.277 379.333 436.841C379.769 436.406 380.014 435.814 380.014 435.198V425.067C380.014 424.451 379.769 423.86 379.333 423.424C378.897 422.988 378.306 422.744 377.69 422.744H351.075Z" fill="#231F20"/>
<path d="M423.379 439.194H396.765C395.705 439.194 394.689 438.773 393.94 438.023C393.19 437.274 392.769 436.258 392.769 435.198V425.067C392.769 424.008 393.19 422.991 393.94 422.242C394.689 421.493 395.705 421.072 396.765 421.072H423.396C424.456 421.072 425.472 421.493 426.221 422.242C426.971 422.991 427.392 424.008 427.392 425.067V435.198C427.392 435.724 427.288 436.245 427.086 436.731C426.884 437.217 426.588 437.658 426.215 438.029C425.843 438.401 425.4 438.695 424.913 438.894C424.427 439.094 423.905 439.196 423.379 439.194ZM396.765 422.744C396.149 422.744 395.557 422.988 395.122 423.424C394.686 423.86 394.441 424.451 394.441 425.067V435.198C394.441 435.814 394.686 436.406 395.122 436.841C395.557 437.277 396.149 437.522 396.765 437.522H423.396C424.012 437.522 424.603 437.277 425.039 436.841C425.475 436.406 425.72 435.814 425.72 435.198V425.067C425.72 424.451 425.475 423.86 425.039 423.424C424.603 422.988 424.012 422.744 423.396 422.744H396.765Z" fill="#231F20"/>
<path d="M469.052 439.194H442.42C441.361 439.194 440.344 438.773 439.595 438.023C438.846 437.274 438.425 436.258 438.425 435.198V425.067C438.425 424.008 438.846 422.991 439.595 422.242C440.344 421.493 441.361 421.072 442.42 421.072H469.052C470.111 421.072 471.128 421.493 471.877 422.242C472.626 422.991 473.047 424.008 473.047 425.067V435.198C473.047 436.258 472.626 437.274 471.877 438.023C471.128 438.773 470.111 439.194 469.052 439.194ZM442.42 422.744C441.804 422.744 441.213 422.988 440.777 423.424C440.341 423.86 440.097 424.451 440.097 425.067V435.198C440.097 435.814 440.341 436.406 440.777 436.841C441.213 437.277 441.804 437.522 442.42 437.522H469.052C469.668 437.522 470.259 437.277 470.695 436.841C471.13 436.406 471.375 435.814 471.375 435.198V425.067C471.375 424.451 471.13 423.86 470.695 423.424C470.259 422.988 469.668 422.744 469.052 422.744H442.42Z" fill="#231F20"/>
<path d="M377.69 412.947H351.075C350.016 412.947 348.999 412.526 348.25 411.777C347.501 411.028 347.08 410.011 347.08 408.952V398.737C347.08 397.677 347.501 396.661 348.25 395.912C348.999 395.163 350.016 394.742 351.075 394.742H377.69C378.217 394.737 378.741 394.837 379.229 395.036C379.718 395.235 380.162 395.529 380.537 395.9C380.911 396.271 381.209 396.713 381.411 397.2C381.614 397.687 381.719 398.21 381.719 398.737V408.868C381.73 409.403 381.634 409.934 381.436 410.431C381.238 410.927 380.943 411.379 380.567 411.759C380.191 412.14 379.743 412.441 379.249 412.645C378.755 412.849 378.224 412.952 377.69 412.947ZM351.075 396.497C350.459 396.497 349.868 396.742 349.432 397.178C348.996 397.613 348.752 398.204 348.752 398.821V408.952C348.752 409.568 348.996 410.159 349.432 410.595C349.868 411.031 350.459 411.275 351.075 411.275H377.69C378.306 411.275 378.897 411.031 379.333 410.595C379.769 410.159 380.014 409.568 380.014 408.952V398.737C380.014 398.121 379.769 397.53 379.333 397.094C378.897 396.658 378.306 396.413 377.69 396.413L351.075 396.497Z" fill="#231F20"/>
<path d="M423.379 412.947H396.765C395.705 412.947 394.689 412.526 393.94 411.777C393.19 411.027 392.769 410.011 392.769 408.951V398.737C392.769 397.677 393.19 396.661 393.94 395.912C394.689 395.162 395.705 394.741 396.765 394.741H423.396C424.456 394.741 425.472 395.162 426.221 395.912C426.971 396.661 427.392 397.677 427.392 398.737V408.868C427.403 409.401 427.307 409.931 427.11 410.426C426.913 410.922 426.619 411.373 426.245 411.753C425.871 412.133 425.425 412.435 424.933 412.64C424.441 412.845 423.913 412.949 423.379 412.947ZM396.765 396.413C396.149 396.413 395.557 396.658 395.122 397.094C394.686 397.53 394.441 398.121 394.441 398.737V408.868C394.43 409.18 394.482 409.491 394.593 409.783C394.705 410.074 394.874 410.341 395.091 410.565C395.308 410.79 395.568 410.969 395.856 411.091C396.143 411.213 396.452 411.275 396.765 411.275H423.396C424.012 411.275 424.603 411.03 425.039 410.595C425.475 410.159 425.72 409.568 425.72 408.951V398.737C425.72 398.121 425.475 397.53 425.039 397.094C424.603 396.658 424.012 396.413 423.396 396.413H396.765Z" fill="#231F20"/>
<path d="M469.052 412.947H442.42C441.361 412.947 440.344 412.526 439.595 411.777C438.846 411.027 438.425 410.011 438.425 408.951V398.737C438.425 397.677 438.846 396.661 439.595 395.912C440.344 395.162 441.361 394.741 442.42 394.741H469.052C470.111 394.741 471.128 395.162 471.877 395.912C472.626 396.661 473.047 397.677 473.047 398.737V408.868C473.058 409.4 472.963 409.928 472.767 410.423C472.571 410.917 472.279 411.367 471.907 411.747C471.535 412.127 471.09 412.429 470.6 412.635C470.11 412.841 469.583 412.947 469.052 412.947ZM442.42 396.497C441.804 396.497 441.213 396.742 440.777 397.177C440.341 397.613 440.097 398.204 440.097 398.821V408.951C440.097 409.568 440.341 410.159 440.777 410.595C441.213 411.03 441.804 411.275 442.42 411.275H469.052C469.668 411.275 470.259 411.03 470.695 410.595C471.13 410.159 471.375 409.568 471.375 408.951V398.737C471.375 398.121 471.13 397.53 470.695 397.094C470.259 396.658 469.668 396.413 469.052 396.413L442.42 396.497Z" fill="#231F20"/>
<path d="M377.69 386.333H351.075C350.017 386.328 349.003 385.906 348.255 385.157C347.507 384.409 347.084 383.395 347.08 382.337V372.189C347.08 371.13 347.501 370.113 348.25 369.364C348.999 368.615 350.016 368.194 351.075 368.194H377.69C378.75 368.194 379.766 368.615 380.515 369.364C381.264 370.113 381.685 371.13 381.685 372.189V382.337C381.681 383.395 381.259 384.409 380.51 385.157C379.762 385.906 378.748 386.328 377.69 386.333ZM351.075 369.866C350.459 369.866 349.868 370.11 349.432 370.546C348.996 370.982 348.752 371.573 348.752 372.189V382.337C348.752 382.953 348.996 383.544 349.432 383.98C349.868 384.416 350.459 384.661 351.075 384.661H377.69C378.306 384.661 378.897 384.416 379.333 383.98C379.769 383.544 380.014 382.953 380.014 382.337V372.189C380.014 371.573 379.769 370.982 379.333 370.546C378.897 370.11 378.306 369.866 377.69 369.866H351.075Z" fill="#231F20"/>
<path d="M423.379 386.333H396.765C395.706 386.328 394.693 385.906 393.944 385.157C393.196 384.409 392.774 383.395 392.769 382.337V372.189C392.769 371.13 393.19 370.113 393.94 369.364C394.689 368.615 395.705 368.194 396.765 368.194H423.396C424.456 368.194 425.472 368.615 426.221 369.364C426.971 370.113 427.392 371.13 427.392 372.189V382.337C427.387 383.398 426.962 384.414 426.21 385.163C425.459 385.912 424.441 386.333 423.379 386.333ZM396.765 369.866C396.149 369.866 395.557 370.11 395.122 370.546C394.686 370.982 394.441 371.573 394.441 372.189V382.337C394.441 382.953 394.686 383.544 395.122 383.98C395.557 384.416 396.149 384.661 396.765 384.661H423.396C424.011 384.656 424.599 384.41 425.034 383.975C425.469 383.54 425.715 382.952 425.72 382.337V372.189C425.715 371.574 425.469 370.986 425.034 370.551C424.599 370.116 424.011 369.87 423.396 369.866H396.765Z" fill="#231F20"/>
<path d="M469.052 386.333H442.42C441.362 386.328 440.348 385.906 439.6 385.157C438.852 384.409 438.429 383.395 438.425 382.337V372.189C438.425 371.13 438.846 370.113 439.595 369.364C440.344 368.615 441.361 368.194 442.42 368.194H469.052C470.111 368.194 471.128 368.615 471.877 369.364C472.626 370.113 473.047 371.13 473.047 372.189V382.337C473.043 383.395 472.62 384.409 471.872 385.157C471.124 385.906 470.11 386.328 469.052 386.333ZM442.42 369.866C441.805 369.87 441.217 370.116 440.782 370.551C440.347 370.986 440.101 371.574 440.097 372.189V382.337C440.101 382.952 440.347 383.54 440.782 383.975C441.217 384.41 441.805 384.656 442.42 384.661H469.052C469.668 384.661 470.259 384.416 470.695 383.98C471.13 383.544 471.375 382.953 471.375 382.337V372.189C471.375 371.573 471.13 370.982 470.695 370.546C470.259 370.11 469.668 369.866 469.052 369.866H442.42Z" fill="#231F20"/>
<path d="M464.237 210.463V131.388L454.357 139.379L445.998 130.436L435.6 138.911L427.324 129.031L417.996 138.677L409.437 129.031L400.493 138.293L391.398 129.031L383.558 137.892L372.741 130.419L367.442 137.106L355.89 128.964V210.463H464.237Z" fill="white"/>
<path d="M464.237 211.299H355.89C355.668 211.299 355.455 211.211 355.299 211.054C355.142 210.897 355.054 210.685 355.054 210.463V129.031C355.051 128.878 355.092 128.728 355.172 128.598C355.252 128.467 355.368 128.362 355.505 128.296C355.632 128.214 355.78 128.17 355.931 128.17C356.083 128.17 356.231 128.214 356.358 128.296L367.274 135.986L372.072 129.884C372.202 129.713 372.393 129.599 372.604 129.565C372.816 129.531 373.032 129.579 373.209 129.7L383.39 136.771L390.729 128.413C390.803 128.325 390.896 128.254 390.999 128.205C391.103 128.156 391.216 128.13 391.331 128.128C391.446 128.126 391.56 128.146 391.667 128.189C391.773 128.233 391.869 128.297 391.95 128.379L400.426 137.106L408.784 128.463C408.95 128.302 409.172 128.212 409.403 128.212C409.518 128.211 409.632 128.236 409.736 128.286C409.84 128.335 409.932 128.407 410.005 128.496L417.962 137.474L426.672 128.463C426.754 128.379 426.854 128.313 426.963 128.27C427.073 128.226 427.19 128.207 427.308 128.212C427.423 128.218 427.536 128.247 427.64 128.299C427.744 128.351 427.835 128.424 427.909 128.513L435.65 137.758L445.413 129.817C445.567 129.674 445.77 129.594 445.981 129.594C446.192 129.594 446.395 129.674 446.55 129.817L454.44 138.176L463.735 130.67C463.858 130.572 464.006 130.512 464.162 130.495C464.317 130.477 464.475 130.504 464.616 130.572C464.757 130.64 464.877 130.746 464.96 130.879C465.044 131.011 465.089 131.165 465.089 131.322V210.396C465.099 210.513 465.084 210.63 465.045 210.74C465.006 210.851 464.944 210.952 464.864 211.037C464.784 211.122 464.686 211.189 464.578 211.234C464.47 211.28 464.354 211.301 464.237 211.299ZM356.726 209.627H463.401V133.144L454.875 140.031C454.72 140.175 454.517 140.254 454.306 140.254C454.096 140.254 453.893 140.175 453.738 140.031L445.847 131.673L436.051 139.647C435.88 139.785 435.661 139.851 435.442 139.829C435.223 139.807 435.021 139.7 434.881 139.53L427.207 130.369L418.497 139.262C418.416 139.344 418.32 139.408 418.214 139.451C418.107 139.494 417.993 139.515 417.879 139.513C417.761 139.514 417.645 139.489 417.538 139.44C417.431 139.391 417.336 139.319 417.26 139.229L409.303 130.268L400.944 138.861C400.872 138.95 400.78 139.021 400.675 139.068C400.571 139.114 400.456 139.135 400.342 139.129C400.117 139.121 399.903 139.032 399.74 138.878L391.281 130.252L384.042 138.443C383.905 138.594 383.718 138.69 383.515 138.715C383.313 138.739 383.108 138.69 382.939 138.577L372.825 131.572L368.01 137.691C367.878 137.859 367.686 137.97 367.475 138.001C367.263 138.032 367.048 137.981 366.873 137.858L356.642 130.636L356.726 209.627Z" fill="#231F20"/>
<path d="M346.177 210.463C347.849 209.995 473.934 210.463 473.934 210.463H346.177Z" fill="white"/>
<path d="M346.127 211.315C345.947 211.308 345.775 211.245 345.634 211.133C345.493 211.022 345.39 210.87 345.341 210.697C345.314 210.588 345.308 210.475 345.324 210.364C345.34 210.253 345.378 210.147 345.435 210.05C345.493 209.954 345.569 209.87 345.659 209.803C345.749 209.736 345.851 209.688 345.96 209.66C347.631 209.176 452.953 209.543 473.95 209.66C474.172 209.66 474.384 209.748 474.541 209.905C474.698 210.062 474.786 210.275 474.786 210.496C474.786 210.718 474.698 210.931 474.541 211.087C474.384 211.244 474.172 211.332 473.95 211.332C430.902 211.165 348.818 210.964 346.361 211.332L346.127 211.315Z" fill="#231F20"/>
<path d="M448.288 158.137H366.522C366.393 158.174 366.257 158.18 366.125 158.155C365.992 158.131 365.868 158.076 365.76 157.995C365.653 157.914 365.566 157.809 365.506 157.688C365.446 157.568 365.414 157.435 365.414 157.301C365.414 157.166 365.446 157.033 365.506 156.913C365.566 156.793 365.653 156.688 365.76 156.607C365.868 156.526 365.992 156.471 366.125 156.446C366.257 156.421 366.393 156.428 366.522 156.465H448.288C448.47 156.517 448.63 156.626 448.744 156.777C448.857 156.928 448.919 157.112 448.919 157.301C448.919 157.49 448.857 157.673 448.744 157.824C448.63 157.975 448.47 158.085 448.288 158.137Z" fill="#D1D3D4"/>
<path d="M427.174 176.376H366.522C366.393 176.413 366.257 176.419 366.125 176.394C365.992 176.37 365.868 176.315 365.76 176.234C365.653 176.153 365.566 176.048 365.506 175.927C365.446 175.807 365.414 175.674 365.414 175.54C365.414 175.405 365.446 175.272 365.506 175.152C365.566 175.032 365.653 174.927 365.76 174.846C365.868 174.765 365.992 174.71 366.125 174.685C366.257 174.66 366.393 174.667 366.522 174.704H427.174C427.303 174.667 427.44 174.66 427.572 174.685C427.704 174.71 427.829 174.765 427.936 174.846C428.044 174.927 428.131 175.032 428.191 175.152C428.251 175.272 428.282 175.405 428.282 175.54C428.282 175.674 428.251 175.807 428.191 175.927C428.131 176.048 428.044 176.153 427.936 176.234C427.829 176.315 427.704 176.37 427.572 176.394C427.44 176.419 427.303 176.413 427.174 176.376Z" fill="#D1D3D4"/>
<path d="M437.221 194.615H366.522C366.393 194.652 366.257 194.658 366.125 194.633C365.992 194.609 365.868 194.554 365.76 194.473C365.653 194.392 365.566 194.287 365.506 194.166C365.446 194.046 365.414 193.913 365.414 193.779C365.414 193.644 365.446 193.511 365.506 193.391C365.566 193.271 365.653 193.166 365.76 193.085C365.868 193.004 365.992 192.949 366.125 192.924C366.257 192.899 366.393 192.906 366.522 192.943H437.221C437.351 192.906 437.487 192.899 437.619 192.924C437.751 192.949 437.876 193.004 437.984 193.085C438.091 193.166 438.178 193.271 438.238 193.391C438.298 193.511 438.329 193.644 438.329 193.779C438.329 193.913 438.298 194.046 438.238 194.166C438.178 194.287 438.091 194.392 437.984 194.473C437.876 194.554 437.751 194.609 437.619 194.633C437.487 194.658 437.351 194.652 437.221 194.615Z" fill="#D1D3D4"/>
<path d="M512.317 218.32H504.66V474.785H512.317V218.32Z" fill="#D1D3D4"/>
<path d="M512.317 475.638H504.66C504.438 475.638 504.226 475.55 504.069 475.393C503.912 475.237 503.824 475.024 503.824 474.802V218.32C503.824 218.099 503.912 217.886 504.069 217.729C504.226 217.572 504.438 217.484 504.66 217.484H512.317C512.537 217.489 512.747 217.578 512.903 217.734C513.059 217.89 513.148 218.1 513.153 218.32V474.802C513.148 475.023 513.059 475.233 512.903 475.389C512.747 475.545 512.537 475.634 512.317 475.638ZM505.496 473.967H511.481V219.156H505.429L505.496 473.967Z" fill="#231F20"/>
<path d="M699.354 458.987L641.595 491.654L554.663 356.876C555.532 350.189 554.078 320.565 563.473 326.35C572.868 332.134 605.267 378.308 611.219 380.331C617.17 382.354 632.032 376.987 631.38 363.095C630.728 349.203 630.594 326.049 617.371 323.658C597.31 320.03 577.031 331.432 569.358 327.52C561.684 323.608 556.218 312.206 570.127 305.787C586.025 298.431 618.792 296.224 644.253 301.808C669.714 307.392 683.69 361.323 681.433 399.506C685.562 424.382 696.278 447.787 699.354 458.987Z" fill="white"/>
<path d="M641.561 492.49C641.421 492.491 641.283 492.456 641.16 492.389C641.037 492.322 640.933 492.224 640.859 492.105L553.927 357.327C553.815 357.167 553.768 356.97 553.793 356.776C553.977 355.438 554.044 353.081 554.145 350.356C554.546 338.403 555.265 327.47 559.511 325.196C560.209 324.863 560.986 324.729 561.756 324.809C562.526 324.889 563.259 325.179 563.874 325.647C568.889 328.69 579.605 342.164 590.037 355.187C599.265 366.723 608.795 378.592 611.453 379.545C614.111 380.498 619.912 379.545 624.325 376.202C626.386 374.723 628.035 372.744 629.117 370.45C630.2 368.157 630.679 365.625 630.511 363.095L630.377 360.337C629.792 346.879 628.923 326.55 617.187 324.427C606.387 322.471 595.454 324.979 586.543 326.985C578.803 328.657 572.701 330.128 568.94 328.222C564.008 325.698 560.581 320.699 560.698 316.051C560.698 312.875 562.37 308.378 569.742 304.951C586.226 297.311 619.711 295.505 644.403 300.905C656.289 303.513 666.788 316.703 673.993 338.069C680.452 357.836 683.245 378.617 682.235 399.389C685.111 416.341 691.079 432.824 695.442 444.794C697.465 450.361 699.204 455.159 700.173 458.72C700.222 458.898 700.209 459.088 700.136 459.258C700.063 459.428 699.935 459.568 699.772 459.656L642.012 492.322C641.883 492.424 641.725 492.482 641.561 492.49ZM555.465 356.675L641.829 490.534L698.351 458.569C697.365 455.226 695.726 450.629 693.837 445.429C689.44 433.326 683.422 416.759 680.547 399.623C680.538 399.556 680.538 399.489 680.547 399.422C682.67 363.663 669.496 308.161 644.035 302.594C619.644 297.244 586.627 299.016 570.478 306.522C565.262 308.93 562.47 312.257 562.403 316.135C562.336 320.014 565.345 324.494 569.742 326.784C572.952 328.456 579.087 327.018 586.192 325.413C595.186 323.374 606.37 320.833 617.521 322.839C630.561 325.179 631.48 346.327 632.082 360.32L632.216 363.061C632.385 365.864 631.846 368.664 630.648 371.202C629.45 373.741 627.632 375.938 625.362 377.589C620.931 380.933 614.746 382.421 610.951 381.133C608.042 380.13 600.62 371.103 588.767 356.241C578.903 343.92 567.736 329.961 563.038 327.068C562.668 326.764 562.222 326.565 561.748 326.494C561.274 326.424 560.79 326.484 560.347 326.667C556.585 328.69 556.134 342.281 555.85 350.406C555.699 352.997 555.582 355.238 555.465 356.675Z" fill="#231F20"/>
<path d="M558.154 192.585L479.7 238.65C473.204 242.465 471.029 250.824 474.844 257.321L545.533 377.711C549.348 384.208 557.707 386.383 564.204 382.568L642.657 336.503C649.154 332.688 651.328 324.329 647.513 317.832L576.825 197.442C573.01 190.945 564.651 188.771 558.154 192.585Z" fill="white"/>
<path d="M557.254 385.313C554.727 385.314 552.243 384.654 550.049 383.399C547.856 382.144 546.029 380.337 544.749 378.158L474.067 257.791C472.129 254.482 471.583 250.54 472.548 246.829C473.513 243.118 475.911 239.942 479.216 237.997L557.755 191.89C561.067 189.951 565.011 189.404 568.725 190.369C572.438 191.335 575.618 193.733 577.566 197.039L648.248 317.406C649.212 319.045 649.843 320.858 650.104 322.742C650.366 324.626 650.254 326.542 649.774 328.382C649.295 330.222 648.456 331.95 647.308 333.466C646.16 334.982 644.724 336.256 643.082 337.216L564.626 383.29C562.396 384.616 559.849 385.314 557.254 385.313ZM564.994 191.572C562.732 191.542 560.504 192.12 558.541 193.244L480.068 239.317C478.613 240.159 477.342 241.283 476.328 242.624C475.315 243.965 474.58 245.495 474.167 247.125C473.737 248.752 473.634 250.448 473.864 252.115C474.094 253.782 474.651 255.387 475.505 256.838L546.187 377.205C547.908 380.13 550.721 382.251 554.006 383.104C557.291 383.957 560.78 383.47 563.707 381.752L642.18 335.695C645.104 333.973 647.226 331.162 648.082 327.878C648.937 324.594 648.456 321.104 646.743 318.175L576.061 197.808C575.211 196.356 574.082 195.087 572.739 194.074C571.397 193.062 569.867 192.325 568.237 191.906C567.197 191.661 566.13 191.548 565.061 191.572H564.994Z" fill="#231F20"/>
<path d="M554.687 211.677L534.894 223.3C530.196 226.058 528.624 232.102 531.382 236.799L539.61 250.812C542.368 255.509 548.412 257.081 553.11 254.323L572.903 242.701C577.601 239.943 579.173 233.899 576.415 229.201L568.187 215.189C565.429 210.491 559.385 208.919 554.687 211.677Z" fill="#96FF68"/>
<path d="M613.581 290.751C611.872 287.869 608.149 286.918 605.267 288.627C602.385 290.337 601.434 294.059 603.143 296.941L619.095 323.841C620.804 326.723 624.527 327.674 627.409 325.965C630.291 324.256 631.242 320.533 629.533 317.651L613.581 290.751Z" fill="#D1D3D4"/>
<path d="M501.389 242.979L495.839 246.238C494.382 247.093 493.894 248.968 494.75 250.425L506.668 270.723C507.524 272.18 509.399 272.668 510.856 271.812L516.406 268.553C517.863 267.698 518.35 265.823 517.495 264.366L505.577 244.068C504.721 242.611 502.846 242.123 501.389 242.979Z" fill="#D1D3D4"/>
<path d="M519.592 273.963L514.042 277.222C512.585 278.077 512.097 279.952 512.953 281.409L524.871 301.707C525.727 303.164 527.601 303.652 529.058 302.796L534.609 299.537C536.066 298.682 536.553 296.807 535.698 295.35L523.779 275.052C522.924 273.595 521.049 273.108 519.592 273.963Z" fill="#D1D3D4"/>
<path d="M537.789 304.941L532.238 308.2C530.781 309.055 530.294 310.93 531.149 312.387L543.067 332.685C543.923 334.142 545.798 334.63 547.255 333.774L552.805 330.515C554.262 329.66 554.75 327.785 553.894 326.328L541.976 306.03C541.12 304.573 539.246 304.086 537.789 304.941Z" fill="#D1D3D4"/>
<path d="M555.977 335.933L550.427 339.192C548.969 340.048 548.482 341.923 549.337 343.38L561.256 363.678C562.111 365.135 563.986 365.622 565.443 364.767L570.993 361.508C572.45 360.652 572.938 358.778 572.082 357.321L560.164 337.023C559.308 335.566 557.434 335.078 555.977 335.933Z" fill="#D1D3D4"/>
<path d="M570.06 380.849C570.06 380.849 546.956 344.956 543.579 338.152C538.079 327.068 555.365 319.662 560.815 324.644C564.677 328.172 595.805 363.931 599.7 368.511" fill="white"/>
<path d="M570.06 381.685C569.92 381.683 569.783 381.647 569.661 381.58C569.538 381.513 569.434 381.417 569.358 381.301C568.422 379.846 546.187 345.307 542.827 338.52C540.486 333.806 541.807 328.974 546.338 325.564C550.868 322.154 557.856 320.816 561.383 324.026C565.412 327.704 596.925 363.931 600.369 367.977C600.44 368.061 600.494 368.159 600.528 368.264C600.561 368.37 600.574 368.481 600.565 368.591C600.555 368.701 600.524 368.808 600.474 368.907C600.423 369.005 600.353 369.092 600.269 369.164C600.184 369.235 600.086 369.289 599.981 369.322C599.876 369.356 599.765 369.369 599.654 369.359C599.544 369.35 599.437 369.319 599.339 369.268C599.24 369.217 599.153 369.148 599.082 369.063C594.752 363.948 563.975 328.673 560.263 325.263C557.722 322.939 551.57 323.725 547.357 326.935C545.582 328.045 544.287 329.78 543.73 331.799C543.173 333.817 543.393 335.971 544.348 337.835C547.692 344.522 570.545 380.097 570.779 380.448C570.84 380.54 570.882 380.643 570.903 380.751C570.924 380.859 570.922 380.97 570.899 381.078C570.875 381.186 570.83 381.288 570.767 381.378C570.703 381.468 570.622 381.544 570.528 381.601C570.386 381.682 570.221 381.711 570.06 381.685Z" fill="#231F20"/>
<path d="M724.915 476.892L694.054 416.19L608.778 453.203L625.178 517.148L724.915 476.892Z" fill="#231F20"/>
<path d="M625.178 517.984C625.051 517.98 624.926 517.952 624.81 517.9C624.705 517.846 624.612 517.77 624.537 517.678C624.463 517.586 624.408 517.479 624.375 517.365L607.975 453.42C607.926 453.227 607.945 453.023 608.031 452.842C608.116 452.662 608.262 452.518 608.443 452.434L693.703 415.421C693.899 415.34 694.119 415.336 694.318 415.41C694.516 415.485 694.679 415.632 694.773 415.822L725.651 476.474C725.7 476.581 725.726 476.698 725.726 476.817C725.726 476.935 725.7 477.052 725.651 477.159C725.611 477.266 725.548 477.363 725.467 477.444C725.387 477.525 725.29 477.587 725.183 477.628L625.495 517.934C625.393 517.968 625.286 517.985 625.178 517.984ZM609.764 453.688L625.796 516.011L723.762 476.474L693.67 417.294L609.764 453.688Z" fill="#231F20"/>
</svg>
