<svg width="32" height="32" viewBox="0 0 32 32" fill="none" xmlns="http://www.w3.org/2000/svg">
<path d="M25.9956 10H21.4956V6.5C21.4956 5.04131 20.9161 3.64236 19.8847 2.61091C18.8532 1.57946 17.4543 1 15.9956 1C14.5369 1 13.138 1.57946 12.1065 2.61091C11.0751 3.64236 10.4956 5.04131 10.4956 6.5V10H5.99561C5.46536 10.0006 4.957 10.2115 4.58206 10.5865C4.20712 10.9614 3.99621 11.4698 3.99561 12V26C3.99621 26.5302 4.20712 27.0386 4.58206 27.4135C4.957 27.7885 5.46536 27.9994 5.99561 28H25.9956C26.5259 27.9994 27.0342 27.7885 27.4091 27.4135C27.7841 27.0386 27.995 26.5302 27.9956 26V12C27.995 11.4698 27.7841 10.9614 27.4091 10.5865C27.0342 10.2115 26.5259 10.0006 25.9956 10ZM12.4956 6.5C12.4956 5.57174 12.8644 4.6815 13.5207 4.02513C14.1771 3.36875 15.0673 3 15.9956 3C16.9239 3 17.8141 3.36875 18.4705 4.02513C19.1269 4.6815 19.4956 5.57174 19.4956 6.5V10H12.4956V6.5ZM22.9956 24H8.99561C8.73039 24 8.47603 23.8946 8.2885 23.7071C8.10096 23.5196 7.99561 23.2652 7.99561 23C7.99561 22.7348 8.10096 22.4804 8.2885 22.2929C8.47603 22.1054 8.73039 22 8.99561 22H22.9956C23.2608 22 23.5152 22.1054 23.7027 22.2929C23.8902 22.4804 23.9956 22.7348 23.9956 23C23.9956 23.2652 23.8902 23.5196 23.7027 23.7071C23.5152 23.8946 23.2608 24 22.9956 24ZM22.9956 20H8.99561C8.73039 20 8.47603 19.8946 8.2885 19.7071C8.10096 19.5196 7.99561 19.2652 7.99561 19C7.99561 18.7348 8.10096 18.4804 8.2885 18.2929C8.47603 18.1054 8.73039 18 8.99561 18H22.9956C23.2608 18 23.5152 18.1054 23.7027 18.2929C23.8902 18.4804 23.9956 18.7348 23.9956 19C23.9956 19.2652 23.8902 19.5196 23.7027 19.7071C23.5152 19.8946 23.2608 20 22.9956 20ZM22.9956 16H8.99561C8.73039 16 8.47603 15.8946 8.2885 15.7071C8.10096 15.5196 7.99561 15.2652 7.99561 15C7.99561 14.7348 8.10096 14.4804 8.2885 14.2929C8.47603 14.1054 8.73039 14 8.99561 14H22.9956C23.2608 14 23.5152 14.1054 23.7027 14.2929C23.8902 14.4804 23.9956 14.7348 23.9956 15C23.9956 15.2652 23.8902 15.5196 23.7027 15.7071C23.5152 15.8946 23.2608 16 22.9956 16Z" fill="#74F73C"/>
</svg>
