<svg width="32" height="32" viewBox="0 0 32 32" fill="none" xmlns="http://www.w3.org/2000/svg">
<path d="M29.8409 9.19189C29.5548 8.95306 29.2073 8.79946 28.8381 8.74863C28.4689 8.6978 28.0928 8.75178 27.7528 8.90442L21.4298 11.7147L17.7483 5.08789C17.5751 4.77608 17.3217 4.51626 17.0143 4.33537C16.7069 4.15447 16.3567 4.05908 16 4.05908C15.6433 4.05908 15.2931 4.15447 14.9857 4.33537C14.6783 4.51626 14.4249 4.77608 14.2517 5.08789L10.5701 11.7146L4.24609 8.90393C3.90584 8.75275 3.53014 8.69955 3.16128 8.75032C2.79243 8.80109 2.44507 8.95381 2.15831 9.19129C1.87155 9.42878 1.65677 9.74159 1.53816 10.0945C1.41955 10.4475 1.40181 10.8265 1.48694 11.189L4.6676 24.7306C4.72812 24.9928 4.84145 25.2398 5.00067 25.4567C5.15988 25.6736 5.36164 25.8558 5.59363 25.9921C5.82682 26.1293 6.08522 26.2184 6.35349 26.2538C6.62176 26.2893 6.89442 26.2705 7.15527 26.1985C12.9415 24.6011 19.0523 24.6005 24.8389 26.1968C25.0996 26.2687 25.3721 26.2874 25.6403 26.252C25.9084 26.2165 26.1667 26.1276 26.3998 25.9904C26.6317 25.8542 26.8334 25.6722 26.9926 25.4554C27.1518 25.2387 27.2652 24.9918 27.3258 24.7299L30.512 11.1901C30.5986 10.8276 30.5817 10.448 30.4631 10.0947C30.3444 9.74142 30.1288 9.42858 29.8409 9.19189Z" fill="#74F73C"/>
</svg>
