<svg width="32" height="32" viewBox="0 0 32 32" fill="none" xmlns="http://www.w3.org/2000/svg">
<path d="M29.7106 19.6279L28.2106 7.62787C28.1189 6.90272 27.766 6.23587 27.218 5.75215C26.67 5.26844 25.9646 5.00103 25.2336 5H3.99927C3.46902 5.00061 2.96067 5.21151 2.58572 5.58646C2.21078 5.9614 1.99987 6.46975 1.99927 7V18C1.99987 18.5302 2.21078 19.0386 2.58572 19.4135C2.96067 19.7885 3.46902 19.9994 3.99927 20H9.38122L14.1049 29.4472C14.1879 29.6133 14.3156 29.753 14.4735 29.8507C14.6315 29.9483 14.8136 30 14.9993 30C16.3249 29.9985 17.5958 29.4712 18.5331 28.5339C19.4705 27.5965 19.9978 26.3256 19.9993 25V23H26.7336C27.159 23 27.5795 22.9095 27.9673 22.7346C28.3551 22.5597 28.7012 22.3043 28.9827 21.9854C29.2642 21.6665 29.4747 21.2914 29.6002 20.885C29.7257 20.4785 29.7633 20.05 29.7106 19.6279ZM8.99927 18H3.99927V7H8.99927V18Z" fill="#74F73C"/>
</svg>
