<svg width="477" height="440" viewBox="0 0 477 440" fill="none" xmlns="http://www.w3.org/2000/svg">
<path d="M319.802 107.54C319.802 107.54 326.74 102.742 353.404 125.144C380.069 147.546 381.139 167.808 381.139 167.808V79.204C381.139 79.204 367.263 40.7534 322.477 25.8747L319.802 107.54Z" fill="#DEE5EB"/>
<path d="M381.139 168.643C380.924 168.648 380.717 168.568 380.561 168.421C380.404 168.274 380.312 168.072 380.303 167.858C380.303 167.657 378.899 147.646 352.869 125.779C327.408 104.397 320.387 108.209 320.253 108.243C320.122 108.321 319.972 108.362 319.819 108.362C319.666 108.362 319.516 108.321 319.384 108.243C319.255 108.168 319.149 108.061 319.075 107.932C319.002 107.802 318.964 107.656 318.966 107.507L321.641 25.9081C321.642 25.778 321.674 25.65 321.734 25.5346C321.794 25.4193 321.881 25.3199 321.987 25.2447C322.093 25.1696 322.216 25.1208 322.344 25.1024C322.473 25.084 322.605 25.0966 322.727 25.1391C367.397 40.0178 381.791 78.6356 381.925 78.9699C381.939 79.0641 381.939 79.16 381.925 79.2541V167.858C381.925 168.076 381.839 168.287 381.686 168.443C381.533 168.599 381.324 168.689 381.106 168.694L381.139 168.643ZM322.059 106.32C326.121 106.32 335.316 108.928 353.939 124.576C370.991 138.903 377.678 152.277 380.303 160.251V79.438C374.925 67.2474 367.08 56.3029 357.263 47.2942C347.446 38.2856 335.869 31.408 323.262 27.0951L320.671 106.32C321.133 106.272 321.598 106.272 322.059 106.32Z" fill="#202020"/>
<path d="M107.906 137.632V58.775C138.54 48.1247 171.002 43.7414 203.364 45.8857V121.55C203.364 121.55 144.935 123.155 107.906 137.632Z" fill="#DEE5EB"/>
<path d="M107.923 138.468C107.751 138.473 107.582 138.427 107.438 138.334C107.329 138.252 107.241 138.146 107.18 138.024C107.119 137.902 107.087 137.768 107.087 137.632V58.775C107.084 58.6072 107.132 58.4424 107.225 58.3023C107.317 58.1621 107.45 58.0531 107.605 57.9893C138.387 47.3538 170.98 42.9551 203.481 45.0498C203.69 45.0667 203.886 45.1621 204.029 45.3171C204.171 45.4721 204.25 45.6751 204.25 45.8857V121.55C204.25 121.766 204.166 121.973 204.017 122.129C203.867 122.285 203.663 122.377 203.447 122.386C202.862 122.386 144.685 124.158 108.157 138.418C108.081 138.444 108.002 138.461 107.923 138.468ZM108.758 59.3434V136.412C143.147 123.339 195.439 120.981 202.578 120.714V46.6714C170.778 44.7383 138.906 49.0431 108.758 59.3434Z" fill="#202020"/>
<path d="M71.2941 181.549C71.2941 181.549 42.8741 193.352 32.1246 228.225V158.412C32.1246 158.412 31.5061 124.609 71.2941 103.144V181.549Z" fill="#DEE5EB"/>
<path d="M32.0411 228.994H31.9241C31.7247 228.962 31.543 228.861 31.4114 228.708C31.2797 228.555 31.2067 228.36 31.2052 228.158V158.412C31.2052 158.078 31.2052 123.874 70.8093 102.408C70.9374 102.338 71.0812 102.301 71.2272 102.301C71.3733 102.301 71.5171 102.338 71.6452 102.408C71.7673 102.484 71.8682 102.59 71.9383 102.716C72.0085 102.842 72.0457 102.983 72.0464 103.127V181.549C72.0456 181.714 71.9959 181.876 71.9037 182.012C71.8115 182.149 71.6808 182.256 71.5282 182.318C62.282 186.95 54.0807 193.424 47.4281 201.341C40.7756 209.259 35.8124 218.453 32.8435 228.359C32.7991 228.539 32.6962 228.699 32.5509 228.814C32.4057 228.929 32.2263 228.992 32.0411 228.994ZM70.3746 104.648C32.8435 125.545 32.8435 158.145 32.8435 158.395V223.126C39.6105 204.861 52.9945 189.807 70.3412 180.948L70.3746 104.648Z" fill="#202020"/>
<path d="M32.0411 158.412C32.0411 158.412 39.0123 188.738 65.8442 198.802V280.401C65.8442 280.401 35.2676 259.287 32.0411 228.158V158.412Z" fill="white"/>
<path d="M65.8442 281.237C65.6761 281.238 65.512 281.185 65.3761 281.086C65.0584 280.869 34.4317 259.353 31.2219 228.242V158.412C31.2245 158.205 31.3023 158.006 31.4407 157.853C31.5791 157.699 31.7688 157.601 31.9742 157.576C32.1792 157.551 32.386 157.604 32.5534 157.725C32.7208 157.846 32.8364 158.026 32.877 158.228C32.877 158.529 40.0823 188.32 66.1618 198.016C66.3202 198.077 66.4563 198.185 66.5519 198.326C66.6474 198.466 66.698 198.632 66.6968 198.802V280.401C66.6956 280.553 66.6529 280.702 66.5734 280.831C66.4938 280.961 66.3804 281.066 66.2454 281.136C66.1233 281.206 65.9846 281.241 65.8442 281.237ZM32.8435 163.845V228.158C35.6019 254.789 59.1237 274.282 64.9749 278.746V199.37C45.2815 191.697 36.1871 173.007 32.8435 163.845Z" fill="#202020"/>
<path d="M252.898 195.893C252.898 195.893 285.196 305.009 298.253 310.476C311.309 315.943 331.421 301.298 333.109 291.986C334.798 282.674 308.501 174.745 308.501 174.745L252.898 195.893Z" fill="white"/>
<path d="M304.555 312.515C302.263 312.552 299.987 312.12 297.868 311.245C292.218 308.888 282.822 288.76 269.816 251.412C260.22 223.745 252.112 196.395 252.029 196.127C251.964 195.925 251.98 195.706 252.074 195.516C252.167 195.326 252.331 195.18 252.53 195.107L308.133 173.976C308.241 173.931 308.358 173.907 308.476 173.907C308.593 173.907 308.71 173.931 308.818 173.976C308.924 174.032 309.016 174.111 309.088 174.206C309.161 174.301 309.211 174.411 309.236 174.528C310.323 178.941 335.583 282.708 333.878 292.103C332.909 297.369 326.639 304.073 318.632 308.42C314.333 310.888 309.507 312.292 304.555 312.515ZM253.918 196.395C255.272 200.959 262.761 225.784 271.471 250.861C288.189 299.225 295.662 308.487 298.587 309.707C303.703 311.863 310.758 310.86 317.913 306.982C325.386 302.936 331.437 296.55 332.29 291.836C333.594 284.664 317.043 213.397 307.899 175.865L253.918 196.395Z" fill="#202020"/>
<path d="M308.685 286.871C307.314 251.513 362.298 202.864 362.298 202.864L392.39 221.956C392.39 221.956 370.005 285.734 347.988 307.216C337.105 317.865 309.437 308.604 308.685 286.871Z" fill="white"/>
<path d="M335.834 312.532C332.215 312.497 328.636 311.776 325.285 310.409C317.127 307.166 308.233 299.292 307.765 286.921C307.18 272.042 316.124 253.268 334.246 231.1C342.687 220.847 351.849 211.21 361.663 202.263C361.808 202.154 361.984 202.095 362.164 202.095C362.345 202.095 362.521 202.154 362.666 202.263L392.758 221.337C392.92 221.437 393.043 221.589 393.107 221.769C393.171 221.948 393.171 222.144 393.109 222.324C392.875 222.959 370.423 286.536 348.506 307.985C345.035 311.092 340.489 312.723 335.834 312.532ZM309.437 286.871C309.872 298.439 318.23 305.812 325.904 308.871C334.096 312.131 342.739 311.278 347.386 306.714C367.865 286.653 388.963 228.994 391.353 222.324L362.315 203.934C356.982 208.766 308.166 254.087 309.437 286.854V286.871Z" fill="#202020"/>
<path d="M332.457 306.146C332.284 306.145 332.115 306.093 331.972 305.996C331.793 305.865 331.672 305.67 331.635 305.451C331.597 305.233 331.647 305.008 331.772 304.825C332.206 304.224 375.238 243.689 383.128 209.067C383.152 208.959 383.197 208.857 383.26 208.766C383.324 208.676 383.404 208.599 383.498 208.54C383.591 208.481 383.695 208.441 383.804 208.422C383.912 208.404 384.024 208.407 384.131 208.431C384.239 208.455 384.34 208.5 384.43 208.563C384.52 208.627 384.596 208.708 384.654 208.802C384.711 208.895 384.75 209 384.766 209.108C384.783 209.217 384.777 209.328 384.75 209.434C376.776 244.374 333.577 305.193 333.143 305.795C333.066 305.905 332.963 305.995 332.844 306.056C332.724 306.117 332.592 306.148 332.457 306.146Z" fill="#DEE5EB"/>
<path d="M263.965 218.729C288.598 218.729 308.568 198.76 308.568 174.127C308.568 149.493 288.598 129.524 263.965 129.524C239.332 129.524 219.362 149.493 219.362 174.127C219.362 198.76 239.332 218.729 263.965 218.729Z" fill="#202020"/>
<path d="M263.965 219.565C254.978 219.565 246.193 216.9 238.721 211.908C231.248 206.915 225.424 199.818 221.985 191.515C218.546 183.213 217.646 174.076 219.399 165.262C221.153 156.448 225.48 148.352 231.835 141.997C238.19 135.642 246.286 131.315 255.1 129.561C263.915 127.808 273.051 128.708 281.354 132.147C289.656 135.586 296.753 141.41 301.746 148.883C306.739 156.355 309.404 165.14 309.404 174.127C309.39 186.174 304.599 197.724 296.08 206.242C287.562 214.761 276.012 219.552 263.965 219.565ZM263.965 130.36C255.309 130.36 246.847 132.927 239.649 137.736C232.452 142.545 226.842 149.381 223.53 157.378C220.217 165.375 219.35 174.175 221.039 182.665C222.728 191.155 226.896 198.954 233.017 205.075C239.138 211.196 246.937 215.364 255.426 217.053C263.916 218.741 272.716 217.875 280.714 214.562C288.711 211.249 295.547 205.64 300.356 198.442C305.165 191.245 307.732 182.783 307.732 174.127C307.714 162.525 303.097 151.403 294.893 143.199C286.689 134.995 275.567 130.378 263.965 130.36Z" fill="#202020"/>
<path d="M200.705 141.427C200.705 141.427 137.563 159.666 125.225 191.847C112.888 224.029 152.726 387.444 152.726 387.444C152.726 387.444 221.101 423.688 289.811 385.605C289.811 385.605 309.119 247.166 298.938 212.293C288.757 177.42 265.219 143.216 250.608 138.084C235.996 132.951 200.705 141.427 200.705 141.427Z" fill="white"/>
<path d="M221.887 403.61C197.84 403.575 174.094 398.262 152.325 388.046C152.22 387.993 152.128 387.917 152.056 387.825C151.984 387.732 151.933 387.625 151.907 387.511C151.806 387.11 141.876 346.135 133.517 301.766C122.333 242.067 119.274 204.971 124.44 191.43C129.605 177.888 144.033 165.183 167.22 153.681C177.943 148.421 189.061 144.005 200.471 140.474C201.909 140.123 236.113 132.115 250.825 137.281C266.573 142.748 289.827 178.306 299.64 211.875C309.771 246.531 291.282 379.871 290.546 385.521C290.533 385.651 290.488 385.776 290.415 385.884C290.342 385.992 290.244 386.08 290.128 386.14C269.255 397.719 245.756 403.735 221.887 403.61ZM153.445 386.742C158.677 389.366 224.077 420.695 289.008 384.936C290.162 376.577 307.849 245.762 298.102 212.393C287.503 176.15 264.149 143.701 250.34 138.836C236.214 133.938 201.943 141.845 200.923 142.079C199.518 142.48 137.981 160.786 126.011 191.998C114.192 222.909 151.338 378.015 153.445 386.742Z" fill="#202020"/>
<path d="M260.053 396.02C259.835 396.016 259.628 395.929 259.472 395.777C259.317 395.624 259.226 395.418 259.217 395.201C259.217 393.412 256.041 216.924 254.202 202.948C252.162 187.902 219.412 174.996 219.095 174.862C218.891 174.777 218.729 174.616 218.642 174.413C218.554 174.211 218.549 173.982 218.627 173.776C218.665 173.674 218.724 173.581 218.799 173.503C218.874 173.424 218.964 173.361 219.064 173.318C219.163 173.274 219.27 173.251 219.379 173.249C219.488 173.247 219.596 173.267 219.697 173.308C221.084 173.843 253.717 186.682 255.874 202.731C257.746 216.74 260.789 387.845 260.889 395.117C260.891 395.227 260.872 395.336 260.832 395.439C260.792 395.541 260.732 395.634 260.656 395.713C260.58 395.793 260.489 395.856 260.388 395.9C260.288 395.944 260.18 395.968 260.07 395.97L260.053 396.02Z" fill="#DEE5EB"/>
<path d="M184.606 138.084L187.281 176.718C187.281 176.718 203.196 193.737 219.362 191.764C236.949 189.591 249.571 176.718 249.571 176.718L247.114 149.669L184.606 138.084Z" fill="#202020"/>
<path d="M216.738 192.767C201.391 192.767 187.381 177.989 186.763 177.32C186.627 177.18 186.544 176.996 186.529 176.802L183.871 138.167C183.859 138.042 183.877 137.917 183.923 137.8C183.97 137.684 184.044 137.58 184.138 137.498C184.233 137.409 184.348 137.344 184.473 137.309C184.598 137.274 184.73 137.27 184.857 137.298L247.364 148.816C247.542 148.852 247.704 148.945 247.825 149.08C247.945 149.216 248.019 149.388 248.033 149.569L250.491 176.618C250.5 176.739 250.484 176.861 250.443 176.976C250.403 177.092 250.339 177.197 250.257 177.286C249.722 177.821 237.217 190.426 219.546 192.6C218.614 192.714 217.676 192.77 216.738 192.767ZM188.184 176.384C190.073 178.306 204.768 192.75 219.346 190.945C235.027 189.005 246.863 178.223 248.785 176.384L246.428 150.354L185.609 139.137L188.184 176.384Z" fill="#202020"/>
<path d="M261.34 222.357C261.34 222.357 226.033 233.625 225.665 279.197C225.297 324.77 256.643 314.304 274.748 299.258C292.853 284.213 295.678 261.978 294.073 248.554C292.469 235.13 283.876 215.921 261.34 222.357Z" fill="white"/>
<path d="M245.76 313C242.928 313.062 240.117 312.491 237.534 311.328C228.958 307.249 224.679 296.467 224.829 279.281C225.197 233.608 260.722 221.739 261.09 221.622C269.181 219.315 276.135 220.05 281.853 223.828C291.984 230.515 294.391 244.508 294.876 248.621C296.732 264.084 292.569 285.717 275.266 300.061C267.275 306.631 255.79 313 245.76 313ZM261.591 223.16C260.822 223.41 226.869 235.063 226.484 279.231C226.334 295.714 230.296 305.979 238.186 309.757C248.819 314.772 264.199 306.948 274.146 298.707C290.864 284.798 294.976 263.784 293.171 248.738C292.703 244.809 290.412 231.502 280.867 225.149C275.684 221.672 269.181 220.986 261.591 223.16Z" fill="#202020"/>
<path d="M285.481 260.992C284.829 274.366 271.02 294.076 261.357 297.77C255.456 300.044 247.548 302.017 242.399 296.333C239.139 292.705 236.983 286.001 237.2 274.332C237.735 244.241 260.07 235.965 266.423 234.628C269.366 234.168 272.378 234.722 274.965 236.199C280.666 239.292 286.166 246.648 285.481 260.992Z" fill="white"/>
<path d="M251.343 300.93C249.558 300.985 247.783 300.653 246.138 299.958C244.493 299.263 243.018 298.22 241.814 296.901C238.019 292.688 236.197 285.082 236.398 274.316C236.999 240.345 265.102 234.059 266.289 233.809C269.422 233.33 272.625 233.919 275.383 235.48C279.83 237.854 287.086 244.291 286.35 260.992C285.665 275.135 271.438 294.778 261.691 298.556C258.416 299.973 254.909 300.777 251.343 300.93ZM268.362 235.33C267.8 235.335 267.24 235.397 266.69 235.514C265.536 235.748 238.688 241.75 238.12 274.399C237.936 284.747 239.607 291.953 243.135 295.848C248.067 301.281 255.79 299.191 261.173 297.052C270.368 293.474 284.127 274.199 284.762 260.958C285.514 245.177 278.777 239.225 274.731 237.002C272.781 235.922 270.591 235.348 268.362 235.33Z" fill="#202020"/>
<path d="M285.481 260.992C284.829 274.366 271.02 294.076 261.357 297.77C255.456 300.044 247.548 302.017 242.399 296.333C248.1 296.951 256.576 294.878 265.804 282.557C278.175 266.057 279.178 248.086 274.948 236.199C280.666 239.292 286.166 246.648 285.481 260.992Z" fill="#202020"/>
<path d="M251.343 300.93C249.558 300.985 247.783 300.653 246.138 299.958C244.493 299.263 243.018 298.22 241.814 296.901C241.697 296.777 241.62 296.619 241.595 296.449C241.57 296.28 241.598 296.107 241.674 295.954C241.751 295.8 241.873 295.674 242.023 295.593C242.174 295.511 242.346 295.478 242.516 295.497C247.849 296.065 256.074 294.193 265.185 282.123C277.791 265.305 278.108 247.551 274.213 236.534C274.158 236.377 274.151 236.207 274.192 236.047C274.234 235.886 274.323 235.741 274.447 235.631C274.573 235.519 274.73 235.449 274.897 235.428C275.064 235.407 275.234 235.437 275.383 235.514C279.83 237.888 287.086 244.324 286.35 261.025C285.665 275.168 271.438 294.811 261.691 298.59C258.414 299.995 254.907 300.788 251.343 300.93ZM244.656 297.319C249.538 300.83 256.225 298.907 261.039 297.052C270.234 293.474 283.993 274.199 284.628 260.958C285.28 247.417 280.415 241.081 276.436 238.172C279.696 249.674 278.66 266.843 266.406 283.126C258.147 294.26 250.34 297.169 244.673 297.319H244.656Z" fill="#202020"/>
<path d="M99.2961 254.555C99.2961 254.555 103.058 368.235 114.342 376.878C125.626 385.521 148.747 376.343 152.793 367.751C156.838 359.158 158.51 248.102 158.51 248.102L99.2961 254.555Z" fill="white"/>
<path d="M126.011 381.175C121.661 381.335 117.378 380.06 113.824 377.547C108.942 373.836 104.897 351.969 101.754 312.566C99.43 283.377 98.4102 254.856 98.4102 254.572C98.4087 254.362 98.4847 254.159 98.6234 254.002C98.7622 253.845 98.9541 253.744 99.1625 253.719L158.293 247.283C158.409 247.269 158.528 247.279 158.64 247.314C158.753 247.349 158.856 247.406 158.945 247.484C159.033 247.564 159.104 247.662 159.153 247.772C159.202 247.881 159.228 247.999 159.229 248.119C159.229 252.666 157.457 359.459 153.428 368.118C151.171 372.966 143.397 377.881 134.57 380.071C131.77 380.769 128.897 381.14 126.011 381.175ZM100.166 255.291C100.333 260.055 101.319 285.968 103.509 312.432C107.571 363.454 112.403 374.287 114.91 376.21C119.341 379.553 126.396 380.389 134.303 378.45C142.561 376.41 150.018 371.763 152.04 367.399C155.116 360.796 157.056 287.656 157.674 249.039L100.166 255.291Z" fill="#202020"/>
<path d="M139.686 344.931C163.96 319.169 237.183 324.301 237.183 324.301L244.706 359.174C244.706 359.174 183.536 387.929 152.759 387.31C137.613 387.026 124.791 360.729 139.686 344.931Z" fill="white"/>
<path d="M153.679 388.163H152.709C145.437 388.029 138.332 382.195 134.604 373.334C131.26 365.226 130.592 353.373 139.068 344.379C149.282 333.53 168.925 326.725 197.462 324.134C210.687 322.972 223.978 322.754 237.234 323.482C237.416 323.49 237.591 323.558 237.73 323.676C237.87 323.794 237.965 323.955 238.003 324.134L245.526 359.007C245.566 359.193 245.541 359.387 245.456 359.558C245.371 359.728 245.23 359.864 245.057 359.943C244.456 360.211 184.623 388.163 153.679 388.163ZM222.572 324.736C200.02 324.736 157.373 327.294 140.288 345.499C132.364 353.858 132.949 365.059 136.142 372.666C139.569 380.79 146.173 386.357 152.743 386.474C181.33 387.11 237.317 361.665 243.753 358.69L236.498 325.087C234.776 324.987 229.66 324.736 222.572 324.736Z" fill="#202020"/>
<path d="M144.852 375.942C144.659 375.942 144.472 375.876 144.323 375.754C144.174 375.632 144.071 375.462 144.033 375.273C143.993 375.054 144.041 374.828 144.166 374.644C144.291 374.46 144.483 374.332 144.701 374.287C145.403 374.153 215.935 360.094 238.053 345.867C238.239 345.761 238.458 345.73 238.666 345.781C238.874 345.832 239.054 345.961 239.17 346.141C239.286 346.321 239.328 346.539 239.288 346.749C239.248 346.959 239.129 347.146 238.955 347.271C216.57 361.699 147.928 375.374 145.019 375.942H144.852Z" fill="#DEE5EB"/>
<path d="M235.227 329.835C235.227 329.835 250.574 315.458 257.395 309.774C264.216 304.09 277.791 296.216 277.456 303.087C277.122 309.958 264.467 313.335 263.982 315.174C263.982 315.174 289.827 311.178 301.881 315.174C313.934 319.169 317.161 322.396 313.583 324.368C310.005 326.341 296.765 321.677 290.68 322.396C284.595 323.114 278.877 324.368 278.877 324.368C278.877 324.368 299.992 325.622 306.779 329.902C313.566 334.182 316.442 338.495 312.145 339.932C307.849 341.37 294.625 330.989 281.753 332.777C281.753 332.777 309.32 341.721 308.584 348.86C307.849 355.998 304.856 354.945 301.897 353.156C298.938 351.367 284.578 345.265 278.142 344.195C278.142 344.195 307.531 367.834 299.64 369.272C291.75 370.71 275.116 352.822 275.116 352.822C275.116 352.822 243.135 367.868 235.261 358.907C227.387 349.946 235.227 329.835 235.227 329.835Z" fill="#202020"/>
<path d="M298.654 370.108C290.83 370.108 277.423 356.466 274.831 353.741C270.385 355.781 242.249 368.118 234.542 359.375C226.434 350.147 234.074 330.37 234.391 329.534C234.438 329.417 234.513 329.314 234.609 329.233C234.759 329.083 250.056 314.756 256.81 309.172C261.307 305.427 272.541 297.887 276.687 299.96C277.239 300.259 277.684 300.722 277.96 301.285C278.236 301.849 278.328 302.485 278.225 303.103C277.958 308.119 271.889 311.362 267.877 313.485L267.141 313.869C274.564 312.933 292.452 311.178 302.081 314.371C315.455 318.784 315.639 321.509 315.723 322.412C315.806 323.315 315.522 324.201 313.917 325.087C311.711 326.291 307.046 325.438 301.647 324.435C298.067 323.576 294.394 323.166 290.713 323.215C288.707 323.449 286.734 323.75 284.996 324.034C291.85 324.736 302.549 326.274 307.163 329.183C310.223 331.122 315.322 334.85 314.92 338.06C314.82 338.913 314.285 340.049 312.346 340.701C310.407 341.353 307.197 340.066 302.867 338.244C297.985 336.204 292.151 333.747 286.149 333.412C294.14 336.338 309.972 342.891 309.353 348.943C309.002 352.287 308.15 354.243 306.662 354.978C305.174 355.714 303.151 354.978 301.396 353.858C294.984 350.604 288.299 347.919 281.418 345.834C301.847 362.668 301.881 367.567 301.68 368.453C301.571 368.905 301.321 369.31 300.967 369.611C300.612 369.911 300.171 370.091 299.707 370.124C299.357 370.153 299.004 370.148 298.654 370.108ZM275.082 351.902C275.198 351.9 275.314 351.923 275.42 351.969C275.527 352.015 275.623 352.084 275.701 352.17C280.231 357.051 293.355 369.489 299.457 368.369C300.042 368.269 300.092 368.068 300.109 368.001C300.844 365.076 287.386 352.654 277.59 344.78C277.444 344.664 277.34 344.502 277.295 344.321C277.25 344.14 277.265 343.949 277.339 343.777C277.414 343.608 277.544 343.468 277.707 343.38C277.871 343.293 278.059 343.262 278.242 343.293C284.628 344.362 299.122 350.464 302.299 352.37C303.603 353.156 305.057 353.892 305.96 353.44C306.578 353.123 307.397 352.053 307.732 348.709C308.217 343.995 291.883 336.873 281.468 333.496C281.359 333.486 281.252 333.455 281.154 333.404C281.057 333.352 280.97 333.283 280.899 333.198C280.757 333.027 280.688 332.807 280.708 332.585C280.728 332.363 280.835 332.159 281.006 332.016C281.177 331.873 281.397 331.804 281.619 331.824C289.543 330.721 297.651 334.115 303.569 336.605C307.264 338.16 310.44 339.498 311.928 339.013C312.831 338.712 313.315 338.294 313.382 337.759C313.533 336.539 311.711 333.914 306.394 330.504C299.858 326.374 279.094 325.087 278.877 325.087C278.677 325.075 278.488 324.99 278.347 324.849C278.205 324.707 278.12 324.518 278.108 324.318C278.087 324.116 278.143 323.913 278.263 323.749C278.384 323.586 278.561 323.472 278.76 323.432C278.76 323.432 284.595 322.161 290.646 321.443C294.49 321.373 298.327 321.794 302.064 322.696C306.511 323.516 311.543 324.368 313.232 323.516C313.683 323.265 314.201 322.88 314.168 322.462C314.135 322.044 313.349 319.721 301.68 315.859C290.011 311.997 264.416 315.859 264.166 315.859C264.028 315.875 263.889 315.859 263.758 315.813C263.628 315.766 263.51 315.691 263.413 315.591C263.324 315.487 263.261 315.363 263.229 315.229C263.197 315.095 263.197 314.956 263.229 314.822C263.463 313.886 264.617 313.251 267.208 311.88C270.886 309.924 276.453 306.965 276.67 302.886C276.67 301.666 276.252 301.415 276.069 301.331C273.494 300.027 264.249 305.109 257.997 310.325C251.744 315.541 237.568 328.715 236.013 330.236C235.277 332.192 228.858 350.147 235.913 358.188C238.905 361.532 246.512 361.532 257.913 358.188C263.676 356.447 269.317 354.324 274.798 351.835C274.896 351.837 274.993 351.86 275.082 351.902Z" fill="#202020"/>
<path d="M264.199 65.1445C264.199 65.1445 268.847 109.864 267.777 133.469C266.707 157.075 257.412 164.581 237.685 168.577C217.958 172.572 186.88 155.336 169.36 132.801C151.84 110.265 149.867 98.4126 155.668 65.1445H264.199Z" fill="white"/>
<path d="M231.917 169.847C212.558 169.847 185.108 154.333 168.758 133.219C151.355 110.901 148.881 98.7636 154.882 64.994C154.914 64.8006 155.015 64.6252 155.165 64.4994C155.315 64.3736 155.506 64.3059 155.702 64.3085H264.233C264.44 64.3075 264.641 64.384 264.796 64.5231C264.95 64.6622 265.048 64.8539 265.068 65.0608C265.068 65.5122 269.716 110.098 268.646 133.503C267.492 158.696 256.944 165.534 237.936 169.346C235.95 169.706 233.935 169.874 231.917 169.847ZM156.37 65.9803C150.603 98.9977 153.027 110.249 170.062 132.232C187.933 155.202 218.844 171.452 237.568 167.707C255.773 164.063 265.854 157.526 266.941 133.436C267.927 111.82 264.049 71.9318 263.447 65.9803H156.37Z" fill="#202020"/>
<path d="M155.668 65.1444C155.668 65.1444 159.396 80.5247 197.312 83.0323C235.227 85.54 264.182 75.5261 264.182 65.1444C264.182 54.7628 237.2 45.0833 209.917 44.3978C182.634 43.7124 157.223 55.4816 155.668 65.1444Z" fill="white"/>
<path d="M209.282 84.2694C205.436 84.2694 201.43 84.1357 197.262 83.8682C159.162 81.3439 155.016 65.9971 154.882 65.3451C154.857 65.235 154.857 65.1208 154.882 65.0107C156.554 54.7461 182.299 42.8598 210.051 43.562C236.063 44.2474 265.135 53.5926 265.135 65.1445C265.059 66.401 264.723 67.628 264.147 68.7476C263.572 69.8671 262.769 70.8547 261.792 71.6476C254.754 78.1174 235.913 84.2694 209.282 84.2694ZM156.554 65.0943C156.805 65.8299 158.126 69.1065 162.974 72.6005C168.073 76.2784 178.17 80.9594 197.395 82.1965C228.423 84.2527 252.647 77.8164 260.555 70.4941C261.366 69.8563 262.037 69.0579 262.526 68.149C263.015 67.24 263.312 66.24 263.397 65.2113C263.397 55.699 237.417 46.0195 209.9 45.3006C183.637 44.4647 158.343 55.7157 156.554 65.0943Z" fill="#202020"/>
<path d="M175.997 131.798C182.333 134.272 197.228 134.89 195.072 114.779C192.915 94.6678 185.041 83.5506 171.366 83.5171C157.691 83.4837 157.524 99.75 159.129 106.186C160.734 112.623 162.338 126.381 175.997 131.798Z" fill="#202020"/>
<path d="M182.734 133.854C180.33 133.846 177.947 133.41 175.696 132.567C163.074 127.551 160.416 115.749 158.828 108.644C158.661 107.825 158.477 107.072 158.309 106.387C157.139 101.706 156.955 92.7286 161.235 87.2619C162.425 85.7586 163.955 84.5593 165.698 83.763C167.442 82.9666 169.35 82.5958 171.266 82.6813C185.091 82.6813 193.584 93.7818 195.807 114.696C196.643 122.603 195.021 128.203 190.942 131.313C188.556 133.032 185.674 133.924 182.734 133.854ZM176.314 131.012C179.34 132.199 185.66 133.319 190.04 129.976C193.6 127.251 195.055 122.168 194.252 114.93C192.096 94.718 184.389 84.4533 171.366 84.4199C169.694 84.3302 168.026 84.6415 166.499 85.3278C164.972 86.0141 163.632 87.0556 162.589 88.3653C158.694 93.3806 158.911 101.856 159.964 106.053C160.148 106.738 160.316 107.507 160.499 108.343C162.004 115.03 164.545 126.465 176.348 131.079L176.314 131.012Z" fill="#202020"/>
<path d="M187.281 119.694C186.86 120.785 186.186 121.76 185.314 122.539C184.442 123.318 183.397 123.879 182.266 124.174C173.138 126.431 167.387 115.582 165.766 110.081C164.144 104.581 165.097 90.4717 173.155 91.5416C174.218 91.5614 175.263 91.8184 176.214 92.2939C179.126 93.7252 181.624 95.8775 183.47 98.5463C187.498 103.896 189.822 113.81 187.281 119.694Z" fill="white"/>
<path d="M179.808 125.311C172.168 125.311 166.785 116.735 164.896 110.265C163.776 106.387 163.659 97.2757 167.437 92.8623C168.117 92.0381 168.996 91.4013 169.99 91.0121C170.985 90.623 172.063 90.4945 173.121 90.6388C174.283 90.662 175.424 90.9417 176.465 91.458C179.514 92.9415 182.132 95.1802 184.071 97.9612C188.134 103.294 190.758 113.626 188.05 119.962C187.578 121.188 186.818 122.284 185.835 123.156C184.852 124.029 183.674 124.653 182.4 124.977C181.552 125.192 180.682 125.304 179.808 125.311ZM172.235 92.3273C171.559 92.3193 170.89 92.4658 170.278 92.7555C169.667 93.0452 169.13 93.4705 168.708 93.9991C165.649 97.5599 165.364 105.869 166.501 109.814C167.822 114.311 173.188 125.512 181.998 123.322C183.018 123.071 183.961 122.576 184.748 121.88C185.534 121.184 186.139 120.308 186.512 119.326C189.02 113.525 186.512 103.963 182.734 99.0144C180.964 96.4715 178.585 94.4137 175.813 93.0295C174.986 92.6125 174.08 92.3787 173.155 92.344H172.988L172.235 92.3273Z" fill="#202020"/>
<path d="M155.668 65.1444C155.668 65.1444 160.968 31.7092 192.447 26.6939C219.697 22.3473 254.737 35.0527 264.199 65.1444C264.199 65.1444 267.777 85.54 213.043 85.2056C158.309 84.8713 155.668 65.1444 155.668 65.1444Z" fill="#202020"/>
<path d="M214.447 86.0248H213.043C158.226 85.657 154.882 66.0974 154.882 65.2615V65.0107C154.882 64.6764 160.65 30.9736 192.363 25.9249C220.633 21.4445 255.556 34.7852 265.052 64.8937C265.184 66.5091 264.969 68.1342 264.422 69.6596C263.874 71.1851 263.005 72.5755 261.875 73.7373C257.127 79.3712 245.041 86.0248 214.447 86.0248ZM156.554 65.1445C156.905 66.6825 162.088 84.002 213.093 84.3363H214.497C244.338 84.3363 256.024 78.0338 260.588 72.634C261.547 71.6564 262.294 70.4906 262.78 69.2102C263.266 67.9298 263.482 66.5625 263.413 65.1946C256.191 42.3249 227.721 21.8959 192.597 27.4796C163.091 32.2776 156.939 62.8541 156.554 65.1445Z" fill="#202020"/>
<path d="M131.561 280.969C156.195 280.969 176.164 261 176.164 236.367C176.164 211.733 156.195 191.764 131.561 191.764C106.928 191.764 86.9586 211.733 86.9586 236.367C86.9586 261 106.928 280.969 131.561 280.969Z" fill="#202020"/>
<path d="M131.561 281.855C122.574 281.855 113.789 279.19 106.317 274.198C98.8446 269.205 93.0206 262.108 89.5815 253.805C86.1424 245.502 85.2425 236.366 86.9958 227.552C88.749 218.738 93.0767 210.641 99.4314 204.287C105.786 197.932 113.882 193.605 122.697 191.851C131.511 190.098 140.647 190.998 148.95 194.437C157.253 197.876 164.349 203.7 169.342 211.172C174.335 218.645 177 227.43 177 236.417C176.987 248.464 172.195 260.013 163.677 268.532C155.158 277.05 143.608 281.842 131.561 281.855ZM131.561 192.65C122.905 192.65 114.443 195.217 107.246 200.026C100.048 204.835 94.4386 211.671 91.126 219.668C87.8134 227.665 86.9467 236.465 88.6354 244.955C90.3242 253.445 94.4926 261.244 100.613 267.365C106.734 273.485 114.533 277.654 123.023 279.343C131.513 281.031 140.313 280.165 148.31 276.852C156.307 273.539 163.143 267.93 167.952 260.732C172.761 253.535 175.328 245.073 175.328 236.417C175.324 224.806 170.713 213.671 162.507 205.456C154.302 197.241 143.172 192.617 131.561 192.6V192.65Z" fill="#202020"/>
<path d="M237.802 121.182C240.212 121.182 242.165 118.226 242.165 114.579C242.165 110.932 240.212 107.975 237.802 107.975C235.392 107.975 233.439 110.932 233.439 114.579C233.439 118.226 235.392 121.182 237.802 121.182Z" fill="#202020"/>
<path d="M257.245 110.081C259.654 110.081 261.608 107.125 261.608 103.478C261.608 99.831 259.654 96.8745 257.245 96.8745C254.835 96.8745 252.881 99.831 252.881 103.478C252.881 107.125 254.835 110.081 257.245 110.081Z" fill="#202020"/>
<path d="M188.318 124.358C188.195 124.355 188.074 124.325 187.965 124.27C187.855 124.215 187.758 124.137 187.682 124.041L164.395 95.9718C164.324 95.8873 164.272 95.7897 164.239 95.6848C164.206 95.5798 164.195 95.4694 164.205 95.36C164.215 95.2506 164.247 95.1442 164.298 95.0469C164.349 94.9497 164.419 94.8635 164.503 94.7932C164.588 94.723 164.685 94.67 164.79 94.6375C164.895 94.6049 165.006 94.5934 165.115 94.6034C165.225 94.6135 165.331 94.6451 165.428 94.6963C165.525 94.7475 165.612 94.8173 165.682 94.9019L188.986 123.038C189.057 123.121 189.11 123.219 189.143 123.323C189.175 123.428 189.186 123.538 189.175 123.648C189.165 123.757 189.132 123.863 189.079 123.959C189.027 124.055 188.955 124.14 188.869 124.208C188.711 124.326 188.514 124.379 188.318 124.358Z" fill="#202020"/>
<path d="M392.373 221.973C386.908 222.405 381.408 222.102 376.023 221.07C365.558 219.398 360.192 213.213 359.924 201.143C359.657 189.072 356.18 173.257 359.924 169.078C363.669 164.899 379.25 154.985 379.986 159.816C380.721 164.648 370.055 171.001 369.52 174.127C368.985 177.253 373.014 179.677 372.747 186.381C372.747 186.381 378.598 156.072 392.306 152.845C406.015 149.619 407.352 156.874 403.858 159.282C400.364 161.689 394.162 162.241 392.306 165.183C390.451 168.125 389.113 179.677 389.113 179.677C389.113 179.677 403.323 157.142 412.184 162.241C421.044 167.339 421.295 173.776 416.998 172.973C412.702 172.171 407.887 170.9 405.196 174.745C402.504 178.59 398.759 184.776 398.759 184.776C398.759 184.776 414.909 175.113 419.707 177.52C424.505 179.928 428.818 187.551 422.916 187.1C417.015 186.648 411.365 186.381 408.69 189.323C406.015 192.265 405.196 198.451 403.056 204.887C400.916 211.324 400.114 221.889 392.373 221.973Z" fill="#202020"/>
<path d="M388.311 222.992C384.148 222.958 379.995 222.595 375.89 221.906C364.856 220.117 359.373 213.33 359.088 201.159C359.088 197.331 358.604 193.118 358.202 189.039C357.283 179.694 356.531 171.636 359.306 168.526C362.649 164.865 374.937 156.573 379.233 157.827C379.666 157.933 380.056 158.167 380.354 158.498C380.652 158.829 380.844 159.242 380.905 159.683C381.457 163.026 377.729 166.52 374.435 169.713C372.563 171.502 370.624 173.341 370.44 174.344C370.42 175.603 370.794 176.836 371.51 177.872C372.163 179.069 372.695 180.33 373.098 181.633C375.388 172.856 381.356 154.651 392.206 152.093C403.056 149.535 405.58 153.447 406.082 154.701C406.465 155.646 406.507 156.694 406.202 157.667C405.897 158.64 405.264 159.477 404.41 160.034C402.695 161.095 400.845 161.922 398.91 162.491C396.386 163.394 393.995 164.163 393.075 165.701C392.156 167.239 391.069 172.388 390.484 176.317C394.831 170.215 405.212 157.292 412.669 161.572C418.988 165.216 421.362 169.697 420.426 172.221C420.159 172.891 419.649 173.436 418.998 173.746C418.347 174.056 417.603 174.108 416.915 173.893L416.012 173.709C412.15 172.973 408.138 172.188 405.982 175.381C404.494 177.537 402.638 180.396 401.301 182.569C406.316 179.827 416.246 174.963 420.192 176.935C423.669 178.607 427.38 183.388 426.611 186.18C426.377 186.983 425.641 188.27 422.95 188.086C416.932 187.618 411.766 187.451 409.409 190.042C407.737 191.914 406.784 195.358 405.697 199.337C405.179 201.259 404.644 203.249 403.942 205.305C403.541 206.542 403.173 207.947 402.788 209.418C401.217 215.403 399.278 222.792 392.457 222.959C391.077 223.046 389.693 223.057 388.311 222.992ZM378.163 159.348C374.402 159.348 363.836 166.035 360.56 169.646C358.236 172.204 359.072 180.68 359.857 188.872C360.259 192.984 360.677 197.231 360.76 201.109C361.028 212.51 365.909 218.596 376.157 220.251C381.462 221.25 386.874 221.548 392.256 221.137H392.357C397.94 221.137 399.562 214.851 401.133 208.849C401.535 207.345 401.902 205.924 402.337 204.62C403.006 202.614 403.541 200.641 404.009 198.752C405.146 194.556 406.132 190.945 408.105 188.721C410.963 185.578 416.547 185.729 423 186.214C424.12 186.314 424.772 186.08 424.923 185.545C425.374 183.873 422.582 179.844 419.372 178.223C415.761 176.4 403.608 182.82 399.228 185.445C399.066 185.536 398.879 185.573 398.695 185.549C398.511 185.525 398.34 185.441 398.208 185.311C398.078 185.178 397.995 185.006 397.974 184.821C397.953 184.636 397.994 184.45 398.091 184.291C398.091 184.291 401.886 178.055 404.544 174.26C407.202 170.466 412.1 171.151 416.246 171.953L417.149 172.121C417.751 172.238 418.52 172.238 418.821 171.569C419.372 170.048 417.533 166.253 411.799 162.943C405.112 159.081 393.677 174.026 389.849 180.095C389.748 180.255 389.596 180.375 389.418 180.438C389.24 180.5 389.046 180.5 388.867 180.438C388.689 180.376 388.537 180.256 388.436 180.096C388.335 179.937 388.291 179.748 388.311 179.56C388.311 179.075 389.699 167.858 391.654 164.731C392.892 162.759 395.55 161.823 398.342 160.836C400.129 160.3 401.842 159.542 403.44 158.579C403.989 158.242 404.398 157.718 404.591 157.104C404.785 156.49 404.75 155.827 404.494 155.236C403.624 153.28 400.03 151.892 392.541 153.564C379.517 156.623 373.666 186.147 373.616 186.431C373.572 186.637 373.455 186.821 373.285 186.947C373.116 187.073 372.907 187.133 372.697 187.116C372.487 187.091 372.294 186.988 372.158 186.826C372.021 186.665 371.951 186.458 371.961 186.247C372.053 183.519 371.363 180.822 369.972 178.473C369.065 177.126 368.635 175.513 368.751 173.893C369.019 172.355 370.874 170.549 373.232 168.342C376.074 165.634 379.618 162.291 379.217 159.85C379.207 159.724 379.156 159.604 379.071 159.51C378.987 159.417 378.873 159.354 378.748 159.332C378.554 159.311 378.357 159.316 378.163 159.348Z" fill="#202020"/>
<path d="M82.6454 321.794V239.142C82.6454 239.142 128.87 269.685 197.997 262.864V343.477C197.997 343.477 152.726 357.235 82.6454 321.794Z" fill="white"/>
<path d="M173.89 346.853C153.629 346.853 121.765 342.507 82.2609 322.546C82.1245 322.473 82.0105 322.365 81.931 322.232C81.8515 322.1 81.8095 321.948 81.8095 321.794V239.142C81.8039 238.989 81.8408 238.839 81.9161 238.706C81.9914 238.574 82.1022 238.465 82.2359 238.392C82.3696 238.319 82.521 238.285 82.673 238.293C82.8251 238.302 82.9719 238.352 83.0968 238.44C83.5649 238.74 129.906 268.732 197.897 262.045C198.011 262.034 198.126 262.046 198.235 262.081C198.344 262.115 198.445 262.171 198.532 262.245C198.616 262.326 198.682 262.422 198.728 262.528C198.774 262.634 198.798 262.748 198.8 262.864V343.477C198.801 343.655 198.744 343.83 198.639 343.974C198.534 344.118 198.385 344.225 198.214 344.279C198.014 344.346 189.321 346.853 173.89 346.853ZM83.4813 321.292C147.894 353.708 191.594 344.246 197.161 342.841V263.8C135.306 269.585 91.4723 245.411 83.4813 240.63V321.292Z" fill="#202020"/>
<path d="M297.818 273.914V155.788C297.818 155.788 401.869 151.876 444.934 109.63V231.669C444.934 231.669 401.869 266.091 297.818 273.914Z" fill="#87FF53"/>
<path d="M297.818 274.75C297.609 274.747 297.408 274.67 297.25 274.533C297.166 274.453 297.1 274.357 297.054 274.251C297.008 274.144 296.983 274.03 296.982 273.914V155.787C296.982 155.571 297.066 155.364 297.215 155.208C297.365 155.052 297.569 154.96 297.785 154.952C298.821 154.952 402.003 150.555 444.315 109.028C444.431 108.913 444.58 108.836 444.741 108.806C444.902 108.777 445.068 108.796 445.218 108.861C445.382 108.92 445.523 109.03 445.622 109.174C445.721 109.318 445.773 109.489 445.769 109.664V231.702C445.77 231.828 445.742 231.952 445.687 232.065C445.632 232.178 445.551 232.277 445.452 232.354C445.017 232.705 401.033 267.027 297.918 274.784L297.818 274.75ZM298.654 156.59V273.012C396.018 265.522 439.968 234.31 444.098 231.218V111.586C402.521 150.371 308.35 156.088 298.654 156.59Z" fill="#202020"/>
<path d="M247.114 413.925V339.314C247.114 339.314 318.816 338.779 370.022 300.378V377.146C370.022 377.146 323.162 416.115 247.114 413.925Z" fill="#87FF53"/>
<path d="M253.065 414.911C251.092 414.911 249.12 414.911 247.097 414.911C246.879 414.903 246.674 414.811 246.521 414.656C246.369 414.5 246.282 414.293 246.278 414.075V339.314C246.282 339.093 246.371 338.883 246.527 338.727C246.683 338.572 246.893 338.482 247.114 338.478C247.832 338.478 319.133 337.508 369.52 299.71C369.646 299.623 369.793 299.571 369.945 299.56C370.098 299.549 370.25 299.58 370.387 299.648C370.524 299.716 370.639 299.82 370.722 299.949C370.805 300.077 370.852 300.226 370.858 300.378V377.146C370.856 377.27 370.828 377.391 370.776 377.504C370.724 377.616 370.65 377.716 370.557 377.798C370.089 378.216 325.068 414.911 253.065 414.911ZM247.949 413.239C319.183 415.011 364.973 380.122 369.186 376.845V302.117C321.424 337.09 256.058 339.983 247.949 340.2V413.239Z" fill="#202020"/>
</svg>
