<svg width="268" height="239" viewBox="0 0 268 239" fill="none" xmlns="http://www.w3.org/2000/svg">
<path d="M18.7776 168.186C18.7776 168.186 16.1691 167.993 15.7935 164.278C15.4586 161.02 4.15149 57.2765 1.35009 31.6478C1.18446 30.113 1.62094 28.5739 2.5676 27.3546C3.51426 26.1353 4.89718 25.331 6.42509 25.1112L168.064 0.751161C168.807 0.637568 169.566 0.690435 170.286 0.905937C171.006 1.12144 171.669 1.4942 172.228 1.99728C172.786 2.50037 173.226 3.12122 173.515 3.81498C173.804 4.50873 173.936 5.25807 173.9 6.00886L169.536 111.924L18.7776 168.186Z" fill="#1F2223"/>
<path d="M18.7777 168.693C18.7777 168.693 15.7327 168.419 15.3165 164.329C14.9816 161.02 3.23801 53.2673 0.883209 31.6985C0.696887 30.0362 1.1631 28.3664 2.18363 27.041C3.20416 25.7157 4.69931 24.8382 6.35406 24.5935L167.993 0.233498C168.807 0.109718 169.638 0.167856 170.427 0.403735C171.216 0.639615 171.943 1.04737 172.555 1.59768C173.167 2.14799 173.65 2.82718 173.969 3.5864C174.287 4.34562 174.434 5.166 174.397 5.98855L170.043 111.985C170.038 112.085 170.003 112.182 169.944 112.263C169.884 112.344 169.802 112.406 169.708 112.442L18.9604 168.663C18.9015 168.682 18.8398 168.693 18.7777 168.693ZM168.825 1.2282C168.595 1.20861 168.365 1.20861 168.135 1.2282L6.42511 25.6085C5.03358 25.8153 3.77661 26.5541 2.91895 27.6692C2.06129 28.7844 1.66988 30.1889 1.82716 31.5868C4.21241 53.115 15.956 160.918 16.3011 164.227C16.5853 167.089 18.3311 167.587 18.7269 167.668L169.038 111.569L173.352 6.00885C173.381 5.39475 173.285 4.78117 173.071 4.20488C172.857 3.6286 172.529 3.10146 172.106 2.65507C171.683 2.20867 171.175 1.8522 170.611 1.60702C170.047 1.36184 169.44 1.23299 168.825 1.2282Z" fill="#1F2223"/>
<path d="M22.4621 157.132L9.88623 35.4845L169.637 8.8103L163.821 105.976L22.4621 157.132Z" fill="white"/>
<path d="M22.4621 157.599C22.3724 157.601 22.2841 157.576 22.2084 157.528C22.1514 157.488 22.1032 157.437 22.0666 157.377C22.0299 157.318 22.0057 157.252 21.9952 157.183L9.4701 35.5353C9.46049 35.418 9.49455 35.3013 9.56575 35.2076C9.63694 35.114 9.74024 35.0499 9.8558 35.0278L169.566 8.35356C169.635 8.34434 169.704 8.34951 169.771 8.36873C169.837 8.38796 169.899 8.42081 169.952 8.46521C170.001 8.51435 170.04 8.57294 170.066 8.63747C170.092 8.702 170.105 8.77114 170.104 8.84076L164.288 106.007C164.283 106.097 164.252 106.184 164.197 106.256C164.143 106.328 164.069 106.383 163.984 106.413L22.6651 157.569C22.6012 157.596 22.5313 157.607 22.4621 157.599ZM10.3938 35.8601L22.858 156.483L163.385 105.641L169.14 9.35841L10.3938 35.8601Z" fill="#1F2223"/>
<path d="M28.4303 123.516C28.3504 123.517 28.2711 123.501 28.1976 123.47C28.1242 123.438 28.0582 123.392 28.004 123.333C27.9004 123.225 27.8425 123.081 27.8425 122.932C27.8425 122.782 27.9004 122.639 28.004 122.531L140.456 22.523C140.564 22.4194 140.707 22.3616 140.857 22.3616C141.006 22.3616 141.15 22.4194 141.258 22.523C141.307 22.5782 141.344 22.6425 141.368 22.7122C141.392 22.782 141.402 22.8558 141.397 22.9294C141.393 23.0031 141.373 23.075 141.341 23.1411C141.308 23.2073 141.263 23.2663 141.207 23.3147L28.8058 123.373C28.7031 123.467 28.5689 123.517 28.4303 123.516Z" fill="#DEE5EB"/>
<path d="M18.7777 168.186L18.595 172.692C18.589 172.836 18.6194 172.98 18.6832 173.109C18.7471 173.239 18.8423 173.35 18.9604 173.433L106.118 236.292C107.077 236.984 108.205 237.404 109.383 237.506C110.561 237.608 111.744 237.388 112.807 236.871L265.433 162.532C265.989 162.259 266.458 161.836 266.786 161.31C267.115 160.785 267.289 160.178 267.29 159.558V156.767L81.2814 168.135L18.7777 168.186Z" fill="#1F2223"/>
<path d="M109.955 238.038C108.473 238.036 107.029 237.571 105.824 236.708L18.6559 173.9C18.4712 173.766 18.3227 173.588 18.2235 173.383C18.1243 173.177 18.0776 172.951 18.0875 172.723L18.2702 168.216C18.2754 168.085 18.3312 167.961 18.4258 167.87C18.5204 167.779 18.6465 167.729 18.7777 167.729L81.2814 167.678L267.28 156.259C267.35 156.254 267.42 156.263 267.487 156.286C267.553 156.308 267.614 156.344 267.666 156.391C267.715 156.44 267.754 156.499 267.78 156.563C267.806 156.628 267.819 156.697 267.818 156.767V159.558C267.816 160.271 267.615 160.97 267.236 161.575C266.858 162.179 266.317 162.666 265.676 162.979L113 237.327C112.05 237.787 111.01 238.03 109.955 238.038ZM19.275 168.693L19.1126 172.753C19.1106 172.814 19.1234 172.874 19.1499 172.929C19.1765 172.984 19.2159 173.031 19.2649 173.068L106.423 235.916C107.306 236.558 108.347 236.947 109.434 237.042C110.521 237.137 111.614 236.934 112.594 236.454L265.25 162.075C265.721 161.844 266.118 161.486 266.396 161.041C266.674 160.596 266.822 160.083 266.823 159.558V157.305L81.3118 168.642L19.275 168.693Z" fill="#1F2223"/>
<path d="M19.2953 167.566L169.515 111.924L266.265 155.427C266.573 155.539 266.84 155.74 267.032 156.004C267.225 156.269 267.334 156.585 267.346 156.912C267.358 157.239 267.272 157.562 267.1 157.84C266.927 158.118 266.675 158.338 266.377 158.472L110.97 231.278C110.193 231.645 109.331 231.799 108.475 231.722C107.618 231.645 106.798 231.341 106.098 230.841L19.0822 168.926C18.9756 168.838 18.8938 168.723 18.8448 168.593C18.7959 168.463 18.7814 168.323 18.8029 168.186C18.8244 168.049 18.881 167.92 18.9673 167.811C19.0537 167.703 19.1667 167.618 19.2953 167.566Z" fill="white"/>
<path d="M108.94 232.202C107.845 232.187 106.781 231.832 105.895 231.187L18.8793 169.272C18.691 169.139 18.5426 168.958 18.4503 168.747C18.3579 168.536 18.3251 168.304 18.3555 168.076C18.3858 167.848 18.4781 167.632 18.6224 167.453C18.7666 167.274 18.9573 167.137 19.1736 167.059L169.394 111.417C169.508 111.371 169.635 111.371 169.749 111.417L266.458 154.92C266.839 155.072 267.168 155.332 267.403 155.669C267.639 156.005 267.771 156.403 267.784 156.813C267.797 157.224 267.69 157.629 267.476 157.979C267.262 158.33 266.951 158.61 266.58 158.787L111.194 231.755C110.484 232.068 109.715 232.22 108.94 232.202ZM169.515 112.432L19.4578 168.003C19.402 168.024 19.3528 168.059 19.3154 168.106C19.2779 168.152 19.2535 168.208 19.2447 168.267C19.2351 168.327 19.2435 168.389 19.2687 168.445C19.294 168.501 19.335 168.549 19.3868 168.581L106.403 230.496C107.036 230.946 107.778 231.219 108.552 231.289C109.326 231.358 110.104 231.222 110.808 230.892L266.164 158.025C266.373 157.929 266.548 157.772 266.668 157.575C266.787 157.377 266.845 157.149 266.834 156.919C266.818 156.696 266.739 156.482 266.606 156.302C266.473 156.123 266.291 155.984 266.083 155.904L169.515 112.432Z" fill="#1F2223"/>
<path d="M88.6401 202.32C87.0212 202.319 85.4389 201.839 84.0929 200.94L45.2488 175.047C44.6737 174.666 44.2154 174.133 43.9248 173.507C43.6342 172.881 43.5226 172.187 43.6025 171.501C43.6824 170.816 43.9506 170.166 44.3774 169.624C44.8042 169.081 45.3728 168.668 46.0202 168.429L170.439 122.419C170.575 122.363 170.729 122.363 170.865 122.419L215.85 142.263C216.429 142.519 216.922 142.937 217.267 143.468C217.613 143.999 217.797 144.618 217.797 145.252C217.797 145.885 217.613 146.505 217.267 147.035C216.922 147.566 216.429 147.985 215.85 148.241L91.9084 201.66C90.8742 202.097 89.7627 202.321 88.6401 202.32ZM170.622 123.556L46.4161 169.495C45.9641 169.661 45.567 169.949 45.2686 170.327C44.9703 170.705 44.7823 171.158 44.7255 171.636C44.6688 172.114 44.7455 172.599 44.9471 173.036C45.1488 173.473 45.4675 173.846 45.868 174.113L84.712 200.006C85.6965 200.663 86.8295 201.064 88.0083 201.172C89.1871 201.28 90.3742 201.092 91.4618 200.625L215.373 147.226C215.757 147.065 216.084 146.794 216.313 146.447C216.543 146.1 216.664 145.693 216.662 145.277C216.664 144.863 216.545 144.456 216.32 144.108C216.094 143.761 215.772 143.486 215.393 143.318L170.622 123.556Z" fill="#DEE5EB"/>
<path d="M167.069 198.737C166.772 198.738 166.479 198.664 166.217 198.524L143.45 186.527C143.144 186.365 142.89 186.121 142.717 185.821C142.543 185.522 142.458 185.18 142.471 184.834C142.484 184.488 142.594 184.153 142.789 183.867C142.983 183.581 143.255 183.356 143.572 183.218L187.633 164.044C188.275 163.766 188.969 163.627 189.669 163.636C190.368 163.644 191.058 163.801 191.693 164.095L213.384 174.174C213.7 174.322 213.968 174.557 214.156 174.852C214.344 175.147 214.443 175.489 214.443 175.839C214.443 176.188 214.344 176.531 214.156 176.825C213.968 177.12 213.7 177.355 213.384 177.503L167.81 198.565C167.578 198.673 167.325 198.731 167.069 198.737ZM188.11 165.08L144.059 184.253C143.939 184.311 143.838 184.402 143.767 184.515C143.696 184.628 143.658 184.759 143.658 184.893C143.658 185.026 143.696 185.157 143.767 185.27C143.838 185.383 143.939 185.474 144.059 185.532L166.815 197.529C166.913 197.579 167.021 197.605 167.13 197.605C167.24 197.605 167.347 197.579 167.445 197.529L212.967 176.468C213.09 176.411 213.194 176.32 213.267 176.206C213.34 176.092 213.379 175.959 213.379 175.823C213.379 175.688 213.34 175.555 213.267 175.441C213.194 175.327 213.09 175.236 212.967 175.179L191.155 165.12C190.665 164.902 190.134 164.789 189.597 164.789C189.06 164.789 188.529 164.902 188.039 165.12L188.11 165.08Z" fill="#DEE5EB"/>
<path d="M46.1726 62.9502L44.7415 46.9538L145.013 30.6631V113.04L52.4555 133.675V128.966L46.1726 62.9502Z" fill="#1F2223"/>
<path d="M52.4554 134.183C52.3208 134.183 52.1917 134.13 52.0965 134.034C52.0013 133.939 51.9479 133.81 51.9479 133.676V128.966L45.665 62.991L44.2339 47.025C44.222 46.8966 44.2594 46.7685 44.3386 46.6667C44.4178 46.5648 44.5327 46.497 44.6602 46.4769L144.932 30.1862C145.005 30.1777 145.078 30.1844 145.148 30.2058C145.218 30.2272 145.282 30.263 145.338 30.3107C145.393 30.3584 145.438 30.417 145.469 30.483C145.501 30.5489 145.518 30.6206 145.521 30.6937V113C145.521 113.114 145.481 113.225 145.409 113.314C145.337 113.403 145.237 113.464 145.125 113.487L52.567 134.122L52.4554 134.183ZM46.68 62.9098L52.9629 128.885V132.996L144.465 112.635V31.2621L45.2894 47.3803L46.68 62.9098Z" fill="#1F2223"/>
<path d="M47.0656 72.3898L45.127 51.2778L113.903 40.2346L97.9882 92.3853L47.0656 72.3898Z" fill="white"/>
<path d="M97.9883 92.8523C97.9346 92.862 97.8796 92.862 97.8259 92.8523L46.9033 72.8568C46.8229 72.8239 46.7529 72.7697 46.701 72.6999C46.6491 72.6302 46.6173 72.5475 46.609 72.461L44.6703 51.349C44.6559 51.232 44.6884 51.114 44.7607 51.0208C44.8329 50.9277 44.9391 50.8668 45.056 50.8516L113.822 39.8084C113.9 39.7935 113.981 39.7998 114.056 39.8266C114.131 39.8533 114.198 39.8996 114.249 39.9607C114.3 40.0196 114.335 40.0906 114.351 40.167C114.367 40.2434 114.363 40.3227 114.34 40.3971L98.4349 92.558C98.4155 92.6193 98.384 92.6761 98.3421 92.725C98.3003 92.7738 98.249 92.8137 98.1913 92.8422C98.1252 92.8608 98.0559 92.8642 97.9883 92.8523ZM47.5022 72.0651L97.6939 91.7764L113.244 40.8133L45.6244 51.6636L47.5022 72.0651Z" fill="#1F2223"/>
<path d="M58.3118 114.868C58.0276 113.152 52.6379 56.1398 52.6379 56.1398L89.0358 49.8062V42.9042L131.605 34.7842L134.944 39.3212L155.914 35.6672L157.051 88.8228L58.3118 114.868Z" fill="#DEE5EB"/>
<path d="M58.3118 115.335C58.2253 115.336 58.1404 115.311 58.0683 115.263C58.0122 115.229 57.9642 115.184 57.9274 115.129C57.8906 115.075 57.866 115.014 57.8551 114.949C57.5709 113.233 52.3944 58.5148 52.1711 56.1905C52.1591 56.0728 52.1923 55.9549 52.2639 55.8607C52.3355 55.7665 52.4402 55.703 52.5568 55.683L88.569 49.4204V42.9041C88.5697 42.7949 88.6087 42.6894 88.6792 42.6059C88.7496 42.5225 88.8471 42.4664 88.9547 42.4474L131.524 34.3274C131.609 34.3123 131.697 34.3214 131.778 34.3537C131.859 34.386 131.929 34.4401 131.981 34.5101L135.147 38.8137L155.833 35.2104C155.899 35.1986 155.966 35.2012 156.03 35.2182C156.095 35.2351 156.155 35.2659 156.206 35.3085C156.257 35.351 156.299 35.4043 156.327 35.4645C156.356 35.5247 156.371 35.5904 156.371 35.657L157.518 88.8126C157.519 88.9162 157.486 89.0174 157.424 89.1001C157.361 89.1828 157.273 89.2423 157.173 89.2693L58.4337 115.375L58.3118 115.335ZM53.115 56.5254C53.5921 61.5395 58.0581 108.676 58.6874 114.289L156.564 88.4167L155.457 36.1645L135.015 39.7272C134.931 39.7392 134.846 39.7286 134.767 39.6965C134.689 39.6644 134.62 39.6119 134.569 39.5445L131.402 35.251L89.5028 43.2898V49.8061C89.5063 49.9165 89.4689 50.0242 89.3976 50.1086C89.3264 50.1929 89.2265 50.2479 89.1171 50.2629L53.115 56.5254Z" fill="#1F2223"/>
<path d="M75.5059 87.8989L72.4609 56.1396L137.045 44.5178V78.8654L75.5059 87.8989Z" fill="white"/>
<path d="M75.506 88.3557C75.391 88.3586 75.2792 88.3169 75.1941 88.2393C75.109 88.1618 75.0571 88.0544 75.0493 87.9395L72.0043 56.1903C71.992 56.0741 72.0238 55.9575 72.0933 55.8635C72.1628 55.7695 72.2651 55.7051 72.3798 55.6828L136.964 44.0611C137.032 44.0517 137.101 44.0558 137.167 44.0732C137.234 44.0906 137.296 44.121 137.35 44.1626C137.4 44.2074 137.44 44.2621 137.468 44.3232C137.496 44.3844 137.511 44.4506 137.512 44.5178V78.8654C137.511 78.9761 137.471 79.0828 137.398 79.1665C137.326 79.2502 137.226 79.3053 137.117 79.3222L75.5771 88.3557H75.506ZM72.9685 56.5253L75.9222 87.361L136.589 78.4899V45.0761L72.9685 56.5253Z" fill="#1F2223"/>
<path d="M66.0768 113C65.7926 111.285 66.0768 60.5652 66.0768 60.5652L107.347 53.3892V46.4872L149.916 38.3164L153.255 42.8433L168.409 39.5243L164.217 88.4879L66.0768 113Z" fill="#DEE5EB"/>
<path d="M66.0767 113.497C65.987 113.499 65.8987 113.474 65.823 113.426C65.7697 113.39 65.7242 113.344 65.6893 113.29C65.6544 113.236 65.6308 113.175 65.62 113.112C65.3358 111.376 65.62 62.6762 65.62 60.6056C65.6207 60.4964 65.6597 60.3909 65.7301 60.3075C65.8006 60.224 65.8981 60.1679 66.0057 60.1489L106.89 53.0439V46.5276C106.891 46.4184 106.93 46.3129 107 46.2294C107.07 46.146 107.168 46.0898 107.276 46.0708L149.834 37.9508C149.922 37.935 150.011 37.9436 150.094 37.9759C150.176 38.0082 150.248 38.0628 150.301 38.1335L153.458 42.4169L168.318 39.1689C168.389 39.1529 168.462 39.1537 168.533 39.1712C168.603 39.1888 168.669 39.2225 168.724 39.2698C168.779 39.3172 168.823 39.3767 168.851 39.4438C168.879 39.5108 168.891 39.5835 168.886 39.656L164.694 88.6197C164.685 88.7171 164.646 88.8093 164.582 88.8837C164.519 88.9582 164.434 89.0113 164.339 89.0358L66.2188 113.538L66.0767 113.497ZM66.5132 61.0015C66.432 77.6475 66.3305 108.006 66.5132 112.452L163.75 88.1629L167.861 40.1534L153.316 43.3405C153.229 43.3589 153.138 43.3514 153.055 43.3189C152.972 43.2865 152.901 43.2305 152.849 43.1578L149.692 38.905L107.793 46.9437V53.4702C107.792 53.5794 107.754 53.6849 107.683 53.7684C107.613 53.8519 107.515 53.908 107.408 53.927L66.5132 61.0015Z" fill="#1F2223"/>
<path d="M86.3462 98.8713V59.9968C86.3462 59.9968 154.006 47.8168 154.199 48.3751C154.392 48.9333 154.199 101.5 154.199 101.5L86.3462 98.8713Z" fill="white"/>
<path d="M154.199 101.967L86.3462 99.3279C86.2286 99.3227 86.1176 99.2723 86.0362 99.1872C85.9549 99.1021 85.9096 98.9889 85.9097 98.8712V59.9967C85.908 59.8884 85.9448 59.783 86.0136 59.6993C86.0824 59.6157 86.1787 59.5592 86.2853 59.5399C86.4578 59.5399 103.398 56.4949 120.146 53.521C154.412 47.4919 154.463 47.6644 154.656 48.2328C154.849 48.8012 154.737 85.6762 154.656 101.5C154.656 101.622 154.608 101.739 154.523 101.827C154.437 101.914 154.321 101.964 154.199 101.967ZM86.8131 98.4246L153.732 101.023C153.793 83.8999 153.874 52.7394 153.732 48.8418C149.083 49.258 104.626 57.175 86.742 60.3925L86.8131 98.4246Z" fill="#1F2223"/>
<path d="M93.035 118.298C92.7508 116.583 92.4666 62.9503 92.4666 62.9503L124.947 57.3069L126.378 51.6127L174.184 41.0669L177.524 45.5938L192.677 42.2849L188.486 91.2485L93.035 118.298Z" fill="#DEE5EB"/>
<path d="M93.0351 118.765C92.9493 118.762 92.8656 118.738 92.7915 118.694C92.7355 118.66 92.6874 118.614 92.6507 118.56C92.6139 118.506 92.5892 118.444 92.5784 118.38C92.2942 116.644 92.0201 65.1428 91.9998 62.9606C91.9981 62.8496 92.036 62.7416 92.1067 62.6561C92.1774 62.5705 92.2762 62.5129 92.3855 62.4937L124.571 56.901L125.931 51.5012C125.954 51.4198 125.998 51.3459 126.059 51.2871C126.119 51.2282 126.194 51.1865 126.276 51.1663L174.083 40.6204C174.171 40.6001 174.262 40.6056 174.347 40.6362C174.431 40.6668 174.505 40.7213 174.56 40.793L177.717 45.0763L192.586 41.8282C192.657 41.8139 192.731 41.8156 192.801 41.8332C192.871 41.8507 192.936 41.8837 192.992 41.9298C193.044 41.9812 193.085 42.0431 193.111 42.1114C193.137 42.1796 193.149 42.2526 193.145 42.3256L188.953 91.2892C188.944 91.3827 188.908 91.4715 188.848 91.5439C188.788 91.6163 188.708 91.669 188.618 91.6952L93.2077 118.745L93.0351 118.765ZM92.9336 63.3463C93.025 80.9464 93.2483 113.081 93.4614 117.7L188.11 90.8832L192.17 42.8737L177.625 46.0101C177.538 46.0291 177.446 46.023 177.362 45.9924C177.277 45.9619 177.203 45.9082 177.148 45.8375L173.992 41.5441L126.764 52.0087L125.393 57.4186C125.369 57.5053 125.321 57.5834 125.254 57.6443C125.188 57.7052 125.106 57.7465 125.018 57.7638L92.9336 63.3463Z" fill="#1F2223"/>
<path d="M46.1726 62.9504L52.4555 128.966L119.334 158.98L115.903 83.2403L46.1726 62.9504Z" fill="#87FF53"/>
<path d="M119.334 159.436C119.27 159.451 119.204 159.451 119.141 159.436L52.2728 129.433C52.1976 129.401 52.1326 129.349 52.0844 129.283C52.0362 129.217 52.0066 129.139 51.9987 129.057L45.7057 63.0824C45.7005 63.0059 45.7134 62.9293 45.7434 62.8587C45.7734 62.7882 45.8196 62.7257 45.8783 62.6764C45.9361 62.6268 46.0054 62.5925 46.0798 62.5765C46.1543 62.5606 46.2315 62.5635 46.3046 62.585L116.035 82.885C116.126 82.9109 116.207 82.9651 116.266 83.04C116.324 83.1148 116.357 83.2063 116.36 83.3012L119.791 159.04C119.794 159.12 119.777 159.199 119.742 159.27C119.706 159.341 119.653 159.402 119.588 159.446C119.504 159.468 119.416 159.465 119.334 159.436ZM52.8919 128.662L118.867 158.249L115.457 83.5651L46.7004 63.5594L52.8919 128.662Z" fill="#1F2223"/>
<path d="M117.903 162.979L113.904 67.8123L117.426 69.0505L121.333 164.207L117.903 162.979Z" fill="#87FF53"/>
<path d="M121.333 164.663H121.171L117.75 163.435C117.662 163.405 117.586 163.349 117.53 163.275C117.473 163.201 117.441 163.112 117.436 163.019L113.437 67.8527C113.432 67.7757 113.447 67.6987 113.481 67.6294C113.515 67.56 113.566 67.5005 113.63 67.4568C113.69 67.4124 113.761 67.3836 113.835 67.373C113.909 67.3624 113.985 67.3703 114.056 67.3959L117.578 68.6342C117.667 68.6632 117.744 68.7186 117.8 68.793C117.857 68.8674 117.889 68.9572 117.893 69.0504L121.79 164.207C121.794 164.281 121.78 164.355 121.748 164.423C121.716 164.49 121.668 164.548 121.607 164.592C121.526 164.644 121.43 164.669 121.333 164.663ZM118.349 162.633L120.836 163.527L116.979 69.3549L114.391 68.4414L118.349 162.633Z" fill="#1F2223"/>
<path d="M121.333 164.207L218.073 126.824L219.352 44.5178L117.426 69.0504L121.333 164.207Z" fill="#87FF53"/>
<path d="M121.333 164.664C121.243 164.667 121.155 164.642 121.079 164.593C121.016 164.552 120.964 164.496 120.927 164.431C120.89 164.365 120.869 164.292 120.866 164.217L116.959 69.0709C116.953 68.9637 116.986 68.8582 117.051 68.7728C117.116 68.6875 117.209 68.6277 117.314 68.604L219.25 44.0714C219.319 44.0558 219.39 44.056 219.459 44.0718C219.527 44.0876 219.591 44.1187 219.646 44.1628C219.701 44.2063 219.745 44.262 219.775 44.3253C219.805 44.3887 219.82 44.4581 219.819 44.5282L218.56 126.835C218.559 126.927 218.53 127.016 218.477 127.092C218.425 127.168 218.351 127.227 218.266 127.261L121.526 164.633C121.465 164.657 121.399 164.667 121.333 164.664ZM117.902 69.416L121.77 163.537L217.606 126.51L218.885 45.1067L117.902 69.416Z" fill="#1F2223"/>
<path d="M113.904 67.8122L215.495 43.239L219.352 44.5179L117.426 69.0505L113.904 67.8122Z" fill="#87FF53"/>
<path d="M117.426 69.5174C117.375 69.527 117.324 69.527 117.273 69.5174L113.751 68.2791C113.656 68.2481 113.574 68.1865 113.517 68.104C113.46 68.0215 113.432 67.9225 113.437 67.8224C113.439 67.7217 113.475 67.6248 113.54 67.5474C113.604 67.47 113.693 67.4167 113.792 67.3961L215.383 42.7823C215.47 42.762 215.56 42.762 215.647 42.7823L219.504 44.0714C219.599 44.1024 219.682 44.164 219.739 44.2465C219.796 44.3291 219.824 44.428 219.819 44.5281C219.815 44.6296 219.778 44.7271 219.714 44.8059C219.65 44.8847 219.562 44.9404 219.464 44.9646L117.537 69.4971L117.426 69.5174ZM115.538 67.8934L117.446 68.5633L217.667 44.4469L215.515 43.7161L115.538 67.8934Z" fill="#1F2223"/>
<path d="M162.613 102.068C161.698 102.044 160.823 101.682 160.157 101.053C159.803 100.758 159.52 100.387 159.33 99.9666C159.14 99.5464 159.048 99.0885 159.061 98.6276C159.132 96.9528 158.503 82.6007 158.492 82.4485C158.487 82.3247 158.523 82.2026 158.595 82.1016C158.666 82.0005 158.77 81.9261 158.888 81.8902L186.232 73.7702C186.317 73.7444 186.406 73.7392 186.492 73.7551C186.579 73.771 186.66 73.8075 186.73 73.8616C186.801 73.9125 186.859 73.9794 186.9 74.057C186.94 74.1346 186.962 74.2206 186.963 74.3082C186.963 74.9578 186.963 90.2132 186.963 91.2079C186.927 91.9302 186.725 92.6345 186.373 93.2663C186.021 93.8981 185.528 94.4405 184.933 94.8518C183.553 95.9277 164.633 101.805 162.999 102.048C162.871 102.067 162.742 102.074 162.613 102.068ZM159.69 82.8748C159.802 85.3615 160.309 97.1355 160.238 98.6986C160.238 98.9943 160.302 99.2865 160.427 99.5548C160.551 99.823 160.733 100.061 160.959 100.252C161.223 100.494 161.534 100.679 161.873 100.794C162.212 100.909 162.571 100.953 162.928 100.921C164.694 100.658 183.228 94.8315 184.334 93.9484C184.787 93.6317 185.162 93.2155 185.429 92.7317C185.697 92.2479 185.85 91.7093 185.877 91.1572C185.877 90.3046 185.877 78.2159 185.877 75.0491L159.69 82.8748Z" fill="white"/>
<path d="M193.094 107.062C192.422 107.068 191.78 107.337 191.305 107.811C190.831 108.286 190.562 108.928 190.556 109.6C190.551 110.232 190.796 110.841 191.236 111.295L190.089 111.853L185.573 113.883C182.528 115.223 179.483 116.512 176.356 117.649C173.264 118.782 170.105 119.725 166.897 120.47C164.927 120.907 161.527 122.013 159.842 120.349C157.518 118.065 153.925 121.648 156.259 123.942C159.396 126.987 163.892 126.317 167.79 125.464C172.223 124.463 176.568 123.106 180.782 121.404C185.045 119.719 189.287 117.913 193.408 115.923C195.195 115.071 196.89 113.558 196.951 111.437C196.993 110.895 196.927 110.349 196.755 109.833C196.583 109.317 196.308 108.841 195.949 108.433C195.589 108.025 195.151 107.693 194.66 107.458C194.17 107.222 193.637 107.088 193.094 107.062Z" fill="#1F2223"/>
<path d="M22.3302 58.9512C22.2082 58.9613 22.0862 58.9317 21.9824 58.8668C21.8785 58.802 21.7984 58.7053 21.7539 58.5913C21.7095 58.4772 21.703 58.3519 21.7355 58.2338C21.768 58.1158 21.8377 58.0114 21.9343 57.9362L40.6103 39.788C40.7213 39.7063 40.8582 39.6676 40.9956 39.6793C41.133 39.691 41.2614 39.7522 41.357 39.8515C41.4526 39.9508 41.5089 40.0815 41.5153 40.2192C41.5217 40.3569 41.4778 40.4923 41.3919 40.6L22.726 58.7888C22.6743 58.8411 22.6126 58.8824 22.5446 58.9103C22.4766 58.9382 22.4037 58.9521 22.3302 58.9512Z" fill="#DEE5EB"/>
<path d="M28.4302 88.4573C28.3444 88.4585 28.2594 88.4399 28.182 88.4029C28.1045 88.366 28.0366 88.3116 27.9836 88.2442C27.892 88.1266 27.8502 87.9777 27.8673 87.8296C27.8844 87.6815 27.9589 87.5461 28.0749 87.4525L38.367 79.2411C38.4233 79.183 38.4914 79.1376 38.5666 79.1078C38.6419 79.0781 38.7226 79.0648 38.8034 79.0688C38.8843 79.0728 38.9633 79.094 39.0352 79.131C39.1072 79.168 39.1704 79.2199 39.2207 79.2833C39.271 79.3467 39.3072 79.4201 39.3268 79.4986C39.3464 79.5771 39.3491 79.6589 39.3346 79.7385C39.32 79.8181 39.2887 79.8937 39.2426 79.9602C39.1966 80.0267 39.1368 80.0826 39.0674 80.1242L28.755 88.3355C28.6628 88.4102 28.5488 88.453 28.4302 88.4573Z" fill="#DEE5EB"/>
</svg>
