<svg width="32" height="32" viewBox="0 0 32 32" fill="none" xmlns="http://www.w3.org/2000/svg">
<path d="M26.6987 10.2844L19.7072 3.29285C19.6971 3.28284 19.6863 3.27405 19.6759 3.26453C19.6624 3.25214 19.6493 3.23932 19.6351 3.22766C19.6257 3.21997 19.6157 3.21326 19.606 3.20587C19.5897 3.19336 19.5735 3.18066 19.5564 3.16913C19.5486 3.16394 19.5404 3.15961 19.5326 3.15466C19.5128 3.14215 19.4929 3.1297 19.4722 3.11853C19.4665 3.11554 19.4607 3.11322 19.4551 3.11035C19.4316 3.09827 19.4079 3.08667 19.3835 3.07648C19.3797 3.07489 19.3757 3.07373 19.3718 3.0722C19.3455 3.06164 19.3188 3.05176 19.2915 3.04345C19.2875 3.04223 19.2834 3.0415 19.2795 3.04034C19.2524 3.03246 19.225 3.0252 19.1969 3.01959C19.188 3.01782 19.1788 3.01703 19.1698 3.0155C19.1466 3.01147 19.1235 3.00738 19.0999 3.00506C19.0667 3.00169 19.0334 3 19 3H6.99902C6.46878 3.00061 5.96042 3.21151 5.58548 3.58646C5.21054 3.9614 4.99963 4.46975 4.99902 5V27C4.99963 27.5302 5.21054 28.0386 5.58548 28.4135C5.96042 28.7885 6.46878 28.9994 6.99902 29H25C25.5302 28.9994 26.0386 28.7885 26.4135 28.4135C26.7885 28.0386 26.9994 27.5302 27 27V11.0193C27.0001 11.0128 27.001 11.0065 27.001 11C27.0011 10.8665 26.9744 10.7344 26.9224 10.6115C26.8705 10.4886 26.7944 10.3773 26.6987 10.2844ZM20 22H12C11.7348 22 11.4804 21.8946 11.2929 21.7071C11.1054 21.5196 11 21.2652 11 21C11 20.7348 11.1054 20.4804 11.2929 20.2929C11.4804 20.1054 11.7348 20 12 20H20C20.2652 20 20.5196 20.1054 20.7071 20.2929C20.8946 20.4804 21 20.7348 21 21C21 21.2652 20.8946 21.5196 20.7071 21.7071C20.5196 21.8946 20.2652 22 20 22ZM20 18H12C11.7348 18 11.4804 17.8946 11.2929 17.7071C11.1054 17.5196 11 17.2652 11 17C11 16.7348 11.1054 16.4804 11.2929 16.2929C11.4804 16.1054 11.7348 16 12 16H20C20.2652 16 20.5196 16.1054 20.7071 16.2929C20.8946 16.4804 21 16.7348 21 17C21 17.2652 20.8946 17.5196 20.7071 17.7071C20.5196 17.8946 20.2652 18 20 18ZM19 11V5.41419L24.5857 11H19Z" fill="#74F73C"/>
</svg>
