<svg width="960" height="642" viewBox="0 0 960 642" fill="none" xmlns="http://www.w3.org/2000/svg">
<rect width="960" height="642" fill="#164252"/>
<path d="M405.711 461.077C460.167 461.077 504.312 457.717 504.312 453.571C504.312 449.425 460.167 446.065 405.711 446.065C351.256 446.065 307.111 449.425 307.111 453.571C307.111 457.717 351.256 461.077 405.711 461.077Z" fill="#E6E7E8"/>
<path d="M418.601 458.402C488.503 458.402 545.17 401.735 545.17 331.833C545.17 261.931 488.503 205.264 418.601 205.264C348.699 205.264 292.031 261.931 292.031 331.833C292.031 401.735 348.699 458.402 418.601 458.402Z" fill="#96FF68"/>
<path d="M418.601 459.255C393.398 459.258 368.761 451.788 347.804 437.788C326.848 423.789 310.513 403.89 300.866 380.607C291.22 357.324 288.694 331.703 293.609 306.984C298.523 282.266 310.658 259.56 328.477 241.738C346.297 223.916 369.001 211.779 393.719 206.861C418.437 201.943 444.058 204.465 467.342 214.109C490.627 223.753 510.528 240.085 524.53 261.039C538.532 281.994 546.006 306.63 546.006 331.833C545.971 365.613 532.537 398.001 508.652 421.889C484.767 445.777 452.381 459.215 418.601 459.255ZM418.601 206.099C393.728 206.096 369.414 213.469 348.731 227.285C328.049 241.102 311.929 260.741 302.409 283.719C292.889 306.698 290.398 331.983 295.249 356.378C300.101 380.773 312.078 403.181 329.665 420.768C347.253 438.356 369.661 450.333 394.056 455.184C418.45 460.036 443.736 457.544 466.714 448.024C489.693 438.505 509.332 422.384 523.148 401.702C536.965 381.02 544.338 356.705 544.334 331.833C544.294 298.498 531.035 266.541 507.464 242.97C483.893 219.399 451.935 206.139 418.601 206.099Z" fill="#231F20"/>
<path d="M467.617 211.667L453.674 226.712C445.984 235.071 452.705 253.795 468.72 268.507C484.736 283.218 503.928 288.434 511.618 280.092L525.56 265.046L467.617 211.667Z" fill="#231F20"/>
<path d="M501.052 284.973C491.59 284.973 479.085 279.323 468.135 269.225C460.831 262.748 455.14 254.653 451.518 245.587C448.576 237.378 449.11 230.541 453.056 226.211L466.998 211.165C467.157 211.011 467.37 210.925 467.592 210.925C467.813 210.925 468.026 211.011 468.185 211.165L526.112 264.661C526.193 264.737 526.258 264.827 526.304 264.927C526.35 265.028 526.376 265.136 526.379 265.247C526.385 265.356 526.369 265.466 526.332 265.57C526.295 265.673 526.237 265.768 526.162 265.848L512.22 280.894C510.745 282.315 508.99 283.411 507.067 284.114C505.144 284.816 503.095 285.109 501.052 284.973ZM467.617 212.853L454.243 227.348C450.732 231.143 450.314 237.378 453.039 245.018C456.56 253.837 462.103 261.705 469.222 267.988C484.853 282.399 503.56 287.615 511.016 279.691L524.39 265.196L467.617 212.853Z" fill="#231F20"/>
<path d="M525.531 265.062C533.229 256.712 526.497 237.986 510.496 223.236C494.495 208.487 475.284 203.299 467.587 211.649C459.89 219.999 466.621 238.725 482.622 253.475C498.623 268.224 517.834 273.412 525.531 265.062Z" fill="#96FF68"/>
<path d="M514.995 269.844C505.533 269.844 493.028 264.193 482.078 254.096C465.761 239.05 459.007 219.775 467.032 211.098C475.056 202.422 494.8 207.604 511.116 222.633C527.433 237.662 534.187 256.971 526.162 265.648C524.698 267.09 522.948 268.209 521.024 268.932C519.1 269.654 517.046 269.965 514.995 269.844ZM478.216 208.49C476.375 208.376 474.531 208.651 472.803 209.296C471.074 209.941 469.501 210.942 468.185 212.235C460.813 220.226 467.55 238.465 483.231 252.875C498.912 267.286 517.569 272.502 525.025 264.578C532.398 256.57 525.677 238.348 509.98 223.937C499.28 214.007 487.193 208.49 478.233 208.49H478.216Z" fill="#231F20"/>
<path d="M611.121 388.238C609.641 388.24 608.193 387.806 606.958 386.989C605.724 386.172 604.758 385.008 604.181 383.645C603.605 382.281 603.443 380.778 603.717 379.323C603.991 377.868 604.688 376.526 605.721 375.466C612.977 367.993 616.521 361.707 616.22 356.759C615.836 350.072 608.095 343.803 599.887 337.149C586.764 326.483 568.775 311.872 577.669 287.18C581.459 277.324 585.985 267.768 591.211 258.593C605.705 231.56 610.72 220.042 585.209 206.2C568.491 197.105 550.419 199.112 531.428 212.118C521.859 218.852 513.364 226.996 506.235 236.275C505.656 237.076 504.926 237.756 504.084 238.275C503.243 238.794 502.308 239.142 501.333 239.299C500.357 239.457 499.36 239.421 498.398 239.193C497.436 238.965 496.529 238.55 495.728 237.972C494.926 237.393 494.247 236.663 493.728 235.821C493.209 234.98 492.861 234.045 492.703 233.07C492.546 232.094 492.582 231.097 492.81 230.135C493.037 229.173 493.452 228.266 494.031 227.465C509.796 205.648 550.637 170.24 592.331 192.976C631.968 214.542 617.307 241.741 604.384 265.731C599.53 274.252 595.311 283.12 591.762 292.262C586.747 306.221 595.106 313.995 609.316 325.463C619.681 333.822 630.397 342.582 631.182 355.873C631.734 365.335 626.919 375.182 616.454 385.965C615.047 387.398 613.13 388.216 611.121 388.238Z" fill="white"/>
<path d="M611.121 389.074C608.944 389.078 606.85 388.233 605.287 386.717C604.497 385.952 603.867 385.038 603.431 384.028C602.995 383.019 602.763 381.933 602.747 380.834C602.732 379.734 602.933 378.642 603.34 377.621C603.747 376.599 604.352 375.668 605.12 374.881C612.208 367.592 615.668 361.507 615.384 356.792C615.016 350.507 607.41 344.321 599.369 337.784C585.995 326.968 567.789 312.156 576.883 286.896C580.695 277.012 585.232 267.423 590.458 258.208C605.387 230.507 609.299 220.259 584.808 206.935C568.424 198.008 550.62 199.981 531.913 212.82C522.381 219.479 513.924 227.558 506.837 236.776C505.537 238.574 503.577 239.783 501.387 240.135C499.197 240.488 496.957 239.956 495.159 238.657C493.361 237.358 492.153 235.398 491.8 233.208C491.448 231.018 491.979 228.778 493.278 226.98C509.261 204.913 550.536 169.22 592.799 192.274C633.155 214.241 618.31 241.825 605.186 266.166C600.355 274.651 596.154 283.48 592.615 292.58C587.783 305.954 596.042 313.577 609.901 324.845C620.416 333.371 631.283 342.198 632.085 355.856C632.654 365.569 627.755 375.616 617.039 386.583C616.266 387.368 615.345 387.992 614.329 388.42C613.313 388.847 612.223 389.07 611.121 389.074ZM563.911 199.764C571.522 199.78 579.004 201.742 585.643 205.464C611.74 219.658 606.44 232.212 591.979 258.961C586.778 268.084 582.269 277.584 578.488 287.381C569.795 311.538 587.516 325.831 600.455 336.43C608.814 343.117 616.688 349.604 617.173 356.642C617.491 361.824 613.829 368.344 606.44 375.984C605.203 377.257 604.522 378.969 604.547 380.743C604.573 382.518 605.301 384.209 606.574 385.446C607.846 386.683 609.558 387.364 611.333 387.339C613.107 387.314 614.799 386.585 616.036 385.313C626.334 374.714 631.082 365.084 630.53 355.856C629.778 342.933 619.196 334.341 608.981 326.049C594.537 314.346 585.944 306.389 591.16 291.911C594.723 282.729 598.958 273.822 603.832 265.263C616.571 241.608 631.015 214.809 592.13 193.645C550.888 171.193 510.447 206.233 494.833 227.899C494.033 229.325 493.782 230.994 494.129 232.592C494.475 234.19 495.395 235.605 496.715 236.571C498.034 237.536 499.662 237.985 501.29 237.832C502.918 237.679 504.433 236.934 505.549 235.74C512.73 226.374 521.299 218.16 530.96 211.382C542.311 203.659 553.345 199.764 563.911 199.764Z" fill="#231F20"/>
<path d="M609.015 335.11L564.964 313.795L591.344 343.034L520.595 348.216L599.736 358.782L575.513 377.288L605.822 373.125L589.94 405.457L606.641 396.982L597.613 428.494L623.375 393.588L646.863 460.442L644.774 397.65L675.584 414.268L657.262 379.11L708.769 377.556L672.408 362.543L693.556 354.719L657.045 350.473L706.729 319.763L651.427 337.667L665.771 310.802L646.228 323.257L642.266 294.904L632.353 327.102L611.69 264.411L618.828 327.152L602.629 308.194L609.015 335.11Z" fill="#D1D3D4"/>
<path d="M646.864 461.278C646.692 461.278 646.524 461.225 646.384 461.126C646.243 461.027 646.136 460.888 646.078 460.726L623.125 395.36L598.299 428.996C598.178 429.151 598.007 429.26 597.816 429.305C597.625 429.351 597.424 429.33 597.246 429.247C597.073 429.155 596.936 429.008 596.857 428.829C596.778 428.65 596.762 428.45 596.811 428.26L605.304 398.603L590.258 406.193C590.102 406.273 589.925 406.302 589.752 406.277C589.579 406.251 589.419 406.171 589.293 406.05C589.168 405.928 589.083 405.77 589.052 405.597C589.022 405.425 589.046 405.248 589.121 405.09L604.317 374.162L575.613 378.107C575.43 378.136 575.244 378.102 575.083 378.011C574.922 377.92 574.796 377.777 574.727 377.606C574.656 377.435 574.644 377.246 574.692 377.067C574.741 376.889 574.847 376.731 574.994 376.62L597.613 359.333L520.445 349.052C520.241 349.02 520.055 348.917 519.92 348.761C519.786 348.605 519.711 348.406 519.709 348.2C519.717 347.99 519.801 347.791 519.946 347.64C520.091 347.489 520.286 347.397 520.495 347.38L589.539 342.365L564.345 314.313C564.216 314.17 564.139 313.987 564.129 313.794C564.119 313.602 564.176 313.412 564.29 313.256C564.404 313.101 564.569 312.989 564.756 312.941C564.942 312.893 565.14 312.911 565.315 312.992L607.795 333.555L601.826 308.345C601.788 308.165 601.81 307.977 601.888 307.811C601.967 307.644 602.099 307.509 602.263 307.425C602.427 307.341 602.614 307.314 602.795 307.347C602.976 307.38 603.141 307.472 603.264 307.609L617.675 324.494L610.871 264.461C610.824 264.239 610.867 264.008 610.991 263.818C611.115 263.629 611.309 263.496 611.531 263.449C611.753 263.403 611.984 263.446 612.173 263.57C612.363 263.694 612.496 263.888 612.542 264.11L632.369 324.293L641.514 294.586C641.532 294.364 641.637 294.159 641.806 294.015C641.975 293.87 642.195 293.799 642.417 293.817C642.638 293.835 642.844 293.94 642.988 294.109C643.132 294.278 643.204 294.498 643.186 294.72L646.981 321.786L665.37 310.083C665.524 309.986 665.705 309.942 665.886 309.957C666.067 309.972 666.238 310.046 666.373 310.167C666.509 310.295 666.601 310.463 666.634 310.646C666.667 310.83 666.64 311.019 666.557 311.187L653.183 336.263L706.496 318.994C706.691 318.93 706.903 318.941 707.092 319.025C707.28 319.108 707.431 319.258 707.515 319.445C707.606 319.628 707.624 319.839 707.565 320.035C707.506 320.23 707.375 320.396 707.198 320.498L659.536 349.921L693.656 353.883C693.878 353.859 694.1 353.924 694.274 354.063C694.448 354.203 694.56 354.406 694.584 354.627C694.609 354.849 694.544 355.071 694.404 355.245C694.265 355.419 694.062 355.531 693.84 355.555L674.699 362.627L709.087 376.82C709.308 376.86 709.505 376.986 709.634 377.171C709.762 377.356 709.812 377.585 709.772 377.806C709.732 378.028 709.606 378.225 709.421 378.353C709.236 378.482 709.008 378.532 708.786 378.492L658.633 379.996L676.337 413.983C676.418 414.142 676.447 414.322 676.419 414.498C676.391 414.674 676.307 414.837 676.18 414.962C676.053 415.087 675.89 415.168 675.714 415.193C675.537 415.219 675.357 415.187 675.2 415.104L645.66 399.071L647.7 460.425C647.706 460.624 647.64 460.818 647.514 460.972C647.388 461.126 647.21 461.229 647.014 461.261L646.864 461.278ZM623.459 392.735H623.576C623.727 392.757 623.87 392.82 623.987 392.918C624.105 393.015 624.194 393.143 624.245 393.287L645.978 454.992L644.072 397.634C644.066 397.488 644.099 397.344 644.166 397.215C644.234 397.086 644.334 396.977 644.456 396.898C644.586 396.825 644.733 396.786 644.883 396.786C645.032 396.786 645.179 396.825 645.309 396.898L673.729 412.228L656.51 379.512C656.444 379.385 656.409 379.245 656.409 379.102C656.409 378.959 656.444 378.819 656.51 378.692C656.577 378.57 656.676 378.467 656.797 378.397C656.917 378.326 657.055 378.289 657.195 378.291L704.807 376.854L672.057 363.329C671.901 363.267 671.767 363.16 671.673 363.022C671.579 362.883 671.528 362.719 671.528 362.552C671.528 362.384 671.579 362.22 671.673 362.082C671.767 361.943 671.901 361.836 672.057 361.774L689.928 355.171L656.877 351.326C656.706 351.303 656.545 351.228 656.416 351.112C656.288 350.995 656.198 350.843 656.159 350.674C656.126 350.504 656.145 350.329 656.213 350.171C656.282 350.013 656.397 349.879 656.543 349.788L700.343 322.705L651.628 338.487C651.468 338.538 651.297 338.54 651.136 338.492C650.975 338.444 650.832 338.349 650.725 338.219C650.621 338.089 650.555 337.932 650.538 337.766C650.52 337.6 650.55 337.432 650.625 337.283L663.481 313.243L646.613 323.976C646.489 324.041 646.352 324.076 646.212 324.076C646.072 324.076 645.934 324.041 645.81 323.976C645.684 323.919 645.575 323.831 645.493 323.72C645.411 323.608 645.359 323.478 645.342 323.34L641.882 298.715L633.088 327.319C633.035 327.49 632.928 327.639 632.783 327.744C632.639 327.849 632.465 327.905 632.286 327.904C632.114 327.89 631.948 327.829 631.807 327.729C631.666 327.629 631.554 327.494 631.483 327.336L613.378 272.352L619.58 327.035C619.597 327.21 619.557 327.386 619.468 327.537C619.379 327.688 619.244 327.808 619.083 327.878C618.922 327.948 618.743 327.966 618.571 327.929C618.399 327.892 618.243 327.801 618.126 327.67L604.183 311.337L609.767 334.892C609.805 335.046 609.796 335.207 609.743 335.356C609.689 335.504 609.593 335.634 609.466 335.728C609.346 335.833 609.197 335.898 609.039 335.916C608.881 335.934 608.721 335.903 608.58 335.828L568.458 316.386L591.98 342.432C592.085 342.547 592.155 342.691 592.182 342.845C592.209 342.999 592.191 343.157 592.13 343.301C592.074 343.449 591.977 343.576 591.849 343.669C591.721 343.761 591.569 343.813 591.411 343.819L528.804 348.467L599.937 357.946C600.1 357.968 600.253 358.039 600.375 358.149C600.498 358.26 600.584 358.404 600.623 358.564C600.668 358.723 600.663 358.891 600.609 359.047C600.555 359.202 600.455 359.337 600.322 359.434L578.589 376.018L605.705 372.29C605.858 372.27 606.013 372.292 606.155 372.354C606.296 372.416 606.418 372.515 606.507 372.641C606.586 372.769 606.627 372.917 606.627 373.067C606.627 373.217 606.586 373.365 606.507 373.493L591.729 403.585L606.19 396.263C606.334 396.188 606.498 396.158 606.66 396.175C606.821 396.192 606.975 396.256 607.101 396.359C607.227 396.462 607.32 396.599 607.369 396.754C607.418 396.91 607.421 397.076 607.377 397.232L599.636 424.282L622.64 393.12C622.724 393 622.837 392.904 622.969 392.839C623.1 392.775 623.246 392.745 623.392 392.752L623.459 392.735Z" fill="#231F20"/>
<path d="M506.552 233.533C506.406 233.532 506.263 233.493 506.137 233.42C506.011 233.347 505.906 233.242 505.833 233.115C503.525 229.001 502.327 224.358 502.356 219.641C502.36 219.531 502.386 219.423 502.432 219.323C502.478 219.224 502.544 219.134 502.624 219.059C502.705 218.985 502.8 218.927 502.903 218.889C503.006 218.851 503.116 218.834 503.225 218.838C503.335 218.843 503.442 218.869 503.541 218.915C503.639 218.961 503.728 219.027 503.801 219.108C503.874 219.189 503.931 219.283 503.967 219.386C504.003 219.489 504.018 219.599 504.011 219.708C504.05 224.118 505.2 228.448 507.355 232.296C507.463 232.489 507.49 232.717 507.431 232.93C507.371 233.143 507.23 233.324 507.037 233.433C506.888 233.511 506.72 233.546 506.552 233.533Z" fill="#D1D3D4"/>
<path d="M515.981 222.466C515.826 222.47 515.673 222.43 515.539 222.35C515.406 222.27 515.299 222.154 515.229 222.015C513.665 218.585 512.79 214.882 512.654 211.115C512.654 210.63 512.571 210.078 512.537 209.945C512.48 209.857 512.442 209.758 512.425 209.654C512.408 209.551 512.411 209.445 512.437 209.344C512.462 209.242 512.507 209.146 512.57 209.063C512.634 208.979 512.714 208.91 512.805 208.858C513.007 208.749 513.242 208.719 513.465 208.775C513.688 208.83 513.882 208.967 514.008 209.159C514.252 209.74 514.361 210.369 514.326 210.998C514.459 214.535 515.271 218.014 516.717 221.246C516.818 221.444 516.838 221.673 516.772 221.885C516.707 222.098 516.561 222.276 516.366 222.383C516.246 222.442 516.114 222.471 515.981 222.466Z" fill="#D1D3D4"/>
<path d="M526.496 213.756C526.313 213.758 526.134 213.698 525.988 213.586C525.842 213.474 525.739 213.316 525.694 213.138C523.454 204.779 524.34 201.101 524.39 200.951C524.443 200.729 524.582 200.537 524.777 200.418C524.971 200.299 525.205 200.262 525.426 200.315C525.648 200.368 525.84 200.508 525.959 200.702C526.078 200.896 526.115 201.13 526.062 201.352C526.062 201.352 525.276 204.796 527.366 212.72C527.422 212.933 527.392 213.159 527.283 213.35C527.173 213.541 526.993 213.681 526.781 213.74L526.496 213.756Z" fill="#D1D3D4"/>
<path d="M536.694 207.32C536.494 207.318 536.302 207.244 536.151 207.112C536.001 206.98 535.903 206.799 535.875 206.601C535.16 202.146 535.382 197.591 536.527 193.227C536.596 193.016 536.745 192.84 536.942 192.737C537.138 192.634 537.367 192.612 537.58 192.675C537.791 192.744 537.965 192.894 538.066 193.091C538.166 193.289 538.184 193.518 538.115 193.728C537.065 197.835 536.866 202.114 537.53 206.3C537.547 206.41 537.541 206.522 537.514 206.63C537.486 206.738 537.438 206.839 537.371 206.928C537.304 207.016 537.22 207.091 537.124 207.147C537.028 207.203 536.921 207.239 536.811 207.253L536.694 207.32Z" fill="#D1D3D4"/>
<path d="M547.995 201.987C547.801 201.983 547.614 201.913 547.465 201.789C547.316 201.664 547.214 201.492 547.176 201.302C546.023 195.25 550.102 188.73 550.269 188.462C550.389 188.277 550.578 188.146 550.794 188.099C551.01 188.052 551.236 188.092 551.423 188.212C551.518 188.268 551.601 188.343 551.666 188.433C551.731 188.522 551.778 188.624 551.803 188.731C551.828 188.839 551.831 188.951 551.811 189.06C551.792 189.169 551.751 189.273 551.69 189.365C551.69 189.365 547.795 195.584 548.815 201.068C548.836 201.175 548.836 201.286 548.814 201.394C548.792 201.502 548.748 201.604 548.686 201.694C548.624 201.785 548.544 201.862 548.451 201.921C548.358 201.98 548.254 202.019 548.146 202.037L547.995 201.987Z" fill="#D1D3D4"/>
<path d="M559.146 198.827C559.075 198.845 559 198.845 558.929 198.827C558.821 198.802 558.72 198.755 558.631 198.69C558.543 198.624 558.469 198.541 558.414 198.445C558.359 198.349 558.324 198.243 558.312 198.133C558.3 198.024 558.311 197.913 558.344 197.807C559.56 193.69 561.797 189.947 564.847 186.924C564.924 186.846 565.017 186.784 565.119 186.741C565.221 186.699 565.33 186.677 565.44 186.677C565.551 186.677 565.66 186.699 565.762 186.741C565.864 186.784 565.956 186.846 566.034 186.924C566.112 187.002 566.174 187.094 566.217 187.196C566.259 187.298 566.281 187.407 566.281 187.518C566.281 187.628 566.259 187.737 566.217 187.839C566.174 187.941 566.112 188.034 566.034 188.111C563.234 190.913 561.163 194.356 559.999 198.142C559.966 198.341 559.861 198.521 559.704 198.648C559.546 198.774 559.348 198.838 559.146 198.827Z" fill="#D1D3D4"/>
<path d="M570.999 200.182C570.817 200.185 570.64 200.126 570.497 200.014C570.322 199.884 570.205 199.691 570.17 199.475C570.136 199.26 570.187 199.039 570.313 198.861C570.547 198.56 575.763 191.505 580.344 189.482C580.446 189.424 580.559 189.387 580.676 189.375C580.792 189.363 580.91 189.375 581.022 189.412C581.134 189.448 581.236 189.508 581.323 189.587C581.41 189.666 581.48 189.762 581.527 189.87C581.574 189.977 581.598 190.094 581.598 190.211C581.597 190.329 581.572 190.445 581.523 190.552C581.475 190.659 581.404 190.754 581.316 190.832C581.228 190.91 581.125 190.968 581.013 191.004C576.8 192.859 571.668 199.78 571.617 199.847C571.544 199.944 571.451 200.023 571.344 200.081C571.238 200.139 571.12 200.173 570.999 200.182Z" fill="#D1D3D4"/>
<path d="M584.256 204.194C584.12 204.194 583.986 204.16 583.867 204.096C583.747 204.032 583.645 203.939 583.57 203.826C583.507 203.735 583.463 203.632 583.439 203.524C583.416 203.416 583.414 203.304 583.434 203.195C583.455 203.086 583.496 202.983 583.557 202.89C583.618 202.797 583.696 202.718 583.788 202.656C584.089 202.455 591.344 197.64 597.162 198.125C597.379 198.15 597.578 198.258 597.718 198.426C597.858 198.594 597.929 198.81 597.914 199.028C597.904 199.138 597.872 199.245 597.82 199.342C597.768 199.44 597.697 199.526 597.611 199.596C597.526 199.666 597.427 199.718 597.322 199.75C597.216 199.781 597.105 199.792 596.995 199.78C591.846 199.295 584.824 203.993 584.757 204.043C584.611 204.147 584.435 204.2 584.256 204.194Z" fill="#D1D3D4"/>
<path d="M597.045 213.138C596.886 213.139 596.73 213.093 596.597 213.007C596.463 212.921 596.358 212.798 596.293 212.653C596.245 212.553 596.217 212.445 596.211 212.334C596.206 212.224 596.222 212.113 596.259 212.009C596.297 211.905 596.354 211.809 596.429 211.727C596.503 211.646 596.593 211.579 596.694 211.533C601.172 209.564 606.121 208.92 610.954 209.677C611.062 209.699 611.164 209.742 611.255 209.803C611.346 209.865 611.424 209.944 611.484 210.035C611.545 210.127 611.587 210.229 611.608 210.337C611.629 210.445 611.628 210.556 611.606 210.663C611.558 210.879 611.428 211.067 611.244 211.188C611.06 211.31 610.836 211.355 610.62 211.315C606.142 210.629 601.562 211.208 597.396 212.987C597.291 213.062 597.171 213.113 597.045 213.138Z" fill="#D1D3D4"/>
<path d="M615.735 232.597C615.606 232.596 615.478 232.565 615.362 232.507C615.246 232.449 615.145 232.365 615.067 232.262C611.506 227.531 604.668 226.863 604.601 226.863C604.491 226.854 604.384 226.824 604.286 226.774C604.188 226.724 604.1 226.655 604.029 226.571C603.958 226.487 603.903 226.39 603.87 226.285C603.836 226.18 603.823 226.07 603.832 225.96C603.854 225.74 603.96 225.536 604.128 225.393C604.297 225.249 604.514 225.177 604.735 225.191C605.053 225.191 612.375 225.926 616.437 231.259C616.57 231.437 616.628 231.66 616.596 231.879C616.565 232.099 616.448 232.297 616.27 232.43C616.119 232.549 615.928 232.609 615.735 232.597Z" fill="#D1D3D4"/>
<path d="M610.269 251.354C610.159 251.35 610.051 251.324 609.951 251.278C609.851 251.232 609.762 251.167 609.687 251.086C609.613 251.005 609.555 250.91 609.517 250.807C609.479 250.704 609.462 250.595 609.466 250.485C609.466 248.312 606.975 245.653 601.793 242.577C601.174 242.21 601.074 242.143 600.94 241.959C600.827 241.789 600.779 241.584 600.806 241.382C600.833 241.18 600.933 240.995 601.087 240.861C601.241 240.728 601.439 240.655 601.643 240.657C601.846 240.659 602.043 240.736 602.194 240.872L602.646 241.14C604.802 242.41 611.305 246.272 611.138 250.552C611.134 250.661 611.108 250.769 611.062 250.869C611.016 250.969 610.951 251.059 610.87 251.133C610.789 251.208 610.694 251.266 610.591 251.303C610.488 251.341 610.379 251.359 610.269 251.354Z" fill="#D1D3D4"/>
<path d="M603.097 264.544C602.987 264.542 602.879 264.518 602.778 264.474C602.677 264.43 602.587 264.367 602.51 264.288C602.434 264.209 602.375 264.115 602.335 264.013C602.295 263.911 602.275 263.801 602.277 263.692C602.307 261.763 601.751 259.87 600.683 258.265C599.614 256.659 598.083 255.415 596.293 254.698C595.875 254.497 595.607 254.363 595.49 253.995C595.421 253.787 595.436 253.56 595.533 253.363C595.63 253.165 595.801 253.014 596.008 252.942C596.143 252.893 596.289 252.881 596.43 252.908C596.571 252.934 596.703 252.998 596.811 253.093L597.045 253.21C601.709 255.517 604.033 259.061 603.949 263.725C603.941 263.945 603.847 264.154 603.688 264.306C603.529 264.459 603.317 264.544 603.097 264.544Z" fill="#D1D3D4"/>
<path d="M597.513 275.862C597.297 275.862 597.089 275.779 596.933 275.629C596.777 275.48 596.686 275.276 596.677 275.06C596.603 273.125 595.989 271.25 594.904 269.646C593.82 268.041 592.309 266.773 590.542 265.982C589.856 265.598 589.522 265.414 589.371 265.012C589.331 264.91 589.31 264.801 589.312 264.691C589.313 264.581 589.337 264.473 589.38 264.372C589.424 264.271 589.487 264.18 589.565 264.103C589.644 264.027 589.737 263.966 589.839 263.926C590.009 263.862 590.194 263.853 590.368 263.901C590.542 263.949 590.697 264.052 590.809 264.193L591.344 264.511C593.367 265.44 595.092 266.911 596.329 268.761C597.565 270.612 598.264 272.769 598.349 274.993C598.353 275.103 598.336 275.212 598.298 275.315C598.26 275.419 598.202 275.513 598.128 275.594C598.053 275.675 597.964 275.74 597.864 275.786C597.764 275.832 597.656 275.858 597.546 275.862H597.513Z" fill="#D1D3D4"/>
<path d="M593.2 284.004C593.041 284.003 592.887 283.956 592.753 283.871C592.62 283.785 592.514 283.663 592.448 283.519C589.271 276.832 583.453 278.337 583.219 278.403C582.998 278.461 582.762 278.428 582.565 278.312C582.367 278.196 582.224 278.007 582.166 277.785C582.109 277.563 582.141 277.328 582.257 277.13C582.373 276.933 582.563 276.789 582.785 276.732C585.057 276.258 587.424 276.602 589.467 277.703C591.51 278.804 593.099 280.592 593.952 282.75C594.001 282.849 594.029 282.956 594.036 283.066C594.043 283.176 594.028 283.286 593.992 283.39C593.957 283.494 593.901 283.59 593.828 283.672C593.755 283.755 593.667 283.822 593.568 283.87C593.455 283.939 593.33 283.984 593.2 284.004Z" fill="#D1D3D4"/>
<path d="M588.987 296.007C588.806 296.01 588.628 295.952 588.483 295.843C588.338 295.734 588.233 295.58 588.185 295.405C586.931 291.192 579.124 289.888 579.04 289.872C578.818 289.836 578.62 289.714 578.488 289.532C578.357 289.35 578.303 289.124 578.338 288.902C578.373 288.68 578.496 288.482 578.677 288.35C578.859 288.218 579.086 288.164 579.308 288.2C579.659 288.2 588.252 289.671 589.79 294.887C589.847 295.1 589.82 295.326 589.714 295.52C589.608 295.713 589.432 295.858 589.221 295.923L588.987 296.007Z" fill="#D1D3D4"/>
<path d="M577.82 306.288C577.598 306.31 577.377 306.244 577.204 306.103C577.032 305.961 576.922 305.758 576.9 305.536C576.878 305.314 576.945 305.093 577.086 304.92C577.227 304.748 577.431 304.639 577.653 304.617C577.97 304.617 585.359 303.095 589.204 304.249C589.32 304.27 589.431 304.315 589.528 304.382C589.625 304.449 589.707 304.535 589.768 304.636C589.83 304.737 589.869 304.849 589.884 304.966C589.899 305.084 589.888 305.202 589.854 305.315C589.82 305.428 589.762 305.532 589.684 305.621C589.607 305.71 589.511 305.781 589.404 305.83C589.297 305.88 589.18 305.906 589.062 305.907C588.945 305.908 588.828 305.884 588.72 305.837C585.276 304.817 578.054 306.238 577.987 306.255L577.82 306.288Z" fill="#D1D3D4"/>
<path d="M585.827 321.669C585.646 321.671 585.469 321.614 585.323 321.505C585.178 321.396 585.073 321.242 585.025 321.067C584.994 320.961 584.985 320.851 584.997 320.742C585.008 320.633 585.042 320.527 585.095 320.431C585.147 320.334 585.219 320.25 585.304 320.181C585.39 320.112 585.488 320.061 585.593 320.03C585.944 319.93 593.952 317.64 598.315 317.723C598.425 317.725 598.534 317.749 598.634 317.793C598.735 317.837 598.826 317.901 598.902 317.98C598.978 318.059 599.038 318.152 599.078 318.255C599.117 318.357 599.137 318.466 599.135 318.576C599.14 318.688 599.121 318.799 599.08 318.903C599.038 319.007 598.975 319.101 598.894 319.179C598.813 319.256 598.717 319.316 598.612 319.353C598.506 319.39 598.394 319.405 598.282 319.395C594.337 319.295 586.128 321.618 586.045 321.635C585.976 321.662 585.901 321.674 585.827 321.669Z" fill="#D1D3D4"/>
<path d="M332.655 265.38C332.273 265.382 331.901 265.252 331.602 265.012C331.43 264.875 331.288 264.704 331.182 264.511C331.076 264.317 331.01 264.105 330.987 263.886C330.963 263.667 330.984 263.445 331.046 263.234C331.109 263.023 331.213 262.826 331.351 262.655C370.621 213.673 424.552 217.969 425.154 218.002C425.374 218.022 425.587 218.085 425.782 218.187C425.978 218.29 426.151 218.429 426.292 218.598C426.433 218.768 426.54 218.963 426.606 219.173C426.672 219.384 426.695 219.605 426.675 219.825C426.656 220.044 426.593 220.258 426.491 220.453C426.388 220.648 426.249 220.821 426.079 220.963C425.91 221.104 425.715 221.211 425.504 221.276C425.294 221.342 425.073 221.366 424.853 221.346C424.335 221.346 372.126 217.2 334.026 264.812C333.857 265.006 333.645 265.158 333.407 265.257C333.17 265.355 332.912 265.397 332.655 265.38Z" fill="white"/>
<path d="M320.869 285.893C320.753 285.909 320.635 285.909 320.518 285.893C320.086 285.797 319.71 285.534 319.472 285.161C319.234 284.788 319.153 284.336 319.248 283.903C320.395 280.078 322.047 276.424 324.163 273.037C324.25 272.81 324.385 272.605 324.559 272.435C324.733 272.266 324.942 272.137 325.172 272.056C325.401 271.976 325.645 271.946 325.887 271.97C326.129 271.994 326.362 272.07 326.572 272.193C326.781 272.316 326.961 272.484 327.1 272.683C327.238 272.883 327.331 273.111 327.372 273.35C327.413 273.59 327.402 273.836 327.338 274.07C327.275 274.305 327.161 274.523 327.005 274.709C325.097 277.783 323.586 281.086 322.508 284.539C322.434 284.919 322.23 285.263 321.931 285.51C321.633 285.757 321.257 285.892 320.869 285.893Z" fill="white"/>
<path d="M660.004 291.944C659.932 291.959 659.858 291.959 659.786 291.944C659.679 291.916 659.579 291.866 659.492 291.798C659.404 291.73 659.331 291.645 659.277 291.549C659.222 291.452 659.188 291.346 659.175 291.236C659.162 291.126 659.171 291.014 659.201 290.908L670.502 248.529C670.529 248.423 670.577 248.323 670.644 248.235C670.71 248.148 670.793 248.075 670.888 248.021C670.983 247.966 671.089 247.931 671.197 247.918C671.306 247.905 671.417 247.913 671.522 247.944C671.629 247.971 671.729 248.019 671.817 248.085C671.905 248.151 671.979 248.234 672.035 248.329C672.091 248.423 672.127 248.528 672.143 248.637C672.158 248.746 672.152 248.857 672.124 248.963L660.873 291.326C660.82 291.513 660.705 291.676 660.547 291.788C660.389 291.9 660.197 291.956 660.004 291.944Z" fill="#D1D3D4"/>
<path d="M545.17 414.619C544.989 414.613 544.815 414.549 544.673 414.436C544.532 414.323 544.431 414.167 544.386 413.992C544.34 413.817 544.353 413.631 544.422 413.464C544.492 413.297 544.613 413.156 544.769 413.064L570.598 398.687C570.791 398.579 571.019 398.551 571.232 398.611C571.445 398.67 571.626 398.812 571.735 399.004C571.79 399.099 571.827 399.205 571.841 399.314C571.855 399.423 571.847 399.534 571.818 399.64C571.788 399.747 571.737 399.846 571.668 399.932C571.599 400.018 571.514 400.089 571.417 400.141L545.521 414.619C545.405 414.642 545.286 414.642 545.17 414.619Z" fill="#D1D3D4"/>
<path d="M605.939 454.624H605.688C605.477 454.555 605.301 454.406 605.198 454.209C605.095 454.013 605.073 453.784 605.136 453.571L609.984 438.124C610.054 437.913 610.202 437.737 610.399 437.634C610.596 437.531 610.825 437.509 611.038 437.572C611.248 437.641 611.423 437.79 611.523 437.988C611.623 438.185 611.641 438.415 611.573 438.625L606.741 454.072C606.68 454.235 606.57 454.375 606.427 454.474C606.283 454.573 606.113 454.625 605.939 454.624Z" fill="#D1D3D4"/>
<path d="M714.002 407.463C713.874 407.47 713.746 407.441 713.634 407.38L687.889 394.507C687.79 394.459 687.701 394.392 687.628 394.31C687.555 394.227 687.499 394.131 687.464 394.027C687.428 393.923 687.413 393.813 687.42 393.703C687.427 393.593 687.456 393.486 687.504 393.387C687.608 393.189 687.785 393.04 687.997 392.971C688.21 392.902 688.441 392.919 688.641 393.019L714.369 405.892C714.468 405.94 714.557 406.007 714.63 406.09C714.703 406.172 714.758 406.268 714.794 406.372C714.83 406.476 714.845 406.586 714.838 406.696C714.831 406.806 714.802 406.913 714.754 407.012C714.681 407.148 714.573 407.262 714.44 407.342C714.308 407.421 714.156 407.463 714.002 407.463Z" fill="#D1D3D4"/>
<path d="M714.002 341.863H695.796C695.574 341.863 695.362 341.775 695.205 341.619C695.048 341.462 694.96 341.249 694.96 341.028C694.96 340.806 695.048 340.593 695.205 340.436C695.362 340.28 695.574 340.192 695.796 340.192H714.002C714.223 340.192 714.436 340.28 714.593 340.436C714.749 340.593 714.837 340.806 714.837 341.028C714.837 341.249 714.749 341.462 714.593 341.619C714.436 341.775 714.223 341.863 714.002 341.863Z" fill="#D1D3D4"/>
<path d="M570.999 363.262H550.938C550.716 363.262 550.503 363.174 550.347 363.017C550.19 362.861 550.102 362.648 550.102 362.426C550.102 362.205 550.19 361.992 550.347 361.835C550.503 361.678 550.716 361.59 550.938 361.59H570.999C571.219 361.595 571.429 361.684 571.585 361.84C571.741 361.996 571.83 362.206 571.835 362.426C571.835 362.648 571.747 362.861 571.59 363.017C571.433 363.174 571.221 363.262 570.999 363.262Z" fill="#D1D3D4"/>
<path d="M665.654 432.891C665.489 432.892 665.327 432.844 665.189 432.751C665.052 432.659 664.946 432.527 664.885 432.373L659.201 417.962C659.16 417.86 659.14 417.751 659.142 417.641C659.143 417.531 659.166 417.423 659.21 417.322C659.253 417.221 659.316 417.129 659.395 417.053C659.474 416.976 659.567 416.916 659.669 416.875C659.876 416.798 660.104 416.803 660.307 416.89C660.51 416.978 660.67 417.14 660.756 417.344L666.406 431.788C666.447 431.891 666.466 432.001 666.463 432.111C666.461 432.222 666.436 432.331 666.391 432.432C666.346 432.533 666.281 432.625 666.201 432.7C666.12 432.776 666.025 432.835 665.922 432.874L665.654 432.891Z" fill="#D1D3D4"/>
<path d="M633.322 285.023C633.101 285.023 632.888 284.935 632.731 284.779C632.574 284.622 632.486 284.409 632.486 284.188V263.708C632.486 263.487 632.574 263.274 632.731 263.117C632.888 262.961 633.101 262.873 633.322 262.873C633.544 262.873 633.757 262.961 633.913 263.117C634.07 263.274 634.158 263.487 634.158 263.708V284.221C634.149 284.437 634.058 284.641 633.902 284.791C633.746 284.94 633.538 285.024 633.322 285.023Z" fill="#D1D3D4"/>
</svg>
